<svg width="158" height="158" viewBox="0 0 158 158" fill="none" xmlns="http://www.w3.org/2000/svg">
<path d="M79.2058 146.381C115.77 146.381 145.412 116.746 145.412 80.1904C145.412 43.6344 115.77 14 79.2058 14C42.6414 14 13 43.6344 13 80.1904C13 116.746 42.6414 146.381 79.2058 146.381Z" fill="url(#paint0_linear_0_1)"/>
<path d="M79 157C122.078 157 157 122.078 157 79C157 35.9218 122.078 1 79 1C35.9218 1 1 35.9218 1 79C1 122.078 35.9218 157 79 157Z" stroke="#555555" stroke-width="1.5" stroke-dasharray="5 5"/>
<g clip-path="url(#clip0_0_1)">
<path d="M71 87C71 87.5519 71.448 87.9999 71.9999 87.9999H76C76.552 87.9999 77 87.5519 77 87V81C77 80.448 76.552 80 76 80H72C71.4481 80 71.0001 80.448 71.0001 81L71 87ZM73 82H75V86H73V82Z" fill="white"/>
<path d="M72 76H76C76.552 76 77 75.552 77 75.0001V69.0001C77 68.4481 76.552 68.0001 76 68.0001H72C71.4481 68.0001 71.0001 68.4481 71.0001 69.0001V75.0001C71 75.552 71.448 76 72 76ZM73 70H75V74H73V70Z" fill="white"/>
<path d="M64.515 68.857L79 60.166L93.485 68.857C93.646 68.954 93.824 69 93.9989 69C94.3389 69 94.67 68.827 94.857 68.5149C95.142 68.0409 94.988 67.427 94.515 67.1429L80 58.434V52H85V54.0001H82C81.448 54.0001 81 54.4481 81 55C81 55.552 81.448 56 82 56H86C86.5519 56 86.9999 55.552 86.9999 55V51C86.9999 50.448 86.5519 50 86 50H79C78.448 50 78 50.448 78 51V58.434L63.4851 67.143C63.0121 67.427 62.8581 68.041 63.1431 68.515C63.426 68.988 64.042 69.142 64.515 68.857Z" fill="white"/>
<path d="M60 88C60.552 88 61 87.552 61 87.0001V81.0001C61 80.4481 60.552 80.0001 60 80.0001H56C55.448 80.0001 55 80.4481 55 81.0001V83C55 83.552 55.448 84 56 84C56.5519 84 56.9999 83.552 56.9999 83V82H59V87.0001C59 87.552 59.448 88 60 88Z" fill="white"/>
<path d="M67 101V72C67 71.448 66.552 71 66 71C65.4481 71 65.0001 71.448 65.0001 72V101C65.0001 101.552 65.4481 102 66 102C66.552 102 67 101.552 67 101Z" fill="white"/>
<path d="M62 106H95.9999C96.5519 106 96.9999 105.552 96.9999 105C96.9999 104.448 96.5519 104 95.9999 104H86.9999V94.0002H87.9999C88.5518 94.0002 88.9998 93.5521 88.9998 93.0002C88.9998 92.4482 88.5518 92.0002 87.9999 92.0002H70C69.448 92.0002 69 92.4482 69 93.0002C69 93.5521 69.448 94.0002 70 94.0002H71V104H62C61.448 104 61 104.448 61 105C61 105.552 61.448 106 62 106ZM80 100C80.5519 100 80.9999 99.552 80.9999 99.0001C80.9999 98.4481 80.5519 98.0001 80 98.0001V94.0002H85V104H80V100ZM73 94H78V98C77.4481 98 77.0001 98.448 77.0001 99C77.0001 99.5519 77.4481 99.9999 78 99.9999V104H73V94Z" fill="white"/>
<path d="M102 93H98.0001C97.4481 93 97.0001 93.448 97.0001 93.9999V99.9999C97.0001 100.552 97.4481 101 98.0001 101H102C102.552 101 103 100.552 103 99.9999V93.9999C103 93.448 102.552 93 102 93ZM101 99H98.9999V95H101V99Z" fill="white"/>
<path d="M102 81H98.0001C97.4481 81 97.0001 81.448 97.0001 81.9999V87.9999C97.0001 88.5519 97.4481 88.9999 98.0001 88.9999H102C102.552 88.9999 103 88.5519 103 87.9999V81.9999C103 81.448 102.552 81 102 81ZM101 87H98.9999V83H101V87Z" fill="white"/>
<path d="M100 108H58C57.448 108 57 108.448 57 109C57 109.552 57.448 110 58 110H100C100.552 110 101 109.552 101 109C101 108.448 100.552 108 100 108Z" fill="white"/>
<path d="M108 72C107.448 72 107 72.448 107 72.9999V73.9999H96C95.4481 73.9999 95.0001 74.4479 95.0001 74.9998C95.0001 75.5518 95.4481 75.9998 96 75.9998H107V109C107 109.552 107.448 110 108 110C108.552 110 109 109.552 109 109V72.9998C109 72.448 108.552 72 108 72Z" fill="white"/>
<path d="M81 87C81 87.5519 81.448 87.9999 82 87.9999H86C86.5519 87.9999 86.9999 87.5519 86.9999 87V81C86.9999 80.448 86.5519 80 86 80H82C81.448 80 81 80.448 81 81V87ZM83 82H85V86H83V82Z" fill="white"/>
<path d="M59 99C59 98.87 58.943 86 53.9999 86C49.057 86 49 98.87 49 99C49 101.415 50.721 103.434 53 103.899V109C53 109.552 53.448 110 53.9999 110C54.5519 110 54.9999 109.552 54.9999 109V103.899C57.2789 103.434 59 101.415 59 99ZM54 102C52.3461 102 51 100.654 51 99C51 94.018 52.3381 87.9999 54 87.9999C55.662 87.9999 57 94.018 57 99C57 100.654 55.654 102 54 102Z" fill="white"/>
<path d="M93 101V71C93 70.448 92.552 70 92.0001 70C91.4481 70 91.0001 70.448 91.0001 71V101C91.0001 101.552 91.4481 102 92.0001 102C92.552 102 93 101.552 93 101Z" fill="white"/>
<path d="M82 76H86C86.5519 76 86.9999 75.552 86.9999 75.0001V69.0001C86.9999 68.4481 86.5519 68.0001 86 68.0001H82C81.448 68.0001 81 68.4481 81 69.0001V75.0001C81 75.552 81.448 76 82 76ZM83 70H85V74H83V70Z" fill="white"/>
<path d="M50 85C50.5519 85 50.9999 84.552 50.9999 84.0001V76H62C62.5519 76 62.9999 75.552 62.9999 75.0001C62.9999 74.4481 62.5519 74.0001 62 74.0001H51V73.0002C51 72.4482 50.552 72.0002 50.0001 72.0002C49.4481 72.0002 49 72.448 49 73V84.0001C49 84.552 49.448 85 50 85Z" fill="white"/>
</g>
<defs>
<linearGradient id="paint0_linear_0_1" x1="79.2058" y1="14" x2="79.2058" y2="146.381" gradientUnits="userSpaceOnUse">
<stop stop-color="#EF4B4F"/>
<stop offset="1" stop-color="#991F3D"/>
</linearGradient>
<clipPath id="clip0_0_1">
<rect width="60" height="60" fill="white" transform="translate(49 50)"/>
</clipPath>
</defs>
</svg>
