<svg width="29" height="83" viewBox="0 0 29 83" fill="none" xmlns="http://www.w3.org/2000/svg">
<path d="M15 7.85671V72.5695" stroke="#555555" stroke-width="1.5" stroke-dasharray="5 5"/>
<path d="M14.6491 82.8397C22.5255 82.8397 28.9107 76.4561 28.9107 68.5814C28.9107 60.7068 22.5255 54.3231 14.6491 54.3231C6.77258 54.3231 0.387436 60.7068 0.387436 68.5814C0.387436 76.4561 6.77258 82.8397 14.6491 82.8397Z" fill="#767676"/>
<path d="M14.6494 74.7803C18.0737 74.7803 20.8497 72.005 20.8497 68.5814C20.8497 65.1579 18.0737 62.3826 14.6494 62.3826C11.225 62.3826 8.44901 65.1579 8.44901 68.5814C8.44901 72.005 11.225 74.7803 14.6494 74.7803Z" fill="white"/>
<path d="M14.6492 11.9553C17.7992 11.9553 20.3529 9.40221 20.3529 6.25285C20.3529 3.10349 17.7992 0.55043 14.6492 0.55043C11.4991 0.55043 8.9454 3.10349 8.9454 6.25285C8.9454 9.40221 11.4991 11.9553 14.6492 11.9553Z" fill="#4D4D4D"/>
</svg>
