<svg width="60" height="60" viewBox="0 0 60 60" fill="none" xmlns="http://www.w3.org/2000/svg">
<g clip-path="url(#clip0_5003_39060)">
<path d="M57.7088 50.8664H53.382V28.7919C53.382 27.8913 52.6494 27.1588 51.749 27.1588H38.3796V20.7941C38.3796 19.8936 37.647 19.161 36.7466 19.161H23.2534C22.3529 19.161 21.6204 19.8936 21.6204 20.7941V27.02C21.6204 27.5051 22.0136 27.8985 22.4989 27.8985C22.9842 27.8985 23.3775 27.5051 23.3775 27.02V20.918H36.6227V50.8666H23.3773V30.7639C23.3773 30.2787 22.9841 29.8854 22.4988 29.8854C22.0135 29.8854 21.6203 30.2787 21.6203 30.7639V33.9058H8.25092C7.35037 33.9058 6.61791 34.6383 6.61791 35.5389V50.8666H2.29121C1.02788 50.8666 0 51.8943 0 53.1578V59.0862C0 59.5714 0.39323 59.9647 0.87853 59.9647H59.1215C59.6068 59.9647 60 59.5714 60 59.0862V53.1578C60 51.8943 58.9721 50.8664 57.7088 50.8664ZM8.37497 35.6628H21.6203V50.8664H8.37497V35.6628ZM58.2429 58.2077H1.75706V53.1578C1.75706 52.8632 1.99661 52.6236 2.29121 52.6236H43.5968C44.0821 52.6236 44.4753 52.2303 44.4753 51.7451C44.4753 51.2599 44.0821 50.8666 43.5968 50.8666H38.3797V28.9158H51.625V50.8666H47.3407C46.8554 50.8666 46.4622 51.2599 46.4622 51.7451C46.4622 52.2303 46.8554 52.6236 47.3407 52.6236H57.7089C58.0035 52.6236 58.2431 52.8632 58.2431 53.1578V58.2077H58.2429Z" fill="white"/>
<path d="M24.7758 10.7448L24.0795 14.8052C23.9778 15.3975 24.2166 15.9849 24.7027 16.3381C25.1889 16.6912 25.8212 16.737 26.3534 16.4574L30 14.5403L33.6467 16.4574C33.8781 16.579 34.1283 16.6391 34.3775 16.6391C34.7011 16.6391 35.0225 16.5377 35.2974 16.3381C35.7835 15.9848 36.0223 15.3975 35.9206 14.8052L35.2243 10.7446L38.1746 7.86893C38.6048 7.44946 38.7569 6.8339 38.5711 6.26239C38.3854 5.69088 37.9006 5.28207 37.3059 5.19574L33.2288 4.60325L31.4053 0.908976C31.1394 0.370026 30.601 0.0352478 29.9999 0.0352478C29.3989 0.0352478 28.8603 0.370026 28.5945 0.908858L26.7713 4.60325L22.6942 5.19574C22.0995 5.28207 21.6146 5.69088 21.429 6.26239C21.2432 6.8339 21.3953 7.44946 21.8255 7.86893L24.7758 10.7448ZM27.1227 6.32775C27.6332 6.2536 28.0744 5.933 28.3027 5.47042L29.9999 2.03139L31.6971 5.47042C31.9254 5.933 32.3667 6.2536 32.8773 6.32775L36.6724 6.87923L33.9261 9.55629C33.5567 9.91649 33.3881 10.4351 33.4754 10.9436L34.1236 14.7235L30.7292 12.939C30.2724 12.6986 29.727 12.6987 29.2704 12.9389L25.8759 14.7235L26.5242 10.9436C26.6114 10.4352 26.4429 9.91649 26.0734 9.55629L23.3271 6.87935L27.1227 6.32775Z" fill="white"/>
<path d="M42.7183 8.33724C42.7183 8.82242 43.1115 9.21577 43.5968 9.21577H44.855C45.3403 9.21577 45.7335 8.82242 45.7335 8.33724C45.7335 7.85206 45.3403 7.45871 44.855 7.45871H43.5968C43.1115 7.45871 42.7183 7.85194 42.7183 8.33724Z" fill="white"/>
<path d="M42.0829 3.0786C42.2042 3.0786 42.3277 3.0533 42.4454 2.99988L43.5912 2.47991C44.0329 2.27937 44.2285 1.75858 44.028 1.31685C43.8275 0.875128 43.3067 0.679509 42.8649 0.879931L41.7192 1.3999C41.2775 1.60044 41.0818 2.12124 41.2824 2.56296C41.4294 2.88696 41.7487 3.0786 42.0829 3.0786Z" fill="white"/>
<path d="M41.7192 15.2745L42.8649 15.7944C42.9827 15.8479 43.1061 15.8732 43.2274 15.8732C43.5616 15.8732 43.881 15.6815 44.028 15.3575C44.2285 14.9158 44.0329 14.395 43.5912 14.1945L42.4454 13.6745C42.0034 13.4741 41.4827 13.6697 41.2824 14.1114C41.0818 14.5531 41.2775 15.0739 41.7192 15.2745Z" fill="white"/>
<path d="M15.2621 9.21577H16.5202C17.0055 9.21577 17.3988 8.82242 17.3988 8.33724C17.3988 7.85206 17.0055 7.45871 16.5202 7.45871H15.2621C14.7768 7.45871 14.3835 7.85206 14.3835 8.33724C14.3835 8.82242 14.7768 9.21577 15.2621 9.21577Z" fill="white"/>
<path d="M16.5261 2.47978L17.6718 2.99975C17.7896 3.05317 17.913 3.07847 18.0343 3.07847C18.3685 3.07847 18.6878 2.88683 18.8348 2.56283C19.0354 2.1211 18.8398 1.60031 18.398 1.39977L17.2523 0.879798C16.8101 0.679259 16.2896 0.874996 16.0893 1.31672C15.8887 1.75845 16.0843 2.27924 16.5261 2.47978Z" fill="white"/>
<path d="M17.6718 13.6745L16.5261 14.1945C16.0843 14.395 15.8887 14.9158 16.0893 15.3575C16.2363 15.6816 16.5556 15.8732 16.8898 15.8732C17.0111 15.8732 17.1346 15.8479 17.2523 15.7945L18.398 15.2745C18.8398 15.0739 19.0354 14.5531 18.8348 14.1114C18.6344 13.6697 18.1137 13.4742 17.6718 13.6745Z" fill="white"/>
</g>
<defs>
<clipPath id="clip0_5003_39060">
<rect width="60" height="60" fill="white"/>
</clipPath>
</defs>
</svg>
