<svg width="60" height="60" viewBox="0 0 60 60" fill="none" xmlns="http://www.w3.org/2000/svg">
<g clip-path="url(#clip0_5003_39080)">
<path d="M56.7209 19.9761L54.8478 17.2176C54.6632 16.946 54.3536 16.7867 54.0249 16.7954L50.3938 16.8905C50.0807 16.8987 49.7911 17.0584 49.6172 17.3188L49.2475 17.8725L45.4805 20.2834C45.2303 20.4436 45.0679 20.7101 45.0402 21.0058L44.9584 21.8821H43.4966L40.6219 19.5399C40.3908 19.3517 40.0854 19.2811 39.7956 19.3481C39.5052 19.4154 39.2624 19.613 39.1375 19.8835L37.9407 22.4766L26.4878 17.5873L27.1448 15.0826C27.2728 14.5941 27.0025 14.0896 26.5246 13.9258L25.574 13.6001L24.0088 11.207L24.233 11.1521C24.5268 11.0802 24.7697 10.8746 24.8891 10.5968C25.0088 10.3189 24.9911 10.0012 24.8413 9.73839L24.3008 8.78975L26.3692 4.54382C26.588 4.09475 26.4276 3.553 25.9997 3.29554L24.1408 2.17639C23.9759 2.07714 23.7858 2.02897 23.5925 2.03964L19.6252 2.2494L14.6788 0.0810824C14.3933 -0.0440738 14.0643 -0.023566 13.7964 0.136864L11.1308 1.73261C10.8664 1.89081 10.6936 2.16608 10.6658 2.47311C10.6381 2.78014 10.7588 3.08167 10.9905 3.28499L12.4767 4.58788L12.5588 7.89081C12.5645 8.12401 12.6548 8.34714 12.8125 8.51905L15.2553 11.1791L13.2297 14.8305C13.1532 14.9683 13.1118 15.1226 13.1089 15.2802L13.1012 15.6814L9.54026 19.595L7.73452 19.0166C7.23448 18.8564 6.69753 19.1263 6.52784 19.6236L5.53374 22.5391C5.40014 22.931 5.53151 23.3645 5.86034 23.6161L6.37245 24.008L7.67581 26.6755L7.68554 27.2569L3.75132 28.6671C3.38663 28.7979 3.13573 29.1341 3.11405 29.521C3.09249 29.908 3.3046 30.2701 3.65241 30.4406L4.85616 31.0303C4.68343 31.1531 4.55405 31.3307 4.49171 31.5374C4.40804 31.814 4.45292 32.1138 4.61405 32.3538L6.08417 34.5433C6.17804 34.6833 6.30694 34.7961 6.458 34.8705L8.84288 36.047C9.25667 36.251 9.75636 36.1336 10.036 35.7671L11.0868 34.3898L11.6527 35.7308L11.3132 37.5162C11.2804 37.6884 11.2954 37.8663 11.3561 38.0307L19.2516 59.3709C19.3899 59.7446 19.7571 60.0005 20.1558 60.0005C20.2723 60.0005 20.3889 59.9794 20.4999 59.9369L22.4329 59.1987C22.6559 59.1135 22.8395 58.9485 22.948 58.7357L23.3723 57.9032L24.0314 57.0982L25.6878 55.1117C25.7951 54.983 25.8671 54.8283 25.8964 54.6632L26.7701 49.7496C26.7982 49.5919 26.7865 49.4297 26.736 49.2776L26.2745 47.885L27.154 45.2266L27.8891 44.7735L28.8085 44.6649C29.074 44.6335 29.3147 44.4935 29.4728 44.2778L30.6125 42.7243C30.9973 42.5637 31.4498 42.4404 31.7594 42.1521C32.1251 41.8116 32.4682 41.443 32.8214 41.0896C33.1039 40.8071 33.3768 40.5701 33.5357 40.1968C33.7142 39.778 33.8851 39.3558 34.0598 38.9353L37.4883 37.0512C37.7596 36.902 37.9428 36.6319 37.9808 36.3246L38.1487 34.9689L39.4308 33.9881L41.151 34.3308C41.4781 34.3958 41.8164 34.2871 42.0442 34.043C42.272 33.7989 42.3573 33.4541 42.2696 33.1319L40.6305 27.1113L42.6424 26.2773L44.0243 27.1802C44.1512 27.2632 44.2958 27.315 44.4466 27.3315L45.4675 27.4437L44.3235 29.1351C44.1189 29.4377 44.1026 29.8298 44.2819 30.1481C44.461 30.4664 44.8022 30.6569 45.1694 30.6383L45.9236 30.6013L47.6666 32.9825C47.8964 33.2966 48.2924 33.4419 48.6712 33.3501C49.0494 33.2587 49.3357 32.9485 49.3969 32.5642L49.8716 29.5738L50.6813 29.7289C50.9373 29.7777 51.2029 29.7212 51.4165 29.5712C51.63 29.4213 51.7738 29.1913 51.8149 28.9336L52.3389 25.6445L52.8045 25.0302C52.9053 24.8972 52.9698 24.7403 52.9917 24.5748L53.0703 23.9838L55.9066 22.9983C56.2255 22.8874 56.4632 22.6179 56.5333 22.2875L56.866 20.7178C56.9208 20.4609 56.8683 20.1932 56.7209 19.9761ZM54.7601 21.3554L51.8766 22.3573C51.5325 22.4768 51.2853 22.7799 51.2373 23.1409L51.1141 24.0683L50.6564 24.6719C50.5608 24.7982 50.4976 24.9462 50.4727 25.1027L50.0672 27.6477L49.2571 27.4924C49.0009 27.4435 48.7354 27.5001 48.5217 27.6503C48.3081 27.8003 48.1643 28.0304 48.1233 28.2882L47.8554 29.9754L47.173 29.0433C47.0953 28.9372 46.9983 28.8498 46.8886 28.7845L47.9605 27.1997C48.1499 26.9198 48.1789 26.5612 48.0371 26.2546C47.8951 25.9479 47.6031 25.7379 47.2673 25.701L44.8864 25.4396L43.2714 24.3844C43.0048 24.21 42.6692 24.1788 42.3747 24.3008L39.1082 25.6549C38.6601 25.8407 38.4197 26.3306 38.5472 26.7988L40 32.1351L39.3799 32.0117C39.1084 31.9575 38.826 32.023 38.6059 32.1915L36.656 33.6831C36.4504 33.8403 36.3167 34.0737 36.2849 34.3304L36.128 35.5985L32.8353 37.408C32.6434 37.5135 32.4933 37.6809 32.4094 37.883L31.7757 39.4084L30.505 40.6795L29.6228 41.0476C29.461 41.1151 29.3205 41.2256 29.2169 41.3671L28.1666 42.7986L27.452 42.883C27.3127 42.8994 27.1785 42.9462 27.059 43.0198L25.8435 43.7691C25.6503 43.8881 25.5053 44.0715 25.4341 44.287L24.3441 47.5821C24.2789 47.779 24.2789 47.9916 24.3442 48.1882L24.8292 49.6519L24.0432 54.0731L22.5456 55.8694L21.8151 56.7613C21.7712 56.8147 21.7333 56.8728 21.702 56.9345L21.399 57.5291L20.7228 57.7874L13.2584 37.6124L13.6022 35.8041C13.6377 35.6173 13.6171 35.4241 13.5434 35.2491L12.7564 33.3845L12.8017 31.8443C12.814 31.4257 12.5547 31.0469 12.16 30.9071C11.7651 30.767 11.3253 30.8983 11.0714 31.2313L8.98479 33.9663L7.54233 33.2546L6.8835 32.136L7.42784 31.8512C7.74987 31.6828 7.94991 31.3475 7.94487 30.9841C7.94007 30.6207 7.73136 30.291 7.40511 30.131L6.94925 29.9076L6.54999 29.7119L8.9869 28.8384C9.3755 28.6991 9.63237 28.3277 9.62557 27.9148L9.60085 26.4285C9.59839 26.2871 9.56511 26.148 9.503 26.0212L8.00557 22.9567C7.93983 22.8224 7.84397 22.705 7.72514 22.6142L7.58288 22.5054L8.04788 21.1416L9.54261 21.6204C9.90202 21.7355 10.2958 21.6305 10.5498 21.3511L14.7721 16.7109C14.9296 16.5381 15.0187 16.3138 15.023 16.0801L15.0327 15.5563L17.2792 11.5067C17.4805 11.1437 17.4269 10.6926 17.1463 10.3869L14.478 7.48124L14.3945 4.11749C14.3877 3.84819 14.2687 3.59401 14.0662 3.41636L13.2573 2.70725L14.3604 2.04679L19.0606 4.10741C19.1984 4.16788 19.348 4.19495 19.4987 4.18722L23.3997 3.98085L24.2495 4.49249L22.3449 8.40268C22.2054 8.68897 22.2163 9.02553 22.3739 9.30221L22.5339 9.583L22.2271 9.65811C21.9233 9.73253 21.6743 9.94979 21.5596 10.2409C21.4446 10.532 21.4784 10.8607 21.6496 11.1224L24.1418 14.9325C24.2592 15.112 24.4333 15.2474 24.6362 15.3169L25.0526 15.4596L24.4119 17.9025C24.2908 18.3648 24.5264 18.8462 24.9661 19.0339L38.0455 24.6176C38.5253 24.8228 39.081 24.6084 39.2994 24.1349L40.368 21.8198L42.5452 23.5935C42.7172 23.7336 42.9324 23.8103 43.1541 23.8103H45.8371C46.3349 23.8103 46.7507 23.4314 46.7971 22.9357L46.9167 21.6537L50.4572 19.3877C50.5694 19.316 50.6653 19.2218 50.7393 19.1112L50.9437 18.8051L53.5489 18.7367L54.8953 20.7196L54.7601 21.3554Z" fill="white"/>
</g>
<defs>
<clipPath id="clip0_5003_39080">
<rect width="60" height="60" fill="white"/>
</clipPath>
</defs>
</svg>
