<svg width="158" height="158" viewBox="0 0 158 158" fill="none" xmlns="http://www.w3.org/2000/svg">
<path d="M79.2058 146.381C115.77 146.381 145.412 116.746 145.412 80.1904C145.412 43.6344 115.77 14 79.2058 14C42.6414 14 13 43.6344 13 80.1904C13 116.746 42.6414 146.381 79.2058 146.381Z" fill="url(#paint0_linear_0_1)"/>
<path d="M79 157C122.078 157 157 122.078 157 79C157 35.9218 122.078 1 79 1C35.9218 1 1 35.9218 1 79C1 122.078 35.9218 157 79 157Z" stroke="#555555" stroke-width="1.5" stroke-dasharray="5 5"/>
<g clip-path="url(#clip0_0_1)">
<path d="M105.721 69.9761L103.848 67.2177C103.663 66.946 103.354 66.7868 103.025 66.7954L99.3938 66.8905C99.0807 66.8987 98.7911 67.0584 98.6172 67.3188L98.2475 67.8725L94.4805 70.2834C94.2303 70.4436 94.0679 70.7101 94.0402 71.0059L93.9584 71.8821H92.4966L89.6219 69.54C89.3908 69.3518 89.0854 69.2811 88.7956 69.3481C88.5052 69.4154 88.2624 69.613 88.1375 69.8836L86.9406 72.4766L75.4878 67.5873L76.1447 65.0826C76.2728 64.5941 76.0025 64.0896 75.5246 63.9259L74.5739 63.6001L73.0088 61.207L73.233 61.1521C73.5268 61.0802 73.7697 60.8746 73.8891 60.5968C74.0088 60.3189 73.9911 60.0012 73.8413 59.7384L73.3008 58.7898L75.3692 54.5438C75.588 54.0948 75.4275 53.553 74.9997 53.2955L73.1407 52.1764C72.9759 52.0771 72.7858 52.029 72.5924 52.0396L68.6252 52.2494L63.6788 50.0811C63.3933 49.9559 63.0643 49.9764 62.7964 50.1369L60.1308 51.7326C59.8663 51.8908 59.6936 52.1661 59.6658 52.4731C59.638 52.7802 59.7588 53.0817 59.9904 53.285L61.4767 54.5879L61.5588 57.8908C61.5645 58.124 61.6547 58.3471 61.8125 58.5191L64.2552 61.1791L62.2296 64.8305C62.1531 64.9684 62.1118 65.1226 62.1088 65.2802L62.1012 65.6814L58.5402 69.595L56.7345 69.0166C56.2345 68.8564 55.6975 69.1263 55.5278 69.6236L54.5337 72.5391C54.4001 72.931 54.5315 73.3645 54.8603 73.6161L55.3724 74.008L56.6758 76.6755L56.6855 77.2569L52.7513 78.6671C52.3866 78.7979 52.1357 79.1341 52.114 79.5211C52.0925 79.908 52.3046 80.2701 52.6524 80.4406L53.8561 81.0303C53.6834 81.1531 53.554 81.3307 53.4917 81.5374C53.408 81.8141 53.4529 82.1138 53.614 82.3538L55.0841 84.5434C55.178 84.6833 55.3069 84.7961 55.458 84.8705L57.8429 86.047C58.2566 86.251 58.7563 86.1336 59.0359 85.7671L60.0868 84.3898L60.6527 85.7308L60.3132 87.5162C60.2804 87.6884 60.2954 87.8663 60.3561 88.0307L68.2516 109.371C68.3898 109.745 68.7571 110 69.1558 110C69.2723 110 69.3889 109.979 69.4998 109.937L71.4329 109.199C71.6559 109.113 71.8395 108.948 71.948 108.736L72.3722 107.903L73.0314 107.098L74.6877 105.112C74.7951 104.983 74.867 104.828 74.8963 104.663L75.7701 99.7496C75.7982 99.5919 75.7865 99.4297 75.736 99.2776L75.2745 97.885L76.154 95.2266L76.8891 94.7735L77.8084 94.665C78.074 94.6336 78.3147 94.4935 78.4728 94.2778L79.6124 92.7243C79.9973 92.5637 80.4497 92.4404 80.7593 92.1521C81.1251 91.8116 81.4682 91.443 81.8214 91.0896C82.1038 90.8071 82.3768 90.5701 82.5357 90.1968C82.7141 89.778 82.8851 89.3558 83.0597 88.9353L86.4883 87.0512C86.7596 86.902 86.9427 86.6319 86.9808 86.3246L87.1486 84.9689L88.4308 83.9881L90.151 84.3308C90.478 84.3958 90.8164 84.2871 91.0442 84.043C91.272 83.7989 91.3573 83.4541 91.2695 83.132L89.6304 77.1113L91.6424 76.2773L93.0243 77.1802C93.1512 77.2632 93.2958 77.315 93.4465 77.3315L94.4675 77.4437L93.3235 79.1352C93.1189 79.4377 93.1026 79.8298 93.2819 80.1481C93.4609 80.4664 93.8022 80.657 94.1693 80.6383L94.9236 80.6013L96.6666 82.9825C96.8964 83.2966 97.2924 83.4419 97.6711 83.3502C98.0494 83.2588 98.3357 82.9486 98.3969 82.5642L98.8716 79.5738L99.6813 79.7289C99.9373 79.7777 100.203 79.7212 100.416 79.5712C100.63 79.4213 100.774 79.1913 100.815 78.9336L101.339 75.6445L101.804 75.0302C101.905 74.8972 101.97 74.7403 101.992 74.5748L102.07 73.9838L104.907 72.9983C105.226 72.8874 105.463 72.6179 105.533 72.2875L105.866 70.7178C105.921 70.4609 105.868 70.1932 105.721 69.9761ZM103.76 71.3554L100.877 72.3573C100.533 72.4768 100.285 72.78 100.237 73.1409L100.114 74.0683L99.6564 74.672C99.5608 74.7982 99.4976 74.9462 99.4727 75.1027L99.0672 77.6477L98.2571 77.4924C98.0009 77.4436 97.7354 77.5002 97.5217 77.6503C97.3081 77.8003 97.1643 78.0304 97.1233 78.2882L96.8554 79.9754L96.173 79.0433C96.0953 78.9372 95.9983 78.8498 95.8886 78.7845L96.9605 77.1997C97.1499 76.9198 97.1788 76.5613 97.037 76.2546C96.8951 75.9479 96.6031 75.7379 96.2672 75.701L93.8863 75.4396L92.2714 74.3844C92.0048 74.21 91.6691 74.1788 91.3746 74.3008L88.1082 75.6549C87.66 75.8407 87.4197 76.3306 87.5472 76.7988L89 82.1352L88.3799 82.0118C88.1084 81.9575 87.826 82.023 87.6059 82.1915L85.656 83.6831C85.4504 83.8403 85.3166 84.0737 85.2849 84.3304L85.128 85.5985L81.8352 87.408C81.6434 87.5135 81.4933 87.6809 81.4094 87.883L80.7756 89.4084L79.505 90.6795L78.6228 91.0476C78.4609 91.1151 78.3204 91.2256 78.2168 91.3671L77.1666 92.7986L76.452 92.883C76.3127 92.8994 76.1785 92.9462 76.0589 93.0198L74.8435 93.7691C74.6502 93.8881 74.5053 94.0715 74.434 94.287L73.3441 97.5821C73.2789 97.779 73.2789 97.9916 73.3442 98.1882L73.8292 99.6519L73.0431 104.073L71.5456 105.869L70.815 106.761C70.7712 106.815 70.7332 106.873 70.702 106.934L70.399 107.529L69.7227 107.787L62.2584 87.6124L62.6022 85.8041C62.6377 85.6173 62.6171 85.4241 62.5434 85.2491L61.7563 83.3845L61.8017 81.8443C61.814 81.4257 61.5546 81.047 61.16 80.9071C60.765 80.767 60.3252 80.8984 60.0714 81.2313L57.9848 83.9663L56.5423 83.2546L55.8835 82.136L56.4278 81.8512C56.7498 81.6828 56.9499 81.3475 56.9448 80.9841C56.94 80.6207 56.7313 80.291 56.4051 80.131L55.9492 79.9077L55.55 79.712L57.9869 78.8384C58.3755 78.6991 58.6323 78.3277 58.6255 77.9148L58.6008 76.4285C58.5984 76.2871 58.5651 76.148 58.503 76.0213L57.0055 72.9567C56.9398 72.8224 56.8439 72.705 56.7251 72.6143L56.5829 72.5054L57.0479 71.1416L58.5426 71.6204C58.902 71.7355 59.2957 71.6305 59.5498 71.3511L63.7721 66.7109C63.9296 66.5381 64.0186 66.3138 64.023 66.0801L64.0327 65.5563L66.2792 61.5068C66.4805 61.1437 66.4268 60.6927 66.1463 60.3869L63.4779 57.4813L63.3945 54.1175C63.3877 53.8482 63.2686 53.594 63.0661 53.4164L62.2573 52.7073L63.3604 52.0468L68.0605 54.1074C68.1984 54.1679 68.348 54.195 68.4987 54.1872L72.3996 53.9809L73.2495 54.4925L71.3448 58.4027C71.2054 58.689 71.2163 59.0255 71.3739 59.3022L71.5339 59.583L71.2271 59.6581C70.9233 59.7325 70.6743 59.9498 70.5596 60.2409C70.4446 60.532 70.4784 60.8607 70.6496 61.1224L73.1418 64.9325C73.2592 65.112 73.4332 65.2474 73.6362 65.3169L74.0526 65.4596L73.4119 67.9025C73.2907 68.3648 73.5264 68.8462 73.9661 69.0339L87.0455 74.6176C87.5253 74.8228 88.081 74.6084 88.2994 74.1349L89.3679 71.8198L91.5452 73.5935C91.7172 73.7336 91.9323 73.8103 92.1541 73.8103H94.8371C95.3349 73.8103 95.7507 73.4314 95.7971 72.9357L95.9167 71.6537L99.4572 69.3877C99.5693 69.316 99.6653 69.2218 99.7393 69.1112L99.9436 68.8051L102.549 68.7368L103.895 70.7196L103.76 71.3554Z" fill="white"/>
</g>
<defs>
<linearGradient id="paint0_linear_0_1" x1="79.2058" y1="14" x2="79.2058" y2="146.381" gradientUnits="userSpaceOnUse">
<stop stop-color="#EF4B4F"/>
<stop offset="1" stop-color="#991F3D"/>
</linearGradient>
<clipPath id="clip0_0_1">
<rect width="60" height="60" fill="white" transform="translate(49 50)"/>
</clipPath>
</defs>
</svg>
