<svg width="32" height="32" viewBox="0 0 32 32" fill="none" xmlns="http://www.w3.org/2000/svg">
<g clip-path="url(#clip0_5122_42)">
<mask id="mask0_5122_42" style="mask-type:luminance" maskUnits="userSpaceOnUse" x="0" y="0" width="32" height="32">
<path d="M0.400391 0.400024H31.6004V31.6H0.400391V0.400024Z" fill="white"/>
</mask>
<g mask="url(#mask0_5122_42)">
<path fill-rule="evenodd" clip-rule="evenodd" d="M10.4192 18.9808C10.9269 19.4884 10.9269 20.3116 10.4192 20.8192L6.13847 25.1L10.4192 29.3808C10.9269 29.8884 10.9269 30.7116 10.4192 31.2192C9.91155 31.7269 9.08845 31.7269 8.58076 31.2192L3.38076 26.0192C2.87308 25.5116 2.87308 24.6884 3.38076 24.1808L8.58076 18.9808C9.08845 18.4731 9.91155 18.4731 10.4192 18.9808Z" fill="white"/>
<path fill-rule="evenodd" clip-rule="evenodd" d="M27.7 16C28.418 16 29 16.582 29 17.3V19.9C29 21.6239 28.3152 23.2773 27.0961 24.4962C25.8773 25.7152 24.2239 26.4 22.5 26.4H4.3C3.58204 26.4 3 25.818 3 25.1C3 24.382 3.58204 23.8 4.3 23.8H22.5C23.5343 23.8 24.5263 23.3891 25.2577 22.6577C25.9891 21.9263 26.4 20.9343 26.4 19.9V17.3C26.4 16.582 26.982 16 27.7 16Z" fill="white"/>
<path fill-rule="evenodd" clip-rule="evenodd" d="M21.5807 0.780785C22.0883 0.273104 22.9115 0.273104 23.4191 0.780785L28.6191 5.98078C29.1268 6.48847 29.1268 7.31158 28.6191 7.81927L23.4191 13.0193C22.9115 13.5269 22.0883 13.5269 21.5807 13.0193C21.073 12.5116 21.073 11.6885 21.5807 11.1808L25.8615 6.90002L21.5807 2.61927C21.073 2.11158 21.073 1.28847 21.5807 0.780785Z" fill="white"/>
<path fill-rule="evenodd" clip-rule="evenodd" d="M9.5 8.20004C8.46565 8.20004 7.47368 8.61093 6.74228 9.34232C6.01089 10.0737 5.6 11.0657 5.6 12.1V14.7C5.6 15.418 5.01796 16 4.3 16C3.58204 16 3 15.418 3 14.7V12.1C3 10.3761 3.68481 8.72283 4.90381 7.50385C6.12279 6.28485 7.7761 5.60004 9.5 5.60004H27.7C28.418 5.60004 29 6.18207 29 6.90004C29 7.618 28.418 8.20004 27.7 8.20004H9.5Z" fill="white"/>
</g>
</g>
<defs>
<clipPath id="clip0_5122_42">
<rect width="31.2" height="31.2" fill="white" transform="translate(0.400391 0.400024)"/>
</clipPath>
</defs>
</svg>
