<svg width="26" height="24" viewBox="0 0 26 24" fill="none" xmlns="http://www.w3.org/2000/svg">
<path d="M19.4711 16.1435C18.2962 16.1435 17.2375 16.64 16.5028 17.43L9.89424 13.4243C10.0707 12.9823 10.1685 12.5022 10.1685 12C10.1685 11.4975 10.0707 11.0174 9.89424 10.5756L16.5028 6.56981C17.2375 7.35973 18.2962 7.85649 19.4711 7.85649C21.6845 7.85649 23.4852 6.09429 23.4852 3.92815C23.4852 1.76202 21.6845 0 19.4711 0C17.2578 0 15.4571 1.7622 15.4571 3.92834C15.4571 4.43059 15.5551 4.9107 15.7314 5.35271L9.12301 9.35832C8.38827 8.5684 7.32966 8.07164 6.15467 8.07164C3.94128 8.07164 2.14062 9.83403 2.14062 12C2.14062 14.1661 3.94128 15.9283 6.15467 15.9283C7.32966 15.9283 8.38827 15.4317 9.12301 14.6416L15.7314 18.6472C15.5551 19.0893 15.4571 19.5694 15.4571 20.0718C15.4571 22.2377 17.2578 24 19.4711 24C21.6845 24 23.4852 22.2377 23.4852 20.0718C23.4852 17.9057 21.6845 16.1435 19.4711 16.1435ZM16.9208 3.92834C16.9208 2.55212 18.0649 1.43243 19.4711 1.43243C20.8774 1.43243 22.0215 2.55212 22.0215 3.92834C22.0215 5.30455 20.8774 6.42424 19.4711 6.42424C18.0649 6.42424 16.9208 5.30455 16.9208 3.92834ZM6.15467 14.4959C4.74824 14.4959 3.60412 13.3762 3.60412 12C3.60412 10.6238 4.74824 9.50407 6.15467 9.50407C7.56092 9.50407 8.70485 10.6238 8.70485 12C8.70485 13.3762 7.56092 14.4959 6.15467 14.4959ZM16.9208 20.0716C16.9208 18.6954 18.0649 17.5757 19.4711 17.5757C20.8774 17.5757 22.0215 18.6954 22.0215 20.0716C22.0215 21.4478 20.8774 22.5675 19.4711 22.5675C18.0649 22.5675 16.9208 21.4478 16.9208 20.0716Z" fill="#555555"/>
</svg>
