<svg width="60" height="32" viewBox="0 0 60 32" fill="none" xmlns="http://www.w3.org/2000/svg">
<rect y="0.5" width="60" height="31" rx="3" fill="#CE2E28"/>
<g clip-path="url(#clip0_3051_11727)">
<path d="M42.1094 26.156H41.7188V24.9841C41.7188 24.8805 41.6776 24.7812 41.6044 24.7079C41.5311 24.6347 41.4318 24.5935 41.3282 24.5935H40.9376V23.4217C40.9376 23.3181 40.8964 23.2187 40.8232 23.1455C40.7499 23.0722 40.6506 23.0311 40.547 23.0311V16.0001C40.6506 16.0001 40.7499 15.959 40.8232 15.8857C40.8964 15.8125 40.9376 15.7131 40.9376 15.6095V14.4377H41.3282C41.4318 14.4377 41.5311 14.3965 41.6044 14.3233C41.6776 14.25 41.7188 14.1507 41.7188 14.0471V11.7034H42.1094C42.1943 11.7029 42.2767 11.6748 42.3442 11.6234C42.4117 11.572 42.4607 11.5 42.4837 11.4184C42.5068 11.3367 42.5027 11.2497 42.472 11.1706C42.4413 11.0914 42.3858 11.0244 42.3137 10.9796L30.2048 3.55806C30.1434 3.52034 30.0728 3.50037 30.0007 3.50037C29.9287 3.50037 29.858 3.52034 29.7966 3.55806L17.6878 10.9796C17.6148 11.0239 17.5584 11.0908 17.5272 11.1702C17.4959 11.2495 17.4915 11.3369 17.5146 11.419C17.5377 11.5011 17.5871 11.5734 17.6552 11.6247C17.7233 11.6761 17.8064 11.7037 17.8916 11.7034H18.2823V14.0471C18.2823 14.1507 18.3234 14.25 18.3967 14.3233C18.4699 14.3965 18.5693 14.4377 18.6729 14.4377H19.0635V15.6095C19.0635 15.7131 19.1046 15.8125 19.1779 15.8857C19.2511 15.959 19.3505 16.0001 19.4541 16.0001V23.0311C19.3505 23.0311 19.2511 23.0722 19.1779 23.1455C19.1046 23.2187 19.0635 23.3181 19.0635 23.4217V24.5935H18.6729C18.5693 24.5935 18.4699 24.6347 18.3967 24.7079C18.3234 24.7812 18.2823 24.8805 18.2823 24.9841V26.156H17.8916C17.7881 26.156 17.6887 26.1971 17.6154 26.2704C17.5422 26.3436 17.501 26.443 17.501 26.5466V28.109C17.501 28.2126 17.5422 28.3119 17.6154 28.3852C17.6887 28.4584 17.7881 28.4996 17.8916 28.4996H42.1094C42.213 28.4996 42.3123 28.4584 42.3856 28.3852C42.4588 28.3119 42.5 28.2126 42.5 28.109V26.5466C42.5 26.443 42.4588 26.3436 42.3856 26.2704C42.3123 26.1971 42.213 26.156 42.1094 26.156ZM35.469 24.5935V23.4217C35.469 23.3181 35.4279 23.2187 35.3546 23.1455C35.2814 23.0722 35.182 23.0311 35.0784 23.0311V16.0001C35.182 16.0001 35.2814 15.959 35.3546 15.8857C35.4279 15.8125 35.469 15.7131 35.469 15.6095V14.4377H37.0315V15.6095C37.0315 15.7131 37.0726 15.8125 37.1459 15.8857C37.2191 15.959 37.3185 16.0001 37.4221 16.0001V23.0311C37.3185 23.0311 37.2191 23.0722 37.1459 23.1455C37.0726 23.2187 37.0315 23.3181 37.0315 23.4217V24.5935H35.469ZM28.4381 24.5935V23.4217C28.4381 23.3181 28.3969 23.2187 28.3237 23.1455C28.2504 23.0722 28.1511 23.0311 28.0475 23.0311V16.0001C28.1511 16.0001 28.2504 15.959 28.3237 15.8857C28.3969 15.8125 28.4381 15.7131 28.4381 15.6095V14.4377H31.563V15.6095C31.563 15.7131 31.6041 15.8125 31.6774 15.8857C31.7506 15.959 31.85 16.0001 31.9536 16.0001V23.0311C31.85 23.0311 31.7506 23.0722 31.6774 23.1455C31.6041 23.2187 31.563 23.3181 31.563 23.4217V24.5935H28.4381ZM22.9696 24.5935V23.4217C22.9696 23.3181 22.9284 23.2187 22.8552 23.1455C22.7819 23.0722 22.6825 23.0311 22.579 23.0311V16.0001C22.6825 16.0001 22.7819 15.959 22.8552 15.8857C22.9284 15.8125 22.9696 15.7131 22.9696 15.6095V14.4377H24.532V15.6095C24.532 15.7131 24.5732 15.8125 24.6464 15.8857C24.7197 15.959 24.819 16.0001 24.9226 16.0001V23.0311C24.819 23.0311 24.7197 23.0722 24.6464 23.1455C24.5732 23.2187 24.532 23.3181 24.532 23.4217V24.5935H22.9696ZM20.2353 16.0001H21.7977V23.0311H20.2353V16.0001ZM27.2663 23.0311H25.7038V16.0001H27.2663V23.0311ZM34.2972 23.0311H32.7348V16.0001H34.2972V23.0311ZM39.7657 23.0311H38.2033V16.0001H39.7657V23.0311ZM40.9376 13.6565H19.0635V13.2659H40.9376V13.6565ZM30.0005 6.00366L38.1478 10.9222H21.8532L30.0005 6.00366ZM19.0635 25.3747H40.9376V26.156H19.0635V25.3747ZM41.7188 27.7184H18.2823V26.9372H41.7188V27.7184Z" fill="white"/>
<path d="M31.9529 7.79736H28.0469C27.9433 7.79736 27.8439 7.83852 27.7707 7.91177C27.6974 7.98502 27.6562 8.08438 27.6562 8.18797V9.75041C27.6562 9.854 27.6974 9.95336 27.7707 10.0266C27.8439 10.0999 27.9433 10.141 28.0469 10.141H31.9529C32.0565 10.141 32.1559 10.0999 32.2291 10.0266C32.3024 9.95336 32.3436 9.854 32.3436 9.75041V8.18797C32.3436 8.08438 32.3024 7.98502 32.2291 7.91177C32.1559 7.83852 32.0565 7.79736 31.9529 7.79736Z" fill="white"/>
</g>
<defs>
<clipPath id="clip0_3051_11727">
<rect width="25" height="24.9992" fill="white" transform="translate(17.5 3.50037)"/>
</clipPath>
</defs>
</svg>
