<svg width="25" height="26" viewBox="0 0 25 26" fill="none" xmlns="http://www.w3.org/2000/svg">
<g clip-path="url(#clip0_1321_10217)">
<path d="M9.375 19.25C9.375 20.0788 9.70424 20.8737 10.2903 21.4597C10.8763 22.0458 11.6712 22.375 12.5 22.375C13.3288 22.375 14.1237 22.0458 14.7097 21.4597C15.2958 20.8737 15.625 20.0788 15.625 19.25" stroke="white" stroke-width="1.5" stroke-linecap="round" stroke-linejoin="round"/>
<path d="M5.46796 10.6562C5.46796 8.79145 6.20875 7.00302 7.52736 5.68441C8.84598 4.36579 10.6344 3.625 12.4992 3.625C14.364 3.625 16.1524 4.36579 17.4711 5.68441C18.7897 7.00302 19.5305 8.79145 19.5305 10.6562C19.5305 14.1543 20.341 16.9648 20.9855 18.0781C21.054 18.1967 21.0901 18.3312 21.0902 18.4681C21.0903 18.605 21.0545 18.7395 20.9862 18.8582C20.918 18.9769 20.8197 19.0755 20.7014 19.1443C20.583 19.2131 20.4486 19.2495 20.3117 19.25H4.68671C4.54997 19.2492 4.41584 19.2125 4.29773 19.1436C4.17962 19.0747 4.08166 18.976 4.01365 18.8573C3.94564 18.7387 3.90995 18.6043 3.91016 18.4676C3.91036 18.3308 3.94646 18.1965 4.01483 18.0781C4.65839 16.9648 5.46796 14.1533 5.46796 10.6562Z" stroke="white" stroke-width="1.5" stroke-linecap="round" stroke-linejoin="round"/>
</g>
<defs>
<clipPath id="clip0_1321_10217">
<rect width="25" height="25" fill="white" transform="translate(0 0.5)"/>
</clipPath>
</defs>
</svg>
