<svg width="60" height="32" viewBox="0 0 60 32" fill="none" xmlns="http://www.w3.org/2000/svg">
<rect x="0.5" y="1" width="59" height="30" rx="2.5" fill="white"/>
<rect x="0.5" y="1" width="59" height="30" rx="2.5" stroke="#CCC9C9"/>
<path d="M41.625 6.3125H18.375C17.8611 6.3125 17.3683 6.51663 17.005 6.87998C16.6416 7.24333 16.4375 7.73614 16.4375 8.25V23.75C16.4375 24.2639 16.6416 24.7567 17.005 25.12C17.3683 25.4834 17.8611 25.6875 18.375 25.6875H41.625C42.1389 25.6875 42.6317 25.4834 42.995 25.12C43.3584 24.7567 43.5625 24.2639 43.5625 23.75V8.25C43.5625 7.73614 43.3584 7.24333 42.995 6.87998C42.6317 6.51663 42.1389 6.3125 41.625 6.3125ZM30.9688 21.8125H29.0312C28.7743 21.8125 28.5279 21.7104 28.3462 21.5288C28.1646 21.3471 28.0625 21.1007 28.0625 20.8438C28.0625 20.5868 28.1646 20.3404 28.3462 20.1587C28.5279 19.9771 28.7743 19.875 29.0312 19.875H30.9688C31.2257 19.875 31.4721 19.9771 31.6538 20.1587C31.8354 20.3404 31.9375 20.5868 31.9375 20.8438C31.9375 21.1007 31.8354 21.3471 31.6538 21.5288C31.4721 21.7104 31.2257 21.8125 30.9688 21.8125ZM38.7188 21.8125H34.8438C34.5868 21.8125 34.3404 21.7104 34.1587 21.5288C33.9771 21.3471 33.875 21.1007 33.875 20.8438C33.875 20.5868 33.9771 20.3404 34.1587 20.1587C34.3404 19.9771 34.5868 19.875 34.8438 19.875H38.7188C38.9757 19.875 39.2221 19.9771 39.4038 20.1587C39.5854 20.3404 39.6875 20.5868 39.6875 20.8438C39.6875 21.1007 39.5854 21.3471 39.4038 21.5288C39.2221 21.7104 38.9757 21.8125 38.7188 21.8125ZM18.375 11.1562V8.25H41.625V11.1562H18.375Z" fill="#666666"/>
</svg>
