<svg width="60" height="32" viewBox="0 0 60 32" fill="none" xmlns="http://www.w3.org/2000/svg">
<g clip-path="url(#clip0_3051_11721)">
<rect y="0.5" width="60" height="31" rx="3" fill="white"/>
<g clip-path="url(#clip1_3051_11721)">
<path d="M51.4744 -0.0256348H8.52564C6.5816 -0.0256348 5 1.55597 5 3.50001V28.5641C5 30.5081 6.5816 32.0897 8.52564 32.0897H51.4744C53.4183 32.0897 55 30.5081 55 28.5641V3.50001C55 1.55597 53.4183 -0.0256348 51.4744 -0.0256348Z" fill="white"/>
<path d="M15.7944 10.8622C15.256 10.492 14.5535 10.3065 13.6868 10.3065H10.3312C10.0655 10.3065 9.91874 10.4394 9.89086 10.7049L8.52772 19.2613C8.51355 19.3453 8.53458 19.4222 8.5906 19.492C8.64631 19.5621 8.71637 19.5969 8.80028 19.5969H10.3941C10.6737 19.5969 10.8273 19.4643 10.8555 19.1984L11.233 16.8917C11.2468 16.7799 11.2959 16.689 11.3798 16.619C11.4637 16.5491 11.5685 16.5034 11.6944 16.4825C11.8202 16.4617 11.9389 16.4513 12.0509 16.4513C12.1627 16.4513 12.2954 16.4583 12.4494 16.4722C12.6031 16.4862 12.701 16.493 12.743 16.493C13.9453 16.493 14.8891 16.1542 15.5743 15.4759C16.2591 14.7979 16.6019 13.8577 16.6019 12.6552C16.6019 11.8303 16.3326 11.2326 15.7944 10.8619V10.8622ZM14.0643 13.4314C13.9942 13.9208 13.8127 14.2422 13.5191 14.3961C13.2254 14.5501 12.806 14.6266 12.2608 14.6266L11.5687 14.6477L11.9253 12.4036C11.9531 12.25 12.0439 12.1731 12.1978 12.1731H12.5964C13.1554 12.1731 13.5611 12.2536 13.8128 12.4141C14.0643 12.575 14.1482 12.9143 14.0643 13.4314Z" fill="#003087"/>
<path d="M51.2048 10.3064H49.653C49.4988 10.3064 49.4081 10.3833 49.3804 10.5371L48.0171 19.2615L47.9961 19.3034C47.9961 19.3736 48.0241 19.4397 48.0801 19.5027C48.1358 19.5654 48.206 19.597 48.2898 19.597H49.6741C49.9394 19.597 50.0862 19.4644 50.1146 19.1986L51.4777 10.621V10.6002C51.4776 10.4045 51.3864 10.3066 51.2048 10.3066V10.3064Z" fill="#009CDE"/>
<path d="M32.4558 13.6834C32.4558 13.6136 32.4278 13.5471 32.3721 13.4843C32.316 13.4214 32.2531 13.3898 32.1833 13.3898H30.5685C30.4144 13.3898 30.2887 13.46 30.191 13.5994L27.968 16.8712L27.0453 13.7254C26.975 13.5018 26.8214 13.3898 26.5839 13.3898H25.0108C24.9407 13.3898 24.8778 13.4213 24.8222 13.4843C24.7661 13.5471 24.7383 13.6137 24.7383 13.6834C24.7383 13.7116 24.8746 14.1238 25.1472 14.9207C25.4198 15.7178 25.7134 16.5777 26.028 17.5005C26.3426 18.4232 26.5067 18.9127 26.5208 18.9683C25.3743 20.5343 24.8012 21.3733 24.8012 21.485C24.8012 21.6669 24.8921 21.7577 25.0739 21.7577H26.6887C26.8424 21.7577 26.9682 21.6879 27.0662 21.548L32.4141 13.83C32.4419 13.8023 32.4558 13.7536 32.4558 13.6833V13.6834Z" fill="#003087"/>
<path d="M47.4927 13.3898H45.8988C45.7029 13.3898 45.5844 13.6205 45.5425 14.0819C45.1785 13.5229 44.5148 13.2429 43.55 13.2429C42.5433 13.2429 41.6868 13.6205 40.9809 14.3755C40.2748 15.1305 39.9219 16.0185 39.9219 17.039C39.9219 17.8641 40.163 18.5211 40.6453 19.0103C41.1276 19.5 41.7742 19.7443 42.5854 19.7443C42.9907 19.7443 43.4032 19.6603 43.8226 19.4927C44.2421 19.3249 44.5703 19.1013 44.8084 18.8216C44.8084 18.8356 44.7942 18.8984 44.7665 19.0102C44.7383 19.1222 44.7245 19.2063 44.7245 19.2618C44.7245 19.4858 44.8151 19.5973 44.9972 19.5973H46.4444C46.7096 19.5973 46.8637 19.4648 46.9055 19.1989L47.7654 13.7252C47.7792 13.6413 47.7583 13.5645 47.7025 13.4945C47.6464 13.4248 47.5766 13.3898 47.4927 13.3898ZM44.7559 17.5213C44.3994 17.8709 43.9694 18.0456 43.4662 18.0456C43.0605 18.0456 42.7323 17.9339 42.4805 17.7101C42.2287 17.4868 42.1028 17.1792 42.1028 16.7873C42.1028 16.2704 42.2776 15.8332 42.6273 15.4766C42.9764 15.1201 43.4102 14.9418 43.9275 14.9418C44.3187 14.9418 44.6438 15.0572 44.9026 15.2878C45.1611 15.5185 45.2908 15.8367 45.2908 16.2422C45.2907 16.7454 45.1124 17.172 44.7559 17.5213Z" fill="#009CDE"/>
<path d="M23.6686 13.3898H22.0748C21.8787 13.3898 21.7602 13.6205 21.7182 14.0819C21.3407 13.5229 20.6765 13.2429 19.7258 13.2429C18.7191 13.2429 17.8627 13.6205 17.1567 14.3755C16.4505 15.1305 16.0977 16.0185 16.0977 17.039C16.0977 17.8641 16.3389 18.5211 16.8212 19.0103C17.3036 19.5 17.9501 19.7443 18.7611 19.7443C19.1524 19.7443 19.5581 19.6603 19.9775 19.4927C20.3969 19.3249 20.7325 19.1013 20.9841 18.8216C20.928 18.9893 20.9002 19.1361 20.9002 19.2618C20.9002 19.4858 20.9911 19.5973 21.1728 19.5973H22.6199C22.8853 19.5973 23.0393 19.4648 23.0813 19.1989L23.9411 13.7252C23.9549 13.6413 23.9339 13.5645 23.8782 13.4945C23.8223 13.4248 23.7525 13.3898 23.6686 13.3898ZM20.9318 17.5317C20.5752 17.8747 20.138 18.0456 19.6211 18.0456C19.2153 18.0456 18.8903 17.9339 18.6458 17.7101C18.401 17.4868 18.2787 17.1792 18.2787 16.7873C18.2787 16.2704 18.4534 15.8332 18.8031 15.4766C19.1524 15.1201 19.5859 14.9418 20.1034 14.9418C20.4946 14.9418 20.8197 15.0572 21.0786 15.2879C21.3371 15.5186 21.4666 15.8368 21.4666 16.2422C21.4666 16.7595 21.2883 17.1895 20.9318 17.5317Z" fill="#003087"/>
<path d="M39.6187 10.8622C39.0804 10.492 38.378 10.3065 37.5111 10.3065H34.1765C33.8967 10.3065 33.7428 10.4394 33.7151 10.7049L32.3519 19.2613C32.3378 19.3454 32.3587 19.4222 32.4148 19.4921C32.4703 19.5621 32.5406 19.5969 32.6245 19.5969H34.3441C34.5119 19.5969 34.6237 19.5061 34.6797 19.3243L35.0573 16.8917C35.0711 16.7799 35.1201 16.689 35.2041 16.619C35.288 16.5491 35.3927 16.5034 35.5187 16.4825C35.6444 16.4617 35.763 16.4513 35.8752 16.4513C35.9869 16.4513 36.1197 16.4583 36.2735 16.4722C36.4273 16.4862 36.5255 16.493 36.5671 16.493C37.7697 16.493 38.7132 16.1542 39.3984 15.4759C40.0835 14.7979 40.426 13.8577 40.426 12.6552C40.4262 11.8304 40.1569 11.2327 39.6187 10.862V10.8622ZM37.4691 14.3122C37.1615 14.5218 36.7001 14.6266 36.085 14.6266L35.4139 14.6477L35.7704 12.4036C35.7981 12.25 35.8889 12.1731 36.043 12.1731H36.4203C36.7279 12.1731 36.9725 12.187 37.1546 12.2149C37.336 12.2431 37.5111 12.3302 37.6789 12.477C37.8467 12.6239 37.9305 12.8372 37.9305 13.1168C37.9305 13.704 37.7766 14.1024 37.4691 14.3122Z" fill="#009CDE"/>
</g>
</g>
<rect x="0.5" y="1" width="59" height="30" rx="2.5" stroke="#CCC9C9"/>
<defs>
<clipPath id="clip0_3051_11721">
<rect y="0.5" width="60" height="31" rx="3" fill="white"/>
</clipPath>
<clipPath id="clip1_3051_11721">
<rect width="50" height="32.0513" fill="white" transform="translate(5 -0.0256348)"/>
</clipPath>
</defs>
</svg>
