<svg width="45" height="45" viewBox="0 0 45 45" fill="none" xmlns="http://www.w3.org/2000/svg">
<rect width="45" height="45" rx="10" fill="white"/>
<path d="M23.4149 23.4178C22.0492 24.7831 22.0492 27.0046 23.4149 28.3703C23.7399 28.6956 24.1259 28.9535 24.5509 29.1292C24.9758 29.3049 25.4313 29.3949 25.8911 29.3941C26.3511 29.3951 26.8068 29.3051 27.2319 29.1294C27.657 28.9537 28.0432 28.6957 28.3683 28.3703C29.7335 27.0046 29.7335 24.7831 28.3683 23.4178C27.0026 22.0517 24.7801 22.0526 23.4149 23.4178ZM27.7676 24.0176C28.2645 24.5157 28.5436 25.1905 28.5436 25.8941C28.5436 26.5976 28.2645 27.2725 27.7676 27.7705C27.2696 28.2676 26.5947 28.5467 25.8911 28.5467C25.1875 28.5467 24.5127 28.2676 24.0147 27.7705C23.7677 27.5246 23.572 27.2321 23.4388 26.91C23.3056 26.5879 23.2376 26.2426 23.2388 25.8941C23.2388 25.185 23.5143 24.518 24.0147 24.0176C24.2609 23.771 24.5534 23.5756 24.8755 23.4424C25.1975 23.3093 25.5427 23.241 25.8911 23.2417C26.5708 23.2417 27.2505 23.5 27.7676 24.0176Z" fill="#666666"/>
<path d="M10.1967 33.585H26.3015C26.7514 33.5845 27.1827 33.4056 27.5008 33.0875C27.8188 32.7694 27.9978 32.3381 27.9982 31.8883V30.8893C28.1504 30.8247 28.3004 30.7534 28.4481 30.6739L29.3554 31.5807L29.2154 31.7207C29.176 31.7601 29.1447 31.8069 29.1234 31.8583C29.1021 31.9098 29.0911 31.9649 29.0911 32.0206C29.0911 32.0763 29.1021 32.1315 29.1234 32.1829C29.1447 32.2344 29.176 32.2811 29.2154 32.3205L32.7524 35.8567C32.9557 36.0613 33.1976 36.2235 33.4641 36.334C33.7305 36.4445 34.0162 36.501 34.3047 36.5002C34.8909 36.5002 35.4423 36.2717 35.8564 35.8567C36.061 35.6534 36.2233 35.4115 36.3337 35.145C36.4442 34.8786 36.5007 34.5929 36.5 34.3045C36.5 33.7183 36.2719 33.1664 35.8569 32.7527L32.3207 29.216C32.2813 29.1766 32.2345 29.1453 32.183 29.1239C32.1315 29.1026 32.0763 29.0916 32.0206 29.0916C31.9649 29.0916 31.9097 29.1026 31.8582 29.1239C31.8067 29.1453 31.7599 29.1766 31.7205 29.216L31.58 29.3565L30.6709 28.4474C31.2246 27.4232 31.432 26.2473 31.2621 25.0955C31.0922 23.9437 30.5542 22.8777 29.7284 22.057C29.2327 21.5617 28.6452 21.1679 27.9987 20.8977V13.7056C27.9987 13.6966 27.9942 13.6884 27.9933 13.6794C27.9911 13.6419 27.9838 13.6048 27.9716 13.5692C27.9671 13.5557 27.9635 13.5426 27.9576 13.5299C27.9376 13.4837 27.9095 13.4415 27.8745 13.4053L23.0923 8.62398C23.0562 8.58908 23.0141 8.56094 22.9681 8.54088C22.955 8.53501 22.9424 8.53185 22.9288 8.52688C22.8933 8.51455 22.8562 8.50711 22.8186 8.50475C22.8096 8.50475 22.8015 8.49979 22.7924 8.49979H10.1967C9.7468 8.50026 9.31544 8.67924 8.99733 8.99744C8.67922 9.31563 8.50036 9.74704 8.5 10.197V31.8883C8.50048 32.3381 8.67939 32.7694 8.99749 33.0875C9.31559 33.4056 9.74688 33.5845 10.1967 33.585ZM35.2567 33.3524C35.5109 33.6067 35.6509 33.945 35.6509 34.3045C35.6509 34.6644 35.5109 35.0027 35.2567 35.2569C34.7477 35.7659 33.8603 35.765 33.3522 35.2569L30.1154 32.0206L32.0204 30.1157L35.2567 33.3524ZM29.9551 30.981L29.1792 30.2046C29.1905 30.1956 29.2 30.1852 29.2113 30.1762C29.3901 30.0375 29.5631 29.8885 29.7252 29.7259C29.8878 29.5633 30.0369 29.3904 30.176 29.2111C30.1845 29.2002 30.1949 29.1908 30.2031 29.1799L30.9798 29.9558L29.9551 30.981ZM29.7821 28.2979C29.5963 28.5988 29.3759 28.8769 29.1255 29.1266C28.8753 29.3773 28.5967 29.598 28.2954 29.7842C28.0131 29.959 27.7173 30.0958 27.4148 30.2042L27.4057 30.2074C26.5933 30.4956 25.7157 30.547 24.8752 30.3557C24.0347 30.1643 23.2659 29.7381 22.6583 29.1266C20.8753 27.3436 20.8753 24.4429 22.6583 22.6594C23.0831 22.2341 23.5878 21.8969 24.1433 21.6671C24.6989 21.4374 25.2943 21.3197 25.8955 21.3208C27.0661 21.3208 28.2367 21.7666 29.1277 22.6576C29.8596 23.3846 30.3229 24.3386 30.4418 25.3633C30.5607 26.388 30.3281 27.4227 29.7821 28.2979ZM26.5499 13.2815H24.0651C23.84 13.2813 23.6242 13.1918 23.4651 13.0326C23.306 12.8734 23.2166 12.6576 23.2165 12.4325V9.94858L26.5499 13.2815ZM9.34859 10.1965C9.34859 9.72864 9.72931 9.34748 10.1967 9.34748H22.3679V12.432C22.3683 12.8821 22.5472 13.3135 22.8654 13.6317C23.1836 13.9499 23.6151 14.1289 24.0651 14.1292H27.1497V20.6244C25.3788 20.2058 23.4373 20.6804 22.0585 22.0592C19.945 24.1728 19.945 27.6128 22.0585 29.7259C22.5606 30.231 23.1575 30.6319 23.815 30.9056C24.4724 31.1794 25.1775 31.3206 25.8896 31.3211C26.3114 31.3211 26.7342 31.2682 27.1497 31.1684V31.8878C27.1494 32.1128 27.0599 32.3285 26.9008 32.4876C26.7417 32.6467 26.526 32.7362 26.3011 32.7364H10.1967C9.97175 32.7361 9.75609 32.6465 9.59709 32.4873C9.43808 32.3281 9.34871 32.1124 9.34859 31.8874V10.1965Z" fill="#666666"/>
<path d="M12.1989 14.6157H19.5061C19.8435 14.6153 20.1668 14.481 20.4053 14.2424C20.6438 14.0038 20.778 13.6804 20.7783 13.3431V12.1634C20.778 11.826 20.6438 11.5025 20.4052 11.2639C20.1666 11.0253 19.8431 10.8911 19.5057 10.8908H12.1984C11.861 10.8911 11.5375 11.0253 11.2989 11.2639C11.0603 11.5025 10.9261 11.826 10.9258 12.1634V13.3431C10.9261 13.6806 11.0604 14.0041 11.2991 14.2427C11.5378 14.4814 11.8614 14.6155 12.1989 14.6157ZM11.7744 12.1634C11.7744 12.0509 11.8191 11.9429 11.8987 11.8633C11.9783 11.7836 12.0863 11.7389 12.1989 11.7389H19.5061C19.6185 11.7392 19.7263 11.784 19.8057 11.8636C19.8851 11.9432 19.9297 12.051 19.9297 12.1634V13.3431C19.9297 13.4556 19.8851 13.5635 19.8056 13.6431C19.726 13.7227 19.6182 13.7675 19.5057 13.7676H12.1984C12.0859 13.7675 11.9781 13.7227 11.8986 13.6431C11.819 13.5635 11.7744 13.4556 11.7744 13.3431V12.1634ZM11.3503 17.3372H24.7964C24.9089 17.3372 25.0167 17.2925 25.0963 17.213C25.1758 17.1335 25.2205 17.0256 25.2205 16.9131C25.2205 16.8007 25.1758 16.6928 25.0963 16.6133C25.0167 16.5337 24.9089 16.4891 24.7964 16.4891H11.3503C11.2378 16.4891 11.13 16.5337 11.0504 16.6133C10.9709 16.6928 10.9262 16.8007 10.9262 16.9131C10.9262 17.0256 10.9709 17.1335 11.0504 17.213C11.13 17.2925 11.2378 17.3372 11.3503 17.3372ZM11.3503 20.018H24.7964C24.909 20.018 25.017 19.9733 25.0966 19.8937C25.1762 19.8141 25.2209 19.7061 25.2209 19.5935C25.2209 19.4809 25.1762 19.3729 25.0966 19.2933C25.017 19.2137 24.909 19.169 24.7964 19.169H11.3503C11.2377 19.169 11.1297 19.2137 11.0501 19.2933C10.9705 19.3729 10.9258 19.4809 10.9258 19.5935C10.9258 19.7061 10.9705 19.8141 11.0501 19.8937C11.1297 19.9733 11.2377 20.018 11.3503 20.018ZM11.3503 22.6979H20.1592C20.2717 22.6979 20.3796 22.6532 20.4592 22.5737C20.5387 22.4941 20.5835 22.3862 20.5835 22.2736C20.5835 22.1611 20.5387 22.0532 20.4592 21.9736C20.3796 21.894 20.2717 21.8493 20.1592 21.8493H11.3503C11.2377 21.8493 11.1297 21.8941 11.0501 21.9737C10.9705 22.0533 10.9258 22.1613 10.9258 22.2739C10.9258 22.3865 10.9705 22.4944 11.0501 22.574C11.1297 22.6537 11.2377 22.6979 11.3503 22.6979ZM11.3503 25.3783H19.1534C19.2659 25.3783 19.3737 25.3336 19.4533 25.2541C19.5328 25.1746 19.5775 25.0667 19.5775 24.9542C19.5775 24.8418 19.5328 24.7339 19.4533 24.6544C19.3737 24.5748 19.2659 24.5302 19.1534 24.5302H11.3508C11.2383 24.5302 11.1304 24.5748 11.0509 24.6544C10.9714 24.7339 10.9267 24.8418 10.9267 24.9542C10.9267 25.0667 10.9714 25.1746 11.0509 25.2541C11.1304 25.3336 11.2378 25.3783 11.3503 25.3783ZM11.3503 28.0591H19.1534C19.2659 28.0591 19.3738 28.0144 19.4534 27.9348C19.533 27.8553 19.5777 27.7473 19.5777 27.6348C19.5777 27.5223 19.533 27.4144 19.4534 27.3348C19.3738 27.2552 19.2659 27.2105 19.1534 27.2105H11.3508C11.2382 27.2105 11.1303 27.2552 11.0507 27.3348C10.9712 27.4144 10.9265 27.5223 10.9265 27.6348C10.9265 27.7473 10.9712 27.8553 11.0507 27.9348C11.1303 28.0144 11.2378 28.0591 11.3503 28.0591ZM11.3503 30.739H20.1592C20.2717 30.739 20.3796 30.6943 20.4592 30.6148C20.5387 30.5352 20.5835 30.4273 20.5835 30.3147C20.5835 30.2022 20.5387 30.0943 20.4592 30.0147C20.3796 29.9351 20.2717 29.8904 20.1592 29.8904H11.3503C11.2377 29.8904 11.1297 29.9352 11.0501 30.0148C10.9705 30.0944 10.9258 30.2024 10.9258 30.315C10.9258 30.4275 10.9705 30.5355 11.0501 30.6151C11.1297 30.6948 11.2377 30.739 11.3503 30.739Z" fill="#666666"/>
</svg>
