<svg width="60" height="32" viewBox="0 0 60 32" fill="none" xmlns="http://www.w3.org/2000/svg">
<rect x="0.5" y="1" width="59" height="30" rx="2.5" fill="white"/>
<rect x="0.5" y="1" width="59" height="30" rx="2.5" stroke="#CCC9C9"/>
<path fill-rule="evenodd" clip-rule="evenodd" d="M46.0547 21.8054L52.4997 15.926L49.4469 9.84369L46.0547 21.8054Z" fill="#097939"/>
<path fill-rule="evenodd" clip-rule="evenodd" d="M43.8867 21.8054L50.3318 15.926L47.2789 9.84369L43.8867 21.8054Z" fill="#ED752E"/>
<path fill-rule="evenodd" clip-rule="evenodd" d="M13.0841 9.91163L10.3706 19.5756L20.0039 19.6431L22.65 9.91163H25.0922L21.9196 21.2249C21.7981 21.6569 21.3355 22.0079 20.8868 22.0079H8.53902C7.7902 22.0079 7.34649 21.4229 7.549 20.7029L10.5749 9.91163H13.0841ZM42.8667 9.84413H45.3089L41.9167 22.0079H39.4057L42.8667 9.84413ZM25.364 14.9121L37.5755 14.8446L38.39 12.2764H25.9742L26.7203 9.91118L39.9506 9.78968C40.7741 9.78203 41.2646 10.4197 41.0477 11.2149L39.8012 15.7708C39.5839 16.5655 38.7392 17.2094 37.9157 17.2094H26.9921L25.7042 22.2104H23.3281L25.364 14.9121Z" fill="#747474"/>
</svg>
