<svg width="49" height="49" viewBox="0 0 49 49" fill="none" xmlns="http://www.w3.org/2000/svg">
<path d="M48.9953 24.6164C48.9953 38.0826 38.0813 48.9991 24.6182 48.9991C11.1552 48.9991 0.241213 38.0826 0.241212 24.6164C0.241211 11.1502 11.1552 0.233642 24.6182 0.233642C38.0813 0.233641 48.9953 11.1502 48.9953 24.6164Z" fill="url(#paint0_linear_2557_2995)"/>
<g clip-path="url(#clip0_2557_2995)">
<path fill-rule="evenodd" clip-rule="evenodd" d="M33.1959 33.3688C31.64 33.3688 30.3652 32.1128 30.3652 30.5194C30.3652 28.9447 31.64 27.6699 33.1959 27.6699C34.7519 27.6699 36.0641 28.9447 36.0641 30.5194C36.0641 32.1128 34.7894 33.3688 33.1959 33.3688ZM33.1959 28.6072C32.1461 28.6072 31.2838 29.4508 31.2838 30.5381C31.2838 31.6441 32.1461 32.4877 33.1959 32.4877C34.2645 32.4877 35.1456 31.6441 35.1456 30.5381C35.1456 29.4508 34.2645 28.6072 33.1959 28.6072Z" fill="white"/>
<path fill-rule="evenodd" clip-rule="evenodd" d="M34.3204 37.1181H32.0895C31.8271 37.1181 31.6209 36.9118 31.6209 36.6494V35.5621C31.3022 35.4496 31.021 35.3184 30.7398 35.1872L29.99 35.9558C29.8025 36.1245 29.5213 36.1245 29.3338 35.9558L27.7404 34.3998C27.6654 34.3061 27.6092 34.1749 27.6092 34.0812C27.6092 33.9687 27.6654 33.8375 27.7404 33.7625L28.509 33.0126C28.3403 32.7314 28.2465 32.4127 28.1341 32.1315H27.0468C26.7843 32.1315 26.5781 31.9253 26.5781 31.6629V29.4321C26.5781 29.1696 26.7843 28.9634 27.0468 28.9634H28.1716C28.2465 28.6822 28.3778 28.3635 28.5277 28.0823L27.7404 27.295C27.6654 27.22 27.6092 27.0888 27.6092 26.995C27.6092 26.8826 27.6654 26.7513 27.7404 26.6763L29.3338 25.1204C29.5213 24.9329 29.8025 24.9329 29.99 25.1204L30.7586 25.8515C31.0398 25.6828 31.3397 25.5516 31.6396 25.4766V24.408C31.6396 24.1643 31.8458 23.9581 32.1083 23.9581H34.3391C34.6016 23.9581 34.8078 24.1643 34.8078 24.408V25.5141C35.1265 25.6078 35.4076 25.739 35.6888 25.8703L36.4574 25.1204C36.6262 24.9329 36.9074 24.9329 37.0948 25.1204L38.6508 26.6763C38.7258 26.7513 38.782 26.8826 38.782 26.995C38.782 27.0888 38.7258 27.22 38.6508 27.295L37.9009 28.0448C38.0509 28.3448 38.1821 28.6447 38.2946 28.9447H39.3631C39.6256 28.9447 39.8318 29.1509 39.8318 29.4133V31.6441C39.8318 31.9066 39.6256 32.1128 39.3631 32.1128H38.2946C38.1821 32.4127 38.0509 32.7314 37.9384 32.9939L38.6883 33.7437C38.7632 33.8187 38.8195 33.9499 38.8195 34.0624C38.8195 34.1561 38.7632 34.2874 38.6883 34.3623L37.1323 35.9183C36.9448 36.1058 36.6637 36.1058 36.4762 35.9183L35.7263 35.1684C35.4639 35.3184 35.1452 35.4309 34.8453 35.5246V36.6307C34.789 36.9118 34.5828 37.1181 34.3204 37.1181ZM32.5582 36.2182H33.8705V35.2434C33.8705 35.0372 34.0017 34.8498 34.2079 34.8123C34.7328 34.681 35.1452 34.4936 35.5201 34.2686C35.6888 34.1374 35.9325 34.1561 36.0825 34.3061L36.7949 34.981L37.7134 34.0624L37.0198 33.3688C36.8699 33.2188 36.8324 32.9939 36.9636 32.8064C37.226 32.4127 37.4135 31.9816 37.5072 31.5317C37.5635 31.3254 37.7509 31.1755 37.9572 31.1755H38.9132V29.8445H37.9572C37.7509 29.8445 37.5635 29.6945 37.5072 29.4883C37.4135 29.0384 37.226 28.626 36.9636 28.2135C36.8699 28.0261 36.8886 27.8011 37.0198 27.6324L37.7134 26.9388L36.7949 26.0015L36.0825 26.6763C35.9325 26.8263 35.6888 26.8638 35.5389 26.7513C35.1452 26.5264 34.714 26.3389 34.2454 26.2077C34.0392 26.1515 33.9079 25.9827 33.9079 25.7765V24.8017H32.577V25.7765C32.577 25.9827 32.4457 26.1515 32.2395 26.2077C31.7709 26.3202 31.3584 26.4889 30.946 26.7513C30.7586 26.8638 30.5336 26.8263 30.4024 26.6763L29.69 25.9827L28.7527 26.9013L29.4276 27.5949C29.5963 27.7449 29.615 27.9511 29.5213 28.1386C29.2589 28.5697 29.0714 29.0196 28.9964 29.4321C28.9402 29.6383 28.7527 29.7882 28.5465 29.7882H27.5717V31.1192H28.5465C28.7527 31.1192 28.9402 31.2692 28.9964 31.4754C29.0901 31.9253 29.2776 32.3565 29.5213 32.7502C29.615 32.9376 29.5963 33.1626 29.4276 33.2938L28.7527 33.9687L29.69 34.906L30.4024 34.2124C30.5523 34.0624 30.7773 34.0249 30.946 34.1374C31.3584 34.3998 31.7709 34.5686 32.2395 34.681C32.4457 34.7373 32.577 34.906 32.577 35.1122V36.2182H32.5582Z" fill="white"/>
<path fill-rule="evenodd" clip-rule="evenodd" d="M20.2606 32.244C19.9981 32.244 19.7919 32.019 19.7919 31.7753C19.7919 28.2698 20.6542 27.1262 21.4041 26.1139C21.9852 25.3453 22.4164 24.7454 22.4164 23.1895C22.4164 20.3963 20.1293 18.1092 17.3361 18.1092C14.5242 18.1092 12.2371 20.3963 12.2371 23.1895C12.2371 24.7454 12.687 25.3453 13.2494 26.1139C13.9993 27.1262 14.8616 28.2698 14.8616 31.7753C14.8616 32.019 14.6554 32.244 14.393 32.244C14.1305 32.244 13.9243 32.019 13.9243 31.7753C13.9243 28.5697 13.1932 27.5949 12.4996 26.6576C11.9372 25.8702 11.2998 25.0641 11.2998 23.1895C11.2998 19.8901 13.9805 17.1907 17.2986 17.1907C20.6355 17.1907 23.2975 19.8714 23.2975 23.1895C23.2975 25.0641 22.7163 25.8702 22.1164 26.6576C21.4041 27.5949 20.6917 28.5697 20.6917 31.7753C20.7292 32.019 20.523 32.244 20.2606 32.244Z" fill="white"/>
<path fill-rule="evenodd" clip-rule="evenodd" d="M13.83 24.5017C13.5675 24.5017 13.3613 24.2955 13.3613 24.0331C13.3613 21.4086 15.4797 19.2715 18.1042 19.2715C18.3666 19.2715 18.5728 19.4777 18.5728 19.7401C18.5728 20.0026 18.3666 20.2088 18.1042 20.2088C15.9858 20.2088 14.2612 21.9147 14.2612 24.0518C14.2612 24.2955 14.0549 24.5017 13.83 24.5017Z" fill="white"/>
<path fill-rule="evenodd" clip-rule="evenodd" d="M21.7791 17.4906C21.7041 17.4906 21.6104 17.4531 21.5354 17.4344C21.3292 17.3032 21.2542 17.0407 21.3667 16.8158L22.1353 15.4473C22.2665 15.2411 22.529 15.1661 22.7539 15.2786C22.9601 15.4098 23.0539 15.6722 22.9414 15.8972L22.154 17.2469C22.0791 17.3969 21.9291 17.4906 21.7791 17.4906Z" fill="white"/>
<path fill-rule="evenodd" clip-rule="evenodd" d="M25.0411 20.7524C24.8911 20.7524 24.7411 20.6775 24.6661 20.5275C24.5349 20.3213 24.6099 20.0213 24.8349 19.8901L26.1846 19.1215C26.3908 18.9903 26.6907 19.0653 26.822 19.309C26.9344 19.5152 26.8595 19.7964 26.6345 19.9276L25.2848 20.6962C25.2098 20.7337 25.116 20.7524 25.0411 20.7524Z" fill="white"/>
<path fill-rule="evenodd" clip-rule="evenodd" d="M12.8929 17.4906C12.7429 17.4906 12.5742 17.3969 12.4992 17.2469L11.7306 15.8972C11.5994 15.691 11.6743 15.4098 11.8993 15.2786C12.1055 15.1473 12.4055 15.2223 12.5179 15.4473L13.3053 16.8158C13.4365 17.022 13.3615 17.3032 13.1178 17.4344C13.0428 17.4906 12.9678 17.4906 12.8929 17.4906Z" fill="white"/>
<path fill-rule="evenodd" clip-rule="evenodd" d="M9.6499 20.7524C9.57492 20.7524 9.48118 20.7337 9.4062 20.6962L8.05646 19.9276C7.85025 19.7964 7.77527 19.5339 7.869 19.309C8.00022 19.084 8.26267 19.009 8.50638 19.1215L9.85611 19.8901C10.0623 20.0213 10.1373 20.2838 10.0248 20.5275C9.94984 20.6587 9.79987 20.7524 9.6499 20.7524Z" fill="white"/>
<path fill-rule="evenodd" clip-rule="evenodd" d="M21.1793 33.8749C20.9169 33.8749 20.7106 33.6687 20.7106 33.4062C20.7106 33.1438 20.9169 32.9376 21.1793 32.9376C21.3668 32.9376 21.5167 32.7876 21.5167 32.5814C21.5167 32.3564 21.3668 32.2439 21.1793 32.2439H13.4933C13.2871 32.2439 13.1559 32.3939 13.1559 32.5814C13.1559 32.7876 13.3058 32.9376 13.4933 32.9376C13.7558 32.9376 13.962 33.1438 13.962 33.4062C13.962 33.6687 13.7558 33.8749 13.4933 33.8749C12.7809 33.8749 12.2373 33.2937 12.2373 32.6001C12.2373 31.9065 12.8184 31.3441 13.4933 31.3441H21.1793C21.8729 31.3441 22.4166 31.9253 22.4166 32.6001C22.4541 33.2937 21.8729 33.8749 21.1793 33.8749Z" fill="white"/>
<path fill-rule="evenodd" clip-rule="evenodd" d="M21.1793 35.5058H13.4933C12.7809 35.5058 12.2373 34.9434 12.2373 34.231C12.2373 33.5374 12.8184 32.9938 13.4933 32.9938H21.1793C21.8729 32.9938 22.4166 33.5562 22.4166 34.231C22.4541 34.9059 21.8729 35.5058 21.1793 35.5058ZM13.4933 33.8749C13.2871 33.8749 13.1559 34.0248 13.1559 34.2123C13.1559 34.4185 13.3058 34.5685 13.4933 34.5685H21.1793C21.3668 34.5685 21.5167 34.4185 21.5167 34.2123C21.5167 34.0061 21.3668 33.8749 21.1793 33.8749H13.4933Z" fill="white"/>
<path fill-rule="evenodd" clip-rule="evenodd" d="M17.9357 37.118H16.7547C15.6111 37.118 14.6738 36.1807 14.6738 35.0371C14.6738 34.7747 14.8988 34.5685 15.1425 34.5685C15.4049 34.5685 15.6111 34.7747 15.6111 35.0371C15.6111 35.6933 16.136 36.2182 16.7922 36.2182H17.9544C18.6106 36.2182 19.1167 35.6933 19.1167 35.0371C19.1167 34.7747 19.3229 34.5685 19.5854 34.5685C19.8478 34.5685 20.054 34.7747 20.054 35.0371C19.9978 36.1807 19.0792 37.118 17.9357 37.118Z" fill="white"/>
<path fill-rule="evenodd" clip-rule="evenodd" d="M17.3358 32.2439C17.0734 32.2439 16.8672 32.019 16.8672 31.7753V27.1449C16.8672 26.9949 16.9422 26.8262 17.0921 26.7512L18.9105 25.7202C19.1167 25.589 19.4167 25.664 19.5479 25.8702C19.6604 26.0764 19.5854 26.3576 19.3792 26.4888L17.8045 27.4074V31.794C17.8045 32.019 17.5983 32.2439 17.3358 32.2439Z" fill="white"/>
<path fill-rule="evenodd" clip-rule="evenodd" d="M17.3359 27.5948C17.2609 27.5948 17.1672 27.5573 17.0922 27.5386L15.3113 26.4888C15.1051 26.3576 15.0114 26.0764 15.1426 25.8702C15.2738 25.664 15.5738 25.589 15.78 25.7202L17.5609 26.7512C17.7671 26.8825 17.8421 27.1637 17.7296 27.3699C17.6359 27.5011 17.4859 27.5948 17.3359 27.5948Z" fill="white"/>
<path fill-rule="evenodd" clip-rule="evenodd" d="M33.1956 21.5773C32.9332 21.5773 32.727 21.3711 32.727 21.1274V14.1912C32.727 13.4226 32.1083 12.804 31.3585 12.804H19.1734C18.4048 12.804 17.7674 13.4226 17.7674 14.1912V17.6968C17.7674 17.9405 17.5612 18.1655 17.2987 18.1655C17.055 18.1655 16.8301 17.9405 16.8301 17.6968V14.1912C16.8301 12.9165 17.8799 11.9042 19.1546 11.9042H31.3397C32.5957 11.9042 33.6268 12.9165 33.6268 14.1912V21.1461C33.6643 21.3711 33.4581 21.5773 33.1956 21.5773Z" fill="white"/>
<path fill-rule="evenodd" clip-rule="evenodd" d="M33.1958 21.5773C33.102 21.5773 32.9708 21.5398 32.8958 21.4648L30.665 19.2152C30.4775 19.0465 30.4775 18.7466 30.665 18.5779C30.8337 18.3904 31.1337 18.3904 31.3024 18.5779L33.1958 20.4712L35.0891 18.5779C35.2766 18.3904 35.5578 18.3904 35.7453 18.5779C35.9327 18.7466 35.9327 19.0465 35.7453 19.2152L33.5145 21.4648C33.4395 21.5398 33.327 21.5773 33.1958 21.5773Z" fill="white"/>
</g>
<defs>
<linearGradient id="paint0_linear_2557_2995" x1="0.241212" y1="24.6164" x2="48.9953" y2="24.6164" gradientUnits="userSpaceOnUse">
<stop stop-color="#EF4B4F"/>
<stop offset="1" stop-color="#991F3D"/>
</linearGradient>
<clipPath id="clip0_2557_2995">
<rect width="32" height="32" fill="white" transform="translate(7.83105 8.51111)"/>
</clipPath>
</defs>
</svg>
