<svg width="24" height="20" viewBox="0 0 24 20" fill="none" xmlns="http://www.w3.org/2000/svg">
<g clip-path="url(#clip0_734_3819)">
<mask id="mask0_734_3819" style="mask-type:luminance" maskUnits="userSpaceOnUse" x="0" y="0" width="24" height="20">
<path d="M0.250977 0.612061H23.1242V19.3878H0.250977V0.612061Z" fill="white"/>
</mask>
<g mask="url(#mask0_734_3819)">
<path d="M18.4406 12.6786C18.4395 12.8328 18.3776 12.9804 18.2682 13.0892C18.1589 13.1981 18.011 13.2595 17.8567 13.26H5.508C5.43129 13.2606 5.35523 13.246 5.28419 13.2171C5.21315 13.1881 5.14853 13.1455 5.09406 13.0915C5.03958 13.0375 4.99633 12.9733 4.96678 12.9026C4.93723 12.8318 4.92197 12.756 4.92188 12.6793V0.524304C4.92375 0.369939 4.98624 0.22249 5.09587 0.113732C5.20551 0.00497305 5.35352 -0.0563869 5.508 -0.057125H17.8567C17.9332 -0.057407 18.0091 -0.0425761 18.08 -0.0134829C18.1508 0.0156103 18.2152 0.0583933 18.2695 0.112412C18.3237 0.166431 18.3668 0.230622 18.3961 0.301304C18.4255 0.371987 18.4406 0.447769 18.4406 0.524304V12.6786Z" fill="#0C9D58"/>
<path opacity="0.2" d="M18.4398 3.06724L13.8116 2.46938L18.4398 3.71581V3.06724ZM11.9052 0.573664L4.89746 3.71438L12.6458 0.885807V0.87795C12.5107 0.585093 12.1776 0.448664 11.9088 0.574379L11.9052 0.573664Z" fill="#004D40"/>
<path opacity="0.2" d="M17.8567 -0.0571271H5.508C5.35318 -0.0575073 5.20452 0.00349169 5.09464 0.11249C4.98476 0.221489 4.92263 0.369587 4.92188 0.524301V0.654301C4.92375 0.499937 4.98624 0.352488 5.09587 0.243729C5.20551 0.134971 5.35352 0.0736109 5.508 0.0728729H17.8567C17.9332 0.0725908 18.0091 0.0874217 18.08 0.116515C18.1508 0.145608 18.2152 0.188391 18.2695 0.24241C18.3237 0.296429 18.3668 0.36062 18.3961 0.431302C18.4255 0.501984 18.4406 0.577767 18.4406 0.654301V0.524301C18.4395 0.370075 18.3776 0.222517 18.2682 0.11366C18.1589 0.00480269 18.011 -0.056567 17.8567 -0.0571271Z" fill="white"/>
<path d="M7.92097 12.3049C7.83734 12.617 8.0046 12.9378 8.29123 13.012L19.7293 16.0985C20.0159 16.1756 20.3197 15.9835 20.4026 15.6713L23.0973 5.58276C23.1802 5.27062 23.0137 4.94991 22.7271 4.87562L11.2891 1.78776C11.0017 1.71134 10.6986 1.90348 10.6157 2.21562L7.92097 12.3049Z" fill="#EA4335"/>
<path opacity="0.2" d="M20.5192 9.18369L21.121 12.8508L20.5192 15.1044V9.18369ZM13.8652 2.62012L14.4042 2.76583L14.7387 5.02869L13.8652 2.62012Z" fill="#3E2723"/>
<path opacity="0.2" d="M22.7256 4.87501L11.289 1.7893C11.0024 1.71216 10.6993 1.90358 10.6164 2.21644L7.92166 12.305C7.91666 12.3222 7.91595 12.3386 7.91309 12.3564L10.5864 2.34358C10.6707 2.03144 10.9738 1.83858 11.2604 1.91644L22.6985 5.0043C22.9686 5.07716 23.1302 5.36573 23.0773 5.66144L23.0973 5.58501C23.1809 5.27287 23.0144 4.95216 22.727 4.87787L22.7256 4.87501Z" fill="white"/>
<path d="M16.9282 11.0628C17.0382 11.3664 16.8996 11.6985 16.6208 11.7999L4.55235 16.2092C4.27358 16.3107 3.95478 16.1457 3.84471 15.8421L0.282923 6.02708C0.172846 5.72351 0.311514 5.39137 0.590281 5.28994L12.6602 0.882797C12.9389 0.780654 13.2577 0.945654 13.3678 1.24923L16.9282 11.0628Z" fill="#FFC107"/>
<path opacity="0.2" d="M0.329384 6.14722C0.219307 5.84365 0.357976 5.5115 0.636743 5.40936L12.7059 1.00222C12.9818 0.901504 13.2963 1.06222 13.4093 1.35936L13.3678 1.24507C13.2577 0.941504 12.9389 0.776504 12.6602 0.878646L0.590281 5.28579C0.311514 5.38793 0.172846 5.71936 0.282923 6.02293L3.84399 15.8379C3.84546 15.8414 3.84713 15.8447 3.84899 15.8479L0.329384 6.14722Z" fill="white"/>
<path d="M20.5176 18.1328C20.5172 18.2882 20.4554 18.4371 20.3456 18.5471C20.2358 18.6571 20.0869 18.7192 19.9315 18.72H3.42917C3.35206 18.7202 3.27567 18.7051 3.20442 18.6756C3.13317 18.6462 3.06847 18.6029 3.01404 18.5483C2.95961 18.4937 2.91654 18.4289 2.88732 18.3576C2.85809 18.2863 2.84329 18.2099 2.84376 18.1328V5.61569C2.84395 5.46021 2.90569 5.31112 3.01551 5.20098C3.12533 5.09083 3.2743 5.02859 3.42989 5.02783H19.9343C20.0115 5.02764 20.088 5.04274 20.1593 5.07224C20.2307 5.10174 20.2955 5.14507 20.35 5.19972C20.4044 5.25437 20.4476 5.31927 20.4768 5.39067C20.5061 5.46206 20.5209 5.53854 20.5204 5.61569L20.5176 18.1328Z" fill="#4285F4"/>
<path d="M17.3679 9.98422H12.4287V8.67993H17.3679C17.4021 8.67993 17.4359 8.68668 17.4675 8.6998C17.4991 8.71292 17.5278 8.73215 17.5519 8.75638C17.576 8.78061 17.5951 8.80936 17.608 8.84098C17.621 8.87261 17.6275 8.90648 17.6274 8.94065V9.72279C17.6275 9.79181 17.6003 9.85809 17.5517 9.9071C17.5031 9.95611 17.437 9.98384 17.3679 9.98422ZM17.3679 14.9385H12.4287V13.6349H17.3679C17.4021 13.6349 17.4359 13.6417 17.4675 13.6548C17.4991 13.6679 17.5278 13.6872 17.5519 13.7114C17.576 13.7356 17.5951 13.7644 17.608 13.796C17.621 13.8276 17.6275 13.8615 17.6274 13.8956V14.6785C17.6272 14.7473 17.5998 14.8132 17.5512 14.8619C17.5026 14.9106 17.4367 14.9381 17.3679 14.9385ZM18.147 12.4606H12.4287V11.1571H18.147C18.1812 11.1571 18.2151 11.1638 18.2467 11.1769C18.2784 11.19 18.3071 11.2093 18.3312 11.2335C18.3554 11.2577 18.3746 11.2864 18.3876 11.3181C18.4006 11.3497 18.4073 11.3836 18.4072 11.4178V12.1999C18.407 12.2689 18.3796 12.335 18.3308 12.3838C18.2821 12.4327 18.216 12.4603 18.147 12.4606Z" fill="white"/>
<path opacity="0.2" d="M19.9343 18.5871H3.42989C3.35268 18.5873 3.2762 18.5722 3.20486 18.5427C3.13353 18.5132 3.06874 18.4699 3.01425 18.4152C2.95976 18.3606 2.91663 18.2957 2.88737 18.2243C2.85811 18.1529 2.84329 18.0764 2.84376 17.9993V18.13C2.84395 18.2855 2.90569 18.4346 3.01551 18.5447C3.12533 18.6548 3.2743 18.7171 3.42989 18.7178H19.9343C20.0115 18.718 20.088 18.7029 20.1593 18.6734C20.2307 18.6439 20.2955 18.6006 20.35 18.546C20.4044 18.4913 20.4476 18.4264 20.4768 18.355C20.5061 18.2836 20.5209 18.2071 20.5204 18.13V18C20.5201 18.1554 20.4583 18.3044 20.3485 18.4145C20.2387 18.5246 20.0898 18.5869 19.9343 18.5878V18.5871Z" fill="#1A237E"/>
<path opacity="0.2" d="M3.42917 5.15855H19.9343C20.0115 5.15836 20.0879 5.17343 20.1592 5.20288C20.2305 5.23234 20.2952 5.27561 20.3497 5.33018C20.4042 5.38476 20.4473 5.44957 20.4766 5.52089C20.5059 5.5922 20.5208 5.6686 20.5204 5.74569V5.61569C20.5203 5.46021 20.4585 5.31112 20.3487 5.20098C20.2389 5.09083 20.0899 5.02859 19.9343 5.02783H3.42989C3.35268 5.02764 3.2762 5.04274 3.20486 5.07224C3.13353 5.10174 3.06874 5.14507 3.01425 5.19972C2.95976 5.25437 2.91663 5.31927 2.88737 5.39067C2.85811 5.46206 2.84329 5.53854 2.84376 5.61569V5.74569C2.84414 5.59033 2.90596 5.44143 3.01576 5.33144C3.12556 5.22145 3.27371 5.1593 3.42917 5.15855Z" fill="white"/>
<path d="M8.01073 11.2885V12.4635H9.69263C9.55396 13.1799 8.92709 13.6992 8.01073 13.6992C6.99002 13.6992 6.16372 12.8328 6.16372 11.8085C6.16372 10.7842 6.99216 9.91778 8.01073 9.91778C8.45584 9.91074 8.88579 10.0794 9.20728 10.3871L10.0979 9.49421C9.53414 8.96263 8.78579 8.67067 8.01073 8.67992C7.59757 8.67486 7.18754 8.75216 6.80462 8.90731C6.4217 9.06246 6.07357 9.29233 5.7806 9.58349C5.48642 9.87491 5.25301 10.2217 5.09388 10.6039C4.93474 10.9861 4.85305 11.396 4.85352 11.8099C4.85369 12.2237 4.93569 12.6333 5.09478 13.0152C5.25388 13.3972 5.48695 13.744 5.7806 14.0356C6.07394 14.3262 6.42215 14.5557 6.805 14.7107C7.18784 14.8657 7.59769 14.9431 8.01073 14.9385C9.81199 14.9385 10.9971 13.6685 10.9971 11.8813C10.9961 11.6827 10.9794 11.4845 10.9471 11.2885H8.01073Z" fill="white"/>
<g opacity="0.2">
<path d="M8.04297 12.4592V12.5899H9.69413C9.70628 12.5471 9.71628 12.5035 9.72486 12.4592H8.04297Z" fill="#1A237E"/>
<path d="M8.04297 14.9357C7.22656 14.9351 6.44309 14.6139 5.86144 14.0414C5.2782 13.4678 4.94243 12.689 4.92578 11.8714V11.9371C4.92547 12.7664 5.25393 13.5621 5.83928 14.15C6.12846 14.4404 6.47218 14.6708 6.85072 14.8281C7.22926 14.9853 7.63516 15.0663 8.04511 15.0664C9.84637 15.0664 11.0315 13.7957 11.0315 12.0086V11.9657C10.9886 13.7071 9.81492 14.9364 8.04368 14.9364L8.04297 14.9357ZM9.23952 10.3843C8.91782 10.077 8.48795 9.90862 8.04297 9.9157C7.02225 9.9157 6.19596 10.7821 6.19596 11.8057C6.19596 11.8278 6.19596 11.8514 6.19953 11.8707C6.23384 10.8764 7.04584 10.0457 8.04654 10.0457C8.49103 10.0397 8.91996 10.2091 9.24024 10.5171L10.1945 9.55855C10.1718 9.53801 10.1484 9.51823 10.1244 9.49927L9.24024 10.3864V10.3843H9.23952Z" fill="#1A237E"/>
</g>
<path opacity="0.2" d="M17.6274 9.85142V9.7207C17.6274 9.78967 17.6001 9.85584 17.5515 9.90481C17.5029 9.95377 17.4369 9.98157 17.3679 9.98213H12.4287V10.1114H17.3679C17.4368 10.1112 17.5028 10.0838 17.5514 10.035C17.6 9.98627 17.6274 9.92025 17.6274 9.85142ZM17.3679 14.9371H12.4287V15.0664H17.3679C17.4021 15.0664 17.4359 15.0597 17.4675 15.0465C17.4991 15.0334 17.5278 15.0142 17.5519 14.99C17.576 14.9657 17.5951 14.937 17.608 14.9054C17.621 14.8737 17.6275 14.8399 17.6274 14.8057V14.6764C17.6272 14.7452 17.5998 14.8111 17.5512 14.8598C17.5026 14.9085 17.4367 14.936 17.3679 14.9364V14.9371ZM18.147 12.4586H12.4287V12.5893H18.147C18.1813 12.5894 18.2152 12.5827 18.2469 12.5696C18.2785 12.5565 18.3073 12.5373 18.3314 12.5131C18.3556 12.4888 18.3748 12.4601 18.3878 12.4284C18.4008 12.3967 18.4074 12.3628 18.4072 12.3286V12.1986C18.407 12.2675 18.3795 12.3336 18.3308 12.3825C18.2821 12.4313 18.216 12.4589 18.147 12.4593V12.4586Z" fill="#1A237E"/>
<path d="M22.7255 4.87575L18.4404 3.71861V0.525034C18.4393 0.37093 18.3774 0.223479 18.2682 0.114642C18.159 0.00580541 18.0113 -0.0556471 17.8571 -0.0563947H5.50775C5.35293 -0.0567748 5.20427 0.00422412 5.0944 0.113223C4.98452 0.222221 4.92238 0.37032 4.92163 0.525034V3.70718L0.589305 5.28789C0.310538 5.39003 0.171869 5.72146 0.281946 6.02503L2.84589 13.0857V18.1315C2.84607 18.2869 2.90782 18.436 3.01764 18.5462C3.12745 18.6563 3.27642 18.7186 3.43201 18.7193H19.9364C20.0135 18.7193 20.0899 18.7041 20.161 18.6745C20.2322 18.6449 20.2968 18.6016 20.3512 18.5469C20.4055 18.4923 20.4485 18.4275 20.4777 18.3562C20.5068 18.2849 20.5216 18.2085 20.5211 18.1315V15.2357L23.0979 5.58432C23.1816 5.27146 23.015 4.95146 22.7277 4.87646H22.7263L22.7255 4.87575Z" fill="url(#paint0_radial_734_3819)"/>
</g>
</g>
<defs>
<radialGradient id="paint0_radial_734_3819" cx="0" cy="0" r="1" gradientUnits="userSpaceOnUse" gradientTransform="translate(5.40125 1.46432) scale(22.2438 22.3166)">
<stop stop-color="white" stop-opacity="0.1"/>
<stop offset="1" stop-color="white" stop-opacity="0"/>
</radialGradient>
<clipPath id="clip0_734_3819">
<rect width="22.8732" height="20" fill="white" transform="translate(0.250977)"/>
</clipPath>
</defs>
</svg>
