<svg width="109" height="115" viewBox="0 0 109 115" fill="none" xmlns="http://www.w3.org/2000/svg">
<g filter="url(#filter0_d_734_3637)">
<circle cx="54.4375" cy="50" r="50" fill="white"/>
</g>
<mask id="mask0_734_3637" style="mask-type:alpha" maskUnits="userSpaceOnUse" x="4" y="0" width="101" height="100">
<circle cx="54.4375" cy="50" r="50" fill="white"/>
</mask>
<g mask="url(#mask0_734_3637)">
<g clip-path="url(#clip0_734_3637)">
<path d="M75.1972 38.8212L72.3802 35.4036C71.9934 34.9344 71.7581 34.3667 71.7004 33.762L71.2756 29.3533C71.055 27.0627 69.2321 25.2399 66.9415 25.0192L62.5328 24.5949C61.9281 24.5368 61.3605 24.3015 60.8913 23.9151L57.4736 21.0976C55.698 19.6341 53.1203 19.6341 51.3447 21.0976L47.927 23.9151C47.4583 24.3015 46.8906 24.5368 46.2855 24.5949L41.8768 25.0192C39.5861 25.2399 37.7638 27.0627 37.5427 29.3533L37.1183 33.762C37.0602 34.3667 36.8249 34.9344 36.4386 35.4036L33.621 38.8212C32.1576 40.5969 32.1576 43.1745 33.621 44.9502L36.4386 48.3678C36.8249 48.837 37.0602 49.4047 37.1183 50.0094L37.5427 54.4181C37.7633 56.7087 39.5861 58.5311 41.8768 58.7522L44.5716 59.0117L38.1689 74.3115C37.9954 74.728 38.0737 75.1968 38.3735 75.5346C38.6734 75.872 39.1288 76.0057 39.5619 75.8825L45.1168 74.3142C45.1411 74.3074 45.1644 74.3179 45.1754 74.3376L47.9572 79.3958C48.1641 79.7726 48.5509 79.9996 48.9767 79.9996C48.9968 79.9996 49.0169 79.9992 49.0375 79.9982C49.4875 79.9754 49.8766 79.7034 50.0547 79.2841L56.8144 63.1297C57.0438 62.9979 57.2644 62.8464 57.4741 62.6738L60.8917 59.8567C61.3243 59.4997 61.842 59.274 62.3946 59.1953L68.5171 73.8249L64.1844 72.6017C63.3604 72.3697 62.4976 72.7308 62.0842 73.4802L59.9149 77.4247L57.0406 70.556C56.8506 70.1024 56.3297 69.889 55.876 70.0786C55.4228 70.2681 55.2091 70.7895 55.399 71.2426L58.7659 79.2887C58.9421 79.7034 59.3308 79.9754 59.7812 79.9982C59.8018 79.9992 59.8219 80.0001 59.8421 80.0001C60.2678 80.0001 60.6546 79.7726 60.8615 79.3958L63.6429 74.3385C63.6543 74.3179 63.6781 74.3083 63.7015 74.3142L69.2555 75.8825C69.6894 76.0052 70.1454 75.872 70.4448 75.5346C70.7446 75.1968 70.8229 74.7285 70.6489 74.3106L64.2467 59.0112L66.9415 58.7517C69.2321 58.5311 71.055 56.7087 71.2756 54.4181L71.7004 50.0089C71.7581 49.4042 71.9934 48.837 72.3802 48.3678L75.1972 44.9502C76.6612 43.1745 76.6612 40.5969 75.1972 38.8212ZM48.9039 77.4247L46.7341 73.4793C46.3212 72.7304 45.4574 72.3692 44.6339 72.6017L40.3016 73.8244L46.4237 59.1953C46.9767 59.274 47.4944 59.4997 47.927 59.8563L51.3447 62.6738C52.2327 63.4058 53.3208 63.7715 54.4094 63.7715C54.4794 63.7715 54.549 63.7697 54.619 63.7665L48.9039 77.4247ZM73.8244 43.8186L71.0073 47.2362C70.3939 47.9797 70.0213 48.8796 69.9289 49.8386L69.5045 54.2473C69.3654 55.692 68.2159 56.8415 66.7712 56.9806L62.8986 57.3537C62.8834 57.3546 62.8679 57.356 62.8528 57.3583L62.3625 57.4054C61.403 57.4979 60.5031 57.8705 59.7597 58.4835L56.342 61.3005C55.2223 62.2238 53.5964 62.2238 52.4767 61.3005L49.059 58.4835C48.3156 57.8705 47.4157 57.4974 46.4562 57.4054L45.9637 57.3578C45.9499 57.356 45.9367 57.3551 45.9229 57.3542L42.0475 56.9806C40.6028 56.8415 39.4534 55.692 39.3142 54.2473L38.8899 49.8391C38.7974 48.8796 38.4248 47.9797 37.8114 47.2362L34.9943 43.8186C34.071 42.6985 34.071 41.0725 34.9943 39.9528L37.8114 36.5352C38.4248 35.7917 38.7974 34.8918 38.8899 33.9323L39.3142 29.5236C39.4534 28.0789 40.6028 26.9295 42.0475 26.7903L46.4562 26.366C47.4157 26.2735 48.3156 25.9009 49.059 25.2879L52.4767 22.4709C53.0365 22.0095 53.7232 21.7783 54.4094 21.7783C55.0955 21.7783 55.7822 22.009 56.342 22.4709L59.7597 25.2879C60.5031 25.9009 61.403 26.274 62.3625 26.366L66.7712 26.7903C68.2159 26.9295 69.3654 28.0789 69.5045 29.5236L69.9289 33.9323C70.0213 34.8918 70.3939 35.7917 71.0073 36.5352L73.8244 39.9528C74.7473 41.0729 74.7473 42.6985 73.8244 43.8186Z" fill="#EF4B4F"/>
<path d="M54.4098 27.9871C53.8156 27.9871 53.2177 28.0246 52.6318 28.0997C52.1448 28.1619 51.8001 28.6078 51.8623 29.0948C51.9246 29.5824 52.3709 29.9266 52.8575 29.8648C53.3684 29.7993 53.8907 29.7664 54.4098 29.7664C61.0926 29.7664 66.5295 35.2032 66.5295 41.8861C66.5295 48.5689 61.0922 54.0053 54.4098 54.0053C47.7269 54.0053 42.2901 48.5685 42.2901 41.8856C42.2901 37.1189 45.1007 32.7771 49.4504 30.8238C49.8985 30.6229 50.099 30.096 49.8976 29.6478C49.6962 29.1992 49.1693 28.9992 48.7216 29.2006C43.7334 31.4404 40.5107 36.4195 40.5107 41.8856C40.5107 49.5499 46.7459 55.7846 54.4098 55.7846C62.0736 55.7846 68.3088 49.5499 68.3088 41.8856C68.3088 34.2218 62.0736 27.9871 54.4098 27.9871Z" fill="#EF4B4F"/>
<path d="M45.5738 40.8552C44.5132 41.9158 44.5132 43.642 45.5738 44.7027L49.4597 48.5891C49.9738 49.1027 50.6568 49.3856 51.3837 49.3856C52.1102 49.3856 52.7936 49.1027 53.3077 48.5891L61.7905 40.1058C62.8511 39.0447 62.8511 37.319 61.7905 36.2579C60.7298 35.1972 59.0036 35.1972 57.9425 36.2579L51.3837 42.8171L49.4213 40.8552C48.3606 39.7945 46.6344 39.7945 45.5738 40.8552ZM51.3837 44.9654C51.6195 44.9654 51.8456 44.8716 52.0127 44.7045L59.2009 37.5163C59.568 37.1491 60.165 37.1496 60.5321 37.5163C60.8992 37.8834 60.8992 38.4808 60.5321 38.8474L52.0493 47.3307C51.8717 47.5083 51.635 47.6062 51.3837 47.6062C51.1319 47.6062 50.8957 47.5083 50.7181 47.3307L46.8317 43.4447C46.4651 43.0776 46.4651 42.4802 46.8317 42.1136C47.0153 41.93 47.2565 41.838 47.4978 41.838C47.7386 41.838 47.9798 41.93 48.1629 42.1131L50.7543 44.7045C50.9214 44.8716 51.1475 44.9654 51.3837 44.9654Z" fill="#EF4B4F"/>
</g>
</g>
<defs>
<filter id="filter0_d_734_3637" x="0.4375" y="0" width="108" height="115" filterUnits="userSpaceOnUse" color-interpolation-filters="sRGB">
<feFlood flood-opacity="0" result="BackgroundImageFix"/>
<feColorMatrix in="SourceAlpha" type="matrix" values="0 0 0 0 0 0 0 0 0 0 0 0 0 0 0 0 0 0 127 0" result="hardAlpha"/>
<feOffset dy="11"/>
<feGaussianBlur stdDeviation="2"/>
<feComposite in2="hardAlpha" operator="out"/>
<feColorMatrix type="matrix" values="0 0 0 0 0.491667 0 0 0 0 0.0717014 0 0 0 0 0.176693 0 0 0 1 0"/>
<feBlend mode="normal" in2="BackgroundImageFix" result="effect1_dropShadow_734_3637"/>
<feBlend mode="normal" in="SourceGraphic" in2="effect1_dropShadow_734_3637" result="shape"/>
</filter>
<clipPath id="clip0_734_3637">
<rect width="60" height="60" fill="white" transform="translate(24.4375 20)"/>
</clipPath>
</defs>
</svg>
