<svg width="109" height="115" viewBox="0 0 109 115" fill="none" xmlns="http://www.w3.org/2000/svg">
<g filter="url(#filter0_d_734_3642)">
<circle cx="54.4375" cy="50" r="50" fill="white"/>
</g>
<mask id="mask0_734_3642" style="mask-type:alpha" maskUnits="userSpaceOnUse" x="4" y="0" width="101" height="100">
<circle cx="54.4375" cy="50" r="50" fill="white"/>
</mask>
<g mask="url(#mask0_734_3642)">
<g clip-path="url(#clip0_734_3642)">
<path d="M41.915 36.2305H36.4072C35.8895 36.2305 35.4697 36.6502 35.4697 37.168V42.6758C35.4697 43.1935 35.8895 43.6133 36.4072 43.6133H41.915C42.4328 43.6133 42.8525 43.1935 42.8525 42.6758V37.168C42.8525 36.6502 42.4328 36.2305 41.915 36.2305ZM40.9775 41.7383H37.3447V38.1055H40.9775V41.7383ZM47.0713 37.1681C47.0713 36.6504 47.4911 36.2306 48.0088 36.2306H62.0127C62.5304 36.2306 62.9502 36.6504 62.9502 37.1681C62.9502 37.6858 62.5304 38.1056 62.0127 38.1056H48.0088C47.4911 38.1056 47.0713 37.6858 47.0713 37.1681ZM47.0713 42.6758C47.0713 42.158 47.4911 41.7383 48.0088 41.7383H62.0127C62.5304 41.7383 62.9502 42.158 62.9502 42.6758C62.9502 43.1935 62.5304 43.6133 62.0127 43.6133H48.0088C47.4911 43.6133 47.0713 43.1935 47.0713 42.6758ZM41.915 48.7695H36.4072C35.8895 48.7695 35.4697 49.1893 35.4697 49.707V55.2148C35.4697 55.7326 35.8895 56.1523 36.4072 56.1523H41.915C42.4328 56.1523 42.8525 55.7326 42.8525 55.2148V49.707C42.8525 49.1893 42.4328 48.7695 41.915 48.7695ZM40.9775 54.2773H37.3447V50.6445H40.9775V54.2773ZM47.0713 49.707C47.0713 49.1893 47.4911 48.7695 48.0088 48.7695H62.0127C62.5304 48.7695 62.9502 49.1893 62.9502 49.707C62.9502 50.2248 62.5304 50.6445 62.0127 50.6445H48.0088C47.4911 50.6445 47.0713 50.2249 47.0713 49.707ZM47.0713 55.2148C47.0713 54.6971 47.4911 54.2773 48.0088 54.2773H62.0127C62.5304 54.2773 62.9502 54.6971 62.9502 55.2148C62.9502 55.7326 62.5304 56.1523 62.0127 56.1523H48.0088C47.4911 56.1523 47.0713 55.7326 47.0713 55.2148ZM41.915 61.3086H36.4072C35.8895 61.3086 35.4697 61.7284 35.4697 62.2461V67.7539C35.4697 68.2716 35.8895 68.6914 36.4072 68.6914H41.915C42.4328 68.6914 42.8525 68.2716 42.8525 67.7539V62.2461C42.8525 61.7284 42.4328 61.3086 41.915 61.3086ZM40.9775 66.8164H37.3447V63.1836H40.9775V66.8164ZM57.0964 62.2461C57.0964 62.7638 56.6767 63.1836 56.1589 63.1836H48.0088C47.4911 63.1836 47.0713 62.7638 47.0713 62.2461C47.0713 61.7284 47.4911 61.3086 48.0088 61.3086H56.1589C56.6768 61.3086 57.0964 61.7284 57.0964 62.2461ZM57.0964 67.7538C57.0964 68.2715 56.6767 68.6913 56.1589 68.6913H48.0088C47.4911 68.6913 47.0713 68.2715 47.0713 67.7538C47.0713 67.2361 47.4911 66.8163 48.0088 66.8163H56.1589C56.6768 66.8163 57.0964 67.2361 57.0964 67.7538ZM75.2284 65.5917C75.5964 65.9559 75.5993 66.5496 75.2351 66.9174L68.8497 73.3666C68.6741 73.5439 68.4352 73.6439 68.1858 73.6445C68.185 73.6445 68.1841 73.6445 68.1834 73.6445C67.9348 73.6445 67.6964 73.5457 67.5205 73.3699L63.9695 69.8187C63.6033 69.4525 63.6034 68.8591 63.9695 68.4929C64.3357 68.1269 64.9293 68.127 65.2952 68.4929L68.18 71.3778L73.9027 65.5981C74.2669 65.2303 74.8605 65.2271 75.2284 65.5917ZM70.5381 59.0071V29.375C70.5381 27.5657 69.0661 26.0938 67.2568 26.0938H59.1709V23.9844C59.1709 23.4666 58.7511 23.0469 58.2334 23.0469H53.7628C53.0157 21.221 51.2371 20 49.21 20C47.1829 20 45.4042 21.2209 44.6571 23.0469H40.1865C39.6688 23.0469 39.249 23.4666 39.249 23.9844V26.0938H31.1631C29.3538 26.0938 27.8818 27.5657 27.8818 29.375V72.5C27.8818 74.3093 29.3538 75.7812 31.1631 75.7812H61.1828C63.103 78.341 66.1616 80 69.6006 80C75.4 80 80.1182 75.2818 80.1182 69.4824C80.1182 63.999 75.8999 59.483 70.5381 59.0071ZM41.124 24.9219H45.3368C45.7699 24.9219 46.1467 24.6252 46.2482 24.2041C46.5789 22.8328 47.7968 21.875 49.21 21.875C50.6231 21.875 51.8411 22.8328 52.1718 24.2041C52.2732 24.6252 52.65 24.9219 53.0831 24.9219H57.2959V29.1406H41.124V24.9219ZM31.1631 73.9062C30.3877 73.9062 29.7568 73.2754 29.7568 72.5V29.375C29.7568 28.5996 30.3877 27.9688 31.1631 27.9688H39.249V30.0781C39.249 30.5959 39.6688 31.0156 40.1865 31.0156H58.2334C58.7511 31.0156 59.1709 30.5959 59.1709 30.0781V27.9688H67.2568C68.0323 27.9688 68.6631 28.5996 68.6631 29.375V59.0071C63.3012 59.483 59.083 63.999 59.083 69.4824C59.083 71.0619 59.4336 72.5607 60.06 73.9062H31.1631ZM69.6006 78.125C64.835 78.125 60.958 74.248 60.958 69.4824C60.958 64.7169 64.835 60.8398 69.6006 60.8398C74.3661 60.8398 78.2432 64.7169 78.2432 69.4824C78.2432 74.248 74.3661 78.125 69.6006 78.125Z" fill="#EF4B4F"/>
</g>
</g>
<defs>
<filter id="filter0_d_734_3642" x="0.4375" y="0" width="108" height="115" filterUnits="userSpaceOnUse" color-interpolation-filters="sRGB">
<feFlood flood-opacity="0" result="BackgroundImageFix"/>
<feColorMatrix in="SourceAlpha" type="matrix" values="0 0 0 0 0 0 0 0 0 0 0 0 0 0 0 0 0 0 127 0" result="hardAlpha"/>
<feOffset dy="11"/>
<feGaussianBlur stdDeviation="2"/>
<feComposite in2="hardAlpha" operator="out"/>
<feColorMatrix type="matrix" values="0 0 0 0 0.491667 0 0 0 0 0.0717014 0 0 0 0 0.176693 0 0 0 1 0"/>
<feBlend mode="normal" in2="BackgroundImageFix" result="effect1_dropShadow_734_3642"/>
<feBlend mode="normal" in="SourceGraphic" in2="effect1_dropShadow_734_3642" result="shape"/>
</filter>
<clipPath id="clip0_734_3642">
<rect width="60" height="60" fill="white" transform="translate(24 20)"/>
</clipPath>
</defs>
</svg>
