<svg width="80" height="81" viewBox="0 0 80 81" fill="none" xmlns="http://www.w3.org/2000/svg">
<path fill-rule="evenodd" clip-rule="evenodd" d="M48.3255 49.8828C48.5097 50.3105 48.9163 50.6003 49.3807 50.6349C49.4119 50.6372 49.4428 50.6383 49.4739 50.6383C49.9039 50.6383 50.3067 50.4166 50.5358 50.0474L53.5644 45.1669L59.1913 46.3192C59.648 46.4124 60.1178 46.2447 60.4118 45.8836C60.7057 45.5225 60.7744 45.0278 60.5903 44.6002L56.4114 34.8977C56.5392 34.8435 56.67 34.7877 56.8078 34.7288C58.9628 33.806 60.2236 31.6219 59.9455 29.2943C59.8938 28.8619 59.8455 28.4772 59.8022 28.1319C59.6286 26.7467 59.5413 26.0514 59.635 25.5202C59.7288 24.9889 60.0485 24.3653 60.6855 23.1232C60.8444 22.8133 61.0213 22.4685 61.2177 22.0797C62.2753 19.9875 61.8374 17.5039 60.128 15.8999C59.8107 15.6019 59.5263 15.3383 59.2713 15.1014C58.2477 14.1521 57.7339 13.6755 57.4644 13.2083C57.1946 12.7411 57.0388 12.058 56.7283 10.6971C56.6508 10.3577 56.5646 9.97956 56.4652 9.5555C55.9305 7.273 53.9986 5.65206 51.658 5.52191C51.2233 5.49769 50.8361 5.47847 50.4885 5.46113C49.0941 5.39175 48.3942 5.35691 47.8874 5.17238C47.3805 4.98784 46.8221 4.56472 45.7093 3.72159C45.4319 3.51128 45.1227 3.27722 44.7743 3.01628C42.8974 1.61159 40.3758 1.61144 38.4989 3.01628C38.1505 3.27722 37.8413 3.51128 37.5639 3.72159C36.4511 4.56472 35.8927 4.98784 35.3858 5.17238C34.8789 5.35691 34.1789 5.39175 32.7847 5.46113C32.4369 5.47847 32.0499 5.49769 31.6152 5.52191C29.2746 5.65206 27.3425 7.27316 26.808 9.5555C26.7086 9.97956 26.6224 10.3575 26.5449 10.6971C26.2344 12.058 26.0786 12.7413 25.8088 13.2083C25.5391 13.6755 25.0253 14.1521 24.0019 15.1014C23.7468 15.3383 23.4625 15.6019 23.1452 15.8999C21.436 17.5041 20.9978 19.9877 22.0553 22.0799C22.2518 22.4683 22.4286 22.8132 22.5874 23.1228C23.2244 24.3652 23.5443 24.9888 23.638 25.52C23.7318 26.0511 23.6444 26.7464 23.4708 28.1314C23.4275 28.4769 23.3792 28.8617 23.3275 29.2943C23.0494 31.6219 24.3102 33.806 26.4652 34.7288C26.8655 34.9002 27.2227 35.0508 27.5435 35.186C27.641 35.2271 27.7335 35.2661 27.8238 35.3042L22.6977 46.3142C22.5011 46.7364 22.5557 47.2327 22.8388 47.6024C23.1221 47.9719 23.5872 48.1539 24.0461 48.0732L29.7044 47.0846L32.5902 52.0507C32.8147 52.4367 33.2269 52.6725 33.6708 52.6725C33.6896 52.6725 33.7086 52.6721 33.7275 52.6713C34.1928 52.6502 34.6077 52.3722 34.8042 51.9502L39.9057 40.9925C40.7241 40.7466 41.2202 40.6227 41.6369 40.6227C42.1763 40.6227 42.846 40.8292 44.18 41.241C44.3344 41.2886 44.4978 41.3391 44.6693 41.3916L48.3255 49.8828ZM53.2124 42.5428C52.6996 42.438 52.1755 42.6636 51.8994 43.1083L49.6743 46.6942L47.5499 41.7616C49.008 41.5592 50.3425 40.7422 51.1957 39.4375C51.4339 39.073 51.6442 38.7474 51.8332 38.4549C52.5905 37.2821 52.9705 36.6935 53.3838 36.3466C53.5693 36.191 53.8022 36.0503 54.1182 35.8936L57.3466 43.3894L53.2124 42.5428ZM33.5475 48.7239L31.4274 45.0752C31.1642 44.6225 30.6471 44.3821 30.1314 44.4719L25.9743 45.1982L30.0333 36.48C30.396 36.8403 30.7707 37.42 31.4389 38.455C31.6278 38.7475 31.8382 39.0732 32.0764 39.4375C33.1311 41.0505 34.9207 41.9194 36.7707 41.801L33.5475 48.7239ZM41.636 38.1214C40.7853 38.1214 39.9344 38.365 38.3557 38.8522C38.0271 38.9536 37.6614 39.0664 37.2499 39.1908C36.0597 39.5502 34.8497 39.1105 34.1686 38.0692C33.9332 37.7094 33.7255 37.3877 33.5391 37.0989C31.7464 34.323 31.5586 34.1655 28.5135 32.8822C28.1967 32.7488 27.8439 32.6 27.4486 32.4307C26.305 31.9408 25.6614 30.8261 25.8091 29.5908C25.8602 29.1638 25.9078 28.7836 25.9507 28.4425C26.3617 25.1641 26.3191 24.9225 24.8111 21.9819C24.6543 21.676 24.4797 21.3355 24.2858 20.9519C23.7246 19.8416 23.9482 18.5741 24.8553 17.7227C25.1689 17.4285 25.4496 17.1682 25.7016 16.9343C28.1242 14.6869 28.2467 14.4746 28.9818 11.2532C29.0582 10.9178 29.1433 10.5446 29.2414 10.1257C29.525 8.91441 30.5111 8.08706 31.7533 8.018C32.1827 7.99409 32.565 7.97503 32.9085 7.958C36.2088 7.79363 36.4394 7.70972 39.0732 5.71425C39.3472 5.50659 39.6524 5.27534 39.9966 5.01769C40.9927 4.27222 42.2796 4.27222 43.2757 5.01769C43.6199 5.27534 43.925 5.50659 44.1991 5.71425C46.8328 7.70972 47.0635 7.79363 50.3638 7.958C50.7071 7.97503 51.0896 7.99409 51.5189 8.018C52.7611 8.08706 53.7471 8.91441 54.0308 10.1257C54.1289 10.5444 54.2141 10.9177 54.2905 11.253C55.0255 14.4744 55.148 14.6869 57.5707 16.9341C57.8227 17.168 58.1033 17.4283 58.4169 17.7225C59.3241 18.5739 59.5474 19.8414 58.9863 20.9517C58.7924 21.3355 58.6177 21.6763 58.4607 21.9822C56.953 24.9225 56.9103 25.1641 57.3216 28.4428C57.3643 28.7839 57.4121 29.1638 57.463 29.5907C57.6107 30.826 56.9671 31.9408 55.8235 32.4305C55.4282 32.5997 55.0753 32.7485 54.7586 32.8821C51.7136 34.1653 51.5258 34.323 49.7332 37.0988C49.5467 37.3877 49.3391 37.7092 49.1036 38.0692C48.4228 39.1103 47.2138 39.5508 46.0224 39.1908C45.6108 39.0664 45.245 38.9535 44.9166 38.8522C43.3375 38.365 42.4866 38.1214 41.636 38.1214ZM54.0418 21.8868C54.0418 15.0461 48.4766 9.48097 41.636 9.48097C34.7955 9.48097 29.2303 15.0461 29.2303 21.8868C29.2303 28.7274 34.7955 34.2927 41.636 34.2927C48.4764 34.2927 54.0418 28.7275 54.0418 21.8868ZM41.6358 31.7927C36.1738 31.7927 31.7302 27.3489 31.7302 21.8868C31.7302 16.4247 36.1738 11.981 41.6358 11.981C47.0978 11.981 51.5416 16.4247 51.5416 21.8868C51.5417 27.3489 47.0978 31.7927 41.6358 31.7927ZM48.5011 18.9394L39.9653 26.6858C39.7266 26.9025 39.4258 27.0102 39.1255 27.0102C38.8049 27.0102 38.4849 26.8875 38.2414 26.6441L34.7271 23.1297C34.2389 22.6416 34.2389 21.8502 34.7271 21.3621C35.2153 20.8739 36.0066 20.8739 36.4949 21.3621L39.1672 24.0344L46.8211 17.0883C47.3322 16.6246 48.1228 16.6627 48.5867 17.1739C49.0507 17.6849 49.0124 18.4755 48.5011 18.9394ZM72.2316 59.895C73.8792 58.2477 74.716 56.1694 74.6514 53.8849L74.0427 32.3953C73.9827 30.2733 71.873 28.3719 69.5982 28.3719C69.5763 28.3719 69.5546 28.3721 69.5328 28.3724C68.423 28.3902 64.8044 28.988 64.8307 35.9338L64.8752 47.6071C64.8763 47.8739 64.8594 48.1332 64.8247 48.3858C64.7366 48.2805 64.6422 48.1775 64.5416 48.0769C62.9988 46.5342 60.4722 46.5147 58.7894 48.0324C58.7475 48.07 58.7082 48.1105 58.6719 48.1535C56.7889 50.3797 54.4753 52.3297 52.6161 53.8964C51.9641 54.446 51.3485 54.9649 50.8428 55.4205C48.7227 57.3314 48.4397 59.9644 48.4425 62.2878L48.4525 70.6013L47.3746 70.5921C46.6447 70.5853 45.9569 70.8649 45.435 71.3777C44.9132 71.8907 44.6222 72.5747 44.616 73.3036L44.588 76.5555C44.5818 77.2844 44.8608 77.9733 45.3738 78.4952C45.8866 79.0171 46.5707 79.3078 47.2996 79.3141L64.1927 79.4593C64.2007 79.4593 64.2086 79.4594 64.2166 79.4594C64.9366 79.4594 65.6161 79.1808 66.1322 78.6735C66.6541 78.1605 66.9449 77.4766 66.9511 76.7477L66.9791 73.4958C66.9853 72.7669 66.7063 72.078 66.1933 71.5561C65.6805 71.0342 64.9964 70.7435 64.2675 70.7372L62.8777 70.7253V69.2489L72.2316 59.895ZM64.4791 73.4744L64.4511 76.7263C64.4505 76.8047 64.4119 76.8591 64.3796 76.8908C64.3474 76.9227 64.2971 76.9599 64.2139 76.9596L47.3208 76.8144C47.2425 76.8138 47.1882 76.7752 47.1564 76.7428C47.1247 76.7105 47.0871 76.6557 47.0878 76.5772L47.1158 73.3253C47.1164 73.2469 47.155 73.1925 47.1874 73.1608C47.2192 73.1294 47.2736 73.0921 47.3507 73.0921H47.3528H47.353L64.2461 73.2372C64.3736 73.2385 64.4803 73.3469 64.4791 73.4744ZM50.9525 70.623L50.9425 62.285C50.9394 59.7389 51.3955 58.2883 52.5168 57.2777C52.9913 56.8499 53.5639 56.3672 54.2271 55.8085C56.1383 54.1975 58.5125 52.1968 60.5189 49.841C61.2207 49.2524 62.1786 49.2497 62.7738 49.8449C63.4072 50.4782 63.408 51.2316 62.7791 52.0844C61.7852 53.2016 60.7402 54.2136 59.6344 55.2836C59.1036 55.7974 58.5546 56.3286 58.0008 56.8825C57.5127 57.3707 57.5127 58.1621 58.001 58.6502C58.245 58.8942 58.5647 59.0163 58.8847 59.0163C59.2047 59.0163 59.5247 58.8942 59.7686 58.65C60.3078 58.1108 60.8492 57.5867 61.373 57.08C62.5283 55.9621 63.6194 54.9061 64.6883 53.7002C64.6939 53.6938 65.5255 52.6766 65.5255 52.6766C66.7772 51.1357 67.3822 49.4743 67.3752 47.5978L67.3307 35.9244C67.3189 32.8305 68.1782 30.8946 69.5728 30.8722C69.5814 30.8721 69.5897 30.8721 69.5982 30.8721C70.5264 30.8721 71.5216 31.6838 71.5436 32.4663L72.1524 53.9558C72.1977 55.5583 71.6296 56.9619 70.4638 58.1274L60.7438 67.8474C60.5094 68.0817 60.3777 68.3997 60.3777 68.7311V70.7039L50.9525 70.623ZM48.3183 74.5966C48.5244 74.078 49.1121 73.8247 49.6307 74.031C50.1492 74.2371 50.4025 74.8247 50.1964 75.3433C49.9902 75.8619 49.4027 76.1152 48.8841 75.9089C48.3653 75.7027 48.1121 75.1152 48.3183 74.5966ZM34.5635 71.378C34.0416 70.8649 33.3522 70.5867 32.6238 70.5924L31.546 70.6016L31.556 62.2882C31.5588 59.9646 31.2758 57.3316 29.1557 55.4208C28.6503 54.965 28.0344 54.4463 27.3825 53.8969C25.5235 52.33 23.2097 50.38 21.3268 48.1538C21.2905 48.1108 21.2513 48.0703 21.2094 48.0327C19.5258 46.515 16.9991 46.5347 15.4571 48.0772C15.3563 48.1778 15.2621 48.2808 15.1739 48.3861C15.1391 48.1335 15.1224 47.8744 15.1235 47.6075L15.168 35.9339C15.1943 28.9882 11.5757 28.3905 10.4658 28.3725C10.4439 28.3722 10.4225 28.3721 10.4005 28.3721C8.12566 28.3721 6.01581 30.2736 5.95597 32.3955L5.34722 53.8852C5.28269 56.1697 6.11941 58.2478 7.76691 59.8952L17.1208 69.2493V70.7257L15.731 70.7375C15.0021 70.7438 14.318 71.0346 13.8052 71.5564C13.2922 72.0783 13.0132 72.7672 13.0194 73.4961L13.0474 76.748C13.0536 77.4769 13.3444 78.1608 13.8663 78.6738C14.3824 79.1811 15.0618 79.4597 15.7819 79.4597C15.7899 79.4597 15.798 79.4597 15.8058 79.4596L32.6989 79.3144C33.4278 79.3082 34.1119 79.0174 34.6247 78.4955C35.1377 77.9736 35.4167 77.2847 35.4105 76.5558L35.3825 73.3039C35.3764 72.575 35.0853 71.891 34.5635 71.378ZM19.6208 68.7311C19.6208 68.3996 19.4891 68.0817 19.2547 67.8474L9.53456 58.1272C8.36894 56.9618 7.80081 55.5583 7.84613 53.9558L8.45488 32.4661C8.47722 31.6764 9.49675 30.8586 10.4257 30.8722C11.8203 30.8946 12.6796 32.8305 12.6678 35.9242L12.6233 47.5978C12.6163 49.4743 13.2213 51.1355 14.4752 52.6793L15.2777 53.6618C15.2832 53.6685 15.3047 53.6938 15.3103 53.7002C16.3793 54.9061 17.4703 55.9621 18.6257 57.08C19.1494 57.5869 19.6907 58.1108 20.23 58.65C20.4741 58.8941 20.7939 59.0163 21.1139 59.0163C21.4338 59.0163 21.7538 58.8942 21.9977 58.6502C22.486 58.1621 22.486 57.3707 21.9978 56.8825C21.4441 56.3288 20.895 55.7974 20.3643 55.2836C19.2585 54.2135 18.2135 53.2016 17.2196 52.0844C16.5908 51.2318 16.5914 50.4783 17.2249 49.845C17.8203 49.2497 18.778 49.2524 19.4799 49.841C21.4861 52.1969 23.8602 54.1977 25.7717 55.8086C26.4347 56.3675 27.0074 56.85 27.4821 57.278C28.6032 58.2883 29.0592 59.7391 29.0561 62.2852L29.0461 70.6232L19.621 70.7041L19.6208 68.7311ZM32.8419 76.743C32.8102 76.7753 32.7558 76.8139 32.6775 76.8146L15.7844 76.9597C15.7046 76.9599 15.651 76.9228 15.6188 76.891C15.5864 76.8592 15.5478 76.805 15.5472 76.7264L15.5193 73.4746C15.5185 73.3961 15.5561 73.3411 15.5878 73.3089C15.6196 73.2767 15.6739 73.238 15.7522 73.2374L32.6452 73.0922H32.6475C32.7247 73.0922 32.7791 73.1296 32.811 73.161C32.8433 73.1927 32.8819 73.2471 32.8825 73.3255L32.9105 76.5774C32.9113 76.6558 32.8736 76.7107 32.8419 76.743ZM31.6802 74.5966C31.8864 75.1152 31.6332 75.7027 31.1146 75.9089C30.596 76.1152 30.0083 75.8619 29.8022 75.3433C29.596 74.8247 29.8492 74.2372 30.3678 74.031C30.8864 73.8247 31.4739 74.078 31.6802 74.5966Z" fill="url(#paint0_linear_2302_16067)"/>
<defs>
<linearGradient id="paint0_linear_2302_16067" x1="5.34375" y1="40.7112" x2="74.6549" y2="40.7112" gradientUnits="userSpaceOnUse">
<stop stop-color="#991F3D"/>
<stop offset="1" stop-color="#E7474D"/>
</linearGradient>
</defs>
</svg>
