<svg width="80" height="80" viewBox="0 0 80 80" fill="none" xmlns="http://www.w3.org/2000/svg">
<path d="M79.0912 47.3091L70.0003 24.8485C69.7215 24.1576 69.2003 23.6242 68.5094 23.3333C67.8185 23.0545 67.0548 23.0667 66.376 23.3697L59.2972 26.5212C58.0972 27.0303 57.4548 28.3394 57.7094 29.5879L55.8306 30.6424C55.2003 31.0061 54.4366 31.1394 53.6973 31.0424L40.6427 29.1152C38.3639 28.7879 36.0245 29.5394 34.376 31.1273L33.4185 32.0485H26.17C25.8427 32.0485 25.5154 31.9273 25.273 31.7091L24.6306 31.1636C25.0791 30.0606 24.776 28.7758 23.8063 28.0121L18.3276 23.6849C17.7457 23.2242 17.0185 23.0182 16.2791 23.1273C15.5518 23.2242 14.8851 23.6242 14.4488 24.2061L1.24877 42.097C0.376039 43.2727 0.582099 44.9212 1.74574 45.8546L7.2124 50.1697C7.70937 50.5576 8.29119 50.7515 8.89725 50.7515C9.01846 50.7515 9.1518 50.7394 9.27301 50.7273C10.0003 50.6303 10.6548 50.2424 11.0912 49.6364L11.1397 49.5758L11.9276 50.1697C12.3882 50.497 12.6548 51.0546 12.6548 51.6364V54.897L10.6185 57.5152C8.80028 59.8788 9.2124 63.2849 11.5639 65.103C12.5215 65.8545 13.6851 66.2546 14.8851 66.2546C15.1033 66.2546 15.3336 66.2424 15.5518 66.2182C15.7942 66.1818 16.0245 66.1212 16.2548 66.0606C16.2548 66.1333 16.2427 66.1939 16.2427 66.2667C16.2427 67.8182 16.9457 69.2727 18.1579 70.2667C19.1033 71.0182 20.2427 71.3939 21.37 71.3939C22.073 71.3939 22.776 71.2364 23.4306 70.9576V71.0182C23.6003 72.2909 24.2669 73.4182 25.2366 74.1333L25.4548 74.303C26.2791 74.9091 27.2609 75.2364 28.2669 75.2364C28.4972 75.2364 28.7276 75.2242 28.97 75.1879C29.4912 75.1152 29.9639 74.9333 30.4245 74.703C30.6791 76 31.4185 77.1152 32.5215 77.8182L32.6791 77.9273C33.4669 78.4485 34.376 78.7152 35.2973 78.7152C35.6366 78.7152 35.9639 78.6788 36.3033 78.6061C37.576 78.3394 38.6548 77.5879 39.37 76.497L39.576 76.1818C40.4366 76.8364 41.4669 77.1758 42.57 77.1758C43.8669 77.1758 45.1397 76.6424 46.0609 75.7333C47.0669 74.7273 47.6003 73.3212 47.5033 71.903C47.5033 71.8182 47.4912 71.7212 47.4791 71.6364C48.8972 71.8424 50.3882 71.3939 51.4669 70.3152C52.4366 69.3455 52.9336 67.9879 52.8245 66.6182C52.8124 66.4485 52.7882 66.2788 52.7518 66.1091C54.3639 66.2061 55.9518 65.5636 57.0427 64.2667C57.976 63.1636 58.4124 61.7091 58.2306 60.2788C58.2185 60.1697 58.2063 60.0727 58.1821 59.9636C59.6488 60.1212 61.1397 59.6121 62.2306 58.5455C63.4306 57.3455 63.8791 55.6485 63.5518 54.0485C63.6124 54.0364 63.673 54.0485 63.7336 54.0364L67.6366 53.4909C68.1336 53.9394 68.8003 54.1939 69.4669 54.1939C69.8427 54.1939 70.2185 54.1212 70.57 53.9515L77.673 50.8121C79.0063 50.2303 79.6367 48.6788 79.0912 47.3091ZM8.9821 48.6667C8.80028 48.6909 8.63058 48.6424 8.49725 48.5333L3.05483 44.2303C2.78816 44.0121 2.72755 43.6242 2.93361 43.3455L16.1215 25.4182C16.2548 25.2364 16.4366 25.1879 16.5457 25.1758H16.6306C16.7397 25.1758 16.8851 25.2 17.0185 25.3091L22.5094 29.6364C22.776 29.8424 22.8245 30.2303 22.6306 30.4849L22.4609 30.7152C22.4488 30.7273 22.4366 30.7394 22.4245 30.7515L14.8366 41.0303C14.8245 41.0424 14.8245 41.0424 14.8124 41.0545L13.37 43.0182L10.0609 47.503C10.0488 47.5152 10.0488 47.5273 10.0488 47.5273L9.39422 48.4242C9.27301 48.5939 9.10331 48.6546 8.9821 48.6667ZM15.3094 64.1455C14.4366 64.2545 13.5639 64.0121 12.8609 63.4667C11.4306 62.3515 11.1639 60.2546 12.2912 58.8L16.1942 53.7697C16.8488 52.9212 17.8306 52.4849 18.8245 52.4849C19.5276 52.4849 20.2427 52.7152 20.8488 53.1758C21.6609 53.8182 22.1336 54.7758 22.1336 55.8061C22.1336 56.5455 21.8912 57.2485 21.4306 57.8545L17.5276 62.8849C16.97 63.5879 16.1821 64.0364 15.3094 64.1455ZM19.4791 68.6424C18.7518 68.0485 18.3397 67.1879 18.3397 66.2667C18.3397 65.6 18.57 64.9455 19.0185 64.3758L22.9094 59.3576C23.4063 58.703 24.1336 58.303 24.9457 58.2061C25.0669 58.1818 25.1882 58.1818 25.2973 58.1818C25.9882 58.1818 26.6669 58.4242 27.2973 58.9333C28.6063 59.9879 28.8124 61.9152 27.7579 63.2242L23.77 68.1939C22.7154 69.4788 20.7882 69.6849 19.4791 68.6424ZM28.6548 73.1152C27.9518 73.2121 27.2609 73.0424 26.7639 72.6788L26.5579 72.5091C25.976 72.0849 25.6124 71.4546 25.5154 70.7394C25.4185 70.0121 25.6245 69.297 26.073 68.7273L29.0306 65.0667C29.5397 64.4242 30.3154 64.0849 31.0912 64.0849C31.6366 64.0849 32.1942 64.2545 32.6548 64.6061C33.3215 65.103 33.7094 65.8788 33.7094 66.7152C33.7094 67.2606 33.5518 67.7697 33.2488 68.2061C33.2245 68.2303 33.2124 68.2667 33.1882 68.303C33.176 68.3152 33.176 68.3273 33.1639 68.3273L33.1154 68.4L30.3639 72.0849C29.976 72.6546 29.3579 73.0182 28.6548 73.1152ZM38.9942 73.2L37.6003 75.3697C37.2003 75.9879 36.5821 76.4121 35.8548 76.5697C35.1397 76.7152 34.4124 76.5818 33.8185 76.1939L33.6609 76.0849C33.0185 75.6727 32.5942 75.0303 32.4609 74.2909C32.3276 73.5515 32.4851 72.8121 32.9336 72.1939C33.6609 71.2364 34.4851 70.1697 34.8124 69.7697C34.873 69.7091 34.9336 69.6364 34.9942 69.5879C35.0063 69.5879 35.0063 69.5758 35.0063 69.5758C35.0185 69.5636 35.0427 69.5515 35.0548 69.5394C35.1154 69.4909 35.1639 69.4424 35.2609 69.3818C36.17 68.8364 37.3094 68.8364 38.1942 69.4061C38.97 69.903 39.4427 70.7758 39.4427 71.7212C39.4306 72.2545 39.2851 72.7636 38.9942 73.2ZM60.7518 57.0667C59.7579 58.0485 58.1457 58.1697 57.0306 57.3576L50.0609 52.2061L47.3457 50.1939C46.8851 49.8546 46.2306 49.9515 45.8791 50.4121C45.5397 50.8727 45.6366 51.5273 46.0972 51.8788L50.8488 55.3939L54.873 58.3758C55.576 58.897 56.0245 59.6606 56.1336 60.5333C56.2427 61.4061 55.9882 62.2545 55.4185 62.9333C54.376 64.1697 52.5336 64.4 51.2124 63.4667L42.8609 57.4909C42.3882 57.1515 41.7336 57.2606 41.4063 57.7333C41.0669 58.2061 41.176 58.8606 41.6488 59.1879L49.6366 64.897C50.2548 65.3455 50.6427 66.0364 50.7154 66.7879C50.776 67.5515 50.5094 68.2909 49.9639 68.8364C49.0548 69.7576 47.5882 69.8424 46.5579 69.0667L38.6791 62.9333C38.2185 62.5818 37.5639 62.6545 37.2124 63.1152C36.8609 63.5636 36.9336 64.2303 37.3821 64.5818L44.2669 69.9636C44.9215 70.4727 45.3336 71.2364 45.3821 72.0606C45.4427 72.897 45.1397 73.6849 44.5457 74.2788C43.576 75.2485 41.9397 75.3576 40.8488 74.5697C40.8488 74.5697 40.7882 74.497 40.7033 74.4121L40.7276 74.3758C41.2366 73.6 41.5033 72.6909 41.5033 71.7333C41.5033 70.0727 40.6791 68.5576 39.2972 67.6606C38.2427 66.9818 36.9821 66.7758 35.7821 66.9939C35.7821 66.9091 35.7942 66.8242 35.7942 66.7394C35.7942 65.2242 35.1033 63.8424 33.9033 62.9455C32.8609 62.1697 31.6124 61.8788 30.4245 62.0485C30.6669 60.303 30.0245 58.4727 28.5094 57.2485C27.4306 56.3636 26.0609 55.9758 24.6791 56.1333C24.4973 56.1576 24.3276 56.2061 24.1579 56.2424C24.17 56.097 24.1942 55.9636 24.1942 55.8182C24.1942 54.1333 23.4427 52.5818 22.1094 51.5394C20.1094 49.9879 17.3579 50.0727 15.4427 51.5758C15.4427 51.5636 15.4427 51.5636 15.4548 51.5515C15.4306 51.5758 15.4063 51.6 15.3821 51.6121C15.2609 51.7091 15.1397 51.8303 15.0306 51.9394C14.9336 52.0364 14.8245 52.1212 14.7276 52.2303V51.6485C14.7276 50.3879 14.1336 49.2121 13.1518 48.497L12.3518 47.903L13.8791 45.8303L15.8063 43.2121L16.4124 42.4C16.4488 42.3636 16.473 42.3273 16.5094 42.2909L23.4306 32.897L23.8791 33.2727C24.4973 33.8182 25.3094 34.1212 26.1457 34.1212H31.2124L28.3033 36.9091C27.6245 37.5636 27.2488 38.4485 27.2488 39.3939C27.2488 40.7515 28.0003 41.9515 29.2245 42.5212C32.2063 43.9515 35.7336 43.8788 38.6548 42.3394L39.9154 41.6849C41.1033 41.0545 42.5579 41.2 43.6124 42.0485L55.9154 51.903C56.6306 52.4606 57.3821 52.9212 58.1579 53.2606C58.4124 53.3697 58.6912 53.4788 58.9336 53.5636C59.1518 53.6485 59.3821 53.7212 59.576 53.7697C59.8427 53.8546 60.1094 53.9152 60.3397 53.9515C60.6548 54.0121 60.9579 54.0606 61.2124 54.0727C61.3336 54.0849 61.4427 54.0849 61.5639 54.097C61.5154 54.1091 61.4791 54.1212 61.4306 54.1333C61.77 55.1394 61.5276 56.2909 60.7518 57.0667ZM63.4427 51.9758C63.0427 52.0243 62.6063 52.0485 62.1094 52.0364C61.9033 52.0364 61.7094 52.0242 61.4306 51.9879C61.1882 51.9758 60.97 51.9273 60.7033 51.8788C60.5336 51.8546 60.3639 51.8182 60.1457 51.7455C59.976 51.7091 59.8185 51.6485 59.6609 51.5879C59.4427 51.5152 59.2124 51.4182 59.0063 51.3333C58.4003 51.0667 57.7942 50.703 57.2245 50.2546L45.5518 40.897L44.9215 40.4C43.9276 39.6 42.7154 39.1879 41.4912 39.1879C40.6185 39.1879 39.7457 39.3939 38.9579 39.8182L37.6973 40.4727C35.3579 41.7091 32.5336 41.7697 30.1457 40.6182C29.576 40.3515 29.37 39.8061 29.37 39.3818C29.37 39.1273 29.4427 38.7394 29.7821 38.4121L35.8306 32.6182C37.0185 31.4788 38.7033 30.9333 40.3397 31.1758L53.4063 33.103C54.6063 33.2727 55.8427 33.0424 56.8609 32.4606L58.4609 31.5636L61.0306 37.9152L66.5579 51.5394L63.4427 51.9758ZM76.8245 48.9212L69.7094 52.0606C69.4306 52.1818 69.0912 52.0849 68.8851 51.7333L61.3215 33.0546L60.3397 30.6546L59.7821 29.2727C59.6488 28.9576 59.7942 28.5939 60.1215 28.4485L67.2245 25.297C67.3821 25.2242 67.5639 25.2242 67.7215 25.2849C67.8791 25.3455 68.0003 25.4667 68.0609 25.6364L77.1518 48.1091C77.273 48.4121 77.1276 48.7758 76.8245 48.9212Z" fill="url(#paint0_linear_2302_16048)"/>
<path d="M40.0001 26.206C46.8728 26.206 52.4607 20.6182 52.4607 13.7454C52.4607 6.8727 46.8728 1.27271 40.0001 1.27271C33.1273 1.27271 27.5273 6.86058 27.5273 13.7454C27.5395 20.6182 33.1273 26.206 40.0001 26.206ZM40.0001 3.36967C45.7213 3.36967 50.3637 8.02422 50.3637 13.7454C50.3637 19.4666 45.7092 24.1091 40.0001 24.1091C34.2789 24.1091 29.6243 19.4545 29.6243 13.7454C29.6243 8.02422 34.2789 3.36967 40.0001 3.36967Z" fill="url(#paint1_linear_2302_16048)"/>
<path d="M37.4537 17.5394C37.6476 17.7333 37.9143 17.8424 38.1931 17.8424C38.4719 17.8424 38.7385 17.7333 38.9325 17.5394L45.0295 11.4424C45.4416 11.0303 45.4416 10.3758 45.0295 9.96363C44.6173 9.55151 43.9628 9.55151 43.5507 9.96363L38.1931 15.3212L36.4598 13.5879C36.0476 13.1758 35.3931 13.1758 34.981 13.5879C34.5688 14 34.5688 14.6545 34.981 15.0667L37.4537 17.5394Z" fill="url(#paint2_linear_2302_16048)"/>
<defs>
<linearGradient id="paint0_linear_2302_16048" x1="0.710938" y1="50.9069" x2="79.2873" y2="50.9069" gradientUnits="userSpaceOnUse">
<stop stop-color="#991F3D"/>
<stop offset="1" stop-color="#E7474D"/>
</linearGradient>
<linearGradient id="paint1_linear_2302_16048" x1="27.5273" y1="13.7394" x2="52.4607" y2="13.7394" gradientUnits="userSpaceOnUse">
<stop stop-color="#991F3D"/>
<stop offset="1" stop-color="#E7474D"/>
</linearGradient>
<linearGradient id="paint2_linear_2302_16048" x1="34.6719" y1="13.7485" x2="45.3385" y2="13.7485" gradientUnits="userSpaceOnUse">
<stop stop-color="#991F3D"/>
<stop offset="1" stop-color="#E7474D"/>
</linearGradient>
</defs>
</svg>
