<svg width="80" height="81" viewBox="0 0 80 81" fill="none" xmlns="http://www.w3.org/2000/svg">
<g clip-path="url(#clip0_2302_16059)">
<path d="M20.8335 58.1975L16.3535 59.1949C13.9787 59.7101 11.853 61.0256 10.3323 62.9211C8.81161 64.8165 7.98827 67.1768 8.00013 69.6069V71.7642C8.00218 73.2257 8.48328 74.6462 9.36974 75.8082C10.2562 76.9701 11.4991 77.8094 12.9081 78.1975C17.2348 79.3775 25.4468 80.7869 40.0001 80.7869C54.5535 80.7869 62.7655 79.3775 67.0921 78.1975C68.5011 77.8094 69.7441 76.9701 70.6305 75.8082C71.517 74.6462 71.9981 73.2257 72.0001 71.7642V69.6069C72.012 67.1768 71.1887 64.8165 69.668 62.9211C68.1473 61.0256 66.0216 59.7101 63.6468 59.1949L59.1668 58.1975L53.0548 54.5322L50.5975 48.7989L51.3975 47.8775L51.9988 48.0389C52.628 48.2053 53.276 48.29 53.9268 48.2909C55.8929 48.2866 57.777 47.5025 59.1656 46.1107C60.5541 44.7188 61.3338 42.8329 61.3335 40.8669V39.2669C62.4754 38.972 63.4875 38.307 64.2112 37.3757C64.935 36.4445 65.3296 35.2996 65.3335 34.1202V28.7869C65.329 27.6079 64.9341 26.4637 64.2104 25.533C63.4867 24.6023 62.475 23.9376 61.3335 23.6429V22.1202C61.3335 16.4622 59.0859 11.036 55.0851 7.03525C51.0843 3.03448 45.6581 0.786865 40.0001 0.786865C34.3422 0.786865 28.916 3.03448 24.9152 7.03525C20.9144 11.036 18.6668 16.4622 18.6668 22.1202V23.6429C17.5253 23.9376 16.5136 24.6023 15.7899 25.533C15.0661 26.4637 14.6712 27.6079 14.6668 28.7869V34.1202C14.6668 35.5347 15.2287 36.8912 16.2289 37.8914C17.2291 38.8916 18.5856 39.4535 20.0001 39.4535H22.6668C23.122 39.4491 23.5731 39.3661 24.0001 39.2082V39.6682C23.9994 41.5717 24.6902 43.4107 25.9441 44.8429L29.4108 48.7962L26.9521 54.5295L20.8335 58.1975ZM27.6215 57.2362C30.0331 60.4139 33.3353 62.8027 37.1081 64.0989C35.8224 65.3579 34.7542 66.8213 33.9468 68.4295C29.7495 66.4702 26.0895 63.523 23.2801 59.8402L27.6215 57.2362ZM69.3335 69.6069V71.7642C69.334 72.6422 69.0462 73.4961 68.5144 74.1946C67.9825 74.8932 67.236 75.3978 66.3895 75.6309C62.2201 76.7629 54.2575 78.1202 40.0001 78.1202C25.7428 78.1202 17.7801 76.7629 13.6108 75.6242C12.7654 75.3914 12.0197 74.8878 11.4879 74.1906C10.9562 73.4934 10.6677 72.6411 10.6668 71.7642V69.6069C10.6577 67.7841 11.2753 66.0137 12.4162 64.5921C13.5571 63.1706 15.152 62.1844 16.9335 61.7989L20.7655 60.9469C22.2681 62.9642 26.8241 68.5015 33.2748 71.0322C33.8267 71.2443 34.4385 71.2393 34.9869 71.0181C35.5352 70.7969 35.9793 70.3759 36.2295 69.8402C37.1041 67.9895 38.3946 66.366 40.0001 65.0962C41.6061 66.3656 42.8974 67.9887 43.7735 69.8389C43.9624 70.2414 44.2619 70.5818 44.6371 70.8205C45.0122 71.0592 45.4475 71.1863 45.8921 71.1869C46.1787 71.1872 46.4628 71.1334 46.7295 71.0282C53.1788 68.4949 57.7348 62.9602 59.2375 60.9429L63.0695 61.7949C64.8511 62.1811 66.4459 63.1681 67.5864 64.5904C68.7268 66.0127 69.3437 67.7838 69.3335 69.6069ZM46.0535 68.4295C45.2467 66.8209 44.1784 65.3574 42.8921 64.0989C46.6649 62.8027 49.9671 60.4139 52.3788 57.2362L56.7201 59.8402C53.9105 63.5228 50.2506 66.4699 46.0535 68.4295ZM56.8135 44.6335C55.8463 45.37 54.632 45.7043 53.4241 45.5669L54.0561 44.8442C55.3099 43.4114 56.0007 41.5721 56.0001 39.6682V39.2082C56.4271 39.3661 56.8782 39.4491 57.3335 39.4535H58.6668V40.8669C58.6694 41.5951 58.5035 42.3141 58.1819 42.9676C57.8604 43.621 57.392 44.1912 56.8135 44.6335ZM53.3335 23.4335C41.0841 23.0655 38.5881 17.6642 38.5721 17.6255C38.4732 17.3779 38.3023 17.1656 38.0815 17.0161C37.8607 16.8666 37.6001 16.7868 37.3335 16.7869C33.4541 16.793 29.7221 18.2734 26.8935 20.9282C28.0868 14.3109 33.7975 8.78687 40.0001 8.78687C43.5352 8.79075 46.9243 10.1968 49.4239 12.6964C51.9236 15.196 53.3296 18.5852 53.3335 22.1202V23.4335ZM62.6668 28.7869V34.1202C62.6668 34.8274 62.3858 35.5057 61.8858 36.0058C61.3857 36.5059 60.7074 36.7869 60.0001 36.7869H57.3335C56.9798 36.7869 56.6407 36.6464 56.3907 36.3963C56.1406 36.1463 56.0001 35.8072 56.0001 35.4535V27.4535C56.0001 27.0999 56.1406 26.7608 56.3907 26.5107C56.6407 26.2607 56.9798 26.1202 57.3335 26.1202H60.0001C60.7074 26.1202 61.3857 26.4012 61.8858 26.9012C62.3858 27.4013 62.6668 28.0796 62.6668 28.7869ZM40.0001 3.45353C44.9492 3.45883 49.6941 5.42719 53.1936 8.92672C56.6931 12.4263 58.6615 17.1711 58.6668 22.1202V23.4535H57.3335C56.8782 23.458 56.4271 23.5409 56.0001 23.6989V22.1202C55.9955 17.8781 54.3084 13.8111 51.3088 10.8116C48.3092 7.81197 44.2422 6.12479 40.0001 6.1202C31.4761 6.1202 24.0001 14.2202 24.0001 23.4535V23.6989C23.5731 23.5409 23.122 23.458 22.6668 23.4535H21.3335V22.1202C21.3388 17.1711 23.3071 12.4263 26.8067 8.92672C30.3062 5.42719 35.051 3.45883 40.0001 3.45353ZM22.6668 36.7869H20.0001C19.2929 36.7869 18.6146 36.5059 18.1145 36.0058C17.6144 35.5057 17.3335 34.8274 17.3335 34.1202V28.7869C17.3335 28.0796 17.6144 27.4013 18.1145 26.9012C18.6146 26.4012 19.2929 26.1202 20.0001 26.1202H22.6668C23.0204 26.1202 23.3596 26.2607 23.6096 26.5107C23.8597 26.7608 24.0001 27.0999 24.0001 27.4535V35.4535C24.0001 35.8072 23.8597 36.1463 23.6096 36.3963C23.3596 36.6464 23.0204 36.7869 22.6668 36.7869ZM26.6668 39.6682V25.1869C27.7908 23.5603 29.2626 22.2042 30.9756 21.2169C32.6887 20.2296 34.5999 19.636 36.5708 19.4789C37.8295 21.3842 41.9735 25.7655 53.3335 26.0909V39.6682C53.3336 40.9263 52.8769 42.1416 52.0481 43.0882L50.4881 44.8709L46.7548 43.8735L46.7948 43.7082C46.8764 43.3675 46.89 43.014 46.8349 42.668C46.7798 42.322 46.657 41.9902 46.4736 41.6917C46.2902 41.3931 46.0498 41.1337 45.7661 40.9281C45.4824 40.7225 45.1609 40.5748 44.8201 40.4935L40.9308 39.5602C39.8986 39.313 38.8104 39.486 37.9058 40.0411C37.0011 40.5962 36.354 41.488 36.1068 42.5202C35.8596 43.5524 36.0326 44.6406 36.5877 45.5452C37.1428 46.4499 38.0346 47.097 39.0668 47.3442L42.9561 48.2775C43.1614 48.3267 43.3717 48.3518 43.5828 48.3522C44.1517 48.3525 44.7056 48.1692 45.162 47.8295C45.6185 47.4899 45.9531 47.012 46.1161 46.4669L48.5281 47.1122L46.5335 49.3869C45.9659 50.0359 45.2661 50.5561 44.481 50.9125C43.6959 51.269 42.8437 51.4534 41.9815 51.4535H38.0188C37.1567 51.453 36.3046 51.2683 35.5195 50.9119C34.7345 50.5555 34.0347 50.0356 33.4668 49.3869L27.9548 43.0869C27.1251 42.1412 26.6673 40.9262 26.6668 39.6682ZM44.2001 43.0882L43.5815 45.6802L39.6908 44.7469C39.5185 44.7082 39.3555 44.6356 39.2115 44.5334C39.0674 44.4312 38.9451 44.3013 38.8517 44.1515C38.7582 44.0016 38.6954 43.8346 38.667 43.6603C38.6387 43.486 38.6452 43.3077 38.6863 43.1359C38.7273 42.9641 38.8021 42.8022 38.9063 42.6596C39.0105 42.5169 39.1419 42.3964 39.2931 42.305C39.4442 42.2136 39.612 42.1532 39.7867 42.1272C39.9615 42.1011 40.1396 42.1101 40.3108 42.1535L44.2001 43.0882ZM31.4561 51.1429C32.2744 52.0784 33.2834 52.8281 34.4153 53.3417C35.5472 53.8552 36.7759 54.1206 38.0188 54.1202H41.9815C43.2244 54.1206 44.453 53.8551 45.5849 53.3415C46.7168 52.828 47.7258 52.0784 48.5441 51.1429L48.6508 51.0215L50.4868 55.3082C47.9571 58.7971 44.2185 61.2185 40.0001 62.1002C35.7818 61.2185 32.0431 58.7971 29.5135 55.3082L31.3508 51.0215L31.4561 51.1429Z" fill="white"/>
</g>
<defs>
<clipPath id="clip0_2302_16059">
<rect width="80" height="80" fill="white" transform="translate(0 0.786865)"/>
</clipPath>
</defs>
</svg>
