<svg width="80" height="81" viewBox="0 0 80 81" fill="none" xmlns="http://www.w3.org/2000/svg">
<g clip-path="url(#clip0_2896_4439)">
<path d="M4.80469 43.5149C4.80469 46.1591 6.95609 48.3104 9.60016 48.3104C12.2442 48.3104 14.3956 46.159 14.3956 43.5149C14.3956 43.1598 14.3556 42.8138 14.282 42.4806L21.1717 39.0299C22.0519 40.0496 23.352 40.6968 24.8014 40.6968C28.5216 40.6968 30.8267 36.622 28.9148 33.4395L37.548 24.7918C39.5275 25.9763 42.0934 25.5859 43.6325 23.8027L50.5222 27.2535C49.858 30.2624 52.1628 33.0834 55.2042 33.0834C59.3512 33.0834 61.5447 28.1413 58.7548 25.0679L68.805 9.96696C71.9294 11.0766 75.2011 8.73993 75.2011 5.44711C75.2009 2.8029 73.0497 0.651489 70.4055 0.651489C67.7612 0.651489 65.61 2.8029 65.61 5.44696C65.61 6.68508 66.0817 7.81524 66.855 8.66696L56.8048 23.7679C54.9631 23.1137 52.8858 23.6399 51.5745 25.1591L44.6848 21.7084C44.7584 21.3751 44.7984 21.0293 44.7984 20.6741C44.7984 18.0299 42.647 15.8787 40.003 15.8787C36.2842 15.8787 33.977 19.9524 35.8895 23.136L27.2566 31.7837C23.6825 29.6448 19.2106 32.8184 20.1198 36.9356L13.2302 40.3862C10.3408 37.0393 4.80469 39.0757 4.80469 43.5149ZM70.4055 2.99524C71.7573 2.99524 72.8572 4.09508 72.8572 5.44696C72.8572 6.79883 71.7573 7.89868 70.4055 7.89868C69.0536 7.89868 67.9538 6.79883 67.9538 5.44696C67.9538 4.09508 69.0534 2.99524 70.4055 2.99524ZM55.2042 25.836C56.5561 25.836 57.6559 26.9359 57.6559 28.2877C57.6559 29.6396 56.5561 30.7395 55.2042 30.7395C53.8523 30.7395 52.7525 29.6396 52.7525 28.2877C52.7525 26.9359 53.8522 25.836 55.2042 25.836ZM40.0028 18.2224C41.3547 18.2224 42.4545 19.3223 42.4545 20.6741C42.4545 22.026 41.3547 23.1259 40.0028 23.1259C38.6509 23.1259 37.5511 22.026 37.5511 20.6741C37.5511 19.3223 38.6508 18.2224 40.0028 18.2224ZM24.8014 33.4495C26.1533 33.4495 27.2531 34.5493 27.2531 35.9012C27.2531 37.2531 26.1533 38.3529 24.8014 38.3529C23.4495 38.3529 22.3497 37.2531 22.3497 35.9012C22.3497 34.5493 23.4495 33.4495 24.8014 33.4495ZM9.60016 45.9668C8.24828 45.9668 7.14844 44.867 7.14844 43.5151C7.14844 42.1632 8.24828 41.0634 9.60016 41.0634C10.952 41.0634 12.0519 42.1632 12.0519 43.5151C12.0519 44.867 10.9522 45.9668 9.60016 45.9668Z" fill="url(#paint0_linear_2896_4439)"/>
<path d="M77.9256 78.3077H76.4755V52.5566C76.4755 51.9093 75.9509 51.3847 75.3036 51.3847C74.6562 51.3847 74.1317 51.9093 74.1317 52.5566V78.3077H66.6772V19.9247H74.1317V47.088C74.1317 47.7354 74.6562 48.2599 75.3036 48.2599C75.9509 48.2599 76.4755 47.7354 76.4755 47.088V19.7329C76.4755 18.5463 75.51 17.581 74.3236 17.581H66.4855C65.2989 17.581 64.3336 18.5465 64.3336 19.7329V78.3077H61.2742V42.6805C61.2742 41.494 60.3089 40.5287 59.1225 40.5287H57.9378C57.2905 40.5287 56.7659 41.0532 56.7659 41.7005C56.7659 42.3479 57.2905 42.8724 57.9378 42.8724H58.9306V78.3077H51.4762V42.8724H52.4691C53.1164 42.8724 53.6409 42.3479 53.6409 41.7005C53.6409 41.0532 53.1164 40.5287 52.4691 40.5287H51.2842C50.0977 40.5287 49.1325 41.4941 49.1325 42.6805V78.3077H46.0731V35.0005C46.0731 33.814 45.1077 32.8488 43.9213 32.8488H36.0831C34.8966 32.8488 33.9314 33.8141 33.9314 35.0005V78.3077H30.872V50.2941C30.872 49.1076 29.9066 48.1422 28.7202 48.1422H20.882C19.6955 48.1422 18.7302 49.1077 18.7302 50.2941V78.3077H15.6708V57.9076C15.6708 56.721 14.7055 55.7558 13.5191 55.7558H5.68016C4.49359 55.7558 3.52828 56.7211 3.52828 57.9076V78.3077H2.07812C1.43078 78.3077 0.90625 78.8322 0.90625 79.4796C0.90625 80.1269 1.43078 80.6515 2.07812 80.6515H77.9258C78.5731 80.6515 79.0977 80.1269 79.0977 79.4796C79.0977 78.8322 78.573 78.3077 77.9256 78.3077ZM5.87203 78.3077V58.0996H13.3264V78.3077H5.87203ZM21.0733 78.3077V50.4858H28.5278V78.3077H21.0733ZM36.2747 78.3077V35.1926H43.7291V78.3077H36.2747Z" fill="url(#paint1_linear_2896_4439)"/>
</g>
<defs>
<linearGradient id="paint0_linear_2896_4439" x1="4.80469" y1="24.4809" x2="75.2011" y2="24.4809" gradientUnits="userSpaceOnUse">
<stop stop-color="#991F3D"/>
<stop offset="1" stop-color="#E7474D"/>
</linearGradient>
<linearGradient id="paint1_linear_2896_4439" x1="0.90625" y1="49.1162" x2="79.0977" y2="49.1162" gradientUnits="userSpaceOnUse">
<stop stop-color="#991F3D"/>
<stop offset="1" stop-color="#E7474D"/>
</linearGradient>
<clipPath id="clip0_2896_4439">
<rect width="80" height="80" fill="white" transform="translate(0 0.651489)"/>
</clipPath>
</defs>
</svg>
