<svg width="24" height="24" viewBox="0 0 24 24" fill="none" xmlns="http://www.w3.org/2000/svg">
<g clip-path="url(#clip0_1280_1393)">
<path d="M18.9657 14.8676C18.4744 14.356 17.8817 14.0825 17.2536 14.0825C16.6306 14.0825 16.0329 14.3509 15.5213 14.8625L13.9206 16.4581C13.7889 16.3872 13.6572 16.3214 13.5306 16.2555C13.3482 16.1643 13.176 16.0782 13.0291 15.9871C11.5298 15.0348 10.1672 13.7937 8.86033 12.188C8.22716 11.3877 7.80167 10.714 7.49268 10.0302C7.90804 9.65028 8.29301 9.25518 8.66785 8.87528C8.80968 8.73345 8.95151 8.58655 9.09334 8.44472C10.1571 7.381 10.1571 6.00322 9.09334 4.93949L7.71049 3.55665C7.55347 3.39962 7.39138 3.23753 7.23942 3.07544C6.93549 2.76139 6.61638 2.4372 6.28713 2.13328C5.79579 1.64701 5.2082 1.38867 4.59023 1.38867C3.97226 1.38867 3.37454 1.64701 2.86801 2.13328C2.86294 2.13835 2.86294 2.13835 2.85788 2.14341L1.13565 3.88083C0.487286 4.5292 0.117514 5.31939 0.0364682 6.23623C-0.0851005 7.71531 0.350521 9.09309 0.684835 9.99473C1.50542 12.2083 2.73124 14.2598 4.55984 16.4581C6.77847 19.1073 9.44791 21.1993 12.4973 22.6733C13.6623 23.2255 15.2174 23.8789 16.9548 23.9903C17.0612 23.9954 17.1726 24.0005 17.2739 24.0005C18.444 24.0005 19.4267 23.58 20.1966 22.7442C20.2017 22.7341 20.2118 22.7291 20.2169 22.7189C20.4803 22.3998 20.7842 22.1111 21.1033 21.8021C21.3211 21.5944 21.544 21.3766 21.7618 21.1487C22.2633 20.6269 22.5267 20.0191 22.5267 19.396C22.5267 18.7679 22.2582 18.1652 21.7466 17.6586L18.9657 14.8676ZM20.7791 20.2014C20.7741 20.2014 20.7741 20.2065 20.7791 20.2014C20.5816 20.4142 20.379 20.6067 20.1612 20.8194C19.8319 21.1335 19.4976 21.4627 19.1835 21.8325C18.6719 22.3795 18.0692 22.6379 17.279 22.6379C17.203 22.6379 17.1219 22.6379 17.046 22.6328C15.5415 22.5366 14.1435 21.949 13.095 21.4475C10.228 20.0596 7.71049 18.0892 5.6185 15.592C3.89121 13.5101 2.73631 11.5852 1.97144 9.51858C1.50036 8.25731 1.32814 7.27463 1.40412 6.34766C1.45477 5.75502 1.68271 5.26368 2.10314 4.84325L3.83043 3.11596C4.07863 2.88295 4.34203 2.75632 4.60036 2.75632C4.91948 2.75632 5.17781 2.9488 5.3399 3.1109C5.34497 3.11596 5.35004 3.12103 5.3551 3.12609C5.66409 3.41482 5.95788 3.71367 6.26687 4.03279C6.42389 4.19488 6.58598 4.35698 6.74808 4.52413L8.13092 5.90698C8.66785 6.44391 8.66785 6.94031 8.13092 7.47724C7.98402 7.62414 7.84219 7.77103 7.6953 7.91286C7.26981 8.34848 6.86458 8.75371 6.42389 9.14881C6.41376 9.15894 6.40363 9.16401 6.39857 9.17414C5.96294 9.60976 6.04399 10.0352 6.13517 10.324C6.14023 10.3392 6.1453 10.3544 6.15036 10.3696C6.51 11.2408 7.01654 12.0614 7.78648 13.039L7.79154 13.0441C9.18958 14.7663 10.6636 16.1086 12.2896 17.1369C12.4973 17.2686 12.71 17.375 12.9126 17.4763C13.095 17.5674 13.2672 17.6536 13.4141 17.7447C13.4344 17.7549 13.4546 17.7701 13.4749 17.7802C13.6471 17.8663 13.8092 17.9068 13.9763 17.9068C14.3968 17.9068 14.6602 17.6434 14.7463 17.5573L16.4786 15.825C16.6509 15.6527 16.9244 15.4451 17.2435 15.4451C17.5576 15.4451 17.8159 15.6426 17.9729 15.8148C17.978 15.8199 17.978 15.8199 17.9831 15.825L20.7741 18.616C21.2958 19.1326 21.2958 19.6645 20.7791 20.2014Z" fill="white"/>
<path d="M12.9691 5.70908C14.2963 5.93196 15.5018 6.56006 16.4642 7.52248C17.4266 8.4849 18.0497 9.69046 18.2776 11.0176C18.3333 11.3519 18.6221 11.5849 18.9513 11.5849C18.9918 11.5849 19.0273 11.5798 19.0678 11.5748C19.4427 11.514 19.6909 11.1594 19.6301 10.7846C19.3565 9.17886 18.5967 7.71497 17.4368 6.555C16.2768 5.39503 14.8129 4.63522 13.2072 4.36169C12.8324 4.30091 12.4828 4.54911 12.417 4.91888C12.3512 5.28866 12.5943 5.6483 12.9691 5.70908Z" fill="white"/>
<path d="M23.9684 10.5869C23.5176 7.94279 22.2715 5.53674 20.3568 3.62203C18.4421 1.70732 16.0361 0.461243 13.3919 0.0104253C13.0222 -0.0554245 12.6727 0.197844 12.6068 0.567615C12.546 0.942452 12.7942 1.29196 13.1691 1.35781C15.5295 1.75798 17.6823 2.87742 19.3944 4.58445C21.1065 6.29654 22.2209 8.44932 22.621 10.8098C22.6768 11.1441 22.9655 11.3771 23.2947 11.3771C23.3352 11.3771 23.3707 11.372 23.4112 11.367C23.781 11.3113 24.0343 10.9567 23.9684 10.5869Z" fill="white"/>
</g>
<defs>
<clipPath id="clip0_1280_1393">
<rect width="24" height="24" fill="white"/>
</clipPath>
</defs>
</svg>
