<svg width="32" height="32" viewBox="0 0 32 32" fill="none" xmlns="http://www.w3.org/2000/svg">
<circle cx="16" cy="16" r="16" fill="#EF4B4F"/>
<g clip-path="url(#clip0_734_4414)">
<path d="M21.0149 17.7702C20.6259 17.3652 20.1567 17.1486 19.6595 17.1486C19.1662 17.1486 18.693 17.3612 18.288 17.7662L17.0208 19.0294C16.9166 18.9732 16.8123 18.9211 16.7121 18.869C16.5677 18.7968 16.4313 18.7286 16.3151 18.6564C15.1281 17.9025 14.0494 16.9201 13.0148 15.6489C12.5135 15.0153 12.1766 14.4819 11.932 13.9406C12.2609 13.6398 12.5656 13.327 12.8624 13.0263C12.9747 12.914 13.0869 12.7977 13.1992 12.6854C14.0413 11.8433 14.0413 10.7525 13.1992 9.91043L12.1045 8.81568C11.9802 8.69137 11.8518 8.56304 11.7315 8.43472C11.4909 8.1861 11.2383 7.92945 10.9776 7.68885C10.5887 7.30388 10.1235 7.09937 9.63426 7.09937C9.14503 7.09937 8.67184 7.30388 8.27083 7.68885C8.26682 7.69286 8.26682 7.69286 8.26281 7.69687L6.89938 9.07232C6.38609 9.58562 6.09336 10.2112 6.0292 10.937C5.93295 12.108 6.27782 13.1987 6.54249 13.9125C7.19212 15.6649 8.16256 17.289 9.6102 19.0294C11.3666 21.1266 13.4799 22.7828 15.894 23.9497C16.8163 24.3868 18.0474 24.9041 19.4229 24.9923C19.5071 24.9964 19.5953 25.0004 19.6755 25.0004C20.6018 25.0004 21.3798 24.6675 21.9893 24.0059C21.9933 23.9978 22.0013 23.9938 22.0054 23.9858C22.2139 23.7332 22.4545 23.5046 22.7071 23.26C22.8796 23.0956 23.056 22.9231 23.2284 22.7427C23.6254 22.3296 23.834 21.8484 23.834 21.3552C23.834 20.858 23.6214 20.3807 23.2164 19.9797L21.0149 17.7702ZM22.4505 21.9928C22.4465 21.9928 22.4465 21.9968 22.4505 21.9928C22.2941 22.1612 22.1337 22.3136 21.9612 22.482C21.7006 22.7307 21.4359 22.9913 21.1873 23.284C20.7823 23.7171 20.3051 23.9217 19.6795 23.9217C19.6194 23.9217 19.5552 23.9217 19.495 23.9176C18.3041 23.8414 17.1973 23.3763 16.3672 22.9793C14.0975 21.8805 12.1045 20.3206 10.4483 18.3436C9.08087 16.6955 8.16657 15.1717 7.56105 13.5355C7.18811 12.537 7.05177 11.7591 7.11192 11.0252C7.15202 10.5561 7.33247 10.1671 7.66531 9.83424L9.03275 8.4668C9.22924 8.28234 9.43776 8.18209 9.64228 8.18209C9.89491 8.18209 10.0994 8.33447 10.2278 8.46279C10.2318 8.4668 10.2358 8.47081 10.2398 8.47482C10.4844 8.7034 10.717 8.93999 10.9616 9.19263C11.0859 9.32095 11.2142 9.44927 11.3426 9.5816L12.4373 10.6764C12.8624 11.1014 12.8624 11.4944 12.4373 11.9195C12.321 12.0358 12.2087 12.1521 12.0924 12.2643C11.7556 12.6092 11.4348 12.93 11.0859 13.2428C11.0779 13.2508 11.0699 13.2548 11.0659 13.2629C10.721 13.6077 10.7852 13.9446 10.8573 14.1731C10.8613 14.1852 10.8654 14.1972 10.8694 14.2092C11.1541 14.899 11.5551 15.5486 12.1646 16.3225L12.1686 16.3266C13.2754 17.69 14.4423 18.7527 15.7296 19.5667C15.894 19.671 16.0624 19.7552 16.2228 19.8354C16.3672 19.9076 16.5035 19.9757 16.6198 20.0479C16.6359 20.0559 16.6519 20.068 16.6679 20.076C16.8043 20.1442 16.9326 20.1762 17.0649 20.1762C17.3978 20.1762 17.6063 19.9677 17.6745 19.8995L19.0459 18.5281C19.1823 18.3918 19.3988 18.2273 19.6514 18.2273C19.9001 18.2273 20.1046 18.3837 20.2289 18.5201C20.2329 18.5241 20.2329 18.5241 20.2369 18.5281L22.4465 20.7376C22.8595 21.1467 22.8595 21.5677 22.4505 21.9928Z" fill="white"/>
<path d="M16.2679 10.5197C17.3185 10.6962 18.2729 11.1934 19.0348 11.9553C19.7967 12.7173 20.29 13.6717 20.4704 14.7223C20.5145 14.987 20.7431 15.1714 21.0038 15.1714C21.0359 15.1714 21.0639 15.1674 21.096 15.1634C21.3928 15.1153 21.5893 14.8346 21.5411 14.5378C21.3246 13.2666 20.7231 12.1077 19.8048 11.1894C18.8865 10.2711 17.7275 9.66959 16.4563 9.45305C16.1596 9.40493 15.8829 9.60142 15.8308 9.89416C15.7786 10.1869 15.9711 10.4716 16.2679 10.5197Z" fill="white"/>
<path d="M24.9755 14.3813C24.6186 12.288 23.6321 10.3833 22.1163 8.86744C20.6005 7.35163 18.6957 6.36515 16.6024 6.00825C16.3097 5.95612 16.033 6.15663 15.9809 6.44936C15.9328 6.74611 16.1292 7.0228 16.426 7.07493C18.2947 7.39173 19.999 8.27796 21.3544 9.62936C22.7098 10.9848 23.592 12.689 23.9088 14.5577C23.9529 14.8224 24.1815 15.0069 24.4421 15.0069C24.4742 15.0069 24.5023 15.0029 24.5344 14.9989C24.8271 14.9547 25.0276 14.674 24.9755 14.3813Z" fill="white"/>
</g>
<defs>
<clipPath id="clip0_734_4414">
<rect width="19" height="19" fill="white" transform="translate(6 6)"/>
</clipPath>
</defs>
</svg>
