<svg width="109" height="115" viewBox="0 0 109 115" fill="none" xmlns="http://www.w3.org/2000/svg">
<g filter="url(#filter0_d_734_3647)">
<circle cx="54.4375" cy="50" r="50" fill="white"/>
</g>
<mask id="mask0_734_3647" style="mask-type:alpha" maskUnits="userSpaceOnUse" x="4" y="0" width="101" height="100">
<circle cx="54.4375" cy="50" r="50" fill="white"/>
</mask>
<g mask="url(#mask0_734_3647)">
<g clip-path="url(#clip0_734_3647)">
<path d="M83.9415 63.2669L77.379 46.12C77.2971 45.9061 77.1348 45.7326 76.9269 45.6365C76.719 45.5404 76.4817 45.5293 76.2657 45.6055L69.3516 48.0723C69.2406 48.1121 69.1387 48.1739 69.0519 48.2538C68.9652 48.3338 68.8954 48.4303 68.8466 48.5377C68.7979 48.6452 68.7712 48.7613 68.7682 48.8792C68.7651 48.9971 68.7858 49.1145 68.829 49.2243L69.4302 50.7477L64.7122 52.9883L56.9684 51.534C56.2143 51.393 55.4391 51.4092 54.6914 51.5813C53.9438 51.7535 53.2396 52.0781 52.6231 52.5348L51.2391 53.5614L50.3227 52.9016C49.631 52.4063 48.8356 52.075 47.9969 51.9329C47.1581 51.7908 46.298 51.8415 45.4817 52.0813L42.5098 52.9661L38.6169 50.6387L39.1759 49.2254C39.219 49.1157 39.2397 48.9983 39.2367 48.8804C39.2336 48.7625 39.207 48.6463 39.1582 48.5389C39.1095 48.4315 39.0397 48.3349 38.9529 48.255C38.8662 48.175 38.7642 48.1133 38.6532 48.0735L31.7345 45.6055C31.5181 45.5286 31.2803 45.5393 31.0718 45.6355C30.8633 45.7316 30.7007 45.9055 30.6188 46.12L24.0587 63.2669C23.9773 63.478 23.9807 63.7124 24.068 63.9212C24.1554 64.1299 24.3199 64.2969 24.5274 64.3872L31.0899 67.2149C31.198 67.2616 31.3144 67.2861 31.4322 67.2869C31.5499 67.2878 31.6667 67.265 31.7754 67.2198C31.8842 67.1747 31.9828 67.1081 32.0653 67.0241C32.1479 66.9402 32.2127 66.8404 32.2559 66.7309L32.9169 65.0586L38.3567 68.1243C37.9901 68.6565 37.8213 69.3002 37.8795 69.9438C37.9378 70.5874 38.2193 71.1903 38.6755 71.6481C38.932 71.9048 39.2368 72.1083 39.5722 72.2468C39.9077 72.3854 40.2672 72.4563 40.6302 72.4555H40.6993C40.7608 73.1431 41.0777 73.7827 41.5875 74.2482C42.0972 74.7137 42.7629 74.9714 43.4532 74.9704H43.5247C43.5804 75.6164 43.8626 76.222 44.3216 76.6801C44.5781 76.9368 44.8829 77.1403 45.2183 77.2789C45.5538 77.4174 45.9133 77.4884 46.2762 77.4876H46.3454C46.3919 78.0113 46.5868 78.511 46.9074 78.9278C47.228 79.3446 47.6608 79.6613 48.1551 79.8407C48.6494 80.0201 49.1846 80.0548 49.6978 79.9406C50.2111 79.8264 50.6812 79.5682 51.0528 79.1962L52.0969 78.1532L53.5102 79.2079C54.109 79.6541 54.8487 79.869 55.5934 79.813C56.338 79.757 57.0373 79.4339 57.5626 78.9032L57.6622 78.8024C58.1059 78.3495 58.4003 77.7717 58.5059 77.1465C59.0347 77.2958 59.5936 77.3017 60.1254 77.1635C60.6572 77.0253 61.1426 76.7481 61.5317 76.3602L61.6044 76.2876C62.0975 75.7954 62.409 75.1505 62.488 74.4583C63.0208 74.617 63.5867 74.6284 64.1255 74.4911C64.6642 74.3539 65.1557 74.0732 65.5477 73.679L65.597 73.6297C66.0777 73.1533 66.3861 72.5303 66.4735 71.859C66.9479 71.9722 67.4424 71.9714 67.9164 71.8568C68.3905 71.7421 68.8306 71.5169 69.2009 71.1994C69.5711 70.882 69.861 70.4814 70.0467 70.0304C70.2323 69.5794 70.3086 69.0909 70.2692 68.6047C70.2539 68.4162 70.2213 68.2295 70.172 68.0469L75.2802 65.5461L75.7489 66.7274C75.7919 66.8371 75.8566 66.9371 75.9391 67.0212C76.0216 67.1054 76.1202 67.1721 76.229 67.2173C76.3379 67.2624 76.4547 67.2852 76.5726 67.2842C76.6904 67.2832 76.8069 67.2584 76.9149 67.2114L83.4774 64.3836C83.6832 64.2925 83.8461 64.1258 83.9325 63.9179C84.0188 63.7101 84.0221 63.477 83.9415 63.2669ZM30.9528 65.2426L26.0016 63.1075L31.9512 47.5508L33.4102 48.07L30.5977 56.0645C30.52 56.2846 30.5329 56.5265 30.6336 56.737C30.7342 56.9475 30.9144 57.1095 31.1345 57.1872C31.3545 57.2649 31.5964 57.252 31.8069 57.1513C32.0175 57.0507 32.1794 56.8705 32.2571 56.6504L35.0626 48.6641L37.2012 49.427L30.9528 65.2426ZM41.3438 70.4047C41.1541 70.5869 40.9005 70.6876 40.6375 70.6852C40.3744 70.6827 40.1228 70.5774 39.9364 70.3918C39.75 70.2062 39.6437 69.955 39.6402 69.6919C39.6367 69.4289 39.7363 69.1749 39.9177 68.9844L41.7927 67.1094C41.9337 66.9689 42.1131 66.8733 42.3084 66.8347C42.5036 66.7961 42.706 66.8161 42.8898 66.8923C43.0737 66.9686 43.2309 67.0975 43.3416 67.2629C43.4523 67.4284 43.5115 67.6229 43.5118 67.8219C43.5122 67.9542 43.4864 68.0852 43.4357 68.2073C43.385 68.3294 43.3105 68.4402 43.2165 68.5333L41.3438 70.4047ZM44.3227 72.7672C44.27 72.8188 44.2231 72.8739 44.1762 72.929L44.1669 72.9184C44.0742 73.0154 43.9632 73.0929 43.8402 73.1464C43.7172 73.1998 43.5848 73.2282 43.4507 73.2297C43.3166 73.2313 43.1835 73.2061 43.0593 73.1555C42.9351 73.1049 42.8223 73.03 42.7274 72.9353C42.6325 72.8405 42.5576 72.7277 42.5069 72.6035C42.4562 72.4793 42.4309 72.3463 42.4323 72.2122C42.4338 72.0781 42.462 71.9457 42.5154 71.8226C42.5687 71.6996 42.6461 71.5885 42.743 71.4958L44.4634 69.7766C44.5149 69.7251 44.5641 69.6712 44.611 69.6161L44.6192 69.6243C44.8093 69.4424 45.063 69.3422 45.326 69.3451C45.589 69.3479 45.8405 69.4537 46.0266 69.6396C46.2127 69.8255 46.3186 70.0769 46.3216 70.3399C46.3247 70.6029 46.2247 70.8567 46.043 71.0469L44.3227 72.7672ZM46.9852 75.4297C46.7937 75.6018 46.5434 75.6938 46.2861 75.687C46.0287 75.6802 45.7837 75.575 45.6015 75.3931C45.4193 75.2112 45.3137 74.9664 45.3065 74.709C45.2992 74.4517 45.3909 74.2013 45.5626 74.0094L47.4376 72.1344C47.5285 72.0314 47.6396 71.9481 47.764 71.8897C47.8883 71.8312 48.0234 71.7988 48.1607 71.7945C48.2981 71.7903 48.4348 71.8141 48.5626 71.8647C48.6904 71.9153 48.8065 71.9915 48.9037 72.0886C49.0009 72.1857 49.0772 72.3017 49.1279 72.4295C49.1785 72.5572 49.2025 72.694 49.1983 72.8313C49.1942 72.9687 49.1619 73.1037 49.1036 73.2281C49.0452 73.3526 48.962 73.4637 48.8591 73.5547L46.9852 75.4297ZM51.6821 76.0696L49.8071 77.9446C49.617 78.1264 49.3633 78.2266 49.1003 78.2238C48.8373 78.2209 48.5858 78.1152 48.3997 77.9293C48.2137 77.7434 48.1078 77.492 48.1047 77.229C48.1016 76.9659 48.2016 76.7122 48.3833 76.5219L50.1036 74.8028C50.1552 74.7512 50.2044 74.6973 50.2512 74.6422L50.2595 74.6504C50.4495 74.4686 50.7032 74.3684 50.9663 74.3713C51.2293 74.3741 51.4807 74.4798 51.6668 74.6658C51.8529 74.8517 51.9588 75.103 51.9619 75.3661C51.965 75.6291 51.865 75.8829 51.6833 76.0731L51.6821 76.0696ZM68.1305 69.7883C67.8969 70.0245 67.5829 70.1641 67.251 70.179C66.9192 70.194 66.5938 70.0834 66.3399 69.8692L65.6544 69.2985C65.6065 69.2289 65.5489 69.1665 65.4833 69.1133L63.9024 67.843C63.7202 67.7061 63.492 67.6453 63.2658 67.6735C63.0397 67.7017 62.8333 67.8166 62.6903 67.994C62.5472 68.1714 62.4787 68.3974 62.4991 68.6244C62.5195 68.8514 62.6273 69.0616 62.7997 69.2106L64.1637 70.311C64.2016 70.3634 64.2448 70.4117 64.2927 70.4551C64.4282 70.5751 64.5377 70.7215 64.6145 70.8854C64.6913 71.0493 64.7337 71.2272 64.7392 71.4081C64.7447 71.589 64.7131 71.7691 64.6464 71.9374C64.5797 72.1056 64.4792 72.2584 64.3512 72.3864L64.302 72.4356C64.0798 72.6588 63.7852 72.7956 63.4713 72.8213C63.1573 72.8471 62.8444 72.7602 62.5887 72.5762L61.2305 71.6036L61.2165 71.593L60.7032 71.2262C60.5136 71.0906 60.2779 71.0358 60.0479 71.0739C59.8179 71.112 59.6125 71.24 59.4768 71.4295C59.3412 71.6191 59.2864 71.8549 59.3245 72.0848C59.3626 72.3148 59.4906 72.5202 59.6802 72.6559L60.2028 73.0297C60.3579 73.1428 60.4867 73.2881 60.5803 73.4556C60.6739 73.6232 60.73 73.8091 60.7448 74.0005C60.7596 74.1918 60.7328 74.3841 60.6661 74.5641C60.5995 74.7441 60.4946 74.9075 60.3587 75.043L60.286 75.1157C60.0469 75.3545 59.7258 75.4934 59.388 75.5041C59.0502 75.5147 58.721 75.3964 58.4673 75.1731L57.0024 73.884C56.9183 73.7968 56.817 73.7279 56.705 73.6816C56.5929 73.6354 56.4725 73.6128 56.3513 73.6154C56.2301 73.6179 56.1108 73.6455 56.0008 73.6964C55.8907 73.7473 55.7924 73.8203 55.712 73.911C55.6316 74.0018 55.5708 74.1081 55.5335 74.2234C55.4962 74.3388 55.4831 74.4606 55.4951 74.5812C55.5071 74.7018 55.544 74.8186 55.6033 74.9243C55.6626 75.03 55.7432 75.1223 55.8399 75.1954L56.338 75.636C56.4737 75.7553 56.5836 75.9011 56.661 76.0643C56.7384 76.2276 56.7817 76.405 56.7881 76.5856C56.7946 76.7661 56.7641 76.9461 56.6986 77.1145C56.6331 77.2829 56.5339 77.4362 56.4071 77.5649L56.3075 77.6657C56.0813 77.8942 55.7802 78.0334 55.4596 78.0575C55.1389 78.0816 54.8204 77.9891 54.5626 77.7969L53.2969 76.8524C53.5644 76.4346 53.7146 75.9526 53.7316 75.4568C53.7487 74.9611 53.632 74.4699 53.3939 74.0347C53.1558 73.5995 52.8049 73.2365 52.3782 72.9836C51.9514 72.7307 51.4645 72.5973 50.9684 72.5973H50.8993C50.8375 71.9099 50.5208 71.2705 50.0114 70.8049C49.5019 70.3393 48.8367 70.0812 48.1466 70.0813H48.0751C48.0113 69.3839 47.6843 68.7369 47.1605 68.2719C46.6368 67.8069 45.9556 67.5589 45.2555 67.5782C45.2004 66.9321 44.9176 66.3266 44.4575 65.8696C43.9388 65.3518 43.2358 65.0609 42.5028 65.0609C41.7699 65.0609 41.0669 65.3518 40.5481 65.8696L39.6024 66.8141L33.5673 63.4157L37.9595 52.3016L41.9368 54.6794C42.0415 54.742 42.1581 54.7822 42.2791 54.7973C42.4002 54.8124 42.523 54.8022 42.6399 54.7672L45.9821 53.7723C46.5405 53.6078 47.129 53.5727 47.7031 53.6695C48.2771 53.7664 48.8215 53.9927 49.295 54.3313L49.7567 54.6641L45.0587 58.1504C44.7101 58.4092 44.4265 58.7457 44.2305 59.133C44.0345 59.5204 43.9314 59.9481 43.9294 60.3823C43.9273 60.8164 44.0264 61.2451 44.2187 61.6343C44.4111 62.0235 44.6914 62.3626 45.0376 62.6247C45.6904 63.1148 46.4762 63.3962 47.2917 63.4319C48.1073 63.4677 48.9146 63.2562 49.6079 62.8251L53.2969 60.5036C53.7259 61.359 54.5274 62.5215 55.9196 63.2376C57.5333 64.0672 59.495 64.0883 61.7567 63.3008L67.9677 67.7739C68.1237 67.8866 68.2535 68.0318 68.3479 68.1995C68.4424 68.3672 68.4994 68.5534 68.5149 68.7453C68.5303 68.9371 68.504 69.1301 68.4377 69.3108C68.3713 69.4915 68.2665 69.6556 68.1305 69.7919V69.7883ZM69.2602 66.5352L62.4059 61.6016C62.287 61.5162 62.1486 61.4618 62.0033 61.4434C61.858 61.425 61.7104 61.4431 61.5739 61.4961C59.6169 62.2555 57.9915 62.3165 56.7399 61.6825C55.0829 60.8399 54.5755 58.9977 54.5708 58.9872C54.5366 58.8531 54.4711 58.729 54.3799 58.6249C54.2886 58.5209 54.1741 58.4399 54.0456 58.3885C53.9171 58.3371 53.7783 58.3168 53.6405 58.3292C53.5026 58.3416 53.3697 58.3863 53.2524 58.4598L48.6727 61.3321C48.2815 61.5752 47.8257 61.6942 47.3655 61.6733C46.9053 61.6524 46.4622 61.4926 46.0946 61.2149C45.9661 61.1178 45.8619 60.9921 45.7905 60.8477C45.7191 60.7033 45.6823 60.5442 45.6831 60.3832C45.6839 60.2221 45.7222 60.0634 45.7951 59.9197C45.8679 59.776 45.9733 59.6513 46.1028 59.5555L53.6661 53.9422C54.088 53.6299 54.5697 53.4079 55.0813 53.2902C55.5928 53.1724 56.1231 53.1614 56.6391 53.2579L64.6641 54.7649C64.8466 54.7999 65.0355 54.7757 65.2032 54.6958L70.0735 52.3825L74.6286 63.909L69.2602 66.5352ZM77.0473 65.2391L70.7954 49.4188L72.9352 48.6559L75.7395 56.6422C75.8172 56.8623 75.9792 57.0425 76.1897 57.1431C76.4002 57.2438 76.6421 57.2567 76.8622 57.179C77.0822 57.1013 77.2624 56.9393 77.3631 56.7288C77.4637 56.5183 77.4766 56.2764 77.3989 56.0563L74.5864 48.0618L76.0454 47.5426L81.995 63.0993L77.0473 65.2391Z" fill="#EF4B4F"/>
<path d="M54 47.5391C56.7234 47.5391 59.3856 46.7315 61.6499 45.2185C63.9143 43.7055 65.6792 41.555 66.7214 39.0389C67.7636 36.5229 68.0363 33.7543 67.505 31.0832C66.9737 28.4122 65.6622 25.9587 63.7365 24.033C61.8108 22.1073 59.3573 20.7959 56.6863 20.2646C54.0153 19.7333 51.2467 20.006 48.7306 21.0481C46.2146 22.0903 44.0641 23.8552 42.5511 26.1196C41.038 28.384 40.2305 31.0462 40.2305 33.7695C40.2345 37.4202 41.6865 40.9202 44.2679 43.5016C46.8493 46.083 50.3493 47.535 54 47.5391ZM54 21.7578C56.3757 21.7578 58.698 22.4623 60.6734 23.7822C62.6487 25.102 64.1882 26.978 65.0974 29.1729C66.0065 31.3677 66.2444 33.7829 65.7809 36.1129C65.3174 38.443 64.1734 40.5832 62.4936 42.2631C60.8137 43.943 58.6734 45.087 56.3434 45.5505C54.0133 46.0139 51.5982 45.7761 49.4033 44.8669C47.2085 43.9578 45.3325 42.4182 44.0126 40.4429C42.6928 38.4676 41.9883 36.1452 41.9883 33.7695C41.9917 30.5849 43.2583 27.5316 45.5102 25.2797C47.7621 23.0278 50.8153 21.7612 54 21.7578Z" fill="#EF4B4F"/>
<path d="M54 44.0234C56.028 44.0234 58.0105 43.4221 59.6968 42.2953C61.383 41.1686 62.6973 39.5672 63.4734 37.6935C64.2495 35.8199 64.4525 33.7582 64.0569 31.7691C63.6612 29.78 62.6846 27.953 61.2506 26.5189C59.8166 25.0849 57.9895 24.1083 56.0004 23.7127C54.0114 23.317 51.9497 23.5201 50.076 24.2962C48.2023 25.0723 46.6009 26.3865 45.4742 28.0728C44.3475 29.759 43.7461 31.7415 43.7461 33.7695C43.7492 36.4881 44.8305 39.0944 46.7528 41.0167C48.6751 42.939 51.2814 44.0203 54 44.0234ZM54 25.2734C55.6804 25.2734 57.323 25.7717 58.7202 26.7053C60.1174 27.6389 61.2063 28.9658 61.8494 30.5182C62.4924 32.0707 62.6607 33.779 62.3328 35.427C62.005 37.0751 61.1958 38.589 60.0076 39.7772C58.8194 40.9654 57.3056 41.7746 55.6575 42.1024C54.0094 42.4302 52.3011 42.262 50.7487 41.6189C49.1962 40.9759 47.8693 39.8869 46.9358 38.4897C46.0022 37.0925 45.5039 35.4499 45.5039 33.7695C45.5064 31.517 46.4023 29.3574 47.9951 27.7646C49.5879 26.1718 51.7475 25.2759 54 25.2734Z" fill="#EF4B4F"/>
<path d="M71.6885 33.7695C71.6885 33.885 71.7112 33.9992 71.7554 34.1059C71.7995 34.2125 71.8643 34.3094 71.9459 34.391C72.0275 34.4726 72.1244 34.5374 72.231 34.5815C72.3377 34.6257 72.452 34.6484 72.5674 34.6484H77.4377C77.6708 34.6484 77.8944 34.5558 78.0592 34.391C78.224 34.2262 78.3166 34.0026 78.3166 33.7695C78.3166 33.5364 78.224 33.3129 78.0592 33.1481C77.8944 32.9832 77.6708 32.8906 77.4377 32.8906H72.5674C72.3343 32.8906 72.1107 32.9832 71.9459 33.1481C71.7811 33.3129 71.6885 33.5364 71.6885 33.7695Z" fill="#EF4B4F"/>
<path d="M70.7413 29.7629C70.8975 29.7641 71.0512 29.7236 71.1866 29.6457L74.8381 27.5C75.0402 27.382 75.187 27.1886 75.2465 26.9624C75.3059 26.7361 75.2731 26.4955 75.1551 26.2935C75.0372 26.0915 74.8438 25.9446 74.6176 25.8852C74.3913 25.8257 74.1507 25.8586 73.9487 25.9765L70.2959 28.1257C70.1277 28.2226 69.9962 28.3725 69.9221 28.5519C69.8479 28.7314 69.8353 28.9303 69.8862 29.1177C69.937 29.3051 70.0485 29.4704 70.2032 29.5877C70.3579 29.7051 70.5471 29.7679 70.7413 29.7664V29.7629Z" fill="#EF4B4F"/>
<path d="M70.296 39.4134L73.9488 41.5626C74.0488 41.621 74.1594 41.6591 74.2741 41.6748C74.3889 41.6905 74.5056 41.6834 74.6176 41.654C74.7297 41.6245 74.8348 41.5733 74.927 41.5032C75.0193 41.4332 75.0968 41.3456 75.1552 41.2456C75.2136 41.1456 75.2517 41.035 75.2674 40.9202C75.2831 40.8055 75.276 40.6887 75.2466 40.5767C75.2171 40.4647 75.1659 40.3596 75.0959 40.2673C75.0258 40.1751 74.9383 40.0975 74.8382 40.0391L71.1867 37.8946C71.0871 37.834 70.9765 37.7938 70.8612 37.7763C70.7459 37.7588 70.6284 37.7644 70.5153 37.7929C70.4022 37.8213 70.296 37.8719 70.2026 37.9418C70.1093 38.0116 70.0309 38.0994 69.9718 38.1999C69.9127 38.3004 69.8742 38.4116 69.8586 38.5272C69.8429 38.6427 69.8504 38.7602 69.8805 38.8728C69.9107 38.9854 69.963 39.0909 70.0343 39.1831C70.1057 39.2753 70.1946 39.3524 70.296 39.4099V39.4134Z" fill="#EF4B4F"/>
<path d="M30.5625 34.6484H35.4328C35.6659 34.6484 35.8895 34.5558 36.0543 34.391C36.2191 34.2262 36.3117 34.0026 36.3117 33.7695C36.3117 33.5364 36.2191 33.3129 36.0543 33.1481C35.8895 32.9832 35.6659 32.8906 35.4328 32.8906H30.5625C30.3294 32.8906 30.1058 32.9832 29.941 33.1481C29.7762 33.3129 29.6836 33.5364 29.6836 33.7695C29.6836 34.0026 29.7762 34.2262 29.941 34.391C30.1058 34.5558 30.3294 34.6484 30.5625 34.6484Z" fill="#EF4B4F"/>
<path d="M33.1619 27.5L36.8135 29.6445C36.9131 29.7051 37.0237 29.7454 37.1389 29.7628C37.2542 29.7803 37.3718 29.7747 37.4849 29.7463C37.5979 29.7178 37.7042 29.6672 37.7975 29.5973C37.8908 29.5275 37.9693 29.4397 38.0284 29.3392C38.0874 29.2387 38.1259 29.1275 38.1416 29.0119C38.1573 28.8964 38.1498 28.7789 38.1196 28.6663C38.0894 28.5537 38.0372 28.4483 37.9658 28.3561C37.8945 28.2638 37.8055 28.1868 37.7041 28.1293L34.0514 25.9765C33.9513 25.9181 33.8408 25.88 33.726 25.8643C33.6113 25.8486 33.4945 25.8557 33.3825 25.8852C33.1563 25.9446 32.9629 26.0915 32.8449 26.2935C32.727 26.4955 32.6941 26.7361 32.7536 26.9624C32.813 27.1886 32.9599 27.382 33.1619 27.5Z" fill="#EF4B4F"/>
<path d="M36.8135 37.8979L33.1619 40.039C32.9599 40.1569 32.813 40.3503 32.7536 40.5765C32.6941 40.8028 32.727 41.0434 32.8449 41.2454C32.9629 41.4474 33.1563 41.5943 33.3825 41.6538C33.6088 41.7132 33.8494 41.6803 34.0514 41.5624L37.7041 39.4167C37.8055 39.3592 37.8945 39.2821 37.9658 39.1899C38.0372 39.0977 38.0894 38.9922 38.1196 38.8796C38.1498 38.767 38.1573 38.6495 38.1416 38.534C38.1259 38.4185 38.0874 38.3072 38.0284 38.2067C37.9693 38.1062 37.8908 38.0185 37.7975 37.9486C37.7042 37.8787 37.5979 37.8281 37.4849 37.7997C37.3718 37.7713 37.2542 37.7656 37.1389 37.7831C37.0237 37.8006 36.9131 37.8408 36.8135 37.9015V37.8979Z" fill="#EF4B4F"/>
<path d="M52.0278 37.5922C52.1102 37.6807 52.21 37.7514 52.3209 37.7997C52.4317 37.848 52.5514 37.873 52.6724 37.873C52.7933 37.873 52.913 37.848 53.0239 37.7997C53.1348 37.7514 53.2345 37.6807 53.3169 37.5922L59.3333 31.1468C59.4121 31.0622 59.4735 30.9629 59.5139 30.8545C59.5543 30.7462 59.5729 30.6309 59.5688 30.5154C59.5647 30.3998 59.5378 30.2862 59.4898 30.181C59.4417 30.0758 59.3734 29.9811 59.2888 29.9023C59.2041 29.8235 59.1048 29.7622 58.9965 29.7218C58.8881 29.6814 58.7729 29.6627 58.6573 29.6668C58.5417 29.671 58.4281 29.6978 58.3229 29.7459C58.2177 29.7939 58.123 29.8622 58.0443 29.9468L52.6712 35.7031L49.9548 32.7933C49.7957 32.6224 49.5752 32.5217 49.3418 32.5133C49.1084 32.505 48.8812 32.5897 48.7103 32.7488C48.5393 32.9079 48.4386 33.1284 48.4303 33.3618C48.4219 33.5952 48.5066 33.8224 48.6657 33.9933L52.0278 37.5922Z" fill="#EF4B4F"/>
</g>
</g>
<defs>
<filter id="filter0_d_734_3647" x="0.4375" y="0" width="108" height="115" filterUnits="userSpaceOnUse" color-interpolation-filters="sRGB">
<feFlood flood-opacity="0" result="BackgroundImageFix"/>
<feColorMatrix in="SourceAlpha" type="matrix" values="0 0 0 0 0 0 0 0 0 0 0 0 0 0 0 0 0 0 127 0" result="hardAlpha"/>
<feOffset dy="11"/>
<feGaussianBlur stdDeviation="2"/>
<feComposite in2="hardAlpha" operator="out"/>
<feColorMatrix type="matrix" values="0 0 0 0 0.491667 0 0 0 0 0.0717014 0 0 0 0 0.176693 0 0 0 1 0"/>
<feBlend mode="normal" in2="BackgroundImageFix" result="effect1_dropShadow_734_3647"/>
<feBlend mode="normal" in="SourceGraphic" in2="effect1_dropShadow_734_3647" result="shape"/>
</filter>
<clipPath id="clip0_734_3647">
<rect width="60" height="60" fill="white" transform="translate(24 20)"/>
</clipPath>
</defs>
</svg>
