<svg width="80" height="80" viewBox="0 0 80 80" fill="none" xmlns="http://www.w3.org/2000/svg">
<path d="M11.5351 55.6836C11.371 55.4007 11.1026 55.1933 10.7874 55.1059C10.4723 55.0186 10.1354 55.0582 9.84907 55.2163C9.56276 55.3744 9.34979 55.6384 9.25583 55.9517C9.16187 56.265 9.19441 56.6026 9.34646 56.8922C22.359 80.8916 57.652 80.886 70.6599 56.8916C70.8194 56.6014 70.8572 56.2598 70.7651 55.9417C70.6729 55.6237 70.4584 55.3552 70.1684 55.1951C69.8785 55.0351 69.537 54.9967 69.2187 55.0883C68.9005 55.1799 68.6316 55.394 68.4711 55.6836C65.6642 60.777 61.5423 65.0241 56.535 67.9819C51.5278 70.9397 45.8187 72.5 40.0031 72.5C34.1875 72.5 28.4784 70.9397 23.4712 67.9819C18.4639 65.0241 14.342 60.777 11.5351 55.6836Z" fill="url(#paint0_linear_2896_4421)"/>
<path d="M64.6481 18.8495C64.8656 19.0937 65.1702 19.243 65.4966 19.2653C65.8229 19.2875 66.1449 19.181 66.3936 18.9686C66.6423 18.7561 66.7978 18.4547 66.8268 18.1289C66.8558 17.8031 66.7559 17.4789 66.5487 17.2259C53.1749 1.03531 26.8206 1.0365 13.4482 17.2264C13.2404 17.4793 13.1401 17.8037 13.1689 18.1298C13.1977 18.4559 13.3534 18.7577 13.6023 18.9703C13.8513 19.1829 14.1737 19.2893 14.5003 19.2667C14.8269 19.2441 15.1316 19.0943 15.3489 18.8494C27.766 3.81927 52.2327 3.82085 64.6481 18.8495Z" fill="url(#paint1_linear_2896_4421)"/>
<path d="M23.6574 17.8967C23.3984 18.097 23.2283 18.3908 23.1836 18.7151C23.1389 19.0395 23.2232 19.3684 23.4184 19.6312C23.6136 19.894 23.9042 20.0698 24.2276 20.1207C24.551 20.1716 24.8814 20.0936 25.148 19.9035C29.4509 16.7308 34.6566 15.0192 40.0027 15.0192C45.3488 15.0192 50.5545 16.731 54.8574 19.9037C55.124 20.0932 55.4542 20.1708 55.7773 20.1196C56.1004 20.0685 56.3906 19.8928 56.5856 19.6302C56.7806 19.3676 56.8649 19.039 56.8205 18.7149C56.776 18.3908 56.6063 18.0971 56.3478 17.8967C51.6134 14.4049 45.8853 12.5211 40.0026 12.5211C34.1199 12.5211 28.3918 14.4049 23.6574 17.8967Z" fill="url(#paint2_linear_2896_4421)"/>
<path d="M40.0007 67.5C44.1479 67.5085 48.2427 66.5733 51.9751 64.7653C55.7074 62.9573 58.9795 60.3238 61.5437 57.0642C61.7418 56.8036 61.8298 56.4757 61.7888 56.1508C61.7478 55.826 61.5811 55.5303 61.3244 55.327C61.0678 55.1238 60.7417 55.0292 60.4161 55.0637C60.0906 55.0982 59.7915 55.259 59.5832 55.5115C49.9952 68.0829 30.0049 68.0815 20.4182 55.5112C20.2097 55.2588 19.9107 55.0983 19.5852 55.064C19.2597 55.0296 18.9337 55.1242 18.6772 55.3274C18.4207 55.5307 18.254 55.8264 18.213 56.1511C18.172 56.4758 18.2599 56.8036 18.4578 57.0643C21.0219 60.3238 24.294 62.9573 28.0263 64.7653C31.7587 66.5733 35.8535 67.5085 40.0007 67.5Z" fill="url(#paint3_linear_2896_4421)"/>
<path d="M5.65771 43.2104C5.21813 44.0458 5.0004 44.98 5.02537 45.9236C5.05034 46.8672 5.31717 47.7885 5.80032 48.5994C6.28346 49.4104 6.96672 50.0836 7.78466 50.5548C8.6026 51.0259 9.52781 51.2791 10.4717 51.2902L24.3811 51.2903C24.3764 52.1153 24.5342 52.9332 24.8457 53.6972C25.1572 54.4612 25.6161 55.1563 26.1964 55.7429C26.7766 56.3294 27.4667 56.7959 28.2273 57.1156C28.9879 57.4353 29.804 57.602 30.629 57.6061L49.3668 57.6062C50.1929 57.6057 51.0107 57.4415 51.7729 57.1231C52.5352 56.8046 53.2267 56.3383 53.8077 55.751C54.3887 55.1637 54.8475 54.4671 55.1576 53.7015C55.4678 52.9358 55.6231 52.1163 55.6147 51.2903H69.5243C70.4681 51.2792 71.3934 51.0259 72.2113 50.5548C73.0292 50.0836 73.7125 49.4103 74.1956 48.5994C74.6787 47.7885 74.9455 46.8671 74.9705 45.9235C74.9954 44.9799 74.7776 44.0457 74.338 43.2104C72.6292 40.0443 69.7995 37.6306 66.4036 36.4423C67.3528 35.7114 68.1217 34.7724 68.6511 33.6976C69.1805 32.6229 69.4563 31.441 69.4572 30.2429C69.0846 19.8561 54.1311 19.8557 53.7602 30.243C53.7611 31.4413 54.037 32.6234 54.5666 33.6983C55.0962 34.7732 55.8653 35.7122 56.8148 36.4432C53.751 37.5222 51.1419 39.6053 49.4112 42.354C48.1143 41.4831 46.7025 40.7969 45.2165 40.315C46.4029 39.4803 47.3713 38.3727 48.0401 37.0856C48.709 35.7984 49.0587 34.3693 49.0598 32.9187C48.6365 20.9293 31.3607 20.9245 30.9361 32.9189C30.9372 34.3694 31.2869 35.7985 31.9558 37.0856C32.6246 38.3728 33.593 39.4803 34.7793 40.315C33.2927 40.7971 31.8803 41.4837 30.5829 42.3552C28.8492 39.6093 26.2414 37.527 23.1799 36.4439C24.1297 35.713 24.8992 34.7739 25.429 33.6988C25.9588 32.6237 26.2347 31.4414 26.2357 30.2429C25.8758 19.866 10.9058 19.8503 10.5387 30.243C10.5396 31.441 10.8154 32.6229 11.3448 33.6976C11.8742 34.7723 12.643 35.7113 13.5923 36.4423C10.1964 37.6306 7.36665 40.0444 5.65771 43.2104ZM56.2601 30.2429C56.2736 28.8333 56.8431 27.4859 57.8446 26.4939C58.8462 25.5018 60.199 24.9453 61.6087 24.9453C63.0184 24.9453 64.3712 25.5019 65.3727 26.494C66.3743 27.486 66.9437 28.8334 66.9571 30.2431C66.9437 31.6527 66.3742 33.0001 65.3726 33.9921C64.371 34.9842 63.0183 35.5407 61.6086 35.5407C60.1988 35.5407 58.8461 34.9841 57.8446 33.992C56.843 33 56.2736 31.6526 56.2601 30.2429ZM61.5998 38.091C63.7622 38.0894 65.8844 38.6749 67.74 39.7851C69.5957 40.8952 71.115 42.4884 72.136 44.3946C72.3755 44.8484 72.4945 45.3561 72.4815 45.8691C72.4685 46.3821 72.324 46.8832 72.0619 47.3243C71.7998 47.7655 71.4288 48.1319 70.9844 48.3886C70.5401 48.6453 70.0373 48.7836 69.5242 48.7902H55.059C54.1596 46.9399 52.9126 45.2798 51.3861 43.9006C52.4444 42.1349 53.9407 40.6724 55.73 39.6546C57.5194 38.6368 59.5412 38.0982 61.5998 38.091ZM33.436 32.9187C33.7118 24.2469 46.2853 24.2489 46.5598 32.9189C46.2842 41.5914 33.7104 41.5894 33.436 32.9187ZM52.6658 49.5569C52.9686 50.1299 53.1191 50.7711 53.1028 51.419C53.0865 52.067 52.9041 52.6998 52.5729 53.2569C52.2417 53.814 51.7729 54.2767 51.2114 54.6005C50.65 54.9243 50.0148 55.0984 49.3667 55.1061L30.629 55.1062C29.9785 55.1049 29.3394 54.9348 28.7743 54.6125C28.2092 54.2902 27.7374 53.8268 27.4049 53.2677C27.0725 52.7085 26.8909 52.0726 26.8777 51.4222C26.8646 50.7718 27.0205 50.1291 27.3301 49.5569C32.5688 39.5286 47.4284 39.5295 52.6658 49.5569ZM13.0387 30.2429C13.052 28.8331 13.6214 27.4856 14.623 26.4934C15.6246 25.5012 16.9774 24.9446 18.3873 24.9446C19.7971 24.9446 21.1499 25.5013 22.1515 26.4935C23.1531 27.4857 23.7225 28.8332 23.7357 30.243C23.7224 31.6528 23.1531 33.0003 22.1514 33.9925C21.1498 34.9847 19.797 35.5413 18.3872 35.5413C16.9773 35.5413 15.6245 34.9847 14.6229 33.9924C13.6213 33.0002 13.052 31.6527 13.0387 30.2429ZM18.3755 38.0908C20.4372 38.0965 22.4624 38.6344 24.2552 39.6524C26.048 40.6704 27.5476 42.1341 28.6088 43.9016C27.0827 45.2807 25.8361 46.9404 24.9368 48.7903H10.4716C9.95846 48.7836 9.45567 48.6452 9.01134 48.3885C8.56701 48.1318 8.19604 47.7654 7.93393 47.3242C7.67183 46.883 7.52739 46.382 7.51443 45.869C7.50147 45.356 7.62044 44.8483 7.85994 44.3945C8.87928 42.4914 10.3954 40.9002 12.2471 39.7902C14.0988 38.6803 16.2167 38.093 18.3755 38.0908Z" fill="url(#paint4_linear_2896_4421)"/>
<defs>
<linearGradient id="paint0_linear_2896_4421" x1="9.20312" y1="64.9645" x2="70.8144" y2="64.9645" gradientUnits="userSpaceOnUse">
<stop stop-color="#991F3D"/>
<stop offset="1" stop-color="#E7474D"/>
</linearGradient>
<linearGradient id="paint1_linear_2896_4421" x1="13.1641" y1="12.1766" x2="66.8317" y2="12.1766" gradientUnits="userSpaceOnUse">
<stop stop-color="#991F3D"/>
<stop offset="1" stop-color="#E7474D"/>
</linearGradient>
<linearGradient id="paint2_linear_2896_4421" x1="23.1719" y1="16.3285" x2="56.8321" y2="16.3285" gradientUnits="userSpaceOnUse">
<stop stop-color="#991F3D"/>
<stop offset="1" stop-color="#E7474D"/>
</linearGradient>
<linearGradient id="paint3_linear_2896_4421" x1="18.2031" y1="61.2784" x2="61.7986" y2="61.2784" gradientUnits="userSpaceOnUse">
<stop stop-color="#991F3D"/>
<stop offset="1" stop-color="#E7474D"/>
</linearGradient>
<linearGradient id="paint4_linear_2896_4421" x1="5.02344" y1="40.0294" x2="74.9724" y2="40.0294" gradientUnits="userSpaceOnUse">
<stop stop-color="#991F3D"/>
<stop offset="1" stop-color="#E7474D"/>
</linearGradient>
</defs>
</svg>
