<svg width="80" height="81" viewBox="0 0 80 81" fill="none" xmlns="http://www.w3.org/2000/svg">
<g clip-path="url(#clip0_2896_3535)">
<path d="M68.2114 35.9809C67.2981 35.2608 66.099 35.1641 65.0822 35.7297L61.3791 37.7894C60.7223 38.1547 60.3044 38.7931 60.2322 39.5406C60.2251 39.6133 60.2244 39.6851 60.2241 39.757L58.4278 40.7561C55.9228 42.1492 53.2383 42.3897 50.4484 41.47C46.9247 40.3087 43.1512 40.9584 39.2325 43.4014L39.1272 43.467C35.9698 41.4662 33.1372 41.7114 30.3923 41.9495C27.5039 42.2001 24.5178 42.4591 20.6086 40.2601L19.7711 39.7891C19.7719 39.7069 19.77 39.6241 19.7619 39.5405C19.6894 38.7926 19.2712 38.1544 18.6148 37.7892L14.9115 35.7294C13.895 35.1644 12.6959 35.2605 11.7825 35.9808C5.71701 40.7648 2.34248 49.267 3.75858 56.1972C3.94811 57.1236 4.55576 57.8667 5.42576 58.2361L8.32951 59.4692C8.61842 59.5917 8.91842 59.6525 9.21592 59.6525C9.64326 59.6525 10.0659 59.5272 10.4431 59.2805C10.558 59.2053 10.6608 59.119 10.7578 59.0281L17.6409 62.5766L19.6708 64.7609L19.5665 64.9414C19.022 65.8847 18.8781 66.9867 19.1614 68.0444C19.4448 69.102 20.1205 69.9844 21.0639 70.5291C21.6795 70.8844 22.3633 71.0689 23.0586 71.075C22.828 71.8081 22.81 72.5947 23.0145 73.358C23.298 74.4156 23.9736 75.298 24.917 75.8426C26.2242 76.5973 27.7794 76.5464 29.0034 75.8439C29.3478 76.658 29.9425 77.3341 30.7181 77.7819C31.6605 78.3258 32.7625 78.4695 33.8208 78.1858C34.2325 78.0755 34.6176 77.9059 34.9665 77.6844C35.3165 78.4525 35.8933 79.0905 36.6359 79.5192C37.2622 79.8806 37.9587 80.0655 38.6662 80.0653C39.0234 80.0653 39.3836 80.0183 39.7386 79.9231C40.7969 79.6397 41.6795 78.9644 42.2236 78.022L42.2483 77.9794L43.0395 78.4244C43.9451 78.9472 44.7983 79.1683 45.5658 79.1683C47.027 79.1683 48.1767 78.3664 48.7809 77.3197C49.0819 76.7986 49.259 76.1914 49.2809 75.568C50.8512 75.8236 52.4895 75.1072 53.3312 73.6497C53.7683 72.8926 53.9244 72.0494 53.8326 71.2409C55.2361 71.2187 56.5948 70.4833 57.3462 69.1817C57.8294 68.3448 57.9839 67.4073 57.8519 66.5184C58.1645 66.5075 58.4784 66.4631 58.7884 66.3798C59.8548 66.0942 60.7447 65.413 61.2937 64.4619C61.6755 63.8006 61.86 63.0353 61.8364 62.2701L69.1101 58.9048C69.2383 59.0453 69.385 59.172 69.5509 59.2806C69.9278 59.5272 70.3501 59.6525 70.7778 59.6525C71.0755 59.6525 71.3755 59.5917 71.6645 59.4692L74.5681 58.2361C75.438 57.8666 76.0458 57.1234 76.2353 56.197C77.6514 49.267 74.277 40.7648 68.2114 35.9808V35.9809ZM9.24498 57.4501C9.21717 57.4683 9.21483 57.4687 9.18436 57.4556L6.28076 56.2225C6.06842 56.1323 5.94795 55.985 5.9017 55.7591C4.64186 49.5944 7.68467 41.9987 13.137 37.6983C13.2592 37.6019 13.393 37.5533 13.5295 37.5533C13.6355 37.5533 13.743 37.5825 13.8484 37.6411L17.5515 39.7008C17.5717 39.712 17.5775 39.7195 17.5775 39.7195C17.5775 39.7195 17.5822 39.7281 17.5844 39.7508C17.5867 39.7736 17.5837 39.7826 17.5837 39.7826C17.5837 39.7826 17.5794 39.7912 17.5614 39.8062C12.2106 44.3111 9.34467 50.3939 9.27389 57.3966C9.27358 57.4298 9.27248 57.432 9.24483 57.45L9.24498 57.4501ZM22.1578 68.6345C21.7205 68.382 21.4067 67.9714 21.2747 67.4781C21.1425 66.985 21.2087 66.4723 21.4612 66.0351L23.615 62.3045C23.8669 61.8681 24.2776 61.555 24.7715 61.4225C25.2659 61.2898 25.7781 61.3559 26.2144 61.6081C27.123 62.1326 27.4355 63.2984 26.9112 64.2072L24.7567 67.9387C24.2319 68.8472 23.0661 69.159 22.1576 68.6345H22.1578ZM28.6106 73.2515C28.0856 74.1605 26.9192 74.4728 26.0108 73.9483C25.5734 73.6958 25.2597 73.2851 25.1276 72.7919C24.9955 72.2987 25.0617 71.7861 25.3142 71.3489L26.6109 69.1025L26.649 69.0364C26.65 69.035 26.6508 69.0334 26.6517 69.0319C26.6517 69.0317 26.6519 69.0314 26.652 69.0311L28.805 65.302C28.805 65.302 28.8053 65.3017 28.8053 65.3014C29.0572 64.8648 29.4681 64.5516 29.962 64.4192C30.4567 64.2864 30.9684 64.3526 31.4047 64.6047C32.3133 65.1292 32.6258 66.295 32.1015 67.2039C32.1015 67.2039 32.1015 67.2042 32.1012 67.2044C32.1011 67.2047 32.1009 67.2051 32.1006 67.2056L29.0748 72.4464L28.6101 73.2515H28.6106ZM33.2548 76.0731C32.7603 76.2058 32.2483 76.1397 31.812 75.8875C31.3747 75.635 31.0609 75.2244 30.9289 74.7311C30.7967 74.238 30.863 73.7253 31.1155 73.2881C31.368 72.8509 33.9994 68.293 33.9994 68.293C34.2515 67.8594 34.6609 67.548 35.1531 67.4162C35.6467 67.2839 36.1595 67.3497 36.5958 67.6015C37.5039 68.1261 37.8167 69.2912 37.2933 70.1998C37.293 70.2003 37.2926 70.2009 37.2923 70.2014C37.292 70.2019 37.2919 70.2025 37.2915 70.203L34.8639 74.4078L34.4115 75.1912C34.1597 75.6276 33.7487 75.9409 33.2548 76.0734V76.0731ZM40.3292 76.9286C40.0773 77.365 39.6665 77.6781 39.1726 77.8106C38.6783 77.9433 38.1661 77.8772 37.7298 77.625C37.2925 77.3725 36.9787 76.9619 36.8467 76.4686C36.7145 75.9755 36.7808 75.4628 37.0333 75.0256C37.0333 75.0255 37.0334 75.0251 37.0336 75.025L39.1878 71.2936C39.7128 70.3861 40.8781 70.0742 41.7864 70.5986C42.2237 70.8511 42.5375 71.2617 42.6695 71.755C42.8019 72.2483 42.7355 72.7609 42.483 73.1981L40.3292 76.9286ZM59.3995 63.3683C59.1425 63.8134 58.7247 64.1326 58.2226 64.2672C57.7205 64.4017 57.199 64.3345 56.7537 64.0772L55.8392 63.5492C55.8384 63.5487 55.8376 63.5483 55.8369 63.5478C55.8364 63.5476 55.8361 63.5475 55.8356 63.5472L53.5739 62.2414C53.0505 61.9397 52.3819 62.1187 52.0798 62.6417C51.7778 63.1648 51.9572 63.8337 52.4801 64.1358L54.7442 65.443C55.6683 65.9772 55.9858 67.1634 55.452 68.0881C54.9181 69.0131 53.7311 69.3306 52.8061 68.7972L51.8948 68.2709C51.893 68.2698 51.8911 68.2686 51.8892 68.2675C51.8873 68.2664 50.8353 67.659 50.8353 67.659C50.3122 67.3569 49.6433 67.5361 49.3412 68.0594C49.039 68.5825 49.2183 69.2514 49.7416 69.5534L50.7955 70.162C51.6323 70.6451 51.9201 71.7192 51.4369 72.5559C50.9536 73.3928 49.8797 73.6805 49.0431 73.1975L47.3345 72.2109C46.8114 71.9092 46.1425 72.088 45.8405 72.6112C45.5383 73.1344 45.7175 73.8033 46.2406 74.1053L46.2456 74.1083C47.2048 74.6651 47.2508 75.5959 46.8869 76.2262C46.4905 76.9131 45.5587 77.3531 44.1228 76.524L43.3425 76.0853L44.3778 74.292C45.5056 72.3386 44.8339 69.8319 42.8805 68.704C41.8561 68.1128 40.68 68.0164 39.6305 68.3395C39.3856 67.2687 38.7137 66.2986 37.6898 65.7072C36.7473 65.1631 35.6455 65.0201 34.587 65.3033C34.538 65.3166 34.489 65.3306 34.4405 65.3455C34.1962 64.2736 33.524 63.3022 32.499 62.7105C31.5567 62.1666 30.4551 62.0236 29.3964 62.3065C29.3467 62.32 29.2973 62.3342 29.2484 62.3491C29.2369 62.2989 29.2245 62.2486 29.2111 62.1986C28.9276 61.1408 28.252 60.2584 27.3086 59.7137C26.3662 59.1698 25.2644 59.0259 24.2059 59.3098C23.1476 59.5933 22.265 60.2686 21.7209 61.2109L20.8158 62.7789L19.1139 60.9475C19.0278 60.8548 18.9262 60.778 18.8137 60.72L11.4728 56.9356C11.6536 50.8276 14.0876 45.7069 18.7122 41.7031L19.5367 42.1669C24.035 44.6967 27.5131 44.395 30.5817 44.1289C32.9306 43.9251 34.8756 43.7573 37.0115 44.7864L29.4951 49.4728C28.5358 50.0709 27.9697 50.9645 27.9009 51.9889C27.8261 53.1011 28.3686 54.2797 29.3164 55.0647C32.6261 57.805 35.68 56.313 38.3744 54.9966C40.0614 54.1725 41.8059 53.3201 43.7228 53.3087H43.7625C45.8573 53.3087 47.5573 54.2922 49.3562 55.333L58.6417 60.6941C59.2778 61.1601 59.4092 61.4539 59.6011 61.9487C59.7151 62.4334 59.643 62.948 59.4001 63.3684L59.3995 63.3683ZM59.7844 58.8278L50.4514 53.4394C48.4681 52.292 46.4212 51.0997 43.7097 51.1212C41.2936 51.1356 39.2323 52.1425 37.4137 53.0311C34.5522 54.4291 32.83 55.1344 30.7112 53.3797C30.3017 53.0406 30.0551 52.5522 30.0831 52.1355C30.1044 51.8183 30.2905 51.5545 30.652 51.3292L40.3898 45.2578C43.7786 43.145 46.845 42.5853 49.7637 43.5476C53.1097 44.6503 56.4734 44.3462 59.4912 42.6676L61.26 41.6839C65.857 45.6542 68.2969 50.7247 68.5169 56.7695L61.1597 60.1734C60.8984 59.773 60.5128 59.3455 59.8762 58.8873C59.8467 58.8659 59.8158 58.8461 59.7842 58.8278H59.7844ZM74.0922 55.7591C74.0459 55.9851 73.9256 56.1325 73.7131 56.2226L70.8098 57.4556C70.7787 57.4691 70.7772 57.4687 70.7491 57.4505C70.7212 57.4323 70.7201 57.4301 70.7198 57.3972C70.6491 50.3942 67.7831 44.3114 62.432 39.8064C62.417 39.7937 62.4111 39.785 62.4101 39.7831C62.4094 39.7809 62.4076 39.7706 62.4095 39.7511C62.4114 39.7316 62.4151 39.7217 62.4162 39.7198C62.4176 39.718 62.4253 39.7105 62.4422 39.7011L66.1451 37.6416C66.2508 37.5828 66.3583 37.5537 66.4642 37.5537C66.6008 37.5537 66.7344 37.6023 66.8567 37.6987C72.3091 41.9991 75.3519 49.5948 74.092 55.7594L74.0922 55.7591ZM29.8451 23.9786C31.2655 25.96 32.4919 27.6711 32.4919 30.1958V33.2706C32.4919 34.9934 33.7992 36.4155 35.4737 36.5997V37.9189C35.4737 39.4742 36.7392 40.7397 38.2945 40.7397H41.6991C43.2544 40.7397 44.5198 39.4742 44.5198 37.9189V36.5997C46.1944 36.4155 47.5017 34.9934 47.5017 33.2706V30.1958C47.5017 27.6712 48.7283 25.9601 50.1484 23.9787C51.913 21.517 53.913 18.727 53.913 13.8945C53.913 10.0011 52.3848 6.72608 49.4936 4.4239C46.9751 2.41858 43.6025 1.31421 39.9969 1.31421C36.3912 1.31421 33.0186 2.41858 30.5003 4.4239C27.609 6.72608 26.0809 10.0011 26.0809 13.8945C26.0809 18.727 28.0808 21.517 29.8451 23.9786ZM41.6991 38.5522H38.2945C37.9512 38.5522 37.6612 38.2623 37.6612 37.9189V36.6209H42.3323V37.9189C42.3323 38.2622 42.0425 38.5522 41.6991 38.5522ZM44.1512 34.4336H35.8422C35.2009 34.4336 34.6794 33.9119 34.6794 33.2708V32.1528H45.314V33.2708C45.314 33.912 44.7923 34.4336 44.1512 34.4336ZM40.9961 29.9651H38.9973V21.9331C39.6526 22.0048 40.3409 22.0048 40.9961 21.9331V29.9651ZM39.9967 3.50171C45.6455 3.50171 51.7253 6.7539 51.7253 13.8947C51.7253 18.0242 50.0198 20.4034 48.3703 22.7045C46.9039 24.7503 45.3895 26.8645 45.3175 29.9653H43.1834V21.6856C43.1834 21.5901 43.1839 21.4958 43.185 21.4022C45.0372 20.682 46.5367 19.3298 47.375 17.5323C48.3687 15.4017 48.3611 13.4926 47.354 12.4251C46.6917 11.7231 45.7236 11.5312 44.7651 11.9122C43.1517 12.5533 41.4401 14.9378 41.0694 19.7123C40.7019 19.772 40.3406 19.7998 39.9967 19.7998C39.6528 19.7998 39.2914 19.772 38.924 19.7123C38.5533 14.9378 36.8417 12.5533 35.2283 11.9122C34.2695 11.5312 33.3014 11.7231 32.6394 12.4251C31.6325 13.4925 31.6247 15.4017 32.6184 17.5323C33.4567 19.3298 34.9564 20.6819 36.8084 21.4022C36.8095 21.4959 36.81 21.5901 36.81 21.6856V29.9653H34.6759C34.6039 26.8645 33.0894 24.7501 31.6231 22.7044C29.9737 20.4034 28.2683 18.0242 28.2683 13.8947C28.2683 6.75405 34.348 3.50171 39.9967 3.50171ZM43.3536 18.8823C43.7164 16.1148 44.5961 14.5694 45.3751 14.0516C45.5581 13.9298 45.6778 13.9087 45.7247 13.9087C45.7356 13.9087 45.7426 13.91 45.7458 13.9112C45.755 13.9151 45.8022 13.9573 45.8475 14.0769C46.0048 14.4916 45.968 15.3742 45.3926 16.6076C44.9128 17.6367 44.1819 18.3759 43.3536 18.8823ZM36.6397 18.8823C35.8112 18.3761 35.0806 17.6367 34.6006 16.6075C34.0253 15.3739 33.9884 14.4914 34.1458 14.0767C34.1911 13.9572 34.2384 13.9151 34.2475 13.9111C34.2506 13.9098 34.2575 13.9086 34.2686 13.9086C34.3156 13.9086 34.4351 13.9297 34.6181 14.0514C35.397 14.5692 36.2767 16.1148 36.6397 18.8823ZM53.6525 5.73421C53.3505 5.21093 53.5298 4.54218 54.0528 4.24015L56.6116 2.76296C57.1348 2.46108 57.8036 2.64015 58.1056 3.16327C58.4076 3.68655 58.2283 4.3553 57.7053 4.65733L55.1466 6.13452C54.9742 6.2339 54.7862 6.28108 54.6008 6.28108C54.2226 6.28108 53.8551 6.08515 53.6525 5.73421ZM57.0562 13.2616H60.0108C60.6148 13.2616 61.1045 13.7512 61.1045 14.3553C61.1045 14.9594 60.6148 15.4491 60.0108 15.4491H57.0562C56.4522 15.4491 55.9625 14.9594 55.9625 14.3553C55.9625 13.7512 56.4522 13.2616 57.0562 13.2616ZM57.7053 24.0531C58.2284 24.3553 58.4076 25.0242 58.1056 25.5472C57.903 25.8981 57.5353 26.0942 57.1573 26.0942C56.9717 26.0942 56.7837 26.0469 56.6116 25.9476L54.0528 24.4703C53.5297 24.1681 53.3505 23.4992 53.6525 22.9762C53.9547 22.453 54.6236 22.2744 55.1466 22.5759L57.7053 24.0533V24.0531ZM21.8878 3.16312C22.1898 2.64015 22.8586 2.46093 23.3819 2.7628L25.9406 4.23999C26.4637 4.54218 26.643 5.21093 26.3409 5.73405C26.1383 6.08483 25.7706 6.28108 25.3926 6.28108C25.207 6.28108 25.019 6.2339 24.8469 6.13452L22.2881 4.65733C21.765 4.35515 21.5858 3.68624 21.8878 3.16312ZM18.889 14.3551C18.889 13.7511 19.3787 13.2614 19.9828 13.2614H22.9373C23.5414 13.2614 24.0311 13.7511 24.0311 14.3551C24.0311 14.9592 23.5414 15.4489 22.9373 15.4489H19.9828C19.3787 15.4489 18.889 14.9592 18.889 14.3551ZM26.3411 22.9761C26.6431 23.4992 26.4637 24.1681 25.9408 24.4701L23.382 25.9475C23.2097 26.0469 23.0217 26.0941 22.8362 26.0941C22.4581 26.0941 22.0906 25.898 21.888 25.547C21.5859 25.0239 21.7653 24.355 22.2883 24.053L24.847 22.5756C25.3705 22.2737 26.039 22.4528 26.3411 22.9759V22.9761Z" fill="url(#paint0_linear_2896_3535)"/>
</g>
<defs>
<linearGradient id="paint0_linear_2896_3535" x1="3.4375" y1="40.6898" x2="76.5564" y2="40.6898" gradientUnits="userSpaceOnUse">
<stop stop-color="#991F3D"/>
<stop offset="1" stop-color="#E7474D"/>
</linearGradient>
<clipPath id="clip0_2896_3535">
<rect width="80" height="80" fill="white" transform="translate(0 0.689819)"/>
</clipPath>
</defs>
</svg>
