<svg width="26" height="26" viewBox="0 0 26 26" fill="none" xmlns="http://www.w3.org/2000/svg">
<path d="M13.4938 14.5966C12.5972 14.5924 11.7065 14.4519 10.8522 14.18C9.48712 13.7233 8.47322 12.5677 8.19801 11.1548C7.89687 9.70434 8.44568 8.17065 9.7034 6.94714C9.83835 6.81571 9.97859 6.68981 10.1241 6.56944C11.4119 5.49133 13.148 5.11667 14.7658 5.56775C16.332 6.06764 17.4142 7.49896 17.4684 9.1421C17.527 10.0879 17.2187 11.02 16.6077 11.7443C16.1364 12.3379 15.3728 12.6184 14.6293 12.4708C14.3252 12.4077 14.0599 12.2235 13.8945 11.9607C13.746 11.7055 13.708 11.4007 13.789 11.1168C14.1388 9.79465 14.4944 7.7854 14.498 7.76504C14.5228 7.62429 14.6208 7.50748 14.7552 7.45862C14.8895 7.40975 15.0397 7.43626 15.1491 7.52815C15.2586 7.62004 15.3108 7.76336 15.2859 7.90411C15.2711 7.9877 14.9209 9.96684 14.5625 11.3213C14.5369 11.3963 14.5434 11.4786 14.5803 11.5488C14.6356 11.6253 14.719 11.6767 14.8123 11.6917C15.2674 11.7677 15.7272 11.5851 16.0062 11.2176C16.4807 10.6499 16.7184 9.92126 16.6701 9.18294C16.631 7.87502 15.7733 6.73314 14.5281 6.33114C13.1688 5.95728 11.7127 6.27667 10.6347 7.18508C10.5062 7.29175 10.3812 7.40342 10.2613 7.52022C9.63945 8.12505 8.64651 9.38008 8.98109 10.992C9.20589 12.1181 10.0102 13.041 11.095 13.4176C12.9709 14.016 15.6664 14.088 17.0866 12.3222C17.2262 12.1541 17.4747 12.1291 17.645 12.2659C17.8152 12.4028 17.8442 12.6509 17.71 12.8233C16.6598 14.1293 15.0617 14.5966 13.4938 14.5966Z" fill="white" stroke="white" stroke-width="0.2"/>
<path d="M12.1264 12.5229C11.7036 12.5302 11.2913 12.3915 10.9587 12.1303C10.191 11.5159 10.1699 10.4486 10.3851 9.72175C10.4576 9.47968 10.5549 9.24576 10.6756 9.02372C10.9757 8.4182 11.4555 7.9202 12.0495 7.59786C12.7892 7.21404 13.6929 7.35959 14.2747 7.95623C14.5634 8.27254 14.7808 8.64709 14.9123 9.05459C14.982 9.26139 14.873 9.48584 14.6674 9.55905C14.4619 9.63226 14.2356 9.5272 14.1588 9.32293C14.064 9.02187 13.9064 8.74436 13.6964 8.50871C13.3572 8.16184 12.8287 8.08292 12.4029 8.31556C11.9575 8.56678 11.5995 8.94819 11.377 9.40865C11.2835 9.58117 11.208 9.76284 11.1516 9.95081C10.9962 10.4766 11.0303 11.1627 11.4592 11.5062C11.9281 11.8827 12.7191 11.7235 13.1642 11.3396C13.4959 11.041 13.7809 10.6943 14.0096 10.3111C14.0837 10.187 14.219 10.1125 14.3635 10.1163C14.508 10.1201 14.6393 10.2015 14.7068 10.3293C14.7743 10.4572 14.7676 10.6115 14.6892 10.733C14.4182 11.1845 14.0809 11.5926 13.6885 11.9438C13.2511 12.3128 12.6986 12.5176 12.1264 12.5229Z" fill="white" stroke="white" stroke-width="0.2"/>
<path d="M23.7987 24.9997H2.19993C1.53753 24.999 1.00073 24.4622 1 23.7998V9.00081C1.00001 8.84571 1.08968 8.7046 1.2301 8.63872C1.37052 8.57285 1.53636 8.59409 1.65564 8.69323L11.4699 16.8497C12.3579 17.583 13.6415 17.5828 14.5293 16.8491L24.3426 8.69323C24.4619 8.59389 24.6279 8.57253 24.7684 8.63843C24.909 8.70433 24.9987 8.84559 24.9986 9.00081V23.7998C24.9979 24.4622 24.4611 24.999 23.7987 24.9997ZM1.79995 9.85327V23.7998C1.80024 24.0205 1.97915 24.1994 2.19993 24.1997H23.7987C24.0195 24.1995 24.1984 24.0206 24.1986 23.7998V9.85327L15.04 17.4647C13.8558 18.4434 12.1436 18.4436 10.9592 17.4653L1.79995 9.85327Z" fill="white" stroke="white" stroke-width="0.2"/>
<path d="M1.40037 9.40067C1.22615 9.40083 1.07187 9.2882 1.01894 9.12222C0.966004 8.95624 1.0266 8.77509 1.16874 8.67436L4.76853 6.12254C4.94876 5.99763 5.19595 6.04112 5.32273 6.22004C5.4495 6.39896 5.40858 6.64659 5.23098 6.77521L1.63119 9.32703C1.56379 9.375 1.4831 9.40074 1.40037 9.40067Z" fill="white" stroke="white" stroke-width="0.2"/>
<path d="M24.5985 9.40067C24.5158 9.40074 24.4351 9.375 24.3677 9.32703L20.7679 6.77521C20.5903 6.64659 20.5494 6.39896 20.6762 6.22004C20.803 6.04112 21.0502 5.99763 21.2304 6.12254L24.8302 8.67436C24.9723 8.77509 25.0329 8.95624 24.98 9.12222C24.927 9.2882 24.7728 9.40083 24.5985 9.40067Z" fill="white" stroke="white" stroke-width="0.2"/>
<path d="M16.6955 3.80149C16.6127 3.80154 16.5319 3.7758 16.4644 3.72786L14.5525 2.37195C13.665 1.622 12.3682 1.61419 11.4717 2.3534L9.5358 3.7279C9.41921 3.81058 9.26736 3.82478 9.13747 3.76515C9.00757 3.70552 8.91935 3.58112 8.90604 3.43881C8.89273 3.2965 8.95636 3.1579 9.07295 3.07522L10.9848 1.71932C12.1662 0.753375 13.8667 0.761058 15.0393 1.73764L16.9272 3.07506C17.0695 3.17577 17.1301 3.35701 17.0772 3.52306C17.0242 3.68912 16.8698 3.80176 16.6955 3.80149Z" fill="white" stroke="white" stroke-width="0.2"/>
<path d="M1.65913 24.7838C1.49057 24.7839 1.34001 24.6784 1.28267 24.5199C1.22532 24.3614 1.27351 24.1839 1.40315 24.0762L10.5306 16.4927C10.6403 16.3995 10.7916 16.3724 10.9269 16.4217C11.0621 16.4711 11.1604 16.5893 11.1842 16.7313C11.208 16.8733 11.1536 17.0171 11.0419 17.1079L1.91444 24.6914C1.84278 24.7511 1.75243 24.7838 1.65913 24.7838Z" fill="white" stroke="white" stroke-width="0.2"/>
<path d="M24.3379 24.7837C24.2447 24.7838 24.1544 24.7511 24.0829 24.6914L14.9554 17.1079C14.8437 17.0171 14.7893 16.8733 14.8131 16.7313C14.8369 16.5893 14.9352 16.4711 15.0704 16.4217C15.2057 16.3724 15.357 16.3995 15.4667 16.4927L24.5939 24.0762C24.7236 24.1839 24.7718 24.3614 24.7144 24.5199C24.6571 24.6784 24.5065 24.7839 24.3379 24.7837Z" fill="white" stroke="white" stroke-width="0.2"/>
<path d="M20.9977 12.3926C20.7768 12.3926 20.5977 12.2135 20.5977 11.9926V3.8043C20.5965 3.8127 20.5805 3.80138 20.5537 3.80118H5.44258C5.4249 3.8001 5.40755 3.80632 5.39459 3.81838L5.39859 11.9926C5.39859 12.2135 5.21951 12.3926 4.99861 12.3926C4.77771 12.3926 4.59863 12.2135 4.59863 11.9926V3.80118C4.61154 3.34757 4.98893 2.98986 5.44258 3.00124H20.5537C21.0073 2.98991 21.3847 3.34759 21.3976 3.80118V11.9926C21.3976 12.2135 21.2186 12.3926 20.9977 12.3926Z" fill="white" stroke="white" stroke-width="0.2"/>
</svg>
