<svg width="80" height="81" viewBox="0 0 80 81" fill="none" xmlns="http://www.w3.org/2000/svg">
<g clip-path="url(#clip0_2896_4431)">
<path d="M73.4375 8.97041H71.5625V5.83748C71.5625 3.08479 69.3231 0.845413 66.5704 0.845413C63.8184 0.845413 61.579 3.08479 61.579 5.83748V8.97041H45.0116V5.83748C45.0116 3.08479 42.7722 0.845413 40.0201 0.845413C37.2675 0.845413 35.0281 3.08479 35.0281 5.83748V8.97041H18.421V5.83748C18.421 3.08479 16.1816 0.845413 13.4296 0.845413C10.6769 0.845413 8.4375 3.08479 8.4375 5.83748V8.97041H6.5625C2.94373 8.97041 0 11.9141 0 15.5329V74.2829C0 77.9017 2.94373 80.8454 6.5625 80.8454H73.4375C77.0563 80.8454 80 77.9017 80 74.2829V15.5329C80 11.9141 77.0563 8.97041 73.4375 8.97041ZM64.704 5.83748C64.704 4.80782 65.5414 3.97041 66.5704 3.97041C67.6001 3.97041 68.4375 4.80782 68.4375 5.83748V14.6033C68.4375 15.633 67.6001 16.4704 66.5704 16.4704C65.5414 16.4704 64.704 15.633 64.704 14.6033V5.83748ZM38.1531 5.83748C38.1531 4.80782 38.9905 3.97041 40.0201 3.97041C41.0492 3.97041 41.8866 4.80782 41.8866 5.83748V14.6033C41.8866 15.633 41.0492 16.4704 40.0201 16.4704C38.9905 16.4704 38.1531 15.633 38.1531 14.6033V5.83748ZM11.5625 5.83748C11.5625 4.80782 12.3999 3.97041 13.4296 3.97041C14.4586 3.97041 15.296 4.80782 15.296 5.83748V14.6033C15.296 15.633 14.4586 16.4704 13.4296 16.4704C12.3999 16.4704 11.5625 15.633 11.5625 14.6033V5.83748ZM6.5625 12.0954H8.4375V14.6033C8.4375 17.356 10.6769 19.5954 13.4296 19.5954C16.1816 19.5954 18.421 17.356 18.421 14.6033V12.0954H35.0281V14.6033C35.0281 17.356 37.2675 19.5954 40.0201 19.5954C42.7722 19.5954 45.0116 17.356 45.0116 14.6033V12.0954H61.579V14.6033C61.579 17.356 63.8184 19.5954 66.5704 19.5954C69.3231 19.5954 71.5625 17.356 71.5625 14.6033V12.0954H73.4375C75.3333 12.0954 76.875 13.6372 76.875 15.5329V27.7204H47.0312C46.1682 27.7204 45.4688 28.4199 45.4688 29.2829C45.4688 30.146 46.1682 30.8454 47.0312 30.8454H76.875V68.0329C76.875 69.9287 75.3333 71.4704 73.4375 71.4704H6.5625C4.66675 71.4704 3.125 69.9287 3.125 68.0329V30.8454H32.9688C33.8318 30.8454 34.5312 30.146 34.5312 29.2829C34.5312 28.4199 33.8318 27.7204 32.9688 27.7204H3.125V15.5329C3.125 13.6372 4.66675 12.0954 6.5625 12.0954ZM73.4375 77.7204H6.5625C4.66675 77.7204 3.125 76.1787 3.125 74.2829V73.6201C4.12537 74.2377 5.30273 74.5954 6.5625 74.5954H73.4375C74.6973 74.5954 75.8746 74.2377 76.875 73.6201V74.2829C76.875 76.1787 75.3333 77.7204 73.4375 77.7204Z" fill="url(#paint0_linear_2896_4431)"/>
<path d="M40 30.8454C40.4108 30.8454 40.8142 30.6782 41.1047 30.3876C41.3953 30.0971 41.5625 29.6937 41.5625 29.2829C41.5625 28.8721 41.3953 28.4687 41.1047 28.1782C40.8142 27.8876 40.4108 27.7204 40 27.7204C39.5892 27.7204 39.1858 27.8876 38.8953 28.1782C38.6047 28.4687 38.4375 28.8721 38.4375 29.2829C38.4375 29.6937 38.6047 30.0971 38.8953 30.3876C39.1858 30.6782 39.5892 30.8454 40 30.8454Z" fill="url(#paint1_linear_2896_4431)"/>
<path d="M28.1206 44.452C26.7595 44.6497 25.6499 45.5854 25.2251 46.8934C24.8003 48.2014 25.1476 49.6101 26.1327 50.5701L30.4686 54.7962L29.445 60.7636C29.2125 62.1192 29.7588 63.4632 30.8714 64.2719C31.9841 65.08 33.4319 65.185 34.6489 64.5448L40.0084 61.7274L45.3673 64.5448C45.8971 64.8231 46.4696 64.961 47.0396 64.961C47.7806 64.961 48.5161 64.7285 49.1447 64.2719C50.2574 63.4632 50.8043 62.1192 50.5718 60.7636L49.5482 54.7962L53.8841 50.5701C54.8686 49.6101 55.2165 48.2014 54.7917 46.8934C54.3663 45.5854 53.2573 44.6497 51.8962 44.452L45.9044 43.5816L43.2249 38.1519C42.6158 36.919 41.3835 36.153 40.0084 36.153C38.6333 36.153 37.401 36.919 36.7925 38.1519L34.1124 43.5816L28.1206 44.452ZM36.5508 45.7014L39.594 39.535C39.6989 39.3226 39.8772 39.278 40.0078 39.278C40.139 39.278 40.3172 39.3226 40.4222 39.535L43.4654 45.7014C43.6931 46.1622 44.1325 46.482 44.6416 46.5559L51.4464 47.5446C51.6808 47.5788 51.7784 47.7345 51.8193 47.859C51.8596 47.9835 51.8718 48.1666 51.7021 48.332L46.7784 53.1318C46.4098 53.4913 46.2419 54.0083 46.3286 54.5148L47.4913 61.2922C47.531 61.526 47.4132 61.6669 47.3076 61.7439C47.2014 61.8208 47.0311 61.8897 46.8211 61.7793L40.7347 58.5792C40.5071 58.4595 40.2574 58.3997 40.0078 58.3997C39.7582 58.3997 39.5085 58.4595 39.2809 58.5792L33.1944 61.7793C32.9845 61.8897 32.8142 61.8208 32.708 61.7439C32.6024 61.6669 32.4846 61.526 32.5243 61.2922L33.687 54.5148C33.7737 54.0083 33.6058 53.4913 33.2378 53.1318L28.3134 48.332C28.1438 48.1666 28.156 47.9835 28.1969 47.859C28.2372 47.7345 28.3348 47.5788 28.5692 47.5446L35.374 46.5559C35.883 46.482 36.3231 46.1622 36.5508 45.7014Z" fill="url(#paint2_linear_2896_4431)"/>
</g>
<defs>
<linearGradient id="paint0_linear_2896_4431" x1="0" y1="40.8454" x2="80" y2="40.8454" gradientUnits="userSpaceOnUse">
<stop stop-color="#991F3D"/>
<stop offset="1" stop-color="#E7474D"/>
</linearGradient>
<linearGradient id="paint1_linear_2896_4431" x1="38.4375" y1="29.2829" x2="41.5625" y2="29.2829" gradientUnits="userSpaceOnUse">
<stop stop-color="#991F3D"/>
<stop offset="1" stop-color="#E7474D"/>
</linearGradient>
<linearGradient id="paint2_linear_2896_4431" x1="25.0469" y1="50.557" x2="54.9698" y2="50.557" gradientUnits="userSpaceOnUse">
<stop stop-color="#991F3D"/>
<stop offset="1" stop-color="#E7474D"/>
</linearGradient>
<clipPath id="clip0_2896_4431">
<rect width="80" height="80" fill="white" transform="translate(0 0.845413)"/>
</clipPath>
</defs>
</svg>
