<svg width="76" height="76" viewBox="0 0 76 76" fill="none" xmlns="http://www.w3.org/2000/svg">
<path d="M71.75 16.75H69.25V15.5H70.5C71.4946 15.5 72.4484 15.105 73.1516 14.4017C73.8549 13.6984 74.25 12.7446 74.25 11.75C74.25 10.7555 73.8549 9.80165 73.1516 9.09839C72.4484 8.39513 71.4946 8.00004 70.5 8.00004H69.25V1.75004C69.2518 1.55434 69.2061 1.36111 69.1169 1.18694C69.0276 1.01277 68.8974 0.86285 68.7375 0.750041C68.5827 0.632808 68.4024 0.553624 68.2113 0.518883C68.0203 0.484141 67.8237 0.494814 67.6375 0.550041L51.5625 5.50004H43C42.6685 5.50004 42.3505 5.63174 42.1161 5.86616C41.8817 6.10058 41.75 6.41852 41.75 6.75004V8.00004H39.25C38.9185 8.00004 38.6005 8.13174 38.3661 8.36616C38.1317 8.60058 38 8.91852 38 9.25004V14.25C38 14.5816 38.1317 14.8995 38.3661 15.1339C38.6005 15.3683 38.9185 15.5 39.25 15.5H41.75V16.75H34.25V5.50004C34.25 5.16852 34.1183 4.85058 33.8839 4.61616C33.6495 4.38174 33.3315 4.25004 33 4.25004H8C7.66848 4.25004 7.35054 4.38174 7.11612 4.61616C6.8817 4.85058 6.75 5.16852 6.75 5.50004V16.75H4.25C3.25635 16.753 2.30425 17.149 1.60163 17.8517C0.899009 18.5543 0.502968 19.5064 0.5 20.5V60.5C0.502968 61.4937 0.899009 62.4458 1.60163 63.1484C2.30425 63.851 3.25635 64.2471 4.25 64.25H33V68H25.5C25.1685 68 24.8505 68.1317 24.6161 68.3662C24.3817 68.6006 24.25 68.9185 24.25 69.25V74.25C24.25 74.5816 24.3817 74.8995 24.6161 75.1339C24.8505 75.3683 25.1685 75.5 25.5 75.5H50.5C50.8315 75.5 51.1495 75.3683 51.3839 75.1339C51.6183 74.8995 51.75 74.5816 51.75 74.25V69.25C51.75 68.9185 51.6183 68.6006 51.3839 68.3662C51.1495 68.1317 50.8315 68 50.5 68H43V64.25H71.75C72.7437 64.2471 73.6958 63.851 74.3984 63.1484C75.101 62.4458 75.497 61.4937 75.5 60.5V20.5C75.497 19.5064 75.101 18.5543 74.3984 17.8517C73.6958 17.149 72.7437 16.753 71.75 16.75ZM69.25 10.5H70.5C70.8315 10.5 71.1495 10.6317 71.3839 10.8662C71.6183 11.1006 71.75 11.4185 71.75 11.75C71.75 12.0816 71.6183 12.3995 71.3839 12.6339C71.1495 12.8683 70.8315 13 70.5 13H69.25V10.5ZM53 7.67504L66.75 3.43754V20.0625L53 15.825V7.67504ZM44.25 8.00004H50.5V15.5H44.25V8.00004ZM47.8125 18L46.9125 24.25H45.5V18H47.8125ZM40.5 13V10.5H41.75V13H40.5ZM9.25 6.75004H31.75V24.25H9.25V6.75004ZM49.25 70.5V73H26.75V70.5H49.25ZM35.5 68V64.25H40.5V68H35.5ZM73 60.5C73 60.8316 72.8683 61.1495 72.6339 61.3839C72.3995 61.6183 72.0815 61.75 71.75 61.75H4.25C3.91848 61.75 3.60054 61.6183 3.36612 61.3839C3.1317 61.1495 3 60.8316 3 60.5V59.25H73V60.5ZM73 56.75H3V20.5C3 20.1685 3.1317 19.8506 3.36612 19.6162C3.60054 19.3817 3.91848 19.25 4.25 19.25H6.75V25.5C6.75 25.8316 6.8817 26.1495 7.11612 26.3839C7.35054 26.6183 7.66848 26.75 8 26.75H33C33.3315 26.75 33.6495 26.6183 33.8839 26.3839C34.1183 26.1495 34.25 25.8316 34.25 25.5V19.25H43V25.5C43 25.8316 43.1317 26.1495 43.3661 26.3839C43.6005 26.6183 43.9185 26.75 44.25 26.75H48C48.3012 26.75 48.5922 26.6412 48.8196 26.4437C49.0469 26.2462 49.1953 25.9732 49.2375 25.675L50.3375 18H51.5625L67.6375 22.95C67.7549 22.9858 67.8773 23.0027 68 23C68.33 22.9952 68.6451 22.8619 68.8785 22.6286C69.1119 22.3952 69.2452 22.0801 69.25 21.75V19.25H71.75C72.0815 19.25 72.3995 19.3817 72.6339 19.6162C72.8683 19.8506 73 20.1685 73 20.5V56.75Z" fill="url(#paint0_linear_2896_4408)"/>
<path d="M6.75 54.25H39.25C39.5815 54.25 39.8995 54.1183 40.1339 53.8839C40.3683 53.6495 40.5 53.3315 40.5 53V33C40.5 32.6685 40.3683 32.3505 40.1339 32.1161C39.8995 31.8817 39.5815 31.75 39.25 31.75H6.75C6.41848 31.75 6.10054 31.8817 5.86612 32.1161C5.6317 32.3505 5.5 32.6685 5.5 33V53C5.5 53.3315 5.6317 53.6495 5.86612 53.8839C6.10054 54.1183 6.41848 54.25 6.75 54.25ZM8 51.75V35.2362L22.345 44.065C22.542 44.1862 22.7687 44.2504 23 44.2504C23.2313 44.2504 23.458 44.1862 23.655 44.065L38 35.2362V51.75H8ZM11.1663 34.25H34.8337L23 41.5325L11.1663 34.25Z" fill="url(#paint1_linear_2896_4408)"/>
<path d="M44.25 46.75H46.75V50.5C46.75 50.8315 46.8817 51.1495 47.1161 51.3839C47.3505 51.6183 47.6685 51.75 48 51.75H69.25C69.5815 51.75 69.8995 51.6183 70.1339 51.3839C70.3683 51.1495 70.5 50.8315 70.5 50.5V35.5C70.5 35.1685 70.3683 34.8505 70.1339 34.6161C69.8995 34.3817 69.5815 34.25 69.25 34.25H68V30.5C68 30.1685 67.8683 29.8505 67.6339 29.6161C67.3995 29.3817 67.0815 29.25 66.75 29.25H44.25C43.9185 29.25 43.6005 29.3817 43.3661 29.6161C43.1317 29.8505 43 30.1685 43 30.5V45.5C43 45.8315 43.1317 46.1495 43.3661 46.3839C43.6005 46.6183 43.9185 46.75 44.25 46.75ZM68 49.25H49.25V36.75H68V49.25ZM45.5 31.75H65.5V34.25H48C47.6685 34.25 47.3505 34.3817 47.1161 34.6161C46.8817 34.8505 46.75 35.1685 46.75 35.5V44.25H45.5V31.75Z" fill="url(#paint2_linear_2896_4408)"/>
<path d="M51.75 39.25H54.25V41.75H51.75V39.25Z" fill="url(#paint3_linear_2896_4408)"/>
<path d="M56.75 39.25H65.5V41.75H56.75V39.25Z" fill="url(#paint4_linear_2896_4408)"/>
<path d="M51.75 44.25H56.75V46.75H51.75V44.25Z" fill="url(#paint5_linear_2896_4408)"/>
<path d="M59.25 44.25H65.5V46.75H59.25V44.25Z" fill="url(#paint6_linear_2896_4408)"/>
<path d="M17.3425 20.3138C17.5237 20.4259 17.7306 20.4898 17.9435 20.4994C18.1563 20.5091 18.3681 20.4641 18.5588 20.3688L26.0588 16.6188C26.2668 16.5152 26.4417 16.3556 26.5641 16.1579C26.6864 15.9603 26.7512 15.7325 26.7512 15.5001C26.7512 15.2677 26.6864 15.0399 26.5641 14.8422C26.4417 14.6446 26.2668 14.485 26.0588 14.3813L18.5588 10.6313C18.3681 10.5361 18.1563 10.4912 17.9434 10.5008C17.7306 10.5104 17.5237 10.5743 17.3425 10.6864C17.1612 10.7985 17.0117 10.9551 16.908 11.1413C16.8043 11.3274 16.7499 11.537 16.75 11.7501V19.2501C16.7499 19.4632 16.8043 19.6728 16.908 19.859C17.0117 20.0452 17.1613 20.2017 17.3425 20.3138ZM19.25 13.7726L22.705 15.5001L19.25 17.2276V13.7726Z" fill="url(#paint7_linear_2896_4408)"/>
<defs>
<linearGradient id="paint0_linear_2896_4408" x1="0.5" y1="37.9995" x2="75.5" y2="37.9995" gradientUnits="userSpaceOnUse">
<stop stop-color="#991F3D"/>
<stop offset="1" stop-color="#E7474D"/>
</linearGradient>
<linearGradient id="paint1_linear_2896_4408" x1="5.5" y1="43" x2="40.5" y2="43" gradientUnits="userSpaceOnUse">
<stop stop-color="#991F3D"/>
<stop offset="1" stop-color="#E7474D"/>
</linearGradient>
<linearGradient id="paint2_linear_2896_4408" x1="43" y1="40.5" x2="70.5" y2="40.5" gradientUnits="userSpaceOnUse">
<stop stop-color="#991F3D"/>
<stop offset="1" stop-color="#E7474D"/>
</linearGradient>
<linearGradient id="paint3_linear_2896_4408" x1="51.75" y1="40.5" x2="54.25" y2="40.5" gradientUnits="userSpaceOnUse">
<stop stop-color="#991F3D"/>
<stop offset="1" stop-color="#E7474D"/>
</linearGradient>
<linearGradient id="paint4_linear_2896_4408" x1="56.75" y1="40.5" x2="65.5" y2="40.5" gradientUnits="userSpaceOnUse">
<stop stop-color="#991F3D"/>
<stop offset="1" stop-color="#E7474D"/>
</linearGradient>
<linearGradient id="paint5_linear_2896_4408" x1="51.75" y1="45.5" x2="56.75" y2="45.5" gradientUnits="userSpaceOnUse">
<stop stop-color="#991F3D"/>
<stop offset="1" stop-color="#E7474D"/>
</linearGradient>
<linearGradient id="paint6_linear_2896_4408" x1="59.25" y1="45.5" x2="65.5" y2="45.5" gradientUnits="userSpaceOnUse">
<stop stop-color="#991F3D"/>
<stop offset="1" stop-color="#E7474D"/>
</linearGradient>
<linearGradient id="paint7_linear_2896_4408" x1="16.75" y1="15.5001" x2="26.7512" y2="15.5001" gradientUnits="userSpaceOnUse">
<stop stop-color="#991F3D"/>
<stop offset="1" stop-color="#E7474D"/>
</linearGradient>
</defs>
</svg>
