<svg width="80" height="81" viewBox="0 0 80 81" fill="none" xmlns="http://www.w3.org/2000/svg">
<g clip-path="url(#clip0_2302_16309)">
<path d="M4.80078 43.5149C4.80078 46.1591 6.95219 48.3104 9.59625 48.3104C12.2403 48.3104 14.3917 46.159 14.3917 43.5149C14.3917 43.1598 14.3517 42.8138 14.2781 42.4806L21.1678 39.0299C22.048 40.0496 23.3481 40.6968 24.7975 40.6968C28.5177 40.6968 30.8228 36.622 28.9109 33.4395L37.5441 24.7918C39.5236 25.9763 42.0895 25.5859 43.6286 23.8027L50.5183 27.2535C49.8541 30.2624 52.1589 33.0834 55.2003 33.0834C59.3473 33.0834 61.5408 28.1413 58.7509 25.0679L68.8011 9.96696C71.9255 11.0766 75.1972 8.73993 75.1972 5.44711C75.197 2.8029 73.0458 0.651489 70.4016 0.651489C67.7573 0.651489 65.6061 2.8029 65.6061 5.44696C65.6061 6.68508 66.0778 7.81524 66.8511 8.66696L56.8009 23.7679C54.9592 23.1137 52.8819 23.6399 51.5706 25.1591L44.6809 21.7084C44.7545 21.3751 44.7945 21.0293 44.7945 20.6741C44.7945 18.0299 42.6431 15.8787 39.9991 15.8787C36.2803 15.8787 33.9731 19.9524 35.8856 23.136L27.2527 31.7837C23.6786 29.6448 19.2067 32.8184 20.1159 36.9356L13.2262 40.3862C10.3369 37.0393 4.80078 39.0757 4.80078 43.5149ZM70.4016 2.99524C71.7534 2.99524 72.8533 4.09508 72.8533 5.44696C72.8533 6.79883 71.7534 7.89868 70.4016 7.89868C69.0497 7.89868 67.9498 6.79883 67.9498 5.44696C67.9498 4.09508 69.0495 2.99524 70.4016 2.99524ZM55.2003 25.836C56.5522 25.836 57.652 26.9359 57.652 28.2877C57.652 29.6396 56.5522 30.7395 55.2003 30.7395C53.8484 30.7395 52.7486 29.6396 52.7486 28.2877C52.7486 26.9359 53.8483 25.836 55.2003 25.836ZM39.9989 18.2224C41.3508 18.2224 42.4506 19.3223 42.4506 20.6741C42.4506 22.026 41.3508 23.1259 39.9989 23.1259C38.647 23.1259 37.5472 22.026 37.5472 20.6741C37.5472 19.3223 38.6469 18.2224 39.9989 18.2224ZM24.7975 33.4495C26.1494 33.4495 27.2492 34.5493 27.2492 35.9012C27.2492 37.2531 26.1494 38.3529 24.7975 38.3529C23.4456 38.3529 22.3458 37.2531 22.3458 35.9012C22.3458 34.5493 23.4456 33.4495 24.7975 33.4495ZM9.59625 45.9668C8.24437 45.9668 7.14453 44.867 7.14453 43.5151C7.14453 42.1632 8.24437 41.0634 9.59625 41.0634C10.9481 41.0634 12.048 42.1632 12.048 43.5151C12.048 44.867 10.9483 45.9668 9.59625 45.9668Z" fill="white"/>
<path d="M77.9256 78.3077H76.4755V52.5566C76.4755 51.9093 75.9509 51.3847 75.3036 51.3847C74.6562 51.3847 74.1317 51.9093 74.1317 52.5566V78.3077H66.6772V19.9247H74.1317V47.088C74.1317 47.7354 74.6562 48.2599 75.3036 48.2599C75.9509 48.2599 76.4755 47.7354 76.4755 47.088V19.7329C76.4755 18.5463 75.51 17.581 74.3236 17.581H66.4855C65.2989 17.581 64.3336 18.5465 64.3336 19.7329V78.3077H61.2742V42.6805C61.2742 41.494 60.3089 40.5287 59.1225 40.5287H57.9378C57.2905 40.5287 56.7659 41.0532 56.7659 41.7005C56.7659 42.3479 57.2905 42.8724 57.9378 42.8724H58.9306V78.3077H51.4762V42.8724H52.4691C53.1164 42.8724 53.6409 42.3479 53.6409 41.7005C53.6409 41.0532 53.1164 40.5287 52.4691 40.5287H51.2842C50.0977 40.5287 49.1325 41.4941 49.1325 42.6805V78.3077H46.0731V35.0005C46.0731 33.814 45.1077 32.8488 43.9213 32.8488H36.0831C34.8966 32.8488 33.9314 33.8141 33.9314 35.0005V78.3077H30.872V50.2941C30.872 49.1076 29.9066 48.1422 28.7202 48.1422H20.882C19.6955 48.1422 18.7302 49.1077 18.7302 50.2941V78.3077H15.6708V57.9076C15.6708 56.721 14.7055 55.7558 13.5191 55.7558H5.68016C4.49359 55.7558 3.52828 56.7211 3.52828 57.9076V78.3077H2.07812C1.43078 78.3077 0.90625 78.8322 0.90625 79.4796C0.90625 80.1269 1.43078 80.6515 2.07812 80.6515H77.9258C78.5731 80.6515 79.0977 80.1269 79.0977 79.4796C79.0977 78.8322 78.573 78.3077 77.9256 78.3077ZM5.87203 78.3077V58.0996H13.3264V78.3077H5.87203ZM21.0733 78.3077V50.4858H28.5278V78.3077H21.0733ZM36.2747 78.3077V35.1926H43.7291V78.3077H36.2747Z" fill="white"/>
</g>
<defs>
<clipPath id="clip0_2302_16309">
<rect width="80" height="80" fill="white" transform="translate(0 0.651489)"/>
</clipPath>
</defs>
</svg>
