<svg width="80" height="80" viewBox="0 0 80 80" fill="none" xmlns="http://www.w3.org/2000/svg">
<path d="M22.5 18.75H20V22.5H22.5V18.75Z" fill="white"/>
<path d="M32.5 18.75H30V22.5H32.5V18.75Z" fill="white"/>
<path d="M40.0254 29.5706L46.5654 35.8987C46.7606 36.0876 47.0121 36.2077 47.2817 36.241C47.5513 36.2742 47.8244 36.2186 48.0596 36.0828L71.8791 22.3308C72.0296 22.2438 72.1604 22.1264 72.263 21.9861L75.8444 17.0895C75.8868 17.0315 75.9241 16.9699 75.956 16.9055C76.1612 16.4904 76.2608 16.0311 76.2458 15.5684C76.2309 15.1056 76.102 14.6537 75.8705 14.2527C75.639 13.8517 75.312 13.5141 74.9187 13.2698C74.5254 13.0256 74.0779 12.8821 73.6158 12.8523C73.531 12.8468 73.4458 12.8499 73.3616 12.8619L68.3905 13.5594C67.5742 13.5313 66.7664 13.7337 66.0597 14.1433L62.7785 16.0376L49.7637 15.1375C49.5155 15.1203 49.2678 15.1776 49.0524 15.302L45.8049 17.177C45.6153 17.2865 45.4578 17.4439 45.3481 17.6333C45.2384 17.8228 45.1805 18.0378 45.18 18.2567C45.1795 18.4757 45.2365 18.6909 45.3453 18.8809C45.4541 19.0708 45.611 19.2289 45.8001 19.3392L52.9549 23.5128L48.8832 26.8648L43.2091 26.1812C42.9406 26.1489 42.6688 26.2045 42.4346 26.3397L40.2696 27.5897C40.102 27.6864 39.9592 27.8207 39.8524 27.982C39.7455 28.1434 39.6776 28.3273 39.6539 28.5193C39.6302 28.7113 39.6515 28.9062 39.7159 29.0887C39.7804 29.2711 39.8863 29.4361 40.0254 29.5706ZM43.3238 28.7131L49.1152 29.4108C49.2831 29.431 49.4533 29.417 49.6155 29.3696C49.7778 29.3221 49.9288 29.2423 50.0593 29.1348L55.9294 24.3023C56.085 24.1743 56.2072 24.0105 56.2858 23.825C56.3644 23.6395 56.397 23.4378 56.3808 23.237C56.3647 23.0362 56.3002 22.8423 56.1929 22.6717C56.0857 22.5012 55.9388 22.3592 55.7647 22.2576L48.9208 18.2656L49.9726 17.6584L62.9882 18.5584C63.2363 18.5753 63.4839 18.5181 63.6994 18.3939L67.3112 16.3087C67.6315 16.1232 67.9999 16.0371 68.3693 16.0614C68.4541 16.0668 68.5393 16.0636 68.6235 16.0519L73.5369 15.3622C73.6106 15.3879 73.6722 15.4401 73.7097 15.5086C73.7472 15.577 73.758 15.657 73.7401 15.733L70.4008 20.2969L47.6262 33.4461L42.9543 28.9262L43.3238 28.7131Z" fill="white"/>
<path d="M77.5 56.875V53.5023C77.5009 52.5839 77.2123 51.6885 76.6752 50.9435C76.1382 50.1984 75.3801 49.6415 74.5085 49.3519L65.3953 46.3142C65.2679 46.2717 65.1344 46.25 65 46.25H61.25V48.75H64.7969L73.7188 51.7236C74.0922 51.8478 74.4169 52.0866 74.6469 52.4059C74.8769 52.7252 75.0005 53.1088 75 53.5023V56.875C74.9995 57.3721 74.8018 57.8487 74.4503 58.2002C74.0987 58.5517 73.6221 58.7495 73.125 58.75H69.5606C69.1936 58.7503 68.8346 58.6427 68.5282 58.4407C68.2218 58.2386 67.9815 57.951 67.8372 57.6136L66.7821 55.1516C66.4453 54.3642 65.8847 53.6931 65.1697 53.2217C64.4548 52.7503 63.6172 52.4994 62.7608 52.5H52.2392C51.383 52.4995 50.5455 52.7505 49.8308 53.2219C49.116 53.6933 48.5555 54.3643 48.2188 55.1516L47.1636 57.6136C47.0192 57.9512 46.7788 58.2388 46.4723 58.4409C46.1657 58.6429 45.8065 58.7504 45.4394 58.75H41.875C41.3779 58.7495 40.9013 58.5517 40.5498 58.2002C40.1983 57.8487 40.0006 57.3721 40 56.875V53.5023C39.9996 53.1088 40.1231 52.7252 40.3531 52.4059C40.5831 52.0866 40.9079 51.8478 41.2813 51.7236L50.2031 48.75H58.75V46.25H50C49.8657 46.25 49.7322 46.2717 49.6047 46.3142L47.846 46.9005L34.498 40.2264L32.8367 34.6891L34.2449 33.9759C35.2261 33.4827 36.0504 32.7258 36.6254 31.7901C37.2004 30.8545 37.5032 29.7771 37.5 28.6789V15C37.8315 15 38.1495 14.8683 38.3839 14.6339C38.6183 14.3995 38.75 14.0815 38.75 13.75V9.56063C38.7507 8.70428 38.4997 7.86661 38.0283 7.1517C37.5569 6.43678 36.8858 5.87612 36.0985 5.53937L34.6472 4.9175L34.9205 4.18891C34.9914 3.99978 35.0155 3.79629 34.9905 3.59585C34.9656 3.39541 34.8925 3.20399 34.7775 3.03798C34.6624 2.87197 34.5089 2.73631 34.3299 2.64262C34.151 2.54893 33.952 2.49999 33.75 2.5H19.6875C18.1133 2.50178 16.6042 3.12791 15.491 4.24102C14.3779 5.35413 13.7518 6.86332 13.75 8.4375V13.75C13.75 14.0815 13.8817 14.3995 14.1161 14.6339C14.3506 14.8683 14.6685 15 15 15V16.25H14.375C13.2151 16.2513 12.1031 16.7127 11.2829 17.5329C10.4627 18.3531 10.0013 19.4651 10 20.625V21.875C10.0013 23.0349 10.4627 24.1469 11.2829 24.9671C12.1031 25.7873 13.2151 26.2487 14.375 26.25H15V28.7263C14.9963 29.8297 15.3018 30.9121 15.8819 31.8508C16.462 32.7894 17.2936 33.5468 18.2822 34.0369L19.6533 34.7225L18.0021 40.2266L4.91846 46.7683C4.18999 47.1294 3.57729 47.6875 3.14983 48.3791C2.72237 49.0708 2.49726 49.8683 2.50003 50.6814V56.25H5.00003V50.6814C4.99884 50.3329 5.0953 49.9911 5.27849 49.6947C5.46167 49.3982 5.72424 49.159 6.03643 49.0042L15.2725 44.3862L8.94534 54.3289C8.84668 54.4839 8.78342 54.6588 8.76006 54.8411C8.73671 55.0234 8.75383 55.2086 8.81021 55.3835C8.8666 55.5584 8.96085 55.7187 9.08627 55.8531C9.21168 55.9874 9.36517 56.0924 9.53581 56.1606L14.5246 58.1562L12.6321 61.9409C12.522 62.161 12.4793 62.4086 12.5094 62.6528C12.5394 62.8969 12.6409 63.1268 12.801 63.3136L18.5322 70H5.00003V58.75H2.50003V76.25C2.50003 76.5815 2.63172 76.8995 2.86614 77.1339C3.10056 77.3683 3.4185 77.5 3.75003 77.5H76.25C76.5815 77.5 76.8995 77.3683 77.1339 77.1339C77.3683 76.8995 77.5 76.5815 77.5 76.25V71.25C77.5 70.9185 77.3683 70.6005 77.1339 70.3661C76.8995 70.1317 76.5815 70 76.25 70H74.5781C74.8568 69.4143 75.001 68.7736 75 68.125V65.0444C75.0016 64.4696 74.8892 63.9002 74.6693 63.3692C74.4493 62.8381 74.1263 62.356 73.7188 61.9506L73.0177 61.25H73.125C74.2849 61.2487 75.397 60.7873 76.2172 59.9671C77.0373 59.1469 77.4987 58.0349 77.5 56.875ZM41.875 61.25H41.9824L41.2814 61.9508C40.8739 62.3561 40.5509 62.8383 40.331 63.3693C40.111 63.9004 39.9986 64.4698 40.0002 65.0445V68.125C39.9992 68.7736 40.1434 69.4143 40.4221 70H33.9674L39.6986 63.3136C39.8587 63.1268 39.9602 62.8969 39.9902 62.6528C40.0202 62.4086 39.9776 62.161 39.8675 61.9409L38.9688 60.1427C39.7684 60.8566 40.8031 61.2509 41.875 61.25ZM24.8089 70L21.875 52.3933L26.5288 47.7394L30.7055 51.9161L27.6911 70H24.8089ZM20.4574 43.8906L24.288 46.4444L21.3694 49.363L20.4574 43.8906ZM31.2102 48.8859L28.7688 46.4442L31.9732 44.308L31.2102 48.8859ZM34.4467 44.6733L37.5717 49.5834C37.5243 49.7172 37.5001 49.8581 37.5 50V52.5C37.4999 52.6175 37.5164 52.7343 37.5489 52.8472C37.5164 53.0641 37.5 53.283 37.5 53.5023V55.6537L35.7858 56.3394C35.6253 56.4036 35.4798 56.5004 35.3586 56.6237C35.2374 56.747 35.1431 56.8942 35.0816 57.0558C35.0202 57.2174 34.993 57.39 35.0016 57.5627C35.0103 57.7354 35.0547 57.9044 35.1321 58.0591L37.2608 62.3167L30.675 70H30.2257L34.4467 44.6733ZM40.4916 49.352C40.4628 49.3616 40.4343 49.3714 40.4061 49.3814L37.2274 44.3864L44.4919 48.0186L40.4916 49.352ZM35.1136 7.83719C35.4511 7.98152 35.7387 8.22181 35.9407 8.52821C36.1427 8.83461 36.2503 9.19361 36.25 9.56063V12.5H31.8038L33.7685 7.26078L35.1136 7.83719ZM16.25 8.4375C16.2511 7.52614 16.6136 6.65239 17.258 6.00796C17.9024 5.36353 18.7762 5.00103 19.6875 5H31.9463L29.1338 12.5H16.25V8.4375ZM14.375 23.75C13.8779 23.7495 13.4013 23.5517 13.0498 23.2002C12.6983 22.8487 12.5006 22.3721 12.5 21.875V20.625C12.5006 20.1279 12.6983 19.6513 13.0498 19.2998C13.4013 18.9483 13.8779 18.7505 14.375 18.75H15V23.75H14.375ZM17.5 28.7263V27.1539L24.3799 31.0853C24.5687 31.1932 24.7825 31.25 25 31.25H28.75V28.75H25.3321L17.5 24.2745V15H35V28.6789C35.0018 29.3147 34.8264 29.9384 34.4935 30.4801C34.1606 31.0218 33.6834 31.46 33.1153 31.7456L27.0882 34.7978C26.8268 34.9294 26.5384 34.9982 26.2458 34.999C25.9533 34.9997 25.6645 34.9323 25.4025 34.802L19.4002 31.8009C18.8278 31.5171 18.3464 31.0787 18.0106 30.5352C17.6747 29.9918 17.4979 29.3651 17.5 28.7263ZM24.2846 37.0387C24.8958 37.3428 25.5695 37.5002 26.2522 37.4984C26.9349 37.4967 27.6078 37.3359 28.2175 37.0287L30.571 35.837L32.1719 41.1719L26.5288 44.9339L20.4219 40.862L21.9233 35.8573L24.2846 37.0387ZM15.2392 62.3167L17.368 58.0591C17.4453 57.9044 17.4897 57.7354 17.4984 57.5627C17.5071 57.39 17.4799 57.2174 17.4184 57.0558C17.357 56.8942 17.2627 56.747 17.1415 56.6237C17.0203 56.5004 16.8748 56.4036 16.7142 56.3394L11.8639 54.3992L18.0533 44.6731L22.2744 70H21.825L15.2392 62.3167ZM75 75H5.00003V72.5H75V75ZM52.5 65C52.5 64.0111 52.7933 63.0444 53.3427 62.2221C53.8921 61.3999 54.673 60.759 55.5866 60.3806C56.5002 60.0022 57.5056 59.9031 58.4755 60.0961C59.4454 60.289 60.3363 60.7652 61.0356 61.4645C61.7348 62.1637 62.211 63.0546 62.4039 64.0245C62.5969 64.9945 62.4979 65.9998 62.1194 66.9134C61.741 67.827 61.1001 68.6079 60.2779 69.1573C59.4556 69.7068 58.4889 70 57.5 70C56.1744 69.9985 54.9035 69.4712 53.9661 68.5339C53.0288 67.5965 52.5015 66.3256 52.5 65ZM63.0855 70C64.0521 68.9213 64.6857 67.5858 64.9098 66.1548C65.1338 64.7238 64.9387 63.2586 64.348 61.9361C63.7573 60.6136 62.7963 59.4904 61.5811 58.7023C60.3659 57.9142 58.9484 57.4948 57.5 57.4948C56.0516 57.4948 54.6342 57.9142 53.419 58.7023C52.2037 59.4904 51.2427 60.6136 50.6521 61.9361C50.0614 63.2586 49.8662 64.7238 50.0903 66.1548C50.3143 67.5858 50.9479 68.9213 51.9146 70H44.375C43.8779 69.9995 43.4013 69.8017 43.0498 69.4502C42.6983 69.0987 42.5006 68.6221 42.5 68.125V65.0444C42.4993 64.798 42.5475 64.554 42.6418 64.3265C42.7361 64.0989 42.8746 63.8923 43.0492 63.7186L45.518 61.2498C46.3607 61.2353 47.1813 60.9773 47.8808 60.5069C48.5802 60.0366 49.1287 59.374 49.4602 58.5991L50.5153 56.137C50.6596 55.7994 50.8999 55.5116 51.2064 55.3095C51.5129 55.1073 51.8721 54.9997 52.2392 55H62.7608C63.1278 54.9997 63.4868 55.1073 63.7932 55.3093C64.0996 55.5113 64.3399 55.799 64.4842 56.1364L65.5394 58.5984C65.8707 59.3736 66.4192 60.0363 67.1187 60.5068C67.8181 60.9772 68.6387 61.2354 69.4816 61.25L71.9503 63.7188C72.1251 63.8924 72.2636 64.0989 72.358 64.3265C72.4523 64.554 72.5006 64.798 72.5 65.0444V68.125C72.4995 68.6221 72.3018 69.0987 71.9503 69.4502C71.5987 69.8017 71.1221 69.9995 70.625 70H63.0855Z" fill="white"/>
</svg>
