<svg width="80" height="80" viewBox="0 0 80 80" fill="none" xmlns="http://www.w3.org/2000/svg">
<g clip-path="url(#clip0_2302_16204)">
<path d="M47.5123 0H76.2273C78.3892 0 80.0005 1.93062 80.0005 4.03875V22.1256C80.0005 24.2338 78.3892 26.1644 76.2273 26.1644H47.5123C45.3336 26.1644 43.7386 24.2338 43.7386 22.1256V18.8488L37.6273 15.7306C35.7492 14.7738 35.7492 11.9575 37.6273 11.0006C39.6648 9.95562 41.7017 8.92813 43.7386 7.8825V4.03875C43.738 1.93062 45.333 0 47.5123 0ZM76.2273 2.4975H47.5123C46.7155 2.4975 46.2367 3.3125 46.2367 4.03875V8.645C46.2367 9.0875 45.9892 9.53062 45.5461 9.74312C43.278 10.9125 41.0286 12.0819 38.7611 13.2331C38.6373 13.3038 38.6723 13.4631 38.7611 13.4987L45.4405 16.9356C45.9005 17.1125 46.2373 17.5556 46.2373 18.0869V22.1256C46.2373 22.8519 46.7161 23.6669 47.513 23.6669H76.228C77.0248 23.6669 77.5036 22.8519 77.5036 22.1256V4.03875C77.503 3.3125 77.0242 2.4975 76.2273 2.4975Z" fill="url(#paint0_linear_2302_16204)"/>
<path d="M52.7713 8.80377C51.1231 8.80377 51.1231 6.30627 52.7713 6.30627H71.5131C73.1431 6.30627 73.1431 8.80377 71.5131 8.80377H52.7713ZM52.7713 19.8756C51.1231 19.8756 51.1231 17.3775 52.7713 17.3775H63.8963C65.5438 17.3775 65.5438 19.8756 63.8963 19.8756H52.7713ZM52.7713 14.3313C51.1231 14.3313 51.1231 11.8331 52.7713 11.8331H71.5131C73.1431 11.8331 73.1431 14.3313 71.5131 14.3313H52.7713Z" fill="url(#paint1_linear_2302_16204)"/>
<path d="M16.085 23.6488C15.7131 23.5069 15.3944 23.3475 15.0931 23.1706L14.8975 24.6056L19.0075 29.2287L23.0994 24.6056L22.9044 23.1706C22.6038 23.3475 22.2844 23.5075 21.93 23.6488C20.2831 24.3044 17.715 24.3044 16.085 23.6488ZM12.8256 21.3462L12.7019 21.24C10.7881 19.5394 9.85 17.2013 9.85 14.65V8.91C9.85 3.48937 13.6763 0 19.0081 0C24.34 0 28.1487 3.48937 28.1487 8.91V14.65C28.1487 17.2013 27.21 19.5394 25.2969 21.24L25.1725 21.3462L25.58 24.3575L27.7238 26.235L33.8 28.875C35.1113 29.46 36.1562 30.3631 36.8825 31.4969C37.6087 32.6481 37.9987 33.9944 37.9987 35.4294V38.8838C37.9987 39.5744 37.4494 40.1419 36.7588 40.1419C36.0681 40.1419 35.5006 39.575 35.5006 38.8838V35.4294C35.5006 34.455 35.2531 33.5694 34.7744 32.8431C34.3144 32.1169 33.6413 31.5325 32.8081 31.1606L27.8306 28.9994L25.74 35.5363C25.545 36.1919 24.8369 36.5462 24.1812 36.3512C24.0575 36.2981 23.9331 36.245 23.8269 36.1562L20.2481 33.5519V38.8838C20.2481 39.5744 19.6994 40.1419 19.0087 40.1419C18.3181 40.1419 17.75 39.5744 17.75 38.8838V33.5519L14.1894 36.1737C14.1894 36.1737 13.8531 36.3331 13.8175 36.3506C13.1619 36.5456 12.4713 36.1912 12.2587 35.5356L10.1863 28.9987L5.19063 31.16C4.35813 31.5319 3.685 32.1162 3.22438 32.8425C2.76375 33.5687 2.49813 34.455 2.49813 35.4287V51.1056C2.49813 51.7969 1.94875 52.3637 1.25813 52.3637C0.5675 52.3637 0 51.7981 0 51.1069V35.4294C0 33.9944 0.39 32.6481 1.13375 31.4969C1.8425 30.3631 2.8875 29.4594 4.19812 28.875L10.2744 26.2356L12.4181 24.3581L12.8256 21.3462ZM14.8981 19.8581C14.9688 19.9113 15.0225 19.9644 15.0756 20.035C15.66 20.5487 16.2619 21.045 16.9888 21.3281C18.0344 21.7356 19.9831 21.7356 21.0106 21.3281C21.7369 21.0444 22.3394 20.5487 22.9238 20.035C22.9775 19.9644 23.0481 19.9113 23.1188 19.8581C23.2963 19.6987 23.4731 19.5394 23.6325 19.3794C25.0144 18.1394 25.6519 16.4919 25.6519 14.65V11.9931C21.0637 12.8606 18.4594 10.7706 17.1306 9.035C15.6425 10.7888 13.7475 10.8769 12.3656 10.6112V14.65C12.3656 16.4919 12.9856 18.1394 14.3675 19.3794C14.5444 19.5394 14.7212 19.6987 14.8981 19.8581ZM13.4812 26.7488L12.3825 27.7056L14.1006 33.1263L17.165 30.8944L13.4812 26.7488ZM24.5175 26.7488L20.8506 30.8944L23.8975 33.1263L25.6162 27.7056L24.5175 26.7488ZM7.33375 42.7462C7.33375 42.0556 7.90062 41.4881 8.59188 41.4881C9.28312 41.4881 9.83187 42.055 9.83187 42.7462V51.1069C9.83187 51.7981 9.2825 52.365 8.59188 52.365C7.90125 52.365 7.33375 51.7988 7.33375 51.1069V42.7462ZM12.4006 8.06C13.3756 8.30812 15.0756 8.37875 15.9969 6.11125C16.44 5.04812 17.91 5.01312 18.335 6.2C18.335 6.2 19.9112 10.7525 25.6512 9.44188V8.91C25.6512 4.87125 22.9587 2.4975 19.0081 2.4975C15.4475 2.4975 12.7731 4.42812 12.4006 8.06Z" fill="url(#paint2_linear_2302_16204)"/>
<path d="M51.9567 54.4381C49.6711 52.4181 48.5555 49.9912 48.5555 46.9262V40.4431C48.5555 34.4375 52.7892 30.5581 58.7242 30.5581C64.6411 30.5581 68.8742 34.4381 68.8742 40.4431V46.9262C68.8742 49.9906 67.7755 52.4175 65.4911 54.4381L65.9873 59.5925L75.358 63.1181C78.263 64.3937 79.9992 67.2106 79.9992 70.3637V78.7425C79.9992 79.4331 79.433 80.0006 78.7417 80.0006C78.0505 80.0006 77.5017 79.4337 77.5017 78.7425V70.3637C77.5017 68.2025 76.3861 66.3069 74.3836 65.4212L64.393 61.6481C60.6561 60.4619 56.8817 60.2131 53.0911 61.3294L43.0467 65.4212C41.063 66.3069 39.9467 68.2025 39.9467 70.3637V78.7425C39.9467 79.4331 39.3798 80.0006 38.6886 80.0006C37.9986 80.0006 37.4492 79.4337 37.4492 78.7425V70.3637C37.4492 67.2106 39.1848 64.3937 42.0905 63.1181L51.4973 59.2919L51.9567 54.4381ZM62.5323 55.6775H54.8973C54.5786 55.6775 54.3123 55.9256 54.2773 56.2437L54.0648 58.5119C57.1817 57.8919 60.318 58.0331 63.4005 58.7775L63.1523 56.2437C63.1342 55.9256 62.8686 55.6775 62.5323 55.6775ZM54.7911 53.2156H62.6386C63.0986 53.2156 63.6661 52.79 64.1623 52.3119C65.668 50.8237 66.3767 49.0881 66.3767 46.9269V40.4431C66.3767 35.8012 63.2767 33.0556 58.7242 33.0556C54.1717 33.0556 51.0536 35.8019 51.0536 40.4431V46.9262C51.0536 49.2119 51.8861 51.0712 53.5873 52.5775C53.9942 52.9494 54.4186 53.2156 54.7911 53.2156Z" fill="url(#paint3_linear_2302_16204)"/>
<path d="M12.8602 54.1719L14.9321 42.3031C15.2515 40.4787 16.9871 38.99 18.8296 38.99H39.8921C41.9465 38.99 43.3465 40.7444 42.9927 42.7281L40.3352 57.8737C39.9984 59.8225 38.1565 61.4169 36.1721 61.4169H15.5527H9.0871C7.7046 61.4169 6.32335 60.6375 5.96898 59.22L5.11898 55.73C4.92398 54.9331 5.52648 54.1712 6.32398 54.1712L12.8602 54.1719ZM28.7677 48.9106C29.4583 48.9106 30.0077 49.46 30.0077 50.15C30.0077 50.8406 29.4583 51.4081 28.7677 51.4081C28.0771 51.4081 27.5096 50.8412 27.5096 50.15C27.5102 49.46 28.0771 48.9106 28.7677 48.9106ZM14.7377 57.8744C14.649 58.4769 14.9502 58.9194 15.5702 58.9194H36.1727C36.9696 58.9194 37.7315 58.2287 37.874 57.4487L40.5308 42.3031C40.6196 41.8244 40.3715 41.4881 39.8927 41.4881H18.8302C18.1746 41.4881 17.519 42.0731 17.3952 42.7281C16.5096 47.7762 15.6234 52.8256 14.7377 57.8744ZM12.4171 56.6694H7.91773L8.39585 58.6181C8.60898 58.99 8.9096 58.9187 9.0871 58.9187H12.3109C12.2046 58.4406 12.2046 57.9269 12.2752 57.4481L12.4171 56.6694Z" fill="url(#paint4_linear_2302_16204)"/>
</g>
<defs>
<linearGradient id="paint0_linear_2302_16204" x1="36.2188" y1="13.0822" x2="80.0005" y2="13.0822" gradientUnits="userSpaceOnUse">
<stop stop-color="#991F3D"/>
<stop offset="1" stop-color="#E7474D"/>
</linearGradient>
<linearGradient id="paint1_linear_2302_16204" x1="51.5352" y1="13.091" x2="72.7356" y2="13.091" gradientUnits="userSpaceOnUse">
<stop stop-color="#991F3D"/>
<stop offset="1" stop-color="#E7474D"/>
</linearGradient>
<linearGradient id="paint2_linear_2302_16204" x1="0" y1="26.1825" x2="37.9987" y2="26.1825" gradientUnits="userSpaceOnUse">
<stop stop-color="#991F3D"/>
<stop offset="1" stop-color="#E7474D"/>
</linearGradient>
<linearGradient id="paint3_linear_2302_16204" x1="37.4492" y1="55.2794" x2="79.9992" y2="55.2794" gradientUnits="userSpaceOnUse">
<stop stop-color="#991F3D"/>
<stop offset="1" stop-color="#E7474D"/>
</linearGradient>
<linearGradient id="paint4_linear_2302_16204" x1="5.08203" y1="50.2034" x2="43.0474" y2="50.2034" gradientUnits="userSpaceOnUse">
<stop stop-color="#991F3D"/>
<stop offset="1" stop-color="#E7474D"/>
</linearGradient>
<clipPath id="clip0_2302_16204">
<rect width="80" height="80" fill="white"/>
</clipPath>
</defs>
</svg>
