<svg width="80" height="81" viewBox="0 0 80 81" fill="none" xmlns="http://www.w3.org/2000/svg">
<g clip-path="url(#clip0_2302_16219)">
<path d="M23.8867 22.3679H16.543C15.8527 22.3679 15.293 22.9276 15.293 23.6179V30.9617C15.293 31.652 15.8527 32.2117 16.543 32.2117H23.8867C24.577 32.2117 25.1367 31.652 25.1367 30.9617V23.6179C25.1367 22.9276 24.577 22.3679 23.8867 22.3679ZM22.6367 29.7117H17.793V24.8679H22.6367V29.7117ZM30.7617 23.6181C30.7617 22.9278 31.3214 22.3681 32.0117 22.3681H50.6836C51.3739 22.3681 51.9336 22.9278 51.9336 23.6181C51.9336 24.3084 51.3739 24.8681 50.6836 24.8681H32.0117C31.3214 24.8681 30.7617 24.3084 30.7617 23.6181ZM30.7617 30.9617C30.7617 30.2714 31.3214 29.7117 32.0117 29.7117H50.6836C51.3739 29.7117 51.9336 30.2714 51.9336 30.9617C51.9336 31.652 51.3739 32.2117 50.6836 32.2117H32.0117C31.3214 32.2117 30.7617 31.652 30.7617 30.9617ZM23.8867 39.0867H16.543C15.8527 39.0867 15.293 39.6464 15.293 40.3367V47.6804C15.293 48.3707 15.8527 48.9304 16.543 48.9304H23.8867C24.577 48.9304 25.1367 48.3707 25.1367 47.6804V40.3367C25.1367 39.6464 24.577 39.0867 23.8867 39.0867ZM22.6367 46.4304H17.793V41.5867H22.6367V46.4304ZM30.7617 40.3367C30.7617 39.6464 31.3214 39.0867 32.0117 39.0867H50.6836C51.3739 39.0867 51.9336 39.6464 51.9336 40.3367C51.9336 41.027 51.3739 41.5867 50.6836 41.5867H32.0117C31.3214 41.5867 30.7617 41.0271 30.7617 40.3367ZM30.7617 47.6804C30.7617 46.9901 31.3214 46.4304 32.0117 46.4304H50.6836C51.3739 46.4304 51.9336 46.9901 51.9336 47.6804C51.9336 48.3707 51.3739 48.9304 50.6836 48.9304H32.0117C31.3214 48.9304 30.7617 48.3707 30.7617 47.6804ZM23.8867 55.8054H16.543C15.8527 55.8054 15.293 56.3651 15.293 57.0554V64.3992C15.293 65.0895 15.8527 65.6492 16.543 65.6492H23.8867C24.577 65.6492 25.1367 65.0895 25.1367 64.3992V57.0554C25.1367 56.3651 24.577 55.8054 23.8867 55.8054ZM22.6367 63.1492H17.793V58.3054H22.6367V63.1492ZM44.1286 57.0554C44.1286 57.7457 43.5689 58.3054 42.8786 58.3054H32.0117C31.3214 58.3054 30.7617 57.7457 30.7617 57.0554C30.7617 56.3651 31.3214 55.8054 32.0117 55.8054H42.8786C43.5691 55.8054 44.1286 56.3651 44.1286 57.0554ZM44.1286 64.399C44.1286 65.0893 43.5689 65.649 42.8786 65.649H32.0117C31.3214 65.649 30.7617 65.0893 30.7617 64.399C30.7617 63.7087 31.3214 63.149 32.0117 63.149H42.8786C43.5691 63.149 44.1286 63.7087 44.1286 64.399ZM68.3045 61.5162C68.7952 62.0018 68.7991 62.7934 68.3134 63.2839L59.7995 71.8828C59.5655 72.1192 59.2469 72.2524 58.9144 72.2532C58.9133 72.2532 58.9122 72.2532 58.9113 72.2532C58.5797 72.2532 58.2619 72.1215 58.0273 71.8871L53.2927 67.1523C52.8044 66.664 52.8045 65.8728 53.2927 65.3845C53.7809 64.8965 54.5723 64.8967 55.0603 65.3845L58.9067 69.231L66.5369 61.5248C67.0225 61.0343 67.8141 61.0301 68.3045 61.5162ZM62.0508 52.7368V13.2273C62.0508 10.815 60.0881 8.85229 57.6758 8.85229H46.8945V6.03979C46.8945 5.34948 46.3348 4.78979 45.6445 4.78979H39.6838C38.6877 2.35526 36.3161 0.727295 33.6133 0.727295C30.9105 0.727295 28.5389 2.35511 27.5428 4.78979H21.582C20.8917 4.78979 20.332 5.34948 20.332 6.03979V8.85229H9.55078C7.13844 8.85229 5.17578 10.815 5.17578 13.2273V70.7273C5.17578 73.1396 7.13844 75.1023 9.55078 75.1023H49.577C52.1373 78.5153 56.2155 80.7273 60.8008 80.7273C68.5333 80.7273 74.8242 74.4364 74.8242 66.7039C74.8242 59.3926 69.1998 53.3714 62.0508 52.7368ZM22.832 7.28979H28.4491C29.0266 7.28979 29.5289 6.89417 29.6642 6.33276C30.1052 4.50433 31.7291 3.22729 33.6133 3.22729C35.4975 3.22729 37.1214 4.50433 37.5623 6.33276C37.6977 6.89417 38.2 7.28979 38.7775 7.28979H44.3945V12.9148H22.832V7.28979ZM9.55078 72.6023C8.51688 72.6023 7.67578 71.7612 7.67578 70.7273V13.2273C7.67578 12.1934 8.51688 11.3523 9.55078 11.3523H20.332V14.1648C20.332 14.8551 20.8917 15.4148 21.582 15.4148H45.6445C46.3348 15.4148 46.8945 14.8551 46.8945 14.1648V11.3523H57.6758C58.7097 11.3523 59.5508 12.1934 59.5508 13.2273V52.7368C52.4016 53.3714 46.7773 59.3926 46.7773 66.7039C46.7773 68.8098 47.2448 70.8082 48.08 72.6023H9.55078ZM60.8008 78.2273C54.4467 78.2273 49.2773 73.0579 49.2773 66.7039C49.2773 60.3498 54.4467 55.1804 60.8008 55.1804C67.1548 55.1804 72.3242 60.3498 72.3242 66.7039C72.3242 73.0579 67.1548 78.2273 60.8008 78.2273Z" fill="white"/>
</g>
<defs>
<clipPath id="clip0_2302_16219">
<rect width="80" height="80" fill="white" transform="translate(0 0.727295)"/>
</clipPath>
</defs>
</svg>
