<svg width="80" height="81" viewBox="0 0 80 81" fill="none" xmlns="http://www.w3.org/2000/svg">
<g clip-path="url(#clip0_2302_16176)">
<path d="M74.6536 5.59869C74.6536 2.864 72.4288 0.63916 69.6941 0.63916H22.8802C22.2334 0.63916 21.7092 1.16338 21.7092 1.8101C21.7092 2.45682 22.2334 2.98104 22.8802 2.98104H69.6939C71.1372 2.98104 72.3116 4.15525 72.3116 5.59869V38.0371C72.3116 38.8262 71.6695 39.4682 70.8805 39.4682H9.12078C8.33172 39.4682 7.68969 38.8262 7.68969 38.0371V5.59869C7.68969 4.15541 8.86391 2.98104 10.3073 2.98104H17.3856C18.0323 2.98104 18.5566 2.45682 18.5566 1.8101C18.5566 1.16338 18.0322 0.63916 17.3855 0.63916H10.3072C7.5725 0.63916 5.34766 2.864 5.34766 5.59869V38.0371C5.34766 39.0454 5.74594 39.9617 6.39234 40.6393C5.74578 41.3168 5.34766 42.2332 5.34766 43.2413V75.6798C5.34766 78.4143 7.5725 80.6392 10.3072 80.6392H69.6941C72.4288 80.6392 74.6536 78.4143 74.6536 75.6796V66.9956C74.6536 66.3488 74.1294 65.8246 73.4827 65.8246C72.8359 65.8246 72.3117 66.3488 72.3117 66.9956V75.6796C72.3117 77.1229 71.1373 78.2973 69.6941 78.2973H10.3072C8.86391 78.2973 7.68953 77.1231 7.68953 75.6796V43.2412C7.68953 42.4521 8.33156 41.8101 9.12063 41.8101H70.8805C71.6695 41.8101 72.3116 42.4521 72.3116 43.2412V61.5809C72.3116 62.2276 72.8358 62.7518 73.4825 62.7518C74.1292 62.7518 74.6534 62.2276 74.6534 61.5809V43.2412C74.6534 42.2329 74.2552 41.3167 73.6088 40.6392C74.2552 39.9617 74.6534 39.0453 74.6534 38.037L74.6536 5.59869Z" fill="white"/>
<path d="M20.6047 71.8442H25.6036C28.6659 71.8442 31.1575 69.3526 31.1575 66.2903V55.9181C31.1575 51.697 27.7234 48.2629 23.5023 48.2629H22.7059C18.4848 48.2629 15.0508 51.697 15.0508 55.9181V66.2903C15.0508 69.3528 17.5422 71.8442 20.6047 71.8442ZM17.3927 55.9181C17.3927 52.9884 19.7763 50.6048 22.7059 50.6048H23.5023C26.432 50.6048 28.8156 52.9883 28.8156 55.9181V56.8887C27.2236 56.7275 25.6617 56.2428 24.3222 55.4842C22.7167 54.5751 21.8681 53.5254 21.6292 52.9029C21.4594 52.4601 21.0391 52.1636 20.5648 52.1518C20.5552 52.1517 20.5455 52.1515 20.5358 52.1515C20.073 52.1515 19.6523 52.4245 19.4648 52.8495L18.9445 54.0279C18.7716 54.4195 18.5666 54.7875 18.3348 55.1217C18.0677 55.5072 17.7909 55.8336 17.3928 56.1426L17.3927 55.9181ZM28.4041 59.2001V59.9898C28.4041 62.9123 26.0264 65.2898 23.1041 65.2898C20.1816 65.2898 17.8041 62.9122 17.8041 59.9898V58.657C19.0188 57.9915 19.6761 57.2975 20.2594 56.4561C20.2594 56.4561 20.2594 56.4561 20.2595 56.4559C20.4306 56.209 20.5906 55.9497 20.7384 55.6801C22.3616 57.3718 25.1427 58.8323 28.4041 59.2001ZM17.3927 65.0597C18.7936 66.6361 20.8342 67.6318 23.1041 67.6318C25.3739 67.6318 27.4147 66.6361 28.8155 65.0595V66.2903C28.8155 68.0614 27.3745 69.5023 25.6034 69.5023H20.6045C18.8334 69.5023 17.3925 68.0614 17.3925 66.2903L17.3927 65.0597Z" fill="white"/>
<path d="M13.4039 44.5475C12.2184 44.5475 11.2539 45.512 11.2539 46.6975V73.41C11.2539 74.5955 12.2184 75.56 13.4039 75.56H32.8061C33.9916 75.56 34.9561 74.5955 34.9561 73.41V46.6975C34.9561 45.512 33.9917 44.5475 32.8061 44.5475H13.4039ZM32.6141 73.2181H13.5958V46.8894H32.6141V73.2181Z" fill="white"/>
<path d="M67.5792 47.0032H40.7139C40.0672 47.0032 39.543 47.5274 39.543 48.1741C39.543 48.8208 40.0672 49.345 40.7139 49.345H67.5792C68.2259 49.345 68.7502 48.8208 68.7502 48.1741C68.7502 47.5274 68.2259 47.0032 67.5792 47.0032Z" fill="white"/>
<path d="M40.7139 55.285H48.3283C48.975 55.285 49.4992 54.7608 49.4992 54.1141C49.4992 53.4673 48.975 52.9431 48.3283 52.9431H40.7139C40.0672 52.9431 39.543 53.4673 39.543 54.1141C39.543 54.7608 40.0672 55.285 40.7139 55.285Z" fill="white"/>
<path d="M67.5784 52.9431H59.9639C59.3172 52.9431 58.793 53.4673 58.793 54.1141C58.793 54.7608 59.3172 55.285 59.9639 55.285H67.5783C68.225 55.285 68.7492 54.7608 68.7492 54.1141C68.7492 53.4673 68.2252 52.9431 67.5784 52.9431Z" fill="white"/>
<path d="M40.7139 61.2247H48.3283C48.975 61.2247 49.4992 60.7005 49.4992 60.0537C49.4992 59.407 48.975 58.8828 48.3283 58.8828H40.7139C40.0672 58.8828 39.543 59.407 39.543 60.0537C39.543 60.7005 40.0672 61.2247 40.7139 61.2247Z" fill="white"/>
<path d="M68.7494 60.0537C68.7494 59.407 68.2252 58.8828 67.5784 58.8828H59.9639C59.3172 58.8828 58.793 59.407 58.793 60.0537C58.793 60.7005 59.3172 61.2247 59.9639 61.2247H67.5783C68.2252 61.2247 68.7494 60.7005 68.7494 60.0537Z" fill="white"/>
<path d="M59.9647 64.8224H40.7139C40.0672 64.8224 39.543 65.3466 39.543 65.9933C39.543 66.64 40.0672 67.1643 40.7139 67.1643H59.9647C60.6114 67.1643 61.1356 66.64 61.1356 65.9933C61.1356 65.3466 60.6116 64.8224 59.9647 64.8224Z" fill="white"/>
<path d="M59.9647 70.7621H40.7139C40.0672 70.7621 39.543 71.2863 39.543 71.933C39.543 72.5797 40.0672 73.104 40.7139 73.104H59.9647C60.6114 73.104 61.1356 72.5797 61.1356 71.933C61.1356 71.2863 60.6116 70.7621 59.9647 70.7621Z" fill="white"/>
<path d="M53.9367 29.5878C54.4085 29.5878 54.8533 29.3004 55.0311 28.8332L56.0891 26.0556H63.1507L64.1977 28.8298C64.426 29.4348 65.1017 29.7406 65.7066 29.512C66.3116 29.2837 66.6169 28.6079 66.3886 28.0031L61.0366 13.8213C61.0327 13.8106 61.0283 13.7999 61.0241 13.7895C60.7924 13.2259 60.2491 12.8618 59.6397 12.8618C59.6392 12.8618 59.6388 12.8618 59.6383 12.8618C59.0285 12.8623 58.485 13.2274 58.2542 13.7921C58.2506 13.8009 58.2471 13.8098 58.2438 13.8187L52.8427 27.9996C52.6124 28.604 52.9158 29.2806 53.5202 29.5107C53.6572 29.5631 53.7982 29.5878 53.9367 29.5878ZM59.636 16.7428L62.2667 23.7137H56.981L59.636 16.7428Z" fill="white"/>
<path d="M33.0059 28.4165V14.0329C33.0059 13.3862 32.4817 12.8619 31.835 12.8619C31.1883 12.8619 30.6641 13.3862 30.6641 14.0329V28.4165C30.6641 29.0632 31.1883 29.5874 31.835 29.5874C32.4817 29.5874 33.0059 29.063 33.0059 28.4165Z" fill="white"/>
<path d="M43.7459 27.2454C42.1423 27.2454 40.5927 26.5921 39.6012 25.4979C39.1668 25.0188 38.4265 24.9823 37.9471 25.4165C37.468 25.8509 37.4315 26.5913 37.8657 27.0705C39.2938 28.6463 41.4921 29.5873 43.7457 29.5873C46.4287 29.5873 48.7654 27.8323 49.181 25.5048C49.659 22.8271 47.5412 21.029 45.3999 20.2391C43.5301 19.5494 41.7971 18.796 41.3813 18.6132C40.881 18.2523 40.6376 17.6716 40.7279 17.0435C40.8393 16.2669 41.4313 15.6449 42.3118 15.3798C44.6816 14.666 46.8116 16.3804 46.849 16.4109C47.344 16.8235 48.0799 16.7587 48.4949 16.2648C48.911 15.7698 48.8471 15.031 48.3521 14.6149C48.227 14.5098 45.2451 12.0504 41.6365 13.1374C39.887 13.6644 38.6505 15.0335 38.4099 16.7107C38.1862 18.2693 38.861 19.7679 40.171 20.6219C40.2227 20.6557 40.277 20.6852 40.3334 20.7104C40.4159 20.7473 42.378 21.6207 44.5896 22.4365C46.2355 23.0437 47.0687 24.0119 46.8757 25.0932C46.6895 26.1366 45.5291 27.2454 43.7459 27.2454Z" fill="white"/>
<path d="M14.3224 12.9266C13.7115 13.1387 13.3882 13.8058 13.6002 14.4168L18.5207 28.5924C18.7324 29.1887 19.2979 29.5874 19.9299 29.5874H19.9402C20.5765 29.583 21.1413 29.1754 21.3485 28.5655L26.0449 14.4287C26.2488 13.8149 25.9165 13.1521 25.3027 12.9482C24.6887 12.744 24.0262 13.0766 23.8222 13.6904L19.9122 25.4604L15.8124 13.649C15.6005 13.0379 14.933 12.7149 14.3224 12.9266Z" fill="white"/>
</g>
<defs>
<clipPath id="clip0_2302_16176">
<rect width="80" height="80" fill="white" transform="translate(0 0.63916)"/>
</clipPath>
</defs>
</svg>
