<svg width="80" height="80" viewBox="0 0 80 80" fill="none" xmlns="http://www.w3.org/2000/svg">
<path d="M40 61.25C38.0222 61.25 36.0888 60.6635 34.4443 59.5647C32.7998 58.4659 31.5181 56.9041 30.7612 55.0768C30.0043 53.2496 29.8063 51.2389 30.1922 49.2991C30.578 47.3593 31.5304 45.5775 32.9289 44.1789C34.3275 42.7804 36.1093 41.828 38.0491 41.4422C39.9889 41.0563 41.9996 41.2543 43.8268 42.0112C45.6541 42.7681 47.2159 44.0498 48.3147 45.6943C49.4135 47.3388 50 49.2722 50 51.25C49.997 53.9013 48.9425 56.4431 47.0678 58.3178C45.1931 60.1925 42.6513 61.247 40 61.25ZM40 43.75C38.5166 43.75 37.0666 44.1899 35.8332 45.014C34.5999 45.8381 33.6386 47.0094 33.0709 48.3799C32.5033 49.7503 32.3547 51.2583 32.6441 52.7132C32.9335 54.168 33.6478 55.5044 34.6967 56.5533C35.7456 57.6022 37.082 58.3165 38.5368 58.6059C39.9917 58.8953 41.4997 58.7468 42.8701 58.1791C44.2406 57.6114 45.4119 56.6501 46.236 55.4168C47.0601 54.1834 47.5 52.7334 47.5 51.25C47.498 49.2615 46.7072 47.355 45.3011 45.9489C43.895 44.5428 41.9885 43.752 40 43.75Z" fill="url(#paint0_linear_2302_16329)"/>
<path d="M55 77.5C54.6685 77.5 54.3505 77.3683 54.1161 77.1339C53.8817 76.8995 53.75 76.5815 53.75 76.25V68.75C53.75 67.4775 48.8962 65 40 65C31.1037 65 26.25 67.4775 26.25 68.75V76.25C26.25 76.5815 26.1183 76.8995 25.8839 77.1339C25.6495 77.3683 25.3315 77.5 25 77.5C24.6685 77.5 24.3505 77.3683 24.1161 77.1339C23.8817 76.8995 23.75 76.5815 23.75 76.25V68.75C23.75 64.6463 31.925 62.5 40 62.5C48.075 62.5 56.25 64.6463 56.25 68.75V76.25C56.25 76.5815 56.1183 76.8995 55.8839 77.1339C55.6495 77.3683 55.3315 77.5 55 77.5Z" fill="url(#paint1_linear_2302_16329)"/>
<path d="M61.25 55C59.2722 55 57.3388 54.4135 55.6943 53.3147C54.0498 52.2159 52.7681 50.6541 52.0112 48.8268C51.2543 46.9996 51.0563 44.9889 51.4422 43.0491C51.828 41.1093 52.7804 39.3275 54.1789 37.9289C55.5775 36.5304 57.3593 35.578 59.2991 35.1922C61.2389 34.8063 63.2496 35.0043 65.0768 35.7612C66.9041 36.5181 68.4659 37.7998 69.5647 39.4443C70.6635 41.0888 71.25 43.0222 71.25 45C71.247 47.6513 70.1925 50.1931 68.3178 52.0678C66.4431 53.9425 63.9013 54.997 61.25 55ZM61.25 37.5C59.7666 37.5 58.3166 37.9399 57.0832 38.764C55.8499 39.5881 54.8886 40.7594 54.3209 42.1299C53.7533 43.5003 53.6047 45.0083 53.8941 46.4632C54.1835 47.918 54.8978 49.2544 55.9467 50.3033C56.9956 51.3522 58.332 52.0665 59.7868 52.3559C61.2417 52.6453 62.7497 52.4968 64.1201 51.9291C65.4906 51.3614 66.6619 50.4001 67.486 49.1668C68.3101 47.9334 68.75 46.4834 68.75 45C68.748 43.0115 67.9572 41.105 66.5511 39.6989C65.145 38.2928 63.2385 37.502 61.25 37.5Z" fill="url(#paint2_linear_2302_16329)"/>
<path d="M76.2494 71.25C75.9179 71.25 75.5999 71.1183 75.3655 70.8839C75.1311 70.6495 74.9994 70.3315 74.9994 70V62.5C74.9994 61.2275 70.1456 58.75 61.2494 58.75C56.1244 58.75 51.3744 59.6438 48.8744 61.0825C48.7322 61.1659 48.5749 61.2203 48.4115 61.2426C48.2482 61.265 48.0821 61.2548 47.9227 61.2126C47.7633 61.1705 47.6138 61.0972 47.4829 60.9971C47.3519 60.897 47.2421 60.7719 47.1597 60.6292C47.0772 60.4864 47.0239 60.3287 47.0026 60.1653C46.9814 60.0018 46.9927 59.8357 47.0359 59.6766C47.079 59.5175 47.1533 59.3686 47.2543 59.2383C47.3553 59.108 47.4811 58.999 47.6244 58.9175C50.5306 57.25 55.6244 56.25 61.2494 56.25C69.3244 56.25 77.4994 58.3963 77.4994 62.5V70C77.4994 70.3315 77.3677 70.6495 77.1333 70.8839C76.8988 71.1183 76.5809 71.25 76.2494 71.25Z" fill="url(#paint3_linear_2302_16329)"/>
<path d="M18.75 55C16.7722 55 14.8388 54.4135 13.1943 53.3147C11.5498 52.2159 10.2681 50.6541 9.51121 48.8268C8.75433 46.9996 8.5563 44.9889 8.94215 43.0491C9.328 41.1093 10.2804 39.3275 11.6789 37.9289C13.0775 36.5304 14.8593 35.578 16.7991 35.1922C18.7389 34.8063 20.7496 35.0043 22.5768 35.7612C24.4041 36.5181 25.9659 37.7998 27.0647 39.4443C28.1635 41.0888 28.75 43.0222 28.75 45C28.747 47.6513 27.6925 50.1931 25.8178 52.0678C23.9431 53.9425 21.4013 54.997 18.75 55ZM18.75 37.5C17.2666 37.5 15.8166 37.9399 14.5832 38.764C13.3499 39.5881 12.3886 40.7594 11.8209 42.1299C11.2533 43.5003 11.1047 45.0083 11.3941 46.4632C11.6835 47.918 12.3978 49.2544 13.4467 50.3033C14.4956 51.3522 15.832 52.0665 17.2868 52.3559C18.7417 52.6453 20.2497 52.4968 21.6201 51.9291C22.9906 51.3614 24.1619 50.4001 24.986 49.1668C25.8101 47.9334 26.25 46.4834 26.25 45C26.248 43.0115 25.4572 41.105 24.0511 39.6989C22.645 38.2928 20.7385 37.502 18.75 37.5Z" fill="url(#paint4_linear_2302_16329)"/>
<path d="M3.75 71.25C3.41848 71.25 3.10054 71.1183 2.86612 70.8839C2.6317 70.6495 2.5 70.3315 2.5 70V62.5C2.5 58.3963 10.675 56.25 18.75 56.25C24.375 56.25 29.4687 57.25 32.3675 58.9175C32.5108 58.999 32.6366 59.108 32.7376 59.2383C32.8386 59.3686 32.9128 59.5175 32.956 59.6766C32.9992 59.8357 33.0105 60.0018 32.9893 60.1653C32.968 60.3287 32.9146 60.4864 32.8322 60.6292C32.7498 60.7719 32.6399 60.897 32.509 60.9971C32.378 61.0972 32.2286 61.1705 32.0692 61.2126C31.9098 61.2548 31.7437 61.265 31.5803 61.2426C31.417 61.2203 31.2597 61.1659 31.1175 61.0825C28.625 59.6438 23.8813 58.75 18.75 58.75C9.85375 58.75 5 61.2275 5 62.5V70C5 70.3315 4.8683 70.6495 4.63388 70.8839C4.39946 71.1183 4.08152 71.25 3.75 71.25Z" fill="url(#paint5_linear_2302_16329)"/>
<path d="M20.1125 33.75C19.8586 33.7499 19.6108 33.6724 19.402 33.5279C19.1932 33.3835 19.0334 33.1788 18.9437 32.9413C16.8376 27.3565 17.0363 21.1638 19.496 15.7254C21.9558 10.2871 26.4752 6.04868 32.06 3.94253C37.6448 1.83638 43.8375 2.03504 49.2758 4.49481C54.7142 6.95459 58.9526 11.474 61.0588 17.0588C61.1196 17.2129 61.1492 17.3777 61.1458 17.5434C61.1424 17.7091 61.1061 17.8725 61.039 18.024C60.9718 18.1756 60.8752 18.3123 60.7548 18.4261C60.6343 18.54 60.4925 18.6288 60.3374 18.6873C60.1823 18.7458 60.0171 18.7729 59.8515 18.767C59.6858 18.7611 59.523 18.7223 59.3725 18.6529C59.222 18.5834 59.0868 18.4848 58.9748 18.3626C58.8628 18.2404 58.7761 18.0972 58.72 17.9413C56.8479 12.9768 53.0803 8.95926 48.2461 6.77258C43.4119 4.58591 37.907 4.40918 32.9425 6.28128C27.978 8.15337 23.9605 11.9209 21.7738 16.7552C19.5871 21.5894 19.4104 27.0943 21.2825 32.0588C21.3405 32.2124 21.3677 32.376 21.3624 32.5401C21.3572 32.7043 21.3197 32.8658 21.252 33.0154C21.1843 33.165 21.0878 33.2999 20.968 33.4122C20.8482 33.5245 20.7074 33.6121 20.5537 33.67C20.4126 33.7227 20.2632 33.7498 20.1125 33.75Z" fill="url(#paint6_linear_2302_16329)"/>
<path d="M40 40C37.0333 40 34.1332 39.1203 31.6665 37.472C29.1997 35.8238 27.2771 33.4811 26.1418 30.7403C25.0065 27.9994 24.7094 24.9834 25.2882 22.0737C25.867 19.1639 27.2956 16.4912 29.3934 14.3934C31.4912 12.2956 34.1639 10.867 37.0737 10.2882C39.9834 9.70945 42.9994 10.0065 45.7403 11.1418C48.4811 12.2771 50.8238 14.1997 52.472 16.6665C54.1203 19.1332 55 22.0333 55 25C54.9957 28.9769 53.414 32.7897 50.6019 35.6019C47.7897 38.414 43.9769 39.9957 40 40ZM40 12.5C37.5277 12.5 35.111 13.2331 33.0554 14.6066C30.9998 15.9802 29.3976 17.9324 28.4515 20.2165C27.5054 22.5005 27.2579 25.0139 27.7402 27.4386C28.2225 29.8634 29.413 32.0907 31.1612 33.8388C32.9093 35.587 35.1366 36.7775 37.5614 37.2598C39.9861 37.7421 42.4995 37.4946 44.7836 36.5485C47.0676 35.6024 49.0199 34.0002 50.3934 31.9446C51.7669 29.889 52.5 27.4723 52.5 25C52.4964 21.6859 51.1782 18.5086 48.8348 16.1652C46.4914 13.8218 43.3141 12.5036 40 12.5Z" fill="url(#paint7_linear_2302_16329)"/>
<path d="M40 32.5C38.5166 32.5 37.0666 32.0601 35.8332 31.236C34.5999 30.4119 33.6386 29.2406 33.0709 27.8701C32.5032 26.4997 32.3547 24.9917 32.6441 23.5368C32.9335 22.082 33.6478 20.7456 34.6967 19.6967C35.7456 18.6478 37.082 17.9335 38.5368 17.6441C39.9917 17.3547 41.4997 17.5032 42.8701 18.0709C44.2406 18.6386 45.4119 19.5999 46.236 20.8332C47.0601 22.0666 47.5 23.5166 47.5 25C47.498 26.9885 46.7072 28.895 45.3011 30.3011C43.895 31.7072 41.9885 32.498 40 32.5ZM40 20C39.0111 20 38.0444 20.2932 37.2222 20.8427C36.3999 21.3921 35.759 22.173 35.3806 23.0866C35.0022 24.0002 34.9032 25.0055 35.0961 25.9755C35.289 26.9454 35.7652 27.8363 36.4645 28.5355C37.1637 29.2348 38.0546 29.711 39.0246 29.9039C39.9945 30.0969 40.9998 29.9978 41.9134 29.6194C42.8271 29.241 43.6079 28.6001 44.1574 27.7779C44.7068 26.9556 45 25.9889 45 25C45 23.6739 44.4732 22.4022 43.5355 21.4645C42.5979 20.5268 41.3261 20 40 20Z" fill="url(#paint8_linear_2302_16329)"/>
<path d="M72.5 31.25H62.115C61.7923 31.2494 61.4823 31.1239 61.25 30.9L56.4187 26.25H40C39.6685 26.25 39.3505 26.1183 39.1161 25.8839C38.8817 25.6495 38.75 25.3315 38.75 25C38.75 24.6685 38.8817 24.3505 39.1161 24.1161C39.3505 23.8817 39.6685 23.75 40 23.75H56.4187L61.25 19.1C61.4827 18.8758 61.7931 18.7503 62.1163 18.75H72.5C72.7492 18.75 72.9927 18.8245 73.1992 18.9639C73.4058 19.1032 73.566 19.3012 73.6592 19.5323C73.7525 19.7634 73.7745 20.017 73.7225 20.2608C73.6706 20.5045 73.5469 20.7271 73.3675 20.9L69.11 25L73.3675 29.1C73.5469 29.2729 73.6706 29.4955 73.7225 29.7392C73.7745 29.983 73.7525 30.2366 73.6592 30.4677C73.566 30.6988 73.4058 30.8968 73.1992 31.0361C72.9927 31.1755 72.7492 31.25 72.5 31.25ZM62.625 28.75H69.4L66.8038 26.25H60.0238L62.625 28.75ZM60.0287 23.75H66.8087L69.405 21.25H62.625L60.0287 23.75Z" fill="url(#paint9_linear_2302_16329)"/>
<defs>
<linearGradient id="paint0_linear_2302_16329" x1="30" y1="51.25" x2="50" y2="51.25" gradientUnits="userSpaceOnUse">
<stop stop-color="#991F3D"/>
<stop offset="1" stop-color="#E7474D"/>
</linearGradient>
<linearGradient id="paint1_linear_2302_16329" x1="23.75" y1="70" x2="56.25" y2="70" gradientUnits="userSpaceOnUse">
<stop stop-color="#991F3D"/>
<stop offset="1" stop-color="#E7474D"/>
</linearGradient>
<linearGradient id="paint2_linear_2302_16329" x1="51.25" y1="45" x2="71.25" y2="45" gradientUnits="userSpaceOnUse">
<stop stop-color="#991F3D"/>
<stop offset="1" stop-color="#E7474D"/>
</linearGradient>
<linearGradient id="paint3_linear_2302_16329" x1="46.9922" y1="63.75" x2="77.4994" y2="63.75" gradientUnits="userSpaceOnUse">
<stop stop-color="#991F3D"/>
<stop offset="1" stop-color="#E7474D"/>
</linearGradient>
<linearGradient id="paint4_linear_2302_16329" x1="8.75" y1="45" x2="28.75" y2="45" gradientUnits="userSpaceOnUse">
<stop stop-color="#991F3D"/>
<stop offset="1" stop-color="#E7474D"/>
</linearGradient>
<linearGradient id="paint5_linear_2302_16329" x1="2.5" y1="63.75" x2="32.9997" y2="63.75" gradientUnits="userSpaceOnUse">
<stop stop-color="#991F3D"/>
<stop offset="1" stop-color="#E7474D"/>
</linearGradient>
<linearGradient id="paint6_linear_2302_16329" x1="17.4961" y1="18.1224" x2="61.1461" y2="18.1224" gradientUnits="userSpaceOnUse">
<stop stop-color="#991F3D"/>
<stop offset="1" stop-color="#E7474D"/>
</linearGradient>
<linearGradient id="paint7_linear_2302_16329" x1="25" y1="25" x2="55" y2="25" gradientUnits="userSpaceOnUse">
<stop stop-color="#991F3D"/>
<stop offset="1" stop-color="#E7474D"/>
</linearGradient>
<linearGradient id="paint8_linear_2302_16329" x1="32.5" y1="25" x2="47.5" y2="25" gradientUnits="userSpaceOnUse">
<stop stop-color="#991F3D"/>
<stop offset="1" stop-color="#E7474D"/>
</linearGradient>
<linearGradient id="paint9_linear_2302_16329" x1="38.75" y1="25" x2="73.75" y2="25" gradientUnits="userSpaceOnUse">
<stop stop-color="#991F3D"/>
<stop offset="1" stop-color="#E7474D"/>
</linearGradient>
</defs>
</svg>
