<svg width="80" height="80" viewBox="0 0 80 80" fill="none" xmlns="http://www.w3.org/2000/svg">
<g clip-path="url(#clip0_2302_16141)">
<path d="M56.2841 49.5958C47.3502 49.5958 40.082 56.8641 40.082 65.798C40.082 74.7319 47.3503 82 56.2841 82C65.2178 82 72.4863 74.7318 72.4863 65.798C72.4863 56.8643 65.218 49.5958 56.2841 49.5958ZM56.2841 79.6563C48.6425 79.6563 42.4258 73.4394 42.4258 65.798C42.4258 58.1566 48.6427 51.9396 56.2841 51.9396C63.9255 51.9396 70.1425 58.1565 70.1425 65.798C70.1425 73.4396 63.9256 79.6563 56.2841 79.6563Z" fill="url(#paint0_linear_2302_16141)"/>
<path d="M37.4956 70.8886H9.94016C9.89562 70.8886 9.85953 70.8525 9.85953 70.808V15.6164H18.7078C20.0447 15.6164 21.1322 14.5289 21.1322 13.192V4.34375H57.5359C57.5805 4.34375 57.6166 4.37984 57.6166 4.42438V45.7575C57.6166 46.4047 58.1413 46.9294 58.7884 46.9294C59.4356 46.9294 59.9603 46.4047 59.9603 45.7575V4.42438C59.9603 3.0875 58.8727 2 57.5359 2H19.7455C18.7633 2 17.8398 2.3825 17.1455 3.07703L8.59266 11.6297C7.89812 12.3242 7.51562 13.2475 7.51562 14.2297V70.808C7.51562 72.1448 8.60312 73.2323 9.94 73.2323H37.4955C38.1427 73.2323 38.6673 72.7077 38.6673 72.0605C38.6673 71.4133 38.1428 70.8886 37.4956 70.8886ZM18.7884 4.74859V13.192C18.7884 13.2366 18.7523 13.2727 18.7078 13.2727H10.2642L18.7884 4.74859Z" fill="url(#paint1_linear_2302_16141)"/>
<path d="M29.5583 19.8784C29.1006 19.4208 28.3586 19.4208 27.9011 19.8784L27.36 20.4195C26.717 19.8689 25.883 19.5352 24.9722 19.5352H19.962C17.9345 19.5352 16.2852 21.1847 16.2852 23.2122V28.2222C16.2852 30.2497 17.9347 31.8991 19.962 31.8991H24.9722C26.9997 31.8991 28.6491 30.2495 28.6491 28.2222V23.2122C28.6491 22.973 28.6253 22.7392 28.5814 22.5125L29.5583 21.5356C30.0159 21.0781 30.0159 20.3361 29.5583 19.8784ZM26.3053 28.2223C26.3053 28.9575 25.7072 29.5555 24.9722 29.5555H19.962C19.2269 29.5555 18.6289 28.9573 18.6289 28.2223V23.2123C18.6289 22.4772 19.227 21.8791 19.962 21.8791H24.9722C25.2363 21.8791 25.482 21.9572 25.6894 22.0903L22.7881 24.9916L22.2627 23.9408C21.9733 23.3619 21.2694 23.1272 20.6905 23.4167C20.1116 23.7061 19.8769 24.41 20.1664 24.9889L21.4189 27.4939C21.5873 27.8308 21.9075 28.0663 22.2794 28.1266C22.3419 28.1367 22.4047 28.1417 22.4672 28.1417C22.7753 28.1417 23.0742 28.02 23.2958 27.7984L26.3053 24.7889V28.2223Z" fill="url(#paint2_linear_2302_16141)"/>
<path d="M29.5583 34.9087C29.1006 34.4511 28.3586 34.4511 27.9011 34.9087L27.36 35.4498C26.717 34.8992 25.883 34.5654 24.9722 34.5654H19.962C17.9345 34.5654 16.2852 36.215 16.2852 38.2423V43.2523C16.2852 45.2798 17.9347 46.9292 19.962 46.9292H24.9722C26.9997 46.9292 28.6491 45.2796 28.6491 43.2523V38.2423C28.6491 38.0031 28.6253 37.7693 28.5816 37.5428L29.5584 36.5659C30.0159 36.1084 30.0159 35.3664 29.5583 34.9087ZM26.3053 43.2525C26.3053 43.9876 25.7072 44.5856 24.9722 44.5856H19.962C19.2269 44.5856 18.6289 43.9875 18.6289 43.2525V38.2425C18.6289 37.5073 19.227 36.9093 19.962 36.9093H24.9722C25.2363 36.9093 25.482 36.9875 25.6894 37.1206L22.7881 40.0218L22.2627 38.9711C21.9733 38.3921 21.2694 38.1573 20.6905 38.447C20.1116 38.7364 19.8769 39.4403 20.1664 40.0192L21.4189 42.5242C21.5873 42.8611 21.9075 43.0965 22.2794 43.1568C22.3419 43.167 22.4047 43.172 22.4672 43.172C22.7753 43.172 23.0742 43.0503 23.2958 42.8287L26.3053 39.8192V43.2525Z" fill="url(#paint3_linear_2302_16141)"/>
<path d="M29.5583 49.9391C29.1006 49.4814 28.3586 49.4814 27.9011 49.9391L27.36 50.4802C26.717 49.9296 25.883 49.5958 24.9722 49.5958H19.962C17.9345 49.5958 16.2852 51.2454 16.2852 53.2727V58.2827C16.2852 60.3102 17.9347 61.9596 19.962 61.9596H24.9722C26.9997 61.9596 28.6491 60.31 28.6491 58.2827V53.2727C28.6491 53.0335 28.6253 52.7997 28.5816 52.5732L29.5584 51.5963C30.0159 51.1386 30.0159 50.3966 29.5583 49.9391ZM26.3053 58.2827C26.3053 59.0179 25.7072 59.6158 24.9722 59.6158H19.962C19.2269 59.6158 18.6289 59.0177 18.6289 58.2827V53.2727C18.6289 52.5375 19.227 51.9396 19.962 51.9396H24.9722C25.2363 51.9396 25.482 52.0177 25.6894 52.1508L22.7881 55.0521L22.2627 54.0013C21.9733 53.4224 21.2694 53.1877 20.6905 53.4772C20.1116 53.7666 19.8769 54.4705 20.1664 55.0494L21.4189 57.5544C21.5873 57.8913 21.9075 58.1268 22.2794 58.1871C22.3419 58.1972 22.4047 58.2022 22.4672 58.2022C22.7753 58.2022 23.0742 58.0805 23.2958 57.859L26.3053 54.8494V58.2827Z" fill="url(#paint4_linear_2302_16141)"/>
<path d="M33.7383 24.384H42.5059C43.1531 24.384 43.6778 23.8593 43.6778 23.2122C43.6778 22.565 43.1531 22.0403 42.5059 22.0403H33.7383C33.0911 22.0403 32.5664 22.565 32.5664 23.2122C32.5664 23.8593 33.0911 24.384 33.7383 24.384Z" fill="url(#paint5_linear_2302_16141)"/>
<path d="M51.2736 27.0504H33.7383C33.0911 27.0504 32.5664 27.5751 32.5664 28.2223C32.5664 28.8695 33.0911 29.3942 33.7383 29.3942H51.2736C51.9208 29.3942 52.4455 28.8695 52.4455 28.2223C52.4455 27.5751 51.9208 27.0504 51.2736 27.0504Z" fill="url(#paint6_linear_2302_16141)"/>
<path d="M33.7383 39.4144H42.5059C43.1531 39.4144 43.6778 38.8897 43.6778 38.2426C43.6778 37.5954 43.1531 37.0707 42.5059 37.0707H33.7383C33.0911 37.0707 32.5664 37.5954 32.5664 38.2426C32.5664 38.8897 33.0911 39.4144 33.7383 39.4144Z" fill="url(#paint7_linear_2302_16141)"/>
<path d="M52.4455 43.2524C52.4455 42.6053 51.9208 42.0806 51.2736 42.0806H33.7383C33.0911 42.0806 32.5664 42.6053 32.5664 43.2524C32.5664 43.8996 33.0911 44.4243 33.7383 44.4243H51.2736C51.9208 44.4243 52.4455 43.8996 52.4455 43.2524Z" fill="url(#paint8_linear_2302_16141)"/>
<path d="M33.7383 52.1008C33.0911 52.1008 32.5664 52.6255 32.5664 53.2727C32.5664 53.9199 33.0911 54.4446 33.7383 54.4446H41.2534C41.9006 54.4446 42.4253 53.9199 42.4253 53.2727C42.4253 52.6255 41.9006 52.1008 41.2534 52.1008H33.7383Z" fill="url(#paint9_linear_2302_16141)"/>
<path d="M37.4958 57.1108H33.7383C33.0911 57.1108 32.5664 57.6355 32.5664 58.2827C32.5664 58.9299 33.0911 59.4546 33.7383 59.4546H37.4958C38.143 59.4546 38.6677 58.9299 38.6677 58.2827C38.6677 57.6355 38.143 57.1108 37.4958 57.1108Z" fill="url(#paint10_linear_2302_16141)"/>
<path d="M62.9698 61.2118L54.4615 69.72C54.43 69.7514 54.3787 69.7514 54.3475 69.72L50.2231 65.5957C49.7656 65.138 49.0236 65.138 48.5659 65.5957C48.1082 66.0533 48.1082 66.7954 48.5659 67.2529L52.6903 71.3774C53.1629 71.8499 53.7837 72.0863 54.4045 72.0863C55.0253 72.0863 55.6462 71.85 56.1187 71.3774L64.627 62.8691C65.0847 62.4114 65.0847 61.6694 64.627 61.2119C64.1697 60.7541 63.4276 60.7541 62.9698 61.2118Z" fill="url(#paint11_linear_2302_16141)"/>
</g>
<defs>
<linearGradient id="paint0_linear_2302_16141" x1="40.082" y1="65.7979" x2="72.4863" y2="65.7979" gradientUnits="userSpaceOnUse">
<stop stop-color="#991F3D"/>
<stop offset="1" stop-color="#E7474D"/>
</linearGradient>
<linearGradient id="paint1_linear_2302_16141" x1="7.51562" y1="37.6162" x2="59.9603" y2="37.6162" gradientUnits="userSpaceOnUse">
<stop stop-color="#991F3D"/>
<stop offset="1" stop-color="#E7474D"/>
</linearGradient>
<linearGradient id="paint2_linear_2302_16141" x1="16.2852" y1="25.7171" x2="29.9015" y2="25.7171" gradientUnits="userSpaceOnUse">
<stop stop-color="#991F3D"/>
<stop offset="1" stop-color="#E7474D"/>
</linearGradient>
<linearGradient id="paint3_linear_2302_16141" x1="16.2852" y1="40.7473" x2="29.9015" y2="40.7473" gradientUnits="userSpaceOnUse">
<stop stop-color="#991F3D"/>
<stop offset="1" stop-color="#E7474D"/>
</linearGradient>
<linearGradient id="paint4_linear_2302_16141" x1="16.2852" y1="55.7777" x2="29.9015" y2="55.7777" gradientUnits="userSpaceOnUse">
<stop stop-color="#991F3D"/>
<stop offset="1" stop-color="#E7474D"/>
</linearGradient>
<linearGradient id="paint5_linear_2302_16141" x1="32.5664" y1="23.2122" x2="43.6778" y2="23.2122" gradientUnits="userSpaceOnUse">
<stop stop-color="#991F3D"/>
<stop offset="1" stop-color="#E7474D"/>
</linearGradient>
<linearGradient id="paint6_linear_2302_16141" x1="32.5664" y1="28.2223" x2="52.4455" y2="28.2223" gradientUnits="userSpaceOnUse">
<stop stop-color="#991F3D"/>
<stop offset="1" stop-color="#E7474D"/>
</linearGradient>
<linearGradient id="paint7_linear_2302_16141" x1="32.5664" y1="38.2426" x2="43.6778" y2="38.2426" gradientUnits="userSpaceOnUse">
<stop stop-color="#991F3D"/>
<stop offset="1" stop-color="#E7474D"/>
</linearGradient>
<linearGradient id="paint8_linear_2302_16141" x1="32.5664" y1="43.2524" x2="52.4455" y2="43.2524" gradientUnits="userSpaceOnUse">
<stop stop-color="#991F3D"/>
<stop offset="1" stop-color="#E7474D"/>
</linearGradient>
<linearGradient id="paint9_linear_2302_16141" x1="32.5664" y1="53.2727" x2="42.4253" y2="53.2727" gradientUnits="userSpaceOnUse">
<stop stop-color="#991F3D"/>
<stop offset="1" stop-color="#E7474D"/>
</linearGradient>
<linearGradient id="paint10_linear_2302_16141" x1="32.5664" y1="58.2827" x2="38.6677" y2="58.2827" gradientUnits="userSpaceOnUse">
<stop stop-color="#991F3D"/>
<stop offset="1" stop-color="#E7474D"/>
</linearGradient>
<linearGradient id="paint11_linear_2302_16141" x1="48.2227" y1="66.4774" x2="64.9702" y2="66.4774" gradientUnits="userSpaceOnUse">
<stop stop-color="#991F3D"/>
<stop offset="1" stop-color="#E7474D"/>
</linearGradient>
<clipPath id="clip0_2302_16141">
<rect width="80" height="80" fill="white"/>
</clipPath>
</defs>
</svg>
