<svg width="80" height="81" viewBox="0 0 80 81" fill="none" xmlns="http://www.w3.org/2000/svg">
<g clip-path="url(#clip0_2302_16351)">
<path d="M63.6879 29.9895C63.9015 30.0949 64.1344 30.1476 64.3677 30.1476C64.6121 30.1476 64.8565 30.0898 65.0782 29.9743C66.3233 29.3253 70.3893 26.9538 70.436 23.691C70.5026 21.7354 68.728 19.7238 66.5274 19.7598C65.7552 19.7598 65.0113 19.981 64.3752 20.3926C63.744 19.9807 63.0088 19.7598 62.2458 19.7598C60.2133 19.7382 58.3555 21.5232 58.3094 23.6504C58.241 27.0365 62.409 29.3585 63.6879 29.9895ZM62.2346 22.1035H62.2455C62.6446 22.1035 63.0265 22.2565 63.3219 22.5351C63.3221 22.5352 63.3222 22.5354 63.3224 22.5356C63.9086 23.0876 64.8313 23.0879 65.4224 22.5365C65.7221 22.2573 66.1143 22.1035 66.5271 22.1035C67.1547 22.114 68.0516 22.6138 68.0924 23.6573C68.0702 25.2017 65.8821 26.8373 64.3582 27.6984C62.8179 26.8693 60.6207 25.2723 60.6524 23.6978C60.6696 22.8543 61.409 22.1093 62.2346 22.1035Z" fill="white"/>
<path d="M14.915 29.9896C15.1286 30.0949 15.3615 30.1476 15.5946 30.1476C15.839 30.1476 16.0833 30.0898 16.305 29.9743C17.55 29.3253 21.616 26.9538 21.6629 23.6909C21.7293 21.7356 19.9546 19.7238 17.7541 19.7598C16.9819 19.7598 16.2382 19.981 15.6019 20.3926C14.9632 19.9757 14.2157 19.754 13.4449 19.7598C11.3325 19.7748 9.57895 21.5203 9.53598 23.6504C9.46786 27.0365 13.6357 29.3585 14.915 29.9896ZM13.4616 22.1035H13.4725C13.8716 22.1035 14.2535 22.2565 14.5488 22.5351C14.549 22.5352 14.5491 22.5354 14.5493 22.5356C15.1354 23.0874 16.0579 23.0881 16.6493 22.5365C16.9488 22.2573 17.3411 22.1035 17.754 22.1035C18.3816 22.114 19.2785 22.6138 19.3193 23.6573C19.2971 25.2017 17.109 26.8373 15.5849 27.6984C14.0447 26.8693 11.8475 25.2723 11.8794 23.6978C11.8965 22.8542 12.6358 22.1093 13.4616 22.1035Z" fill="white"/>
<path d="M7.50516 33.6062H11.2755C11.4098 33.6062 11.5364 33.6585 11.6316 33.7534L14.1837 36.3006C14.5742 36.6901 15.0887 36.8851 15.6034 36.8851C16.1134 36.8851 16.6234 36.6937 17.0128 36.3104L19.6144 33.7509C19.7092 33.6574 19.8348 33.606 19.968 33.606H23.6931C26.0028 33.606 27.8819 31.7271 27.8819 29.4173V25.0235C28.4503 25.2292 29.0628 25.3418 29.7013 25.3418H34.7537C35.1392 25.3418 35.5064 25.5079 35.7611 25.797L38.3156 28.699C38.7583 29.202 39.3966 29.4918 40.0666 29.4945H40.0759C40.7425 29.4945 41.3791 29.2101 41.8237 28.7131L44.4398 25.789C44.6941 25.5048 45.0586 25.3418 45.44 25.3418H50.4364C51.0127 25.3418 51.5673 25.2493 52.088 25.0804V29.4174C52.088 31.7271 53.9669 33.6062 56.2767 33.6062H60.047C60.1814 33.6062 60.308 33.6585 60.4031 33.7534L62.9553 36.3006C63.3458 36.6901 63.8605 36.8851 64.3752 36.8851C64.885 36.8851 65.395 36.6937 65.7845 36.3104L68.3862 33.7507C68.4811 33.6574 68.6067 33.606 68.7398 33.606H72.465C74.7745 33.606 76.6536 31.7271 76.6536 29.4173V18.5431C76.6536 16.2334 74.7747 14.3543 72.465 14.3543H55.7981V6.20713C55.7981 3.25073 53.3928 0.845413 50.4363 0.845413H40.8894C40.242 0.845413 39.7175 1.36994 39.7175 2.01729C39.7175 2.66463 40.242 3.18916 40.8894 3.18916H50.4363C52.1003 3.18916 53.4542 4.54307 53.4542 6.20713V19.9799C53.4542 21.6442 52.1003 22.9981 50.4363 22.9981H45.4398C44.3925 22.9981 43.3913 23.4457 42.6928 24.2262L40.0748 27.1504L37.5205 24.2484C36.8209 23.4539 35.8125 22.9981 34.7537 22.9981H29.7013C28.037 22.9981 26.6831 21.6442 26.6831 19.9799V6.20713C26.6831 4.54307 28.037 3.18916 29.7013 3.18916H35.4206C36.0678 3.18916 36.5925 2.66463 36.5925 2.01729C36.5925 1.36994 36.0678 0.845413 35.4206 0.845413H29.7013C26.7447 0.845413 24.3394 3.25073 24.3394 6.20713V14.3546H7.50516C5.19547 14.3546 3.31641 16.2335 3.31641 18.5434V29.4176C3.31641 31.7273 5.19547 33.6062 7.50516 33.6062ZM72.4648 16.6984C73.482 16.6984 74.3097 17.526 74.3097 18.5434V29.4176C74.3097 30.4349 73.482 31.2626 72.4648 31.2626H68.7397C67.9877 31.2626 67.2783 31.5529 66.7425 32.0803L64.3764 34.4078L62.0586 32.0945C61.5211 31.5579 60.8066 31.2624 60.0469 31.2624H56.2766C55.2592 31.2624 54.4316 30.4348 54.4316 29.4174V23.5507C55.2805 22.6018 55.798 21.3503 55.798 19.9798V16.6982L72.4648 16.6984ZM5.66016 18.5434C5.66016 17.526 6.48781 16.6984 7.50516 16.6984H24.3394V19.9799C24.3394 21.2578 24.7894 22.432 25.5381 23.3542V29.4174C25.5381 30.4348 24.7105 31.2624 23.6931 31.2624H19.968C19.2161 31.2624 18.5069 31.5528 17.9708 32.0801L15.6048 34.4076L13.287 32.0943C12.7494 31.5578 12.035 31.2623 11.2753 31.2623H7.505C6.48766 31.2623 5.66 30.4346 5.66 29.4173L5.66016 18.5434Z" fill="white"/>
<path d="M31.3918 11.8976C31.2944 16.7235 37.4162 20.1223 39.2941 21.0487C39.5349 21.1676 39.7977 21.227 40.0605 21.227C40.336 21.227 40.6112 21.1618 40.8612 21.0317C42.6937 20.0767 48.6776 16.5979 48.7446 11.9381C48.8438 9.19979 46.346 6.48244 43.3736 6.54198C42.1691 6.54198 41.0152 6.93276 40.0704 7.65229C39.1224 6.92432 37.9701 6.53744 36.7672 6.54198C33.8624 6.56244 31.451 8.96495 31.3918 11.8976ZM36.7841 8.88573C36.7913 8.88557 36.7985 8.88557 36.8057 8.88557C37.578 8.88557 38.3162 9.18088 38.886 9.71807C39.5457 10.3398 40.5851 10.3398 41.2522 9.71791C41.8282 9.18088 42.5811 8.88573 43.3736 8.88573C44.8126 8.86073 46.4408 10.1634 46.4011 11.9045C46.3638 14.4987 43.0199 17.2051 40.0533 18.8071C37.0429 17.2642 33.6815 14.6018 33.7349 11.9449C33.7683 10.2981 35.1644 8.89713 36.7841 8.88573Z" fill="white"/>
<path d="M77.1708 71.8279V54.7584C77.1708 47.7329 71.4552 42.0173 64.4297 42.0173C62.4105 42.0173 60.3998 42.502 58.6152 43.4189C58.0394 43.7146 57.8125 44.421 58.1083 44.9967C58.4041 45.5724 59.1106 45.7993 59.6861 45.5035C61.1617 44.7454 62.7577 44.361 64.4297 44.361C70.1628 44.361 74.827 49.0253 74.827 54.7584V69.7607C74.795 69.7468 74.7645 69.7307 74.7322 69.7174H74.7323L68.8305 67.2854V64.9945C71.0858 62.7426 72.8198 59.1314 72.8198 55.8093C72.8198 51.5309 70.9152 48.1692 67.7245 46.8163C67.4347 46.6935 67.1075 46.6929 66.8163 46.8139C66.6144 46.9101 66.2455 47.1324 66.122 47.6451C65.4156 50.8692 62.8739 53.3985 59.6466 54.0892L56.9644 54.6632C56.5139 54.7503 56.0433 55.2909 56.0406 56.0437C56.1217 59.3335 57.8269 62.8207 60.0292 65.009V67.2854L55.367 69.2065C54.9911 68.7424 54.5422 68.3357 54.0327 68.0014V54.7582C54.0327 52.6101 54.6819 50.5487 55.9102 48.7968C56.2817 48.2668 56.1534 47.5362 55.6234 47.1646C55.0933 46.7931 54.3628 46.9215 53.9912 47.4514C52.485 49.5995 51.6891 52.1262 51.6891 54.7584V66.9167L45.2759 64.2742V59.8224C48.2119 57.4443 49.9514 53.1659 50.275 48.9568C51.8114 47.8543 52.7086 45.6245 53.2045 43.8395C53.5441 42.6173 53.3363 41.3126 52.6341 40.2599C52.1903 39.5945 51.5773 39.0745 50.8691 38.7456C50.9394 38.3549 50.9573 37.9538 50.9216 37.5509C50.73 35.4021 49.0314 33.7065 46.8825 33.519C46.0795 33.4492 45.285 33.5978 44.5778 33.9329C43.7137 32.2712 41.9777 31.1579 40.0017 31.1579C39.1269 31.1579 38.2731 31.3804 37.5172 31.7965C36.7423 31.1834 35.7834 30.8454 34.7673 30.8454C32.7906 30.8454 31.1109 32.1137 30.5311 33.9193C27.8044 34.4345 25.783 36.8043 25.783 39.6735C25.783 40.9809 26.2153 42.2364 27.0097 43.2604C26.9887 43.9184 26.9909 45.1317 27.2092 46.2957C27.6195 48.4838 29.0714 49.6306 29.9453 50.1362C30.0497 50.9009 30.1978 51.6623 30.3928 52.4059C30.5302 52.8476 31.1008 53.4385 31.8234 53.2424C32.4495 53.0784 32.8241 52.4379 32.66 51.8118C32.4516 51.016 32.3003 50.197 32.2108 49.3774C32.1591 48.9243 32.3283 48.7251 33.3558 48.2237C34.0509 47.891 34.9384 47.4665 35.4903 46.5929C37.8252 46.8531 40.4338 45.5534 41.7016 43.5606C42.5005 44.0806 43.7091 44.5468 44.9623 44.421C45.5602 45.6982 46.4038 46.2798 47.053 46.7273C47.7511 47.2084 47.9661 47.3581 47.9702 48.2424C47.7275 53.7192 44.6975 59.3746 40.0356 59.3746C37.4594 59.3746 35.7297 57.7376 34.7323 56.3645C34.3519 55.8407 33.6191 55.7243 33.0955 56.1049C32.5719 56.4854 32.4556 57.2181 32.8359 57.7418C33.433 58.5637 34.0902 59.2624 34.7984 59.8348V64.2743C32.868 65.0696 28.9272 66.6935 27.0325 67.4742C26.0922 67.8615 25.2956 68.472 24.6891 69.2282L19.9744 67.2856V63.6823C21.6259 62.2167 23.0353 60.0724 23.7787 57.722C24.1141 57.6737 24.4147 57.4837 24.5992 57.1953C25.8175 55.2921 28.1577 49.521 24.4059 45.722C22.9314 44.229 20.857 43.9151 19.1455 44.2426C19.0736 44.086 18.992 43.9353 18.9 43.7914C17.3173 41.3187 13.2269 40.972 9.5875 43.0023C9.02234 43.3176 8.81969 44.0313 9.135 44.5965C9.45031 45.1618 10.1641 45.3646 10.7294 45.049C13.4591 43.5267 16.1373 43.8226 16.9261 45.0548C17.2527 45.5649 17.2736 46.349 16.9836 47.2065C16.553 48.4796 15.3189 50.1218 13.1467 50.9124C10.6434 51.8235 8.91312 53.2545 7.85047 54.3792C7.40969 52.8337 7.15594 50.6253 7.76109 48.6184C7.94797 47.9987 7.59703 47.3449 6.97734 47.1581C6.35734 46.9714 5.70391 47.322 5.51703 47.9418C4.43578 51.5281 5.49516 55.641 6.55188 57.2917C6.74234 57.5892 7.055 57.7818 7.40031 57.8229C8.1525 60.1262 9.54703 62.227 11.173 63.6726V67.2854C11.0656 67.3326 5.31922 69.6918 5.20531 69.7474C3.33234 70.5499 2.125 72.3735 2.125 74.4164V78.1093C2.125 79.6179 3.35234 80.8454 4.86094 80.8454H75.1422C76.6508 80.8454 77.8781 79.6182 77.8781 78.1095V74.4162C77.8783 73.4818 77.6239 72.5942 77.1708 71.8279ZM46.8438 42.7645C46.7577 42.4571 46.55 42.1982 46.2688 42.0474C45.9875 41.8967 45.657 41.8673 45.3536 41.9657C45.0883 42.0518 44.8122 42.0954 44.533 42.0954C43.6508 42.0954 42.828 41.6585 42.3319 40.9267C42.0812 40.557 41.6427 40.3618 41.1992 40.4235C40.7566 40.4856 40.3878 40.794 40.2484 41.2189C39.647 43.0515 37.9467 44.2829 36.0173 44.2829C35.8 44.2829 35.2739 44.202 34.9872 44.1474C34.3639 44.0287 33.7597 44.427 33.623 45.0463C33.5219 45.5051 33.1739 45.7124 32.3442 46.1093C31.7253 46.4054 30.9095 46.7956 30.3812 47.5432C30.0131 47.1676 29.6553 46.6237 29.5128 45.864C29.2569 44.4992 29.3698 42.9628 29.3709 42.9484C29.3964 42.6224 29.2845 42.3007 29.0625 42.0609C28.4591 41.4092 28.1266 40.5612 28.1266 39.6737C28.1266 37.7606 29.6242 36.2176 31.5361 36.1612C32.1275 36.1437 32.6131 35.6881 32.6683 35.0989C32.7702 34.0101 33.6725 33.1892 34.7673 33.1892C35.4294 33.1892 36.0409 33.4942 36.4453 34.0259C36.6419 34.2845 36.937 34.4499 37.2603 34.4826C37.5834 34.5153 37.9058 34.4123 38.1503 34.1982C38.6631 33.749 39.3206 33.5017 40.0017 33.5017C41.4336 33.5017 42.6347 34.5728 42.7953 35.9931C42.8481 36.4598 43.1745 36.8499 43.6247 36.9843C44.0758 37.1193 44.5619 36.971 44.8617 36.6096C45.3111 36.0678 45.9723 35.792 46.6788 35.8539C47.6775 35.941 48.4978 36.7599 48.5867 37.759C48.6245 38.1828 48.5378 38.6007 48.3361 38.9679C48.147 39.3118 48.1427 39.7276 48.3245 40.0754C48.5064 40.4232 48.8503 40.657 49.2406 40.6978C49.7561 40.7415 50.275 40.9974 50.6839 41.5603C51.0073 42.0453 51.103 42.6473 50.9459 43.212C50.617 44.3963 50.2044 45.3848 49.7569 46.0924C49.363 45.4726 48.8281 45.104 48.383 44.7973C47.7114 44.3343 47.1808 43.9685 46.8438 42.7645ZM60.1367 56.3813C63.743 55.6096 66.6792 53.0415 67.9633 49.654C69.5569 50.8979 70.4759 53.1017 70.4759 55.8095C70.4759 60.0148 66.8163 64.8799 64.4286 64.8799C62.2159 64.8799 58.9116 60.7384 58.4384 56.7449L60.1367 56.3813ZM37.9556 78.5017C37.5255 74.466 36.0041 70.5681 33.5927 67.306L35.6944 66.4401C36.8848 67.4951 38.4248 68.0889 40.0358 68.089H40.0369C41.6512 68.089 43.1948 67.4929 44.3806 66.4404L46.4491 67.2928C44.0236 70.554 42.488 74.4598 42.0497 78.5017H37.9556ZM48.6945 68.2179L52.1486 69.6412C53.4727 70.1867 54.328 71.4643 54.328 72.8962V78.5017H44.4122C44.8648 74.7653 46.3588 71.1706 48.6945 68.2179ZM40.0356 61.7182C41.073 61.7182 42.0394 61.5301 42.9319 61.1887V64.5909C42.1539 65.3289 41.1198 65.7451 40.037 65.7451C40.0369 65.7451 40.0366 65.7451 40.0364 65.7451C38.9519 65.7449 37.9162 65.3271 37.1423 64.5918V61.1915C38.0561 61.5384 39.0241 61.7182 40.0356 61.7182ZM23.4023 78.5017H21.3586L23.4023 76.129V78.5017ZM23.4162 72.5217L18.2652 78.5017H12.9323L7.56 71.3093L12.078 69.4478C13.0505 70.2632 14.2848 70.7188 15.5728 70.7192H15.5738C16.8614 70.7192 18.0955 70.2638 19.0692 69.4476L23.6191 71.3223C23.5117 71.7096 23.4422 72.1106 23.4162 72.5217ZM22.7384 47.369C24.7783 49.4346 24.1359 52.5674 23.3316 54.5306C22.5628 53.7682 21.4589 52.7909 20.122 51.9353C19.2823 51.3978 18.6028 50.6842 18.1928 49.9231C18.6242 49.314 18.9683 48.654 19.2038 47.9578C19.3622 47.4892 19.4613 47.0223 19.5031 46.5679C20.4778 46.3684 21.8277 46.447 22.7384 47.369ZM9.37344 56.1807C10.205 55.254 11.6923 53.9364 13.9483 53.1153C14.8956 52.7704 15.7652 52.2803 16.5231 51.6792C17.11 52.5338 17.9059 53.2993 18.8584 53.9092C20.0681 54.6835 21.0731 55.5874 21.7509 56.2667C20.847 60.1145 17.6961 63.3174 15.5725 63.3174C13.4478 63.3173 10.2516 60.0598 9.37344 56.1807ZM15.5727 65.661C16.2494 65.661 16.9436 65.5014 17.6306 65.2092V67.5943C17.0672 68.0946 16.3369 68.3753 15.5738 68.3753C15.5736 68.3753 15.5734 68.3753 15.5731 68.3753C14.8116 68.3751 14.0827 68.0954 13.5169 67.5935V65.2056C14.2042 65.4996 14.898 65.661 15.5727 65.661ZM4.46891 78.1093V74.4164C4.46891 73.6056 4.82266 72.8596 5.41156 72.3495L10.0069 78.5017H4.86109C4.64484 78.5017 4.46891 78.3257 4.46891 78.1093ZM25.7461 72.8962C25.7461 71.4643 26.6016 70.1865 27.9255 69.6412L31.3505 68.2299C33.6716 71.1846 35.15 74.7723 35.5939 78.5017H25.7463L25.7461 72.8962ZM56.6717 78.5017V72.8962C56.6717 72.3448 56.5923 71.8082 56.448 71.2962L60.0383 69.8167C60.0838 72.7692 60.3572 75.8718 61.9997 78.5017H56.6717ZM62.3728 68.0678V66.7153C63.057 67.0406 63.7508 67.2237 64.4286 67.2237C65.1069 67.2237 65.8014 67.0415 66.4866 66.7131C66.4867 66.716 66.4863 67.9515 66.4867 68.0732C66.4867 71.5901 66.4856 75.2192 64.4298 77.8934C62.3738 75.2235 62.3728 71.5906 62.3728 68.0703C62.373 68.0693 62.3728 68.0685 62.3728 68.0678ZM75.5345 78.1095C75.5345 78.3257 75.3586 78.5017 75.1423 78.5017H66.8589C68.5022 75.8693 68.7756 72.7679 68.8213 69.8168L73.8392 71.8845H73.8394C74.8691 72.3087 75.5345 73.3024 75.5345 74.4162V78.1095Z" fill="white"/>
</g>
<defs>
<clipPath id="clip0_2302_16351">
<rect width="80" height="80" fill="white" transform="translate(0 0.845413)"/>
</clipPath>
</defs>
</svg>
