<svg width="80" height="81" viewBox="0 0 80 81" fill="none" xmlns="http://www.w3.org/2000/svg">
<path d="M13.2872 27.0838C13.6046 27.267 13.9528 27.3587 14.3013 27.3587C14.6507 27.3587 15.0003 27.2667 15.3192 27.0824L20.3435 24.1818C20.9805 23.814 21.3607 23.1565 21.3607 22.4226C21.3607 21.6888 20.9803 21.0312 20.3435 20.6635L15.3192 17.7629C14.6824 17.3951 13.9227 17.3949 13.2872 17.7617C12.6519 18.1285 12.2725 18.7867 12.2725 19.5221V25.3235C12.2724 26.0588 12.6517 26.717 13.2872 27.0838ZM14.1474 19.522C14.1474 19.4992 14.1474 19.4299 14.2247 19.3853C14.25 19.3707 14.2757 19.3634 14.3014 19.3634C14.328 19.3634 14.3549 19.3712 14.3817 19.3867L19.406 22.2873C19.4257 22.2987 19.4858 22.3332 19.4858 22.4226C19.4858 22.512 19.4258 22.5465 19.406 22.5579L14.3817 25.4585C14.3621 25.4701 14.3019 25.5045 14.2247 25.4599C14.1474 25.4153 14.1474 25.346 14.1474 25.3232V19.522ZM5.62519 32.8857H25.9747C28.2147 32.8857 30.0372 31.0632 30.0372 28.8232V16.0221C30.0372 13.7821 28.2147 11.9596 25.9747 11.9596H5.62519C3.38519 11.9596 1.56269 13.7821 1.56269 16.0221V28.8232C1.56284 31.0632 3.38519 32.8857 5.62519 32.8857ZM3.43784 16.0221C3.43784 14.816 4.41909 13.8346 5.62534 13.8346H25.9749C27.1811 13.8346 28.1624 14.8159 28.1624 16.0221V28.8232C28.1624 30.0293 27.1811 31.0107 25.9749 31.0107H5.62519C4.41909 31.0107 3.43769 30.0295 3.43769 28.8232V16.0221H3.43784ZM50.6424 45.446C50.5333 45.0392 50.1664 44.7549 49.7452 44.7512L45.4755 44.7135L42.3011 32.8663C42.0711 32.0076 41.5183 31.2887 40.7444 30.842C39.9707 30.3953 39.0716 30.2757 38.2127 30.506C37.3539 30.7362 36.635 31.289 36.1883 32.0628C35.7416 32.8365 35.6222 33.7357 35.8524 34.5943L36.2183 35.9601C34.8172 38.5467 29.9128 45.7798 17.3692 49.8154C15.071 50.5548 12.6733 51.1551 10.3544 51.7357C9.18487 52.0285 7.9755 52.3313 6.788 52.6495C4.94847 53.1424 3.42081 54.3315 2.48675 55.9977C1.54909 57.6701 1.3155 59.6463 1.82894 61.562C2.72081 64.8907 5.56956 67.0467 8.73425 67.0463C9.34159 67.0463 9.96112 66.9668 10.58 66.8012C10.7235 66.7627 10.8674 66.7231 11.0111 66.6838L17.258 77.5037C17.9314 78.6699 19.1569 79.3226 20.4155 79.3224C21.0324 79.3224 21.6574 79.1657 22.2289 78.8357C23.0682 78.351 23.6692 77.5662 23.9214 76.6253C24.1735 75.6845 24.0455 74.704 23.561 73.8648L18.2496 64.6653C19.2183 64.4121 20.1907 64.1734 21.1603 63.9645C34.0421 61.1876 41.9053 64.9996 44.4119 66.5392L44.7778 67.9048C45.1771 69.3945 46.5292 70.3795 48.0033 70.3793C48.2883 70.3793 48.5782 70.3424 48.8663 70.2654C50.6442 69.7888 51.7032 67.9548 51.2266 66.177L48.0522 54.3298L51.731 52.1621C52.0939 51.9484 52.2696 51.5187 52.1607 51.1118L50.6424 45.446ZM10.0946 64.9896C7.26612 65.7479 4.43081 64.0285 3.63987 61.0765C3.25378 59.6357 3.42503 58.1576 4.12206 56.9143C4.8069 55.6929 5.92597 54.8212 7.27315 54.4604C8.44565 54.1462 9.64753 53.8453 10.8097 53.5543C12.8471 53.0443 14.9444 52.5188 17.0035 51.8934L19.8046 62.3473C17.7092 62.8351 15.6308 63.4285 13.6119 64.0054C12.4592 64.3349 11.2675 64.6754 10.0946 64.9896ZM21.9369 74.8018C22.1711 75.2073 22.2325 75.6824 22.11 76.1396C21.9875 76.5968 21.6968 76.9774 21.2913 77.2115C20.8858 77.4456 20.411 77.5073 19.9535 77.3846C19.4963 77.2621 19.1157 76.9712 18.8816 76.5659L12.8763 66.1645C13.2963 66.0454 13.7146 65.9262 14.1271 65.8084C14.8697 65.5962 15.6211 65.3821 16.3771 65.1717L21.9369 74.8018ZM21.6397 61.952L18.7905 51.3185C26.7463 48.5892 33.3075 43.9123 36.8935 38.4799L43.7366 64.019C37.9149 61.1074 29.8944 60.3377 21.6397 61.952ZM48.381 68.454C47.6013 68.6631 46.7977 68.1987 46.5888 67.4195L37.6633 34.109C37.5628 33.734 37.6157 33.3403 37.8121 33.0001C38.0083 32.6601 38.323 32.4174 38.698 32.317C38.8222 32.2837 38.9485 32.2673 39.0741 32.2673C39.3278 32.2673 39.5792 32.3345 39.8067 32.4657C40.1467 32.662 40.3894 32.9767 40.4899 33.3515L49.4155 66.662C49.6242 67.4413 49.1602 68.2453 48.381 68.454ZM47.5485 52.4502L45.9789 46.5929L49.0157 46.6198L50.1649 50.9085L47.5485 52.4502ZM55.343 35.2113L52.0266 40.9556C51.853 41.2563 51.5378 41.4245 51.2138 41.4245C51.0547 41.4245 50.8936 41.384 50.746 41.2987C50.2975 41.0398 50.1439 40.4663 50.4028 40.0181L53.7192 34.2738C53.9782 33.8254 54.5516 33.672 54.9999 33.9307C55.4482 34.1896 55.6017 34.7629 55.343 35.2113ZM60.4111 59.2488L54.6669 55.9323C54.2185 55.6734 54.0649 55.1001 54.3238 54.6517C54.5827 54.2035 55.1561 54.0498 55.6044 54.3085L61.3486 57.6251C61.7971 57.884 61.9507 58.4573 61.6917 58.9057C61.5182 59.2065 61.203 59.3746 60.8789 59.3746C60.72 59.3746 60.5588 59.334 60.4111 59.2488ZM55.9633 46.086L62.3702 44.3693C62.8699 44.2351 63.3842 44.532 63.5183 45.0323C63.6524 45.5324 63.3555 46.0465 62.8553 46.1804L56.4485 47.8973C56.3672 47.919 56.2857 47.9293 56.2052 47.9293C55.7913 47.9293 55.4125 47.6531 55.3002 47.2343C55.1663 46.7342 55.4632 46.2201 55.9633 46.086ZM73.5063 2.44588H50.6758C47.9566 2.44588 45.7442 4.65822 45.7442 7.37744V18.9879C45.7442 21.7071 47.9566 23.9195 50.6758 23.9195H53.1169V29.2759C53.1169 29.6385 53.3261 29.9687 53.6541 30.1235C53.7817 30.1838 53.9185 30.2134 54.0544 30.2134C54.2677 30.2134 54.4789 30.1407 54.65 29.9999L62.0435 23.9195H73.5064C76.2257 23.9195 78.438 21.7071 78.438 18.9879V7.37744C78.4377 4.65822 76.2255 2.44588 73.5063 2.44588ZM76.5627 18.9878C76.5627 20.6731 75.1916 22.0443 73.5061 22.0443H61.7072C61.49 22.0443 61.2796 22.1198 61.1117 22.2578L54.9919 27.2909V22.9818C54.9919 22.4642 54.5721 22.0443 54.0544 22.0443H50.6758C48.9905 22.0443 47.6192 20.6732 47.6192 18.9878V7.37744C47.6192 5.69213 48.9903 4.32088 50.6758 4.32088H73.5063C75.1916 4.32088 76.5628 5.69197 76.5628 7.37744V18.9878H76.5627ZM72.7246 8.78806C72.7246 9.30572 72.3047 9.72556 71.7871 9.72556H52.395C51.8774 9.72556 51.4575 9.30572 51.4575 8.78806C51.4575 8.27041 51.8774 7.85056 52.395 7.85056H71.7871C72.3049 7.85056 72.7246 8.27025 72.7246 8.78806ZM72.7246 17.577C72.7246 18.0946 72.3047 18.5145 71.7871 18.5145H61.7072C61.1896 18.5145 60.7697 18.0946 60.7697 17.577C60.7697 17.0593 61.1896 16.6395 61.7072 16.6395H71.7871C72.3049 16.6395 72.7246 17.0593 72.7246 17.577ZM72.7246 13.1826C72.7246 13.7003 72.3047 14.1201 71.7871 14.1201H52.395C51.8774 14.1201 51.4575 13.7003 51.4575 13.1826C51.4575 12.6649 51.8774 12.2451 52.395 12.2451H71.7871C72.3049 12.2451 72.7246 12.6648 72.7246 13.1826ZM72.8353 61.1834C71.2025 61.1834 69.668 61.9562 68.6185 63.2384C67.5688 61.9562 66.0344 61.1834 64.4016 61.1834C61.3124 61.1834 58.7991 63.8795 58.7991 67.1935C58.7991 69.9651 62.0819 73.4988 65.7392 77.1799C66.3321 77.7765 66.8439 78.2918 67.2247 78.7038C67.5872 79.096 68.0952 79.3209 68.6186 79.3209C69.1421 79.3207 69.65 79.0959 70.0121 78.7038C70.3928 78.2918 70.9047 77.7765 71.4975 77.1799C75.1549 73.4988 78.4377 69.9653 78.4377 67.1935C78.4377 63.8795 75.9244 61.1834 72.8353 61.1834ZM70.1675 75.8585C69.5619 76.4679 69.0389 76.9945 68.635 77.4314C68.6257 77.4413 68.6196 77.4448 68.6192 77.4457C68.6172 77.4448 68.611 77.4415 68.6016 77.4312C68.1978 76.9943 67.6747 76.4679 67.0691 75.8584C64.8341 73.609 60.6739 69.4217 60.6739 67.1935C60.6739 64.9134 62.3461 63.0584 64.4014 63.0584C65.8213 63.0584 67.1392 63.9763 67.7591 65.397C67.9081 65.7387 68.2455 65.9596 68.6185 65.9596C68.9913 65.9596 69.3286 65.7387 69.4778 65.397C70.0977 63.9763 71.4155 63.0584 72.8355 63.0584C74.8908 63.0584 76.5628 64.9134 76.5628 67.1935C76.5627 69.4217 72.4025 73.6088 70.1675 75.8585Z" fill="url(#paint0_linear_2302_16364)"/>
<defs>
<linearGradient id="paint0_linear_2302_16364" x1="1.5625" y1="40.8842" x2="78.438" y2="40.8842" gradientUnits="userSpaceOnUse">
<stop stop-color="#991F3D"/>
<stop offset="1" stop-color="#E7474D"/>
</linearGradient>
</defs>
</svg>
