<svg width="16" height="16" viewBox="0 0 16 16" fill="none" xmlns="http://www.w3.org/2000/svg">
<g clip-path="url(#clip0_734_4139)">
<path d="M11.9861 10.7069C12.1124 9.81013 12.175 8.90558 12.1736 8C12.175 7.09442 12.1124 6.18987 11.9861 5.29313H15.5314C16.158 7.04332 16.158 8.95668 15.5314 10.7069H11.9861ZM8.00019 16C7.21894 16 6.42144 15.1981 5.80988 13.8003C5.5305 13.1619 5.303 12.4341 5.13269 11.6441H10.8677C10.6974 12.4337 10.4699 13.1616 10.1905 13.8003C9.57894 15.1981 8.78144 16 8.00019 16ZM4.96144 10.7069C4.6981 8.9119 4.6981 7.0881 4.96144 5.29313H11.0389C11.1721 6.18924 11.2381 7.09405 11.2364 8C11.2381 8.90595 11.1721 9.81076 11.0389 10.7069H4.96144ZM0.468937 10.7069C-0.157615 8.95668 -0.157615 7.04332 0.468937 5.29313H4.01425C3.76383 7.08902 3.76383 8.91098 4.01425 10.7069H0.468937ZM8.00019 0C8.78144 0 9.57894 0.801562 10.1905 2.19969C10.4699 2.83812 10.6974 3.56594 10.8677 4.35594H5.13269C5.303 3.56625 5.5305 2.83844 5.80988 2.19969C6.42144 0.801562 7.21894 0 8.00019 0ZM15.1252 4.35563H11.8246C11.6371 3.4275 11.3764 2.57094 11.0496 1.82438C10.7849 1.21875 10.4849 0.705938 10.1564 0.292812C11.2214 0.587741 12.2133 1.10133 13.0688 1.80084C13.9243 2.50035 14.6246 3.37044 15.1252 4.35563ZM5.84394 0.2925C5.51644 0.705938 5.21675 1.21844 4.95175 1.82375C4.62488 2.57094 4.36456 3.4275 4.17675 4.355H0.875187C1.37588 3.36993 2.07627 2.49995 2.93175 1.8005C3.78723 1.10106 4.77902 0.587481 5.84394 0.2925ZM0.875187 11.6444H4.17581C4.36331 12.5725 4.62394 13.4291 4.95081 14.1756C5.21581 14.7809 5.5155 15.2934 5.843 15.7069C4.77821 15.4119 3.78656 14.8983 2.93124 14.1988C2.07592 13.4994 1.3757 12.6294 0.875187 11.6444ZM10.1564 15.7069C10.4839 15.2934 10.7839 14.7809 11.0486 14.1756C11.3755 13.4284 11.6358 12.5719 11.8236 11.6444H15.1252C14.6246 12.6296 13.9243 13.4997 13.0688 14.1993C12.2133 14.8988 11.2214 15.4125 10.1564 15.7075V15.7069Z" fill="white"/>
</g>
<defs>
<clipPath id="clip0_734_4139">
<rect width="16" height="16" fill="white"/>
</clipPath>
</defs>
</svg>
