<svg width="24" height="20" viewBox="0 0 24 20" fill="none" xmlns="http://www.w3.org/2000/svg">
<g clip-path="url(#clip0_734_3904)">
<mask id="mask0_734_3904" style="mask-type:luminance" maskUnits="userSpaceOnUse" x="0" y="0" width="24" height="20">
<path d="M0.25 0.612061H23.1232V19.3878H0.25V0.612061Z" fill="white"/>
</mask>
<g mask="url(#mask0_734_3904)">
<path d="M18.4397 12.6786C18.4385 12.8328 18.3766 12.9804 18.2672 13.0892C18.1579 13.1981 18.01 13.2595 17.8557 13.26H5.50702C5.43032 13.2606 5.35425 13.246 5.28321 13.2171C5.21217 13.1881 5.14756 13.1455 5.09308 13.0915C5.03861 13.0375 4.99535 12.9733 4.9658 12.9026C4.93625 12.8318 4.92099 12.756 4.9209 12.6793V0.524304C4.92277 0.369939 4.98526 0.22249 5.0949 0.113732C5.20453 0.00497305 5.35254 -0.0563869 5.50702 -0.057125H17.8557C17.9323 -0.057407 18.0082 -0.0425761 18.079 -0.0134829C18.1498 0.0156103 18.2142 0.0583933 18.2685 0.112412C18.3227 0.166431 18.3658 0.230622 18.3952 0.301304C18.4245 0.371987 18.4397 0.447769 18.4397 0.524304V12.6786Z" fill="#0C9D58"/>
<path opacity="0.2" d="M18.4388 3.06724L13.8106 2.46938L18.4388 3.71581V3.06724ZM11.9043 0.573664L4.89648 3.71438L12.6448 0.885807V0.87795C12.5097 0.585093 12.1766 0.448664 11.9078 0.574379L11.9043 0.573664Z" fill="#004D40"/>
<path opacity="0.2" d="M17.8557 -0.0571271H5.50702C5.3522 -0.0575073 5.20354 0.00349169 5.09367 0.11249C4.98379 0.221489 4.92166 0.369587 4.9209 0.524301V0.654301C4.92277 0.499937 4.98526 0.352488 5.0949 0.243729C5.20453 0.134971 5.35254 0.0736109 5.50702 0.0728729H17.8557C17.9323 0.0725908 18.0082 0.0874217 18.079 0.116515C18.1498 0.145608 18.2142 0.188391 18.2685 0.24241C18.3227 0.296429 18.3658 0.36062 18.3952 0.431302C18.4245 0.501984 18.4397 0.577767 18.4397 0.654301V0.524301C18.4385 0.370075 18.3766 0.222517 18.2672 0.11366C18.1579 0.00480269 18.01 -0.056567 17.8557 -0.0571271Z" fill="white"/>
<path d="M7.92 12.3049C7.83637 12.617 8.00363 12.9378 8.29026 13.012L19.7283 16.0985C20.0149 16.1756 20.3187 15.9835 20.4016 15.6713L23.0964 5.58276C23.1793 5.27062 23.0127 4.94991 22.7261 4.87562L11.2881 1.78776C11.0007 1.71134 10.6977 1.90348 10.6147 2.21562L7.92 12.3049Z" fill="#EA4335"/>
<path opacity="0.2" d="M20.5182 9.18369L21.1201 12.8508L20.5182 15.1044V9.18369ZM13.8643 2.62012L14.4032 2.76583L14.7377 5.02869L13.8643 2.62012Z" fill="#3E2723"/>
<path opacity="0.2" d="M22.7246 4.87501L11.288 1.7893C11.0014 1.71216 10.6983 1.90358 10.6154 2.21644L7.92069 12.305C7.91568 12.3222 7.91497 12.3386 7.91211 12.3564L10.5854 2.34358C10.6698 2.03144 10.9728 1.83858 11.2595 1.91644L22.6975 5.0043C22.9677 5.07716 23.1292 5.36573 23.0763 5.66144L23.0963 5.58501C23.18 5.27287 23.0134 4.95216 22.7261 4.87787L22.7246 4.87501Z" fill="white"/>
<path d="M16.9272 11.0628C17.0373 11.3664 16.8986 11.6985 16.6198 11.7999L4.55137 16.2092C4.2726 16.3107 3.95381 16.1457 3.84373 15.8421L0.281946 6.02708C0.171869 5.72351 0.310538 5.39137 0.589305 5.28994L12.6592 0.882797C12.938 0.780654 13.2568 0.945654 13.3668 1.24923L16.9272 11.0628Z" fill="#FFC107"/>
<path opacity="0.2" d="M0.328408 6.14722C0.21833 5.84365 0.356999 5.5115 0.635766 5.40936L12.7049 1.00222C12.9808 0.901504 13.2954 1.06222 13.4083 1.35936L13.3668 1.24507C13.2568 0.941504 12.938 0.776504 12.6592 0.878646L0.589305 5.28579C0.310538 5.38793 0.171869 5.71936 0.281946 6.02293L3.84301 15.8379C3.84448 15.8414 3.84615 15.8447 3.84802 15.8479L0.328408 6.14722Z" fill="white"/>
<path d="M20.5166 18.1328C20.5162 18.2882 20.4544 18.4371 20.3446 18.5471C20.2348 18.6571 20.0859 18.7192 19.9305 18.72H3.42819C3.35108 18.7202 3.2747 18.7051 3.20345 18.6756C3.1322 18.6462 3.06749 18.6029 3.01306 18.5483C2.95864 18.4937 2.91557 18.4289 2.88634 18.3576C2.85712 18.2863 2.84231 18.2099 2.84278 18.1328V5.61569C2.84297 5.46021 2.90472 5.31112 3.01453 5.20098C3.12435 5.09083 3.27332 5.02859 3.42891 5.02783H19.9333C20.0105 5.02764 20.087 5.04274 20.1584 5.07224C20.2297 5.10174 20.2945 5.14507 20.349 5.19972C20.4035 5.25437 20.4466 5.31927 20.4759 5.39067C20.5051 5.46206 20.5199 5.53854 20.5195 5.61569L20.5166 18.1328Z" fill="#4285F4"/>
<path d="M17.3669 9.98422H12.4277V8.67993H17.3669C17.4011 8.67993 17.435 8.68668 17.4665 8.6998C17.4981 8.71292 17.5268 8.73215 17.5509 8.75638C17.575 8.78061 17.5941 8.80936 17.607 8.84098C17.62 8.87261 17.6266 8.90648 17.6264 8.94065V9.72279C17.6266 9.79181 17.5994 9.85809 17.5507 9.9071C17.5021 9.95611 17.436 9.98384 17.3669 9.98422ZM17.3669 14.9385H12.4277V13.6349H17.3669C17.4011 13.6349 17.435 13.6417 17.4665 13.6548C17.4981 13.6679 17.5268 13.6872 17.5509 13.7114C17.575 13.7356 17.5941 13.7644 17.607 13.796C17.62 13.8276 17.6266 13.8615 17.6264 13.8956V14.6785C17.6262 14.7473 17.5988 14.8132 17.5502 14.8619C17.5016 14.9106 17.4357 14.9381 17.3669 14.9385ZM18.146 12.4606H12.4277V11.1571H18.146C18.1803 11.1571 18.2141 11.1638 18.2458 11.1769C18.2774 11.19 18.3061 11.2093 18.3303 11.2335C18.3544 11.2577 18.3736 11.2864 18.3866 11.3181C18.3996 11.3497 18.4063 11.3836 18.4062 11.4178V12.1999C18.406 12.2689 18.3786 12.335 18.3298 12.3838C18.2811 12.4327 18.215 12.4603 18.146 12.4606Z" fill="white"/>
<path opacity="0.2" d="M19.9333 18.5871H3.42891C3.3517 18.5873 3.27523 18.5722 3.20389 18.5427C3.13255 18.5132 3.06777 18.4699 3.01327 18.4152C2.95878 18.3606 2.91566 18.2957 2.8864 18.2243C2.85713 18.1529 2.84231 18.0764 2.84278 17.9993V18.13C2.84297 18.2855 2.90472 18.4346 3.01453 18.5447C3.12435 18.6548 3.27332 18.7171 3.42891 18.7178H19.9333C20.0105 18.718 20.087 18.7029 20.1584 18.6734C20.2297 18.6439 20.2945 18.6006 20.349 18.546C20.4035 18.4913 20.4466 18.4264 20.4759 18.355C20.5051 18.2836 20.5199 18.2071 20.5195 18.13V18C20.5191 18.1554 20.4573 18.3044 20.3475 18.4145C20.2377 18.5246 20.0889 18.5869 19.9333 18.5878V18.5871Z" fill="#1A237E"/>
<path opacity="0.2" d="M3.42819 5.15855H19.9333C20.0105 5.15836 20.0869 5.17343 20.1582 5.20288C20.2295 5.23234 20.2942 5.27561 20.3487 5.33018C20.4032 5.38476 20.4463 5.44957 20.4756 5.52089C20.5049 5.5922 20.5198 5.6686 20.5195 5.74569V5.61569C20.5193 5.46021 20.4575 5.31112 20.3477 5.20098C20.2379 5.09083 20.0889 5.02859 19.9333 5.02783H3.42891C3.3517 5.02764 3.27523 5.04274 3.20389 5.07224C3.13255 5.10174 3.06777 5.14507 3.01327 5.19972C2.95878 5.25437 2.91566 5.31927 2.8864 5.39067C2.85713 5.46206 2.84231 5.53854 2.84278 5.61569V5.74569C2.84316 5.59033 2.90499 5.44143 3.01479 5.33144C3.12458 5.22145 3.27273 5.1593 3.42819 5.15855Z" fill="white"/>
<path d="M8.00975 11.2885V12.4635H9.69165C9.55298 13.1799 8.92611 13.6992 8.00975 13.6992C6.98904 13.6992 6.16275 12.8328 6.16275 11.8085C6.16275 10.7842 6.99118 9.91778 8.00975 9.91778C8.45487 9.91074 8.88481 10.0794 9.20631 10.3871L10.0969 9.49421C9.53317 8.96263 8.78481 8.67067 8.00975 8.67992C7.59659 8.67486 7.18656 8.75216 6.80364 8.90731C6.42072 9.06246 6.0726 9.29233 5.77962 9.58349C5.48544 9.87491 5.25203 10.2217 5.0929 10.6039C4.93377 10.9861 4.85207 11.396 4.85254 11.8099C4.85272 12.2237 4.93471 12.6333 5.09381 13.0152C5.25291 13.3972 5.48598 13.744 5.77962 14.0356C6.07297 14.3262 6.42117 14.5557 6.80402 14.7107C7.18686 14.8657 7.59671 14.9431 8.00975 14.9385C9.81102 14.9385 10.9961 13.6685 10.9961 11.8813C10.9951 11.6827 10.9784 11.4845 10.9461 11.2885H8.00975Z" fill="white"/>
<g opacity="0.2">
<path d="M8.04199 12.4592V12.5899H9.69315C9.7053 12.5471 9.71531 12.5035 9.72389 12.4592H8.04199Z" fill="#1A237E"/>
<path d="M8.04199 14.9357C7.22558 14.9351 6.44211 14.6139 5.86046 14.0414C5.27723 13.4678 4.94146 12.689 4.9248 11.8714V11.9371C4.9245 12.7664 5.25296 13.5621 5.8383 14.15C6.12748 14.4404 6.47121 14.6708 6.84975 14.8281C7.22829 14.9853 7.63418 15.0663 8.04414 15.0664C9.8454 15.0664 11.0305 13.7957 11.0305 12.0086V11.9657C10.9876 13.7071 9.81395 14.9364 8.04271 14.9364L8.04199 14.9357ZM9.23854 10.3843C8.91685 10.077 8.48698 9.90862 8.04199 9.9157C7.02128 9.9157 6.19498 10.7821 6.19498 11.8057C6.19498 11.8278 6.19498 11.8514 6.19855 11.8707C6.23286 10.8764 7.04486 10.0457 8.04556 10.0457C8.49005 10.0397 8.91898 10.2091 9.23926 10.5171L10.1935 9.55855C10.1708 9.53801 10.1475 9.51823 10.1234 9.49927L9.23926 10.3864V10.3843H9.23854Z" fill="#1A237E"/>
</g>
<path opacity="0.2" d="M17.6264 9.85142V9.7207C17.6264 9.78967 17.5991 9.85584 17.5505 9.90481C17.5019 9.95377 17.4359 9.98157 17.3669 9.98213H12.4277V10.1114H17.3669C17.4358 10.1112 17.5018 10.0838 17.5504 10.035C17.5991 9.98627 17.6264 9.92025 17.6264 9.85142ZM17.3669 14.9371H12.4277V15.0664H17.3669C17.4011 15.0664 17.435 15.0597 17.4665 15.0465C17.4981 15.0334 17.5268 15.0142 17.5509 14.99C17.575 14.9657 17.5941 14.937 17.607 14.9054C17.62 14.8737 17.6266 14.8399 17.6264 14.8057V14.6764C17.6262 14.7452 17.5988 14.8111 17.5502 14.8598C17.5016 14.9085 17.4357 14.936 17.3669 14.9364V14.9371ZM18.146 12.4586H12.4277V12.5893H18.146C18.1803 12.5894 18.2142 12.5827 18.2459 12.5696C18.2775 12.5565 18.3063 12.5373 18.3305 12.5131C18.3547 12.4888 18.3738 12.4601 18.3868 12.4284C18.3998 12.3967 18.4064 12.3628 18.4062 12.3286V12.1986C18.406 12.2675 18.3786 12.3336 18.3298 12.3825C18.2811 12.4313 18.215 12.4589 18.146 12.4593V12.4586Z" fill="#1A237E"/>
<path d="M22.7246 4.87575L18.4394 3.71861V0.525034C18.4383 0.37093 18.3764 0.223479 18.2673 0.114642C18.1581 0.00580541 18.0104 -0.0556471 17.8561 -0.0563947H5.50678C5.35195 -0.0567748 5.2033 0.00422412 5.09342 0.113223C4.98354 0.222221 4.92141 0.37032 4.92065 0.525034V3.70718L0.588328 5.28789C0.309561 5.39003 0.170893 5.72146 0.28097 6.02503L2.84491 13.0857V18.1315C2.8451 18.2869 2.90684 18.436 3.01666 18.5462C3.12648 18.6563 3.27545 18.7186 3.43104 18.7193H19.9355C20.0126 18.7193 20.0889 18.7041 20.16 18.6745C20.2312 18.6449 20.2958 18.6016 20.3502 18.5469C20.4045 18.4923 20.4475 18.4275 20.4767 18.3562C20.5059 18.2849 20.5206 18.2085 20.5202 18.1315V15.2357L23.097 5.58432C23.1806 5.27146 23.0141 4.95146 22.7267 4.87646H22.7253L22.7246 4.87575Z" fill="url(#paint0_radial_734_3904)"/>
</g>
</g>
<defs>
<radialGradient id="paint0_radial_734_3904" cx="0" cy="0" r="1" gradientUnits="userSpaceOnUse" gradientTransform="translate(5.40027 1.46432) scale(22.2438 22.3166)">
<stop stop-color="white" stop-opacity="0.1"/>
<stop offset="1" stop-color="white" stop-opacity="0"/>
</radialGradient>
<clipPath id="clip0_734_3904">
<rect width="22.8732" height="20" fill="white" transform="translate(0.25)"/>
</clipPath>
</defs>
</svg>
