<svg width="80" height="81" viewBox="0 0 80 81" fill="none" xmlns="http://www.w3.org/2000/svg">
<g clip-path="url(#clip0_2302_16378)">
<path d="M37.9798 30.2277C38.5216 29.2866 38.8333 28.1969 38.8333 27.0352V23.4611C38.8333 19.926 35.9572 17.05 32.422 17.05C28.8869 17.05 26.0108 19.9261 26.0108 23.4611V27.0549C26.0108 28.2094 26.3195 29.2924 26.8566 30.2286C23.1766 30.6646 20.3125 33.8016 20.3125 37.5968V46.3468C20.3125 48.1991 21.8195 49.7061 23.6719 49.7061H41.1722C43.0245 49.7061 44.5316 48.1991 44.5316 46.3468V37.5968C44.5317 33.7991 41.6636 30.6602 37.9798 30.2277ZM34.3762 39.8349C34.4016 40.0363 34.3228 40.2329 34.1655 40.3608L32.4222 41.7793L30.6789 40.3608C30.5216 40.2329 30.4428 40.0363 30.4681 39.835L31.2852 33.355C31.6514 33.4204 32.0277 33.4565 32.4123 33.4565C32.8037 33.4565 33.1866 33.4193 33.5589 33.3519L34.3762 39.8349ZM28.3547 25.1555H36.4897V27.0352C36.4897 29.2835 34.6606 31.1125 32.4123 31.1125C30.175 31.1125 28.3547 29.2924 28.3547 27.055V25.1555ZM32.4222 19.3938C34.4439 19.3938 36.1253 20.8768 36.4372 22.8118H28.4072C28.7191 20.8768 30.4003 19.3938 32.4222 19.3938ZM42.188 46.3469C42.188 46.9069 41.7323 47.3625 41.1723 47.3625H23.6719C23.1119 47.3625 22.6562 46.9069 22.6562 46.3469V37.5969C22.6562 34.7969 24.9344 32.5188 27.7345 32.5188H29.0283L28.1428 39.5419C28.0156 40.5511 28.4108 41.5371 29.1997 42.1788L31.0794 43.7082C31.4684 44.0247 31.9453 44.183 32.4222 44.183C32.8991 44.183 33.3761 44.0247 33.765 43.7082L35.6445 42.1788C36.4336 41.5369 36.8288 40.5511 36.7016 39.5418L35.8161 32.5188H37.1097C39.9098 32.5188 42.188 34.7969 42.188 37.5969V46.3469Z" fill="white"/>
<path d="M78.9102 70.1768L77.2678 68.5346C77.3067 68.3775 77.3291 68.2155 77.3291 68.0496C77.3291 67.514 77.1205 67.0105 76.7419 66.6319L69.0395 58.9297C68.6609 58.551 68.1573 58.3425 67.6219 58.3425C67.4559 58.3425 67.2937 58.3649 67.1369 58.4038L65.5931 56.86C64.2336 55.5005 62.0769 55.4135 60.6145 56.5979L57.7009 53.6843C58.0756 53.2177 58.4387 52.7397 58.7895 52.2505C62.49 47.0896 64.565 41.0355 64.8178 34.6943H69.9313C72.3327 34.6943 74.2863 32.7407 74.2863 30.3394V11.705C74.2863 9.3038 72.3327 7.35021 69.9313 7.35021H65.8348C65.1877 7.35021 64.663 7.87489 64.663 8.52208C64.663 9.16927 65.1877 9.69396 65.8348 9.69396H69.9313C71.0402 9.69396 71.9423 10.5961 71.9423 11.705V30.3393C71.9423 31.4482 71.0402 32.3504 69.9313 32.3504H51.2967C50.1878 32.3504 49.2856 31.4482 49.2856 30.3393V11.705C49.2856 10.5961 50.1878 9.69396 51.2967 9.69396H60.1577C60.8048 9.69396 61.3295 9.16927 61.3295 8.52208C61.3295 7.87489 60.8048 7.35021 60.1577 7.35021H51.7573C46.1355 3.16739 39.4514 0.956299 32.4227 0.956299C14.5447 0.956299 0 15.5007 0 33.3782C0 41.0968 2.71922 48.483 7.68469 54.3361C6.50781 55.1166 5.72984 56.4525 5.72984 57.9674V76.6016C5.72984 79.0029 7.68344 80.9565 10.0847 80.9565H28.7192C31.1205 80.9565 33.0742 79.0029 33.0742 76.6016V65.7927C34.8413 65.7576 36.6059 65.5805 38.3292 65.2632C38.9658 65.146 39.3867 64.5349 39.2695 63.8985C39.1523 63.2621 38.542 62.8413 37.9048 62.9582C36.3213 63.2497 34.6978 63.4127 33.0742 63.4477V61.1047C40.1453 60.9416 46.7967 58.1275 51.8667 53.1379C56.8861 48.1982 59.7988 41.676 60.1253 34.694H62.4713C61.9447 46.6357 54.1902 57.3627 42.9502 61.5629C42.3439 61.7894 42.0361 62.4646 42.2627 63.0708C42.4386 63.5419 42.8855 63.8327 43.3606 63.8327C43.4969 63.8327 43.6355 63.8088 43.7708 63.7582C47.0369 62.5377 50.053 60.8149 52.7323 58.6591L55.6425 61.5693C54.4581 63.0315 54.5453 65.1882 55.9048 66.5477L57.4486 68.0915C57.4097 68.2485 57.3873 68.4105 57.3873 68.5765C57.3873 69.1119 57.5959 69.6154 57.9745 69.9941L65.677 77.6963C66.0556 78.0751 66.5591 78.2835 67.0947 78.2835C67.2606 78.2835 67.4227 78.2611 67.5797 78.2222L69.222 79.8646C69.9486 80.591 70.903 80.9543 71.8573 80.9543C72.8117 80.9543 73.7661 80.591 74.4927 79.8644L78.9105 75.4469C80.3633 73.9941 80.3633 71.6299 78.9102 70.1768ZM32.4227 3.30005C38.3041 3.30005 43.9245 4.96896 48.7964 8.14286C48.1427 8.60302 47.6206 9.23771 47.2992 9.97927C42.852 7.13786 37.7439 5.6438 32.4227 5.6438C17.1295 5.6438 4.68766 18.0854 4.68766 33.3782C4.68766 37.7791 5.69328 41.9905 7.67641 45.8957C9.13641 48.7708 11.1177 51.3968 13.4791 53.6125H10.17C5.12203 48.0652 2.34375 40.8918 2.34375 33.3782C2.34375 16.793 15.837 3.30005 32.4227 3.30005ZM30.7305 76.6015C30.7305 77.7104 29.8283 78.6125 28.7194 78.6125H10.0848C8.97594 78.6125 8.07375 77.7104 8.07375 76.6015V57.9674C8.07375 56.8585 8.97594 55.9563 10.0848 55.9563H28.7194C29.8283 55.9563 30.7305 56.8585 30.7305 57.9674V76.6015ZM33.0744 58.7604V57.9674C33.0744 55.5661 31.1208 53.6125 28.7194 53.6125H17.0991C17.0923 53.6072 17.0864 53.6013 17.0797 53.5961C10.6937 48.738 7.03141 41.3688 7.03141 33.3782C7.03141 19.3777 18.4219 7.98755 32.4227 7.98755C37.6573 7.98755 42.6669 9.56677 46.9417 12.5591V30.3393C46.9417 32.7405 48.8953 34.6941 51.2967 34.6941H57.7781C57.0978 47.8318 46.2523 58.4213 33.0744 58.7604ZM56.1644 55.4621L58.9423 58.2399L57.285 59.8972L54.5084 57.1207C55.0789 56.589 55.6314 56.036 56.1644 55.4621ZM57.562 62.9347L61.9797 58.5172C62.5189 57.978 63.3964 57.978 63.9356 58.5172L65.2761 59.8577L58.9025 66.2313L57.562 64.8908C57.0228 64.3515 57.0228 63.474 57.562 62.9347ZM59.8716 68.5768L67.6219 60.8266L74.845 68.0496L67.0947 75.7997L59.8716 68.5768ZM77.253 73.7899L72.8353 78.2074C72.2962 78.7466 71.4187 78.7468 70.8794 78.2074L69.4405 76.7685L75.8141 70.3951L77.253 71.834C77.792 72.3732 77.792 73.2507 77.253 73.7899Z" fill="white"/>
<path d="M55.855 19.9007C55.3451 19.502 54.6086 19.592 54.2098 20.1018C53.8111 20.6116 53.9011 21.3482 54.4109 21.7468L58.8901 25.2501C59.1037 25.4171 59.3584 25.4988 59.6117 25.4988C59.9319 25.4988 60.2501 25.3682 60.4804 25.114L66.9608 17.9649C67.3954 17.4854 67.359 16.7443 66.8795 16.3096C66.4 15.8751 65.6587 15.9115 65.2242 16.3909L59.4759 22.7326L55.855 19.9007Z" fill="white"/>
<path d="M13.3086 63.7688H22.0658C22.713 63.7688 23.2377 63.2441 23.2377 62.5969C23.2377 61.9497 22.713 61.425 22.0658 61.425H13.3086C12.6614 61.425 12.1367 61.9497 12.1367 62.5969C12.1367 63.2441 12.6614 63.7688 13.3086 63.7688Z" fill="white"/>
<path d="M26.98 66.1125H13.3086C12.6614 66.1125 12.1367 66.6372 12.1367 67.2844C12.1367 67.9316 12.6614 68.4563 13.3086 68.4563H26.9802C27.6273 68.4563 28.152 67.9316 28.152 67.2844C28.152 66.6372 27.6272 66.1125 26.98 66.1125Z" fill="white"/>
<path d="M24.0448 70.8H13.3086C12.6614 70.8 12.1367 71.3247 12.1367 71.9719C12.1367 72.6191 12.6614 73.1438 13.3086 73.1438H24.0448C24.692 73.1438 25.2167 72.6191 25.2167 71.9719C25.2167 71.3247 24.692 70.8 24.0448 70.8Z" fill="white"/>
</g>
<defs>
<clipPath id="clip0_2302_16378">
<rect width="80" height="80" fill="white" transform="translate(0 0.956299)"/>
</clipPath>
</defs>
</svg>
