<svg width="49" height="49" viewBox="0 0 49 49" fill="none" xmlns="http://www.w3.org/2000/svg">
<path d="M48.8625 24.4826C48.8625 37.9488 37.9485 48.8653 24.4854 48.8653C11.0224 48.8653 0.1084 37.9488 0.1084 24.4826C0.108399 11.0164 11.0224 0.099853 24.4854 0.0998525C37.9485 0.0998519 48.8625 11.0164 48.8625 24.4826Z" fill="url(#paint0_linear_2557_2992)"/>
<path d="M36.8241 19.5314C36.8241 16.1926 34.5933 13.1902 31.398 12.2316C31.0595 12.1296 30.7027 12.3213 30.6007 12.6599C30.5824 12.7211 30.5742 12.7823 30.5742 12.8435C30.5742 13.1189 30.7536 13.3738 31.031 13.4554C33.6879 14.2529 35.5456 16.7493 35.5456 19.5293C35.5456 19.8822 35.8311 20.1698 36.1859 20.1698C36.5407 20.1698 36.8262 19.8842 36.8262 19.5293L36.8241 19.5314Z" fill="white"/>
<path d="M11.1368 38.2957L18.6387 31.9505C19.3626 31.3386 19.5726 30.3433 19.226 29.5132L22.0338 27.1023C23.9058 28.8768 26.4282 29.968 29.2054 29.968C34.9578 29.968 39.6396 25.2872 39.6396 19.5314C39.6396 13.7756 34.9598 9.09473 29.2054 9.09473C23.451 9.09473 18.7712 13.7756 18.7712 19.5314C18.7712 22.0503 19.6664 24.3611 21.157 26.1662L18.4001 28.5321C18.1146 28.3506 17.7884 28.2404 17.4417 28.2119C16.8769 28.1649 16.3263 28.3404 15.894 28.7075L8.3921 35.0527C7.91494 35.4565 7.63965 36.048 7.63965 36.6742C7.63965 37.1759 7.81707 37.6614 8.14129 38.0449C8.50833 38.4773 9.02015 38.7424 9.58498 38.7893C10.1498 38.8362 10.7004 38.6608 11.1327 38.2936L11.1368 38.2957ZM20.0518 19.5314C20.0518 14.4834 24.1586 10.3756 29.2054 10.3756C34.2523 10.3756 38.3591 14.4834 38.3591 19.5314C38.3591 24.5794 34.2523 28.6871 29.2054 28.6871C24.1586 28.6871 20.0518 24.5794 20.0518 19.5314ZM9.1221 37.2188C8.99363 37.0658 8.92227 36.8741 8.92227 36.6742C8.92227 36.4254 9.03033 36.1908 9.21997 36.0297L16.7199 29.6845C16.8912 29.5397 17.1094 29.4683 17.3357 29.4887C17.56 29.5071 17.7639 29.6131 17.9087 29.7845C18.0433 29.9436 18.1085 30.1353 18.1085 30.329C18.1085 30.5677 18.0066 30.8062 17.8108 30.9735L10.3089 37.3187C10.1376 37.4636 9.91941 37.5349 9.69306 37.5145C9.46876 37.4962 9.26483 37.3901 9.12006 37.2188L9.1221 37.2188Z" fill="white"/>
<defs>
<linearGradient id="paint0_linear_2557_2992" x1="0.1084" y1="24.4826" x2="48.8625" y2="24.4826" gradientUnits="userSpaceOnUse">
<stop stop-color="#EF4B4F"/>
<stop offset="1" stop-color="#991F3D"/>
</linearGradient>
</defs>
</svg>
