<svg width="80" height="80" viewBox="0 0 80 80" fill="none" xmlns="http://www.w3.org/2000/svg">
<g clip-path="url(#clip0_2302_16415)">
<path d="M77.3333 11.3333H72V7.33333C72 6.59701 71.403 6 70.6667 6H53.3333C52.9134 6 52.5182 6.19792 52.2669 6.5332L48.6667 11.3333H2.66667C1.19401 11.3333 0 12.5273 0 14V32.6667C0.00260417 33.6152 0.511068 34.4902 1.33333 34.9629V72.6667C1.33333 73.403 1.93034 74 2.66667 74H8C8.73633 74 9.33333 73.403 9.33333 72.6667V35.3333H17.3333V62H13.3333C12.597 62 12 62.597 12 63.3333C12 65.6413 12 72.6667 18.6667 72.6667H57.3333C60.2786 72.6667 62.6667 70.2786 62.6667 67.3333V35.3333H70.6667V72.6667C70.6667 73.403 71.2637 74 72 74H77.3333C78.0697 74 78.6667 73.403 78.6667 72.6667V34.9629C79.4889 34.4902 79.9974 33.6152 80 32.6667V14C80 12.5273 78.806 11.3333 77.3333 11.3333ZM77.3333 14V32.6667H72V14H77.3333ZM46.6667 35.3333C46.6667 38.4681 44.4824 41.1797 41.4193 41.847C38.3561 42.5143 35.2415 40.9577 33.9375 38.1061C32.6335 35.2552 33.4922 31.8809 36 30H44C45.6803 31.2578 46.6693 33.2344 46.6667 35.3333ZM44.4186 27.3333H17.3333C16.597 27.3333 16 26.7363 16 26C16 25.2637 16.597 24.6667 17.3333 24.6667H62.6667C63.403 24.6667 64 25.2637 64 26C64 26.7363 63.403 27.3333 62.6667 27.3333H44.4186ZM20 40.8984C21.2467 41.3483 22.1901 42.3848 22.5215 43.668C22.6738 44.2559 23.2038 44.666 23.8105 44.6667H26.6667C27.403 44.6667 28 45.2637 28 46C28 46.7363 27.403 47.3333 26.6667 47.3333H20V40.8984ZM10.6667 14H48V22H10.6667V14ZM69.3333 22H50.6667V14H69.3333V22ZM65.627 28.6667C66.6296 27.5924 66.9395 26.0436 66.4264 24.6667H69.3333V32.6667H66.4238C66.9342 31.2891 66.6244 29.7422 65.6237 28.6667H65.627ZM54 8.66667H69.3333V11.3333H52L54 8.66667ZM2.66667 14H8V32.6667H2.66667V14ZM6.66667 71.3333H4V35.3333H6.66667V71.3333ZM10.6667 24.6667H13.5788C13.0651 26.0436 13.375 27.5931 14.3789 28.6667C13.7057 29.3913 13.3327 30.3444 13.3333 31.3333C13.3379 31.7884 13.4206 32.2396 13.5788 32.6667H10.6667V24.6667ZM16 31.3333C15.9993 30.9733 16.1471 30.6296 16.4095 30.3828C16.6523 30.1348 16.9863 29.9967 17.3333 30V32.6667C16.597 32.6667 16 32.0697 16 31.3333ZM20 50H26.6667C28.8757 50 30.6667 48.209 30.6667 46C30.6667 43.791 28.8757 42 26.6667 42H24.7572C23.8906 40.0208 22.1165 38.5859 20 38.1517V30H32.3438C29.638 33.8809 30.2637 39.1719 33.8001 42.3145C37.3359 45.457 42.6641 45.457 46.1999 42.3145C49.7363 39.1719 50.362 33.8809 47.6562 30H60V49.1172L53.0039 41.1172C52.7357 40.8255 52.3561 40.6615 51.9603 40.6667C51.5612 40.679 51.1888 40.8691 50.9453 41.1855L41.5664 53.3333L37.0332 47.8229C36.7832 47.4974 36.3893 47.3158 35.9798 47.3372C35.5736 47.3457 35.1934 47.5384 34.9466 47.8613L24.1335 62H20V50ZM45.2546 62H27.4837L36.0384 50.8105L45.2546 62ZM29.3333 70H18.6667C16.472 70 14.9479 69.0534 14.7012 64.6667H50.6667V66.6667C50.6654 67.8542 51.0182 69.0143 51.6797 70H29.3333ZM57.3333 70H56.6667C54.8255 70 53.3333 68.5078 53.3333 66.6667V63.3333C53.3333 62.597 52.7363 62 52 62H48.7077L43.3053 55.4401L52.0638 44.0977L60 53.168V67.3333C60 68.806 58.806 70 57.3333 70ZM62.6667 30C63.403 30 64 30.597 64 31.3333C64.0007 31.6934 63.8529 32.0371 63.5905 32.2839C63.3477 32.5319 63.0137 32.6699 62.6667 32.6667V30ZM76 71.3333H73.3333V35.3333H76V71.3333Z" fill="url(#paint0_linear_2302_16415)"/>
<path d="M16 16.6667H18.6667V19.3334H16V16.6667Z" fill="url(#paint1_linear_2302_16415)"/>
<path d="M21.332 16.6667H23.9987V19.3334H21.332V16.6667Z" fill="url(#paint2_linear_2302_16415)"/>
<path d="M26.668 16.6667H29.3346V19.3334H26.668V16.6667Z" fill="url(#paint3_linear_2302_16415)"/>
<path d="M65.332 40.6667H67.9987V43.3334H65.332V40.6667Z" fill="url(#paint4_linear_2302_16415)"/>
<path d="M65.332 46H67.9987V54H65.332V46Z" fill="url(#paint5_linear_2302_16415)"/>
<path d="M53.332 16.6667H66.6654V19.3334H53.332V16.6667Z" fill="url(#paint6_linear_2302_16415)"/>
</g>
<defs>
<linearGradient id="paint0_linear_2302_16415" x1="0" y1="40" x2="80" y2="40" gradientUnits="userSpaceOnUse">
<stop stop-color="#991F3D"/>
<stop offset="1" stop-color="#E7474D"/>
</linearGradient>
<linearGradient id="paint1_linear_2302_16415" x1="16" y1="18" x2="18.6667" y2="18" gradientUnits="userSpaceOnUse">
<stop stop-color="#991F3D"/>
<stop offset="1" stop-color="#E7474D"/>
</linearGradient>
<linearGradient id="paint2_linear_2302_16415" x1="21.332" y1="18" x2="23.9987" y2="18" gradientUnits="userSpaceOnUse">
<stop stop-color="#991F3D"/>
<stop offset="1" stop-color="#E7474D"/>
</linearGradient>
<linearGradient id="paint3_linear_2302_16415" x1="26.668" y1="18" x2="29.3346" y2="18" gradientUnits="userSpaceOnUse">
<stop stop-color="#991F3D"/>
<stop offset="1" stop-color="#E7474D"/>
</linearGradient>
<linearGradient id="paint4_linear_2302_16415" x1="65.332" y1="42" x2="67.9987" y2="42" gradientUnits="userSpaceOnUse">
<stop stop-color="#991F3D"/>
<stop offset="1" stop-color="#E7474D"/>
</linearGradient>
<linearGradient id="paint5_linear_2302_16415" x1="65.332" y1="50" x2="67.9987" y2="50" gradientUnits="userSpaceOnUse">
<stop stop-color="#991F3D"/>
<stop offset="1" stop-color="#E7474D"/>
</linearGradient>
<linearGradient id="paint6_linear_2302_16415" x1="53.332" y1="18" x2="66.6654" y2="18" gradientUnits="userSpaceOnUse">
<stop stop-color="#991F3D"/>
<stop offset="1" stop-color="#E7474D"/>
</linearGradient>
<clipPath id="clip0_2302_16415">
<rect width="80" height="80" fill="white"/>
</clipPath>
</defs>
</svg>
