<svg width="49" height="50" viewBox="0 0 49 50" fill="none" xmlns="http://www.w3.org/2000/svg">
<path d="M48.9953 25.1742C48.9953 38.6404 38.0813 49.5569 24.6182 49.5569C11.1552 49.5569 0.241213 38.6404 0.241212 25.1742C0.241211 11.708 11.1552 0.791503 24.6182 0.791503C38.0813 0.791502 48.9953 11.708 48.9953 25.1742Z" fill="url(#paint0_linear_2557_2993)"/>
<g clip-path="url(#clip0_2557_2993)">
<path d="M18.2183 26.2953H22.3726C23.104 26.2953 23.6992 25.7001 23.6992 24.9684V20.3749C23.6992 19.6434 23.104 19.0482 22.3726 19.0482H18.2183C17.4868 19.0482 16.8916 19.6434 16.8916 20.3749V24.9684C16.8916 25.7001 17.4868 26.2953 18.2183 26.2953ZM17.8916 20.3749C17.8916 20.1979 18.041 20.0482 18.2183 20.0482H22.3726C22.5498 20.0482 22.6992 20.1979 22.6992 20.3749V24.9684C22.6992 25.1456 22.5498 25.2953 22.3726 25.2953H18.2183C18.041 25.2953 17.8916 25.1456 17.8916 24.9684V20.3749Z" fill="white"/>
<path d="M25.4141 20.2772H30.9805C31.2568 20.2772 31.4805 20.0533 31.4805 19.7772C31.4805 19.5011 31.2568 19.2772 30.9805 19.2772H25.4141C25.1377 19.2772 24.9141 19.5011 24.9141 19.7772C24.9141 20.0533 25.1377 20.2772 25.4141 20.2772Z" fill="white"/>
<path d="M25.4141 23.2863H30.9805C31.2568 23.2863 31.4805 23.0624 31.4805 22.7863C31.4805 22.5102 31.2568 22.2863 30.9805 22.2863H25.4141C25.1377 22.2863 24.9141 22.5102 24.9141 22.7863C24.9141 23.0624 25.1377 23.2863 25.4141 23.2863Z" fill="white"/>
<path d="M42.5723 39.6988L39.6172 35.919C39.4853 35.7501 39.2954 35.6427 39.082 35.6165C38.8677 35.5904 38.6577 35.6485 38.4893 35.7806L38.056 36.1195L37.4727 35.3741C38.6257 34.1885 39.2925 32.6425 39.3458 30.9783C39.4029 29.2095 38.7676 27.525 37.5572 26.2344C36.5463 25.1569 35.2558 24.5007 33.9024 24.2576V16.1805C33.9024 15.3458 33.2232 14.6668 32.3888 14.6668H31.3297V13.6986C31.3297 12.8639 30.6505 12.1849 29.816 12.1849H13.2558C12.4214 12.1849 11.7422 12.8638 11.7422 13.6986V35.1842C11.7422 36.0189 12.4214 36.6978 13.2558 36.6978H14.3149V37.6678C14.3149 38.5015 14.9941 39.1797 15.8286 39.1797H32.3887C33.2231 39.1797 33.9023 38.5015 33.9023 37.6678V37.2836C34.9268 37.1007 35.8893 36.6768 36.7253 36.0412L37.2686 36.7354L36.8339 37.0755C36.4858 37.3477 36.4233 37.8526 36.6957 38.2017L39.6528 41.9822C39.811 42.1838 40.0473 42.2895 40.2861 42.2893C40.4584 42.2893 40.6328 42.2339 40.7788 42.1196L42.4336 40.8249C42.7822 40.5528 42.8447 40.0477 42.5723 39.6988ZM13.2558 35.6978C12.9726 35.6978 12.7422 35.4674 12.7422 35.1842V13.6986C12.7422 13.4154 12.9726 13.1849 13.2558 13.1849H29.8159C30.0991 13.1849 30.3295 13.4153 30.3295 13.6985V14.6668H15.8286C14.9942 14.6668 14.315 15.3457 14.315 16.1804V35.6978L13.2558 35.6978ZM32.9023 37.6678C32.9023 37.95 32.6719 38.1797 32.3887 38.1797H15.8286C15.5454 38.1797 15.315 37.95 15.315 37.6678V16.1805C15.315 15.8973 15.5454 15.6668 15.8286 15.6668H32.3887C32.6719 15.6668 32.9023 15.8973 32.9023 16.1805V24.149C31.5437 24.1125 30.1772 24.4968 29.0039 25.2952H25.4145C25.1382 25.2952 24.9145 25.5191 24.9145 25.7952C24.9145 26.0713 25.1382 26.2952 25.4145 26.2952H27.8421C27.2896 26.898 26.8666 27.5793 26.5781 28.3043H17.3911C17.1147 28.3043 16.8911 28.5282 16.8911 28.8043C16.8911 29.0804 17.1147 29.3043 17.3911 29.3043H26.2721C26.1243 29.9637 26.0798 30.6411 26.1354 31.3133H17.3911C17.1148 31.3133 16.8911 31.5372 16.8911 31.8133C16.8911 32.0894 17.1148 32.3133 17.3911 32.3133H26.2936C26.4614 33.0142 26.7413 33.6944 27.1414 34.3221H17.3911C17.1148 34.3221 16.8911 34.546 16.8911 34.8221C16.8911 35.0982 17.1148 35.3221 17.3911 35.3221H27.9193C29.1273 36.5964 30.7562 37.3301 32.5127 37.3866C32.6442 37.3905 32.7706 37.3853 32.9024 37.382C32.9023 37.4772 32.9023 37.5725 32.9023 37.6678ZM32.5449 36.387C31.0435 36.3387 29.6504 35.7088 28.623 34.6131C26.5014 32.3511 26.6162 28.7849 28.8779 26.6634C29.9287 25.678 31.2871 25.1416 32.7207 25.1416C32.7822 25.1416 32.8437 25.1426 32.9057 25.1446C34.4072 25.1929 35.8003 25.8228 36.8276 26.9185C38.9492 29.1805 38.8345 32.7467 36.5723 34.8682C35.477 35.8961 34.0537 36.4327 32.5449 36.387ZM40.3183 41.21L37.6054 37.7415L38.9502 36.6895L41.6626 40.1588L40.3183 41.21Z" fill="white"/>
<path d="M36.0003 27.6945C34.3064 25.8895 31.4607 25.7987 29.656 27.4916C27.8499 29.1837 27.7586 32.0306 29.4514 33.8375C30.3333 34.7775 31.5286 35.2526 32.7263 35.2526C33.8279 35.2526 34.9319 34.851 35.7976 34.0402C37.6019 32.347 37.6927 29.5004 36.0003 27.6945ZM35.1136 33.3107C33.7093 34.6273 31.4969 34.556 30.181 33.1537C28.8651 31.7491 28.9363 29.5365 30.3397 28.2211C31.0116 27.5905 31.8695 27.2784 32.7254 27.2784C33.6561 27.2784 34.5853 27.6478 35.2708 28.3783C36.5862 29.7821 36.5154 31.995 35.1136 33.3107Z" fill="white"/>
<path d="M35.3924 30.1693C35.0799 28.7359 33.6585 27.825 32.2249 28.1373C31.9549 28.1961 31.784 28.4625 31.8426 28.7322C31.9017 29.0018 32.1687 29.1722 32.4378 29.1143C33.3377 28.9195 34.2205 29.4886 34.4158 30.3826C34.4666 30.6165 34.6736 30.7762 34.9036 30.7759C34.9388 30.7759 34.9749 30.7723 35.0106 30.7645C35.2805 30.7056 35.4514 30.439 35.3924 30.1693Z" fill="white"/>
</g>
<defs>
<linearGradient id="paint0_linear_2557_2993" x1="0.241212" y1="25.1742" x2="48.9953" y2="25.1742" gradientUnits="userSpaceOnUse">
<stop stop-color="#EF4B4F"/>
<stop offset="1" stop-color="#991F3D"/>
</linearGradient>
<clipPath id="clip0_2557_2993">
<rect width="32" height="32" fill="white" transform="translate(11.2422 11.2374)"/>
</clipPath>
</defs>
</svg>
