<svg width="80" height="81" viewBox="0 0 80 81" fill="none" xmlns="http://www.w3.org/2000/svg">
<path d="M46.25 68.2893H43.75V56.0393C43.75 55.7078 43.6183 55.3898 43.3839 55.1554C43.1495 54.921 42.8315 54.7893 42.5 54.7893C42.1685 54.7893 41.8505 54.921 41.6161 55.1554C41.3817 55.3898 41.25 55.7078 41.25 56.0393V68.2893H8.75V43.2893H19.15C19.4815 43.2893 19.7995 43.1576 20.0339 42.9232C20.2683 42.6888 20.4 42.3708 20.4 42.0393C20.4 41.7078 20.2683 41.3898 20.0339 41.1554C19.7995 40.921 19.4815 40.7893 19.15 40.7893H7.5C7.16848 40.7893 6.85054 40.921 6.61612 41.1554C6.3817 41.3898 6.25 41.7078 6.25 42.0393V68.2893H3.75C3.41848 68.2893 3.10054 68.421 2.86612 68.6554C2.6317 68.8898 2.5 69.2078 2.5 69.5393V72.0393C2.5 73.6969 3.15848 75.2866 4.33058 76.4587C5.50269 77.6308 7.0924 78.2893 8.75 78.2893H41.25C42.9076 78.2893 44.4973 77.6308 45.6694 76.4587C46.8415 75.2866 47.5 73.6969 47.5 72.0393V69.5393C47.5 69.2078 47.3683 68.8898 47.1339 68.6554C46.8995 68.421 46.5815 68.2893 46.25 68.2893ZM45 72.0393C45 73.0339 44.6049 73.9877 43.9016 74.691C43.1984 75.3942 42.2446 75.7893 41.25 75.7893H38.75V74.5393C38.75 74.2078 38.6183 73.8898 38.3839 73.6554C38.1495 73.421 37.8315 73.2893 37.5 73.2893C37.1685 73.2893 36.8505 73.421 36.6161 73.6554C36.3817 73.8898 36.25 74.2078 36.25 74.5393V75.7893H13.75V74.5393C13.75 74.2078 13.6183 73.8898 13.3839 73.6554C13.1495 73.421 12.8315 73.2893 12.5 73.2893C12.1685 73.2893 11.8505 73.421 11.6161 73.6554C11.3817 73.8898 11.25 74.2078 11.25 74.5393V75.7893H8.75C7.75544 75.7893 6.80161 75.3942 6.09835 74.691C5.39509 73.9877 5 73.0339 5 72.0393V70.7893H45V72.0393Z" fill="url(#paint0_linear_2302_16251)"/>
<path d="M67.5 10.7893H70C70.3315 10.7893 70.6495 10.6576 70.8839 10.4232C71.1183 10.1888 71.25 9.87083 71.25 9.53931C71.25 9.20779 71.1183 8.88984 70.8839 8.65542C70.6495 8.421 70.3315 8.28931 70 8.28931H67.5C66.5054 8.28931 65.5516 8.68439 64.8484 9.38766C64.1451 10.0909 63.75 11.0447 63.75 12.0393V13.2893H62.5C62.1685 13.2893 61.8505 13.421 61.6161 13.6554C61.3817 13.8898 61.25 14.2078 61.25 14.5393C61.25 14.8708 61.3817 15.1888 61.6161 15.4232C61.8505 15.6576 62.1685 15.7893 62.5 15.7893H63.75V19.5393C63.75 19.8708 63.8817 20.1888 64.1161 20.4232C64.3505 20.6576 64.6685 20.7893 65 20.7893C65.3315 20.7893 65.6495 20.6576 65.8839 20.4232C66.1183 20.1888 66.25 19.8708 66.25 19.5393V15.7893H67.5C67.8315 15.7893 68.1495 15.6576 68.3839 15.4232C68.6183 15.1888 68.75 14.8708 68.75 14.5393C68.75 14.2078 68.6183 13.8898 68.3839 13.6554C68.1495 13.421 67.8315 13.2893 67.5 13.2893H66.25V12.0393C66.25 11.7078 66.3817 11.3898 66.6161 11.1554C66.8505 10.921 67.1685 10.7893 67.5 10.7893Z" fill="url(#paint1_linear_2302_16251)"/>
<path d="M73.75 3.28931H58.75C57.7554 3.28931 56.8016 3.68439 56.0984 4.38766C55.3951 5.09092 55 6.04474 55 7.03931V9.53931C55 9.87083 55.1317 10.1888 55.3661 10.4232C55.6005 10.6576 55.9185 10.7893 56.25 10.7893C56.5815 10.7893 56.8995 10.6576 57.1339 10.4232C57.3683 10.1888 57.5 9.87083 57.5 9.53931V7.03931C57.5 6.70779 57.6317 6.38984 57.8661 6.15542C58.1005 5.921 58.4185 5.78931 58.75 5.78931H73.75C74.0815 5.78931 74.3995 5.921 74.6339 6.15542C74.8683 6.38984 75 6.70779 75 7.03931V22.0393C75 22.3708 74.8683 22.6888 74.6339 22.9232C74.3995 23.1576 74.0815 23.2893 73.75 23.2893H58.75C58.4185 23.2893 58.1005 23.1576 57.8661 22.9232C57.6317 22.6888 57.5 22.3708 57.5 22.0393V14.5393C57.5 14.2078 57.3683 13.8898 57.1339 13.6554C56.8995 13.421 56.5815 13.2893 56.25 13.2893C55.9185 13.2893 55.6005 13.421 55.3661 13.6554C55.1317 13.8898 55 14.2078 55 14.5393V22.0393C55 23.0339 55.3951 23.9877 56.0984 24.691C56.8016 25.3942 57.7554 25.7893 58.75 25.7893H73.75C74.7446 25.7893 75.6984 25.3942 76.4016 24.691C77.1049 23.9877 77.5 23.0339 77.5 22.0393V7.03931C77.5 6.04474 77.1049 5.09092 76.4016 4.38766C75.6984 3.68439 74.7446 3.28931 73.75 3.28931Z" fill="url(#paint2_linear_2302_16251)"/>
<path d="M61.25 53.2893C61.25 54.2782 61.5432 55.2449 62.0927 56.0672C62.6421 56.8894 63.423 57.5303 64.3366 57.9087C65.2502 58.2871 66.2555 58.3862 67.2255 58.1932C68.1954 58.0003 69.0863 57.5241 69.7855 56.8248C70.4848 56.1256 70.961 55.2347 71.1539 54.2648C71.3469 53.2949 71.2478 52.2895 70.8694 51.3759C70.491 50.4623 69.8501 49.6814 69.0279 49.132C68.2056 48.5826 67.2389 48.2893 66.25 48.2893C64.9239 48.2893 63.6521 48.8161 62.7145 49.7538C61.7768 50.6915 61.25 51.9632 61.25 53.2893ZM68.75 53.2893C68.75 53.7838 68.6034 54.2671 68.3287 54.6782C68.054 55.0894 67.6635 55.4098 67.2067 55.599C66.7499 55.7882 66.2472 55.8377 65.7623 55.7413C65.2773 55.6448 64.8319 55.4067 64.4822 55.0571C64.1326 54.7074 63.8945 54.262 63.798 53.777C63.7016 53.2921 63.7511 52.7894 63.9403 52.3326C64.1295 51.8758 64.45 51.4853 64.8611 51.2106C65.2722 50.9359 65.7555 50.7893 66.25 50.7893C66.913 50.7893 67.5489 51.0527 68.0178 51.5215C68.4866 51.9904 68.75 52.6263 68.75 53.2893Z" fill="url(#paint3_linear_2302_16251)"/>
<path d="M73.75 42.0393H58.75C57.7554 42.0393 56.8016 42.4344 56.0984 43.1377C55.3951 43.8409 55 44.7947 55 45.7893V60.7893C55 61.7839 55.3951 62.7377 56.0984 63.441C56.8016 64.1442 57.7554 64.5393 58.75 64.5393H73.75C74.7446 64.5393 75.6984 64.1442 76.4016 63.441C77.1049 62.7377 77.5 61.7839 77.5 60.7893V58.2893C77.5 57.9578 77.3683 57.6398 77.1339 57.4054C76.8995 57.171 76.5815 57.0393 76.25 57.0393C75.9185 57.0393 75.6005 57.171 75.3661 57.4054C75.1317 57.6398 75 57.9578 75 58.2893V60.7893C75 61.1208 74.8683 61.4388 74.6339 61.6732C74.3995 61.9076 74.0815 62.0393 73.75 62.0393H58.75C58.4185 62.0393 58.1005 61.9076 57.8661 61.6732C57.6317 61.4388 57.5 61.1208 57.5 60.7893V45.7893C57.5 45.4578 57.6317 45.1398 57.8661 44.9054C58.1005 44.671 58.4185 44.5393 58.75 44.5393H73.75C74.0815 44.5393 74.3995 44.671 74.6339 44.9054C74.8683 45.1398 75 45.4578 75 45.7893V53.2893C75 53.6208 75.1317 53.9388 75.3661 54.1732C75.6005 54.4076 75.9185 54.5393 76.25 54.5393C76.5815 54.5393 76.8995 54.4076 77.1339 54.1732C77.3683 53.9388 77.5 53.6208 77.5 53.2893V45.7893C77.5 44.7947 77.1049 43.8409 76.4016 43.1377C75.6984 42.4344 74.7446 42.0393 73.75 42.0393Z" fill="url(#paint4_linear_2302_16251)"/>
<path d="M30.5875 18.1018C30.7864 18.2251 31.016 18.2901 31.25 18.2893C31.4457 18.2881 31.6384 18.241 31.8125 18.1518L39.3125 14.4018C39.5173 14.2969 39.6891 14.1375 39.8091 13.9413C39.9291 13.745 39.9926 13.5194 39.9926 13.2893C39.9926 13.0592 39.9291 12.8337 39.8091 12.6374C39.6891 12.4411 39.5173 12.2817 39.3125 12.1768L31.8125 8.42681C31.6222 8.33092 31.4106 8.28527 31.1977 8.29419C30.9848 8.3031 30.7777 8.3663 30.5961 8.47776C30.4145 8.58923 30.2644 8.74527 30.1601 8.93106C30.0558 9.11685 30.0006 9.32623 30 9.53931V17.0393C29.9996 17.2517 30.0533 17.4608 30.1561 17.6467C30.2589 17.8326 30.4074 17.9892 30.5875 18.1018ZM32.5 11.5643L35.95 13.2893L32.5 15.0143V11.5643Z" fill="url(#paint5_linear_2302_16251)"/>
<path d="M33.75 24.5393C35.975 24.5393 38.1501 23.8795 40.0002 22.6433C41.8502 21.4072 43.2922 19.6502 44.1436 17.5945C44.9951 15.5388 45.2179 13.2768 44.7838 11.0945C44.3498 8.91226 43.2783 6.9077 41.705 5.33436C40.1316 3.76102 38.1271 2.68956 35.9448 2.25548C33.7625 1.82139 31.5005 2.04418 29.4448 2.89567C27.3891 3.74715 25.6321 5.18909 24.396 7.03915C23.1598 8.8892 22.5 11.0643 22.5 13.2893C22.5 16.273 23.6853 19.1345 25.795 21.2443C27.9048 23.354 30.7663 24.5393 33.75 24.5393ZM33.75 4.53931C35.4806 4.53931 37.1723 5.05249 38.6112 6.01395C40.0502 6.97542 41.1717 8.34198 41.8339 9.94083C42.4962 11.5397 42.6695 13.299 42.3319 14.9964C41.9943 16.6937 41.1609 18.2528 39.9372 19.4765C38.7135 20.7002 37.1544 21.5336 35.457 21.8712C33.7597 22.2088 32.0004 22.0355 30.4015 21.3733C28.8027 20.711 27.4361 19.5895 26.4746 18.1506C25.5132 16.7116 25 15.0199 25 13.2893C25 10.9687 25.9219 8.74307 27.5628 7.10213C29.2038 5.46118 31.4294 4.53931 33.75 4.53931Z" fill="url(#paint6_linear_2302_16251)"/>
<path d="M46.25 29.5393C46.4441 29.5393 46.6354 29.4941 46.809 29.4073C46.9826 29.3206 47.1336 29.1946 47.25 29.0393L51 24.0393C51.1989 23.7741 51.2843 23.4407 51.2374 23.1125C51.1906 22.7843 51.0152 22.4882 50.75 22.2893C50.4848 22.0904 50.1514 22.005 49.8232 22.0519C49.495 22.0988 49.1989 22.2741 49 22.5393L45.25 27.5393C45.0511 27.8045 44.9657 28.1379 45.0126 28.4661C45.0595 28.7943 45.2348 29.0904 45.5 29.2893C45.7164 29.4516 45.9795 29.5393 46.25 29.5393Z" fill="url(#paint7_linear_2302_16251)"/>
<path d="M49 34.0393C49.1164 34.1946 49.2674 34.3206 49.441 34.4073C49.6146 34.4941 49.8059 34.5393 50 34.5393C50.2705 34.5393 50.5336 34.4516 50.75 34.2893L55.75 30.5393C56.0152 30.3404 56.1906 30.0443 56.2374 29.7161C56.2843 29.3879 56.1989 29.0545 56 28.7893C55.8011 28.5241 55.505 28.3488 55.1768 28.3019C54.8486 28.255 54.5152 28.3404 54.25 28.5393L49.25 32.2893C48.9848 32.4882 48.8095 32.7843 48.7626 33.1125C48.7157 33.4407 48.8011 33.7741 49 34.0393Z" fill="url(#paint8_linear_2302_16251)"/>
<path d="M61.2484 36.7893C61.2187 36.6236 61.1558 36.4656 61.0636 36.3248C60.9713 36.1839 60.8515 36.0632 60.7114 35.9698C60.5713 35.8764 60.4138 35.8123 60.2483 35.7813C60.0829 35.7503 59.9128 35.753 59.7484 35.7893L53.4984 37.0393C53.3343 37.0557 53.175 37.1043 53.0296 37.1823C52.8842 37.2603 52.7556 37.3661 52.6512 37.4938C52.4402 37.7517 52.3403 38.0828 52.3734 38.4143C52.4066 38.7458 52.5701 39.0506 52.8279 39.2616C53.0858 39.4726 53.4169 39.5725 53.7484 39.5393H53.9984L60.2484 38.2893C60.4141 38.2596 60.5722 38.1967 60.713 38.1044C60.8538 38.0122 60.9745 37.8924 61.0679 37.7523C61.1613 37.6122 61.2254 37.4547 61.2564 37.2892C61.2875 37.1237 61.2847 36.9537 61.2484 36.7893Z" fill="url(#paint9_linear_2302_16251)"/>
<path d="M3.75 37.0393H18.75C19.0815 37.0393 19.3995 36.9076 19.6339 36.6732C19.8683 36.4388 20 36.1208 20 35.7893V15.7893C20 15.4578 19.8683 15.1398 19.6339 14.9054C19.3995 14.671 19.0815 14.5393 18.75 14.5393H3.75C3.41848 14.5393 3.10054 14.671 2.86612 14.9054C2.6317 15.1398 2.5 15.4578 2.5 15.7893V35.7893C2.5 36.1208 2.6317 36.4388 2.86612 36.6732C3.10054 36.9076 3.41848 37.0393 3.75 37.0393ZM5 17.0393H17.5V34.5393H5V17.0393Z" fill="url(#paint10_linear_2302_16251)"/>
<path d="M13.75 19.5393H11.25C10.9185 19.5393 10.6005 19.671 10.3661 19.9054C10.1317 20.1398 10 20.4578 10 20.7893C10 21.1208 10.1317 21.4388 10.3661 21.6732C10.6005 21.9076 10.9185 22.0393 11.25 22.0393H13.75C14.0815 22.0393 14.3995 21.9076 14.6339 21.6732C14.8683 21.4388 15 21.1208 15 20.7893C15 20.4578 14.8683 20.1398 14.6339 19.9054C14.3995 19.671 14.0815 19.5393 13.75 19.5393Z" fill="url(#paint11_linear_2302_16251)"/>
<path d="M13.75 24.5393H8.75C8.41848 24.5393 8.10054 24.671 7.86612 24.9054C7.6317 25.1398 7.5 25.4578 7.5 25.7893C7.5 26.1208 7.6317 26.4388 7.86612 26.6732C8.10054 26.9076 8.41848 27.0393 8.75 27.0393H13.75C14.0815 27.0393 14.3995 26.9076 14.6339 26.6732C14.8683 26.4388 15 26.1208 15 25.7893C15 25.4578 14.8683 25.1398 14.6339 24.9054C14.3995 24.671 14.0815 24.5393 13.75 24.5393Z" fill="url(#paint12_linear_2302_16251)"/>
<path d="M13.75 29.5393H8.75C8.41848 29.5393 8.10054 29.671 7.86612 29.9054C7.6317 30.1398 7.5 30.4578 7.5 30.7893C7.5 31.1208 7.6317 31.4388 7.86612 31.6732C8.10054 31.9076 8.41848 32.0393 8.75 32.0393H13.75C14.0815 32.0393 14.3995 31.9076 14.6339 31.6732C14.8683 31.4388 15 31.1208 15 30.7893C15 30.4578 14.8683 30.1398 14.6339 29.9054C14.3995 29.671 14.0815 29.5393 13.75 29.5393Z" fill="url(#paint13_linear_2302_16251)"/>
<path d="M45.1505 36.6644C45.0684 36.5215 44.959 36.3963 44.8286 36.2958C44.6981 36.1952 44.5491 36.1214 44.3901 36.0784C44.231 36.0355 44.0651 36.0243 43.9018 36.0455C43.7384 36.0666 43.5808 36.1198 43.438 36.2019C43.2952 36.2839 43.17 36.3933 43.0694 36.5238C42.9689 36.6543 42.8951 36.8033 42.8521 36.9623C42.8092 37.1213 42.798 37.2873 42.8191 37.4506C42.8403 37.614 42.8934 37.7715 42.9755 37.9144L48.488 47.4519L28.488 54.9519C28.488 54.9519 28.488 54.9519 28.4005 54.9519H28.3005L25.0505 56.8269L22.888 58.0769C22.6033 58.2414 22.289 58.3482 21.9629 58.3911C21.6369 58.434 21.3056 58.4122 20.988 58.3269C20.35 58.1545 19.8062 57.7365 19.4755 57.1644L16.9755 52.8394C16.6814 52.2735 16.6147 51.6166 16.7889 51.0032C16.9632 50.3897 17.3653 49.8661 17.913 49.5394L22.238 47.0394L25.363 52.4519C25.4732 52.6426 25.6317 52.8009 25.8227 52.9106C26.0137 53.0204 26.2303 53.0777 26.4505 53.0769C26.6704 53.0777 26.8865 53.0206 27.0773 52.9113C27.268 52.8019 27.4265 52.6442 27.5368 52.454C27.6471 52.2638 27.7053 52.0479 27.7055 51.8281C27.7057 51.6083 27.6479 51.3922 27.538 51.2019L24.313 45.6269L40.0005 32.6894L40.513 33.5769C40.5951 33.7197 40.7045 33.8449 40.835 33.9454C40.9655 34.046 41.1145 34.1198 41.2735 34.1628C41.4325 34.2057 41.5984 34.2169 41.7618 34.1957C41.9251 34.1746 42.0827 34.1214 42.2255 34.0394C42.3683 33.9573 42.4936 33.8479 42.5941 33.7174C42.6946 33.5869 42.7685 33.4379 42.8114 33.2789C42.8544 33.1199 42.8656 32.9539 42.8444 32.7906C42.8232 32.6272 42.7701 32.4697 42.688 32.3269L41.438 30.1644C41.3464 30.0077 41.2218 29.8729 41.0729 29.7693C40.9239 29.6657 40.7542 29.5958 40.5755 29.5644C40.3959 29.5305 40.211 29.5364 40.0339 29.5818C39.8568 29.6272 39.6918 29.7108 39.5505 29.8269L22.0505 44.2519L16.7255 47.3269C15.7699 47.8835 15.0258 48.7412 14.6096 49.7658C14.1935 50.7904 14.1287 51.924 14.4255 52.9894L13.1755 53.7019C12.5315 54.0717 12.0117 54.6245 11.6822 55.2901C11.3527 55.9557 11.2283 56.7041 11.3247 57.4406C11.4211 58.177 11.734 58.8682 12.2237 59.4265C12.7135 59.9849 13.358 60.3853 14.0755 60.5769C14.3936 60.6611 14.7214 60.7031 15.0505 60.7019C15.7081 60.6991 16.3539 60.5269 16.9255 60.2019L18.1755 59.4894C18.776 60.1097 19.5311 60.5584 20.363 60.7894C20.7902 60.9088 21.232 60.9677 21.6755 60.9644C22.5541 60.9664 23.4173 60.7333 24.1755 60.2894L25.263 59.6644L27.763 64.0019C28.2599 64.8608 29.0769 65.4879 30.0352 65.7456C30.9935 66.0033 32.0148 65.8707 32.8755 65.3769C33.3025 65.1308 33.6768 64.803 33.9771 64.4123C34.2773 64.0215 34.4976 63.5753 34.6253 63.0993C34.753 62.6234 34.7856 62.1269 34.7213 61.6383C34.657 61.1497 34.497 60.6786 34.2505 60.2519L31.9755 56.2894L50.7255 49.2519C50.8956 49.1879 51.0496 49.0877 51.177 48.9582C51.3044 48.8287 51.402 48.6729 51.463 48.5019C51.5239 48.3328 51.5475 48.1526 51.5324 47.9736C51.5173 47.7945 51.4638 47.6208 51.3755 47.4644L45.1505 36.6644ZM15.6255 58.0269C15.4832 58.1091 15.326 58.1625 15.163 58.184C15 58.2054 14.8343 58.1945 14.6755 58.1519C14.3553 58.0687 14.0811 57.8619 13.913 57.5769C13.8307 57.4345 13.7773 57.2773 13.7559 57.1143C13.7344 56.9513 13.7454 56.7856 13.788 56.6269C13.8307 56.4672 13.9046 56.3177 14.0054 56.1868C14.1063 56.0559 14.2321 55.9463 14.3755 55.8644L15.463 55.2394L16.713 57.4019L15.6255 58.0269ZM32.0755 61.5269C32.1578 61.6692 32.2112 61.8264 32.2327 61.9894C32.2541 62.1524 32.2432 62.3181 32.2005 62.4769C32.1114 62.7946 31.9002 63.0642 31.613 63.2269C31.3275 63.3909 30.9888 63.4356 30.6705 63.3513C30.3522 63.2671 30.08 63.0606 29.913 62.7769L27.413 58.4394L29.488 57.2519H29.588L32.0755 61.5269Z" fill="url(#paint14_linear_2302_16251)"/>
<defs>
<linearGradient id="paint0_linear_2302_16251" x1="2.5" y1="59.5393" x2="47.5" y2="59.5393" gradientUnits="userSpaceOnUse">
<stop stop-color="#991F3D"/>
<stop offset="1" stop-color="#E7474D"/>
</linearGradient>
<linearGradient id="paint1_linear_2302_16251" x1="61.25" y1="14.5393" x2="71.25" y2="14.5393" gradientUnits="userSpaceOnUse">
<stop stop-color="#991F3D"/>
<stop offset="1" stop-color="#E7474D"/>
</linearGradient>
<linearGradient id="paint2_linear_2302_16251" x1="55" y1="14.5393" x2="77.5" y2="14.5393" gradientUnits="userSpaceOnUse">
<stop stop-color="#991F3D"/>
<stop offset="1" stop-color="#E7474D"/>
</linearGradient>
<linearGradient id="paint3_linear_2302_16251" x1="61.25" y1="53.2893" x2="71.25" y2="53.2893" gradientUnits="userSpaceOnUse">
<stop stop-color="#991F3D"/>
<stop offset="1" stop-color="#E7474D"/>
</linearGradient>
<linearGradient id="paint4_linear_2302_16251" x1="55" y1="53.2893" x2="77.5" y2="53.2893" gradientUnits="userSpaceOnUse">
<stop stop-color="#991F3D"/>
<stop offset="1" stop-color="#E7474D"/>
</linearGradient>
<linearGradient id="paint5_linear_2302_16251" x1="30" y1="13.2912" x2="39.9926" y2="13.2912" gradientUnits="userSpaceOnUse">
<stop stop-color="#991F3D"/>
<stop offset="1" stop-color="#E7474D"/>
</linearGradient>
<linearGradient id="paint6_linear_2302_16251" x1="22.5" y1="13.2893" x2="45" y2="13.2893" gradientUnits="userSpaceOnUse">
<stop stop-color="#991F3D"/>
<stop offset="1" stop-color="#E7474D"/>
</linearGradient>
<linearGradient id="paint7_linear_2302_16251" x1="45" y1="25.7893" x2="51.25" y2="25.7893" gradientUnits="userSpaceOnUse">
<stop stop-color="#991F3D"/>
<stop offset="1" stop-color="#E7474D"/>
</linearGradient>
<linearGradient id="paint8_linear_2302_16251" x1="48.75" y1="31.4143" x2="56.25" y2="31.4143" gradientUnits="userSpaceOnUse">
<stop stop-color="#991F3D"/>
<stop offset="1" stop-color="#E7474D"/>
</linearGradient>
<linearGradient id="paint9_linear_2302_16251" x1="52.3672" y1="37.6527" x2="61.2778" y2="37.6527" gradientUnits="userSpaceOnUse">
<stop stop-color="#991F3D"/>
<stop offset="1" stop-color="#E7474D"/>
</linearGradient>
<linearGradient id="paint10_linear_2302_16251" x1="2.5" y1="25.7893" x2="20" y2="25.7893" gradientUnits="userSpaceOnUse">
<stop stop-color="#991F3D"/>
<stop offset="1" stop-color="#E7474D"/>
</linearGradient>
<linearGradient id="paint11_linear_2302_16251" x1="10" y1="20.7893" x2="15" y2="20.7893" gradientUnits="userSpaceOnUse">
<stop stop-color="#991F3D"/>
<stop offset="1" stop-color="#E7474D"/>
</linearGradient>
<linearGradient id="paint12_linear_2302_16251" x1="7.5" y1="25.7893" x2="15" y2="25.7893" gradientUnits="userSpaceOnUse">
<stop stop-color="#991F3D"/>
<stop offset="1" stop-color="#E7474D"/>
</linearGradient>
<linearGradient id="paint13_linear_2302_16251" x1="7.5" y1="30.7893" x2="15" y2="30.7893" gradientUnits="userSpaceOnUse">
<stop stop-color="#991F3D"/>
<stop offset="1" stop-color="#E7474D"/>
</linearGradient>
<linearGradient id="paint14_linear_2302_16251" x1="11.293" y1="47.7085" x2="51.5369" y2="47.7085" gradientUnits="userSpaceOnUse">
<stop stop-color="#991F3D"/>
<stop offset="1" stop-color="#E7474D"/>
</linearGradient>
</defs>
</svg>
