<svg width="80" height="81" viewBox="0 0 80 81" fill="none" xmlns="http://www.w3.org/2000/svg">
<g clip-path="url(#clip0_2302_16036)">
<path d="M68.2153 35.9809C67.302 35.2608 66.103 35.1641 65.0861 35.7297L61.383 37.7894C60.7262 38.1547 60.3083 38.7931 60.2361 39.5406C60.2291 39.6133 60.2283 39.6851 60.228 39.757L58.4317 40.7561C55.9267 42.1492 53.2422 42.3897 50.4523 41.47C46.9286 40.3087 43.1551 40.9584 39.2364 43.4014L39.1311 43.467C35.9737 41.4662 33.1411 41.7114 30.3962 41.9495C27.5078 42.2001 24.5217 42.4591 20.6125 40.2601L19.775 39.7891C19.7758 39.7069 19.7739 39.6241 19.7658 39.5405C19.6933 38.7926 19.2751 38.1544 18.6187 37.7892L14.9155 35.7294C13.8989 35.1644 12.6998 35.2605 11.7864 35.9808C5.72092 40.7648 2.34639 49.267 3.76248 56.1972C3.95201 57.1236 4.55967 57.8667 5.42967 58.2361L8.33342 59.4692C8.62233 59.5917 8.92233 59.6525 9.21983 59.6525C9.64717 59.6525 10.0698 59.5272 10.447 59.2805C10.5619 59.2053 10.6647 59.119 10.7617 59.0281L17.6448 62.5766L19.6747 64.7609L19.5705 64.9414C19.0259 65.8847 18.882 66.9867 19.1653 68.0444C19.4487 69.102 20.1244 69.9844 21.0678 70.5291C21.6834 70.8844 22.3672 71.0689 23.0625 71.075C22.8319 71.8081 22.8139 72.5947 23.0184 73.358C23.3019 74.4156 23.9775 75.298 24.9209 75.8426C26.2281 76.5973 27.7833 76.5464 29.0073 75.8439C29.3517 76.658 29.9464 77.3341 30.722 77.7819C31.6644 78.3258 32.7664 78.4695 33.8247 78.1858C34.2364 78.0755 34.6215 77.9059 34.9705 77.6844C35.3205 78.4525 35.8972 79.0905 36.6398 79.5192C37.2661 79.8806 37.9626 80.0655 38.6701 80.0653C39.0273 80.0653 39.3875 80.0183 39.7425 79.9231C40.8008 79.6397 41.6834 78.9644 42.2275 78.022L42.2522 77.9794L43.0434 78.4244C43.949 78.9472 44.8022 79.1683 45.5697 79.1683C47.0309 79.1683 48.1806 78.3664 48.7848 77.3197C49.0858 76.7986 49.263 76.1914 49.2848 75.568C50.8551 75.8236 52.4934 75.1072 53.3351 73.6497C53.7722 72.8926 53.9283 72.0494 53.8366 71.2409C55.24 71.2187 56.5987 70.4833 57.3501 69.1817C57.8333 68.3448 57.9878 67.4073 57.8558 66.5184C58.1684 66.5075 58.4823 66.4631 58.7923 66.3798C59.8587 66.0942 60.7486 65.413 61.2976 64.4619C61.6794 63.8006 61.8639 63.0353 61.8403 62.2701L69.1141 58.9048C69.2422 59.0453 69.3889 59.172 69.5548 59.2806C69.9317 59.5272 70.354 59.6525 70.7817 59.6525C71.0794 59.6525 71.3794 59.5917 71.6684 59.4692L74.572 58.2361C75.4419 57.8666 76.0497 57.1234 76.2392 56.197C77.6553 49.267 74.2809 40.7648 68.2153 35.9808V35.9809ZM9.24889 57.4501C9.22108 57.4683 9.21873 57.4687 9.18826 57.4556L6.28467 56.2225C6.07233 56.1323 5.95186 55.985 5.90561 55.7591C4.64576 49.5944 7.68858 41.9987 13.1409 37.6983C13.2631 37.6019 13.3969 37.5533 13.5334 37.5533C13.6394 37.5533 13.7469 37.5825 13.8523 37.6411L17.5555 39.7008C17.5756 39.712 17.5814 39.7195 17.5814 39.7195C17.5814 39.7195 17.5861 39.7281 17.5883 39.7508C17.5906 39.7736 17.5876 39.7826 17.5876 39.7826C17.5876 39.7826 17.5833 39.7912 17.5653 39.8062C12.2145 44.3111 9.34858 50.3939 9.2778 57.3966C9.27748 57.4298 9.27639 57.432 9.24873 57.45L9.24889 57.4501ZM22.1617 68.6345C21.7244 68.382 21.4106 67.9714 21.2786 67.4781C21.1464 66.985 21.2126 66.4723 21.4651 66.0351L23.6189 62.3045C23.8708 61.8681 24.2815 61.555 24.7755 61.4225C25.2698 61.2898 25.782 61.3559 26.2183 61.6081C27.1269 62.1326 27.4394 63.2984 26.9151 64.2072L24.7606 67.9387C24.2358 68.8472 23.07 69.159 22.1615 68.6345H22.1617ZM28.6145 73.2515C28.0895 74.1605 26.9231 74.4728 26.0147 73.9483C25.5773 73.6958 25.2636 73.2851 25.1315 72.7919C24.9994 72.2987 25.0656 71.7861 25.3181 71.3489L26.6148 69.1025L26.653 69.0364C26.6539 69.035 26.6547 69.0334 26.6556 69.0319C26.6556 69.0317 26.6558 69.0314 26.6559 69.0311L28.8089 65.302C28.8089 65.302 28.8092 65.3017 28.8092 65.3014C29.0611 64.8648 29.472 64.5516 29.9659 64.4192C30.4606 64.2864 30.9723 64.3526 31.4086 64.6047C32.3172 65.1292 32.6297 66.295 32.1055 67.2039C32.1055 67.2039 32.1055 67.2042 32.1051 67.2044C32.105 67.2047 32.1048 67.2051 32.1045 67.2056L29.0787 72.4464L28.614 73.2515H28.6145ZM33.2587 76.0731C32.7642 76.2058 32.2522 76.1397 31.8159 75.8875C31.3786 75.635 31.0648 75.2244 30.9328 74.7311C30.8006 74.238 30.8669 73.7253 31.1194 73.2881C31.3719 72.8509 34.0033 68.293 34.0033 68.293C34.2555 67.8594 34.6648 67.548 35.157 67.4162C35.6506 67.2839 36.1634 67.3497 36.5997 67.6015C37.5078 68.1261 37.8206 69.2912 37.2972 70.1998C37.2969 70.2003 37.2965 70.2009 37.2962 70.2014C37.2959 70.2019 37.2958 70.2025 37.2955 70.203L34.8678 74.4078L34.4155 75.1912C34.1636 75.6276 33.7526 75.9409 33.2587 76.0734V76.0731ZM40.3331 76.9286C40.0812 77.365 39.6705 77.6781 39.1765 77.8106C38.6822 77.9433 38.17 77.8772 37.7337 77.625C37.2964 77.3725 36.9826 76.9619 36.8506 76.4686C36.7184 75.9755 36.7847 75.4628 37.0372 75.0256C37.0372 75.0255 37.0373 75.0251 37.0375 75.025L39.1917 71.2936C39.7167 70.3861 40.882 70.0742 41.7903 70.5986C42.2276 70.8511 42.5414 71.2617 42.6734 71.755C42.8058 72.2483 42.7394 72.7609 42.4869 73.1981L40.3331 76.9286ZM59.4034 63.3683C59.1464 63.8134 58.7286 64.1326 58.2265 64.2672C57.7244 64.4017 57.203 64.3345 56.7576 64.0772L55.8431 63.5492C55.8423 63.5487 55.8416 63.5483 55.8408 63.5478C55.8403 63.5476 55.84 63.5475 55.8395 63.5472L53.5778 62.2414C53.0544 61.9397 52.3858 62.1187 52.0837 62.6417C51.7817 63.1648 51.9611 63.8337 52.4841 64.1358L54.7481 65.443C55.6722 65.9772 55.9897 67.1634 55.4559 68.0881C54.922 69.0131 53.735 69.3306 52.81 68.7972L51.8987 68.2709C51.8969 68.2698 51.895 68.2686 51.8931 68.2675C51.8912 68.2664 50.8392 67.659 50.8392 67.659C50.3161 67.3569 49.6472 67.5361 49.3451 68.0594C49.043 68.5825 49.2222 69.2514 49.7455 69.5534L50.7994 70.162C51.6362 70.6451 51.924 71.7192 51.4408 72.5559C50.9575 73.3928 49.8836 73.6805 49.047 73.1975L47.3384 72.2109C46.8153 71.9092 46.1464 72.088 45.8444 72.6112C45.5422 73.1344 45.7214 73.8033 46.2445 74.1053L46.2495 74.1083C47.2087 74.6651 47.2547 75.5959 46.8908 76.2262C46.4944 76.9131 45.5626 77.3531 44.1267 76.524L43.3464 76.0853L44.3817 74.292C45.5095 72.3386 44.8378 69.8319 42.8844 68.704C41.86 68.1128 40.6839 68.0164 39.6344 68.3395C39.3895 67.2687 38.7176 66.2986 37.6937 65.7072C36.7512 65.1631 35.6494 65.0201 34.5909 65.3033C34.5419 65.3166 34.493 65.3306 34.4444 65.3455C34.2001 64.2736 33.528 63.3022 32.503 62.7105C31.5606 62.1666 30.459 62.0236 29.4003 62.3065C29.3506 62.32 29.3012 62.3342 29.2523 62.3491C29.2408 62.2989 29.2284 62.2486 29.215 62.1986C28.9315 61.1408 28.2559 60.2584 27.3125 59.7137C26.3701 59.1698 25.2683 59.0259 24.2098 59.3098C23.1515 59.5933 22.2689 60.2686 21.7248 61.2109L20.8197 62.7789L19.1178 60.9475C19.0317 60.8548 18.9301 60.778 18.8176 60.72L11.4767 56.9356C11.6575 50.8276 14.0915 45.7069 18.7161 41.7031L19.5406 42.1669C24.0389 44.6967 27.517 44.395 30.5856 44.1289C32.9345 43.9251 34.8795 43.7573 37.0155 44.7864L29.499 49.4728C28.5397 50.0709 27.9736 50.9645 27.9048 51.9889C27.83 53.1011 28.3725 54.2797 29.3203 55.0647C32.63 57.805 35.6839 56.313 38.3783 54.9966C40.0653 54.1725 41.8098 53.3201 43.7267 53.3087H43.7664C45.8612 53.3087 47.5612 54.2922 49.3601 55.333L58.6456 60.6941C59.2817 61.1601 59.4131 61.4539 59.605 61.9487C59.7191 62.4334 59.6469 62.948 59.404 63.3684L59.4034 63.3683ZM59.7883 58.8278L50.4553 53.4394C48.472 52.292 46.4251 51.0997 43.7136 51.1212C41.2975 51.1356 39.2362 52.1425 37.4176 53.0311C34.5561 54.4291 32.8339 55.1344 30.7151 53.3797C30.3056 53.0406 30.059 52.5522 30.087 52.1355C30.1083 51.8183 30.2944 51.5545 30.6559 51.3292L40.3937 45.2578C43.7825 43.145 46.8489 42.5853 49.7676 43.5476C53.1136 44.6503 56.4773 44.3462 59.4951 42.6676L61.2639 41.6839C65.8609 45.6542 68.3008 50.7247 68.5208 56.7695L61.1636 60.1734C60.9023 59.773 60.5167 59.3455 59.8801 58.8873C59.8506 58.8659 59.8197 58.8461 59.7881 58.8278H59.7883ZM74.0961 55.7591C74.0498 55.9851 73.9295 56.1325 73.717 56.2226L70.8137 57.4556C70.7826 57.4691 70.7811 57.4687 70.753 57.4505C70.7251 57.4323 70.7241 57.4301 70.7237 57.3972C70.653 50.3942 67.787 44.3114 62.4359 39.8064C62.4209 39.7937 62.415 39.785 62.4141 39.7831C62.4133 39.7809 62.4116 39.7706 62.4134 39.7511C62.4153 39.7316 62.4191 39.7217 62.4201 39.7198C62.4216 39.718 62.4292 39.7105 62.4461 39.7011L66.1491 37.6416C66.2547 37.5828 66.3622 37.5537 66.4681 37.5537C66.6047 37.5537 66.7383 37.6023 66.8606 37.6987C72.313 41.9991 75.3558 49.5948 74.0959 55.7594L74.0961 55.7591ZM29.849 23.9786C31.2694 25.96 32.4958 27.6711 32.4958 30.1958V33.2706C32.4958 34.9934 33.8031 36.4155 35.4776 36.5997V37.9189C35.4776 39.4742 36.7431 40.7397 38.2984 40.7397H41.703C43.2583 40.7397 44.5237 39.4742 44.5237 37.9189V36.5997C46.1983 36.4155 47.5056 34.9934 47.5056 33.2706V30.1958C47.5056 27.6712 48.7322 25.9601 50.1523 23.9787C51.9169 21.517 53.9169 18.727 53.9169 13.8945C53.9169 10.0011 52.3887 6.72608 49.4975 4.4239C46.979 2.41858 43.6064 1.31421 40.0008 1.31421C36.3951 1.31421 33.0225 2.41858 30.5042 4.4239C27.613 6.72608 26.0848 10.0011 26.0848 13.8945C26.0848 18.727 28.0847 21.517 29.849 23.9786ZM41.703 38.5522H38.2984C37.9551 38.5522 37.6651 38.2623 37.6651 37.9189V36.6209H42.3362V37.9189C42.3362 38.2622 42.0464 38.5522 41.703 38.5522ZM44.1551 34.4336H35.8461C35.2048 34.4336 34.6833 33.9119 34.6833 33.2708V32.1528H45.318V33.2708C45.318 33.912 44.7962 34.4336 44.1551 34.4336ZM41 29.9651H39.0012V21.9331C39.6565 22.0048 40.3448 22.0048 41 21.9331V29.9651ZM40.0006 3.50171C45.6494 3.50171 51.7292 6.7539 51.7292 13.8947C51.7292 18.0242 50.0237 20.4034 48.3742 22.7045C46.9078 24.7503 45.3934 26.8645 45.3214 29.9653H43.1873V21.6856C43.1873 21.5901 43.1878 21.4958 43.1889 21.4022C45.0411 20.682 46.5406 19.3298 47.3789 17.5323C48.3726 15.4017 48.365 13.4926 47.358 12.4251C46.6956 11.7231 45.7275 11.5312 44.7691 11.9122C43.1556 12.5533 41.444 14.9378 41.0733 19.7123C40.7058 19.772 40.3445 19.7998 40.0006 19.7998C39.6567 19.7998 39.2953 19.772 38.928 19.7123C38.5572 14.9378 36.8456 12.5533 35.2322 11.9122C34.2734 11.5312 33.3053 11.7231 32.6433 12.4251C31.6364 13.4925 31.6286 15.4017 32.6223 17.5323C33.4606 19.3298 34.9603 20.6819 36.8123 21.4022C36.8134 21.4959 36.8139 21.5901 36.8139 21.6856V29.9653H34.6798C34.6078 26.8645 33.0933 24.7501 31.627 22.7044C29.9776 20.4034 28.2722 18.0242 28.2722 13.8947C28.2722 6.75405 34.3519 3.50171 40.0006 3.50171ZM43.3575 18.8823C43.7203 16.1148 44.6 14.5694 45.379 14.0516C45.562 13.9298 45.6817 13.9087 45.7286 13.9087C45.7395 13.9087 45.7465 13.91 45.7497 13.9112C45.7589 13.9151 45.8061 13.9573 45.8514 14.0769C46.0087 14.4916 45.9719 15.3742 45.3965 16.6076C44.9167 17.6367 44.1858 18.3759 43.3575 18.8823ZM36.6436 18.8823C35.8151 18.3761 35.0845 17.6367 34.6045 16.6075C34.0292 15.3739 33.9923 14.4914 34.1497 14.0767C34.195 13.9572 34.2423 13.9151 34.2514 13.9111C34.2545 13.9098 34.2614 13.9086 34.2725 13.9086C34.3195 13.9086 34.439 13.9297 34.622 14.0514C35.4009 14.5692 36.2806 16.1148 36.6436 18.8823ZM53.6564 5.73421C53.3544 5.21093 53.5337 4.54218 54.0567 4.24015L56.6155 2.76296C57.1387 2.46108 57.8075 2.64015 58.1095 3.16327C58.4115 3.68655 58.2322 4.3553 57.7092 4.65733L55.1505 6.13452C54.9781 6.2339 54.7901 6.28108 54.6047 6.28108C54.2266 6.28108 53.8591 6.08515 53.6564 5.73421ZM57.0601 13.2616H60.0147C60.6187 13.2616 61.1084 13.7512 61.1084 14.3553C61.1084 14.9594 60.6187 15.4491 60.0147 15.4491H57.0601C56.4561 15.4491 55.9664 14.9594 55.9664 14.3553C55.9664 13.7512 56.4561 13.2616 57.0601 13.2616ZM57.7092 24.0531C58.2323 24.3553 58.4115 25.0242 58.1095 25.5472C57.9069 25.8981 57.5392 26.0942 57.1612 26.0942C56.9756 26.0942 56.7876 26.0469 56.6155 25.9476L54.0567 24.4703C53.5336 24.1681 53.3544 23.4992 53.6564 22.9762C53.9586 22.453 54.6275 22.2744 55.1505 22.5759L57.7092 24.0533V24.0531ZM21.8917 3.16312C22.1937 2.64015 22.8625 2.46093 23.3858 2.7628L25.9445 4.23999C26.4676 4.54218 26.6469 5.21093 26.3448 5.73405C26.1422 6.08483 25.7745 6.28108 25.3965 6.28108C25.2109 6.28108 25.023 6.2339 24.8508 6.13452L22.292 4.65733C21.7689 4.35515 21.5897 3.68624 21.8917 3.16312ZM18.893 14.3551C18.893 13.7511 19.3826 13.2614 19.9867 13.2614H22.9412C23.5453 13.2614 24.035 13.7511 24.035 14.3551C24.035 14.9592 23.5453 15.4489 22.9412 15.4489H19.9867C19.3826 15.4489 18.893 14.9592 18.893 14.3551ZM26.345 22.9761C26.647 23.4992 26.4676 24.1681 25.9447 24.4701L23.3859 25.9475C23.2136 26.0469 23.0256 26.0941 22.8401 26.0941C22.462 26.0941 22.0945 25.898 21.8919 25.547C21.5898 25.0239 21.7692 24.355 22.2922 24.053L24.8509 22.5756C25.3744 22.2737 26.043 22.4528 26.345 22.9759V22.9761Z" fill="white"/>
</g>
<defs>
<clipPath id="clip0_2302_16036">
<rect width="80" height="80" fill="white" transform="translate(0 0.689819)"/>
</clipPath>
</defs>
</svg>
