<svg width="80" height="80" viewBox="0 0 80 80" fill="none" xmlns="http://www.w3.org/2000/svg">
<path d="M69.8813 10.3784H63.0137C63.1316 3.09637 52.1518 3.62205 52.2471 10.6447L45.3831 10.6445C45.3096 3.37954 34.6933 3.35579 34.6165 10.6447L27.7475 10.6446C27.7697 9.22684 27.2311 7.85775 26.2489 6.83514C25.2667 5.81253 23.9205 5.21914 22.503 5.18407C21.0856 5.14901 19.7116 5.6751 18.6801 6.6479C17.6486 7.6207 17.0429 8.96148 16.9949 10.3786L10.1182 10.3784C8.79642 10.3799 7.52923 10.9056 6.59461 11.8402C5.65999 12.7748 5.13428 14.042 5.13281 15.3638V70.1477C5.13427 71.4695 5.65998 72.7367 6.5946 73.6713C7.52922 74.6059 8.79641 75.1316 10.1182 75.1331H69.8813C71.2031 75.1316 72.4703 74.6059 73.4049 73.6713C74.3395 72.7367 74.8652 71.4695 74.8667 70.1477V15.3638C74.8652 14.042 74.3395 12.7748 73.4049 11.8402C72.4703 10.9056 71.2031 10.3799 69.8813 10.3784ZM7.63281 25.2686H72.3667V56.1817H67.3911C66.0696 56.1834 64.8026 56.7092 63.8683 57.6438C62.9339 58.5784 62.4084 59.8454 62.407 61.167V66.1426H7.63281V25.2686ZM64.907 61.167C64.9075 60.5082 65.1694 59.8766 65.6351 59.4106C66.1008 58.9447 66.7323 58.6825 67.3911 58.6817H70.5993L64.907 64.3748V61.167ZM10.1182 12.8784H16.981C16.9325 13.6165 17.0355 14.3567 17.2838 15.0534C17.532 15.7502 17.9202 16.3887 18.4245 16.9298C18.9288 17.4709 19.5385 17.9031 20.216 18.1997C20.8936 18.4964 21.6247 18.6512 22.3643 18.6548C22.692 18.6489 23.0042 18.5146 23.2338 18.2808C23.4635 18.047 23.5921 17.7324 23.5921 17.4047C23.5921 17.077 23.4634 16.7624 23.2338 16.5287C23.0041 16.2949 22.6919 16.1606 22.3642 16.1548C21.5999 16.1537 20.8671 15.8496 20.3266 15.3091C19.7861 14.7686 19.482 14.0359 19.481 13.2715V10.5164C19.4854 10.1351 19.5654 9.75844 19.7164 9.40826C19.8673 9.05808 20.0862 8.74131 20.3604 8.47627C20.6346 8.21124 20.9586 8.00321 21.3137 7.86421C21.6687 7.72521 22.0479 7.658 22.4291 7.66648C22.8103 7.67496 23.1861 7.75895 23.5347 7.9136C23.8832 8.06825 24.1977 8.29048 24.4598 8.56745C24.7219 8.84441 24.9265 9.1706 25.0617 9.52714C25.1969 9.88368 25.2601 10.2635 25.2476 10.6446L22.3643 10.6446C22.0369 10.6509 21.7252 10.7855 21.496 11.0192C21.2668 11.2529 21.1384 11.5672 21.1384 11.8946C21.1384 12.222 21.2668 12.5363 21.4961 12.77C21.7253 13.0037 22.037 13.1382 22.3643 13.1446H34.6165C34.601 13.8617 34.7287 14.5748 34.9921 15.242C35.2556 15.9092 35.6495 16.5172 36.1508 17.0303C36.6521 17.5434 37.2507 17.9514 37.9116 18.2303C38.5725 18.5093 39.2824 18.6536 39.9998 18.6548C40.3272 18.6486 40.6391 18.5141 40.8684 18.2804C41.0978 18.0466 41.2262 17.7322 41.2262 17.4048C41.2262 17.0773 41.0977 16.7629 40.8684 16.5291C40.639 16.2954 40.3271 16.161 39.9997 16.1548C39.2353 16.1537 38.5025 15.8496 37.9621 15.3091C37.4216 14.7686 37.1175 14.0359 37.1165 13.2715V10.5164C37.1166 10.1323 37.1935 9.75208 37.3426 9.3981C37.4917 9.04411 37.71 8.72346 37.9846 8.45497C38.2593 8.18647 38.5848 7.97553 38.9421 7.83452C39.2994 7.69351 39.6812 7.62527 40.0652 7.6338C40.4492 7.64234 40.8277 7.72747 41.1783 7.88422C41.529 8.04097 41.8448 8.26616 42.1073 8.5466C42.3698 8.82704 42.5736 9.15707 42.7068 9.51733C42.84 9.87759 42.8999 10.2608 42.883 10.6446H39.9998C39.6723 10.6508 39.3604 10.7852 39.1311 11.019C38.9017 11.2527 38.7733 11.5671 38.7733 11.8946C38.7733 12.2221 38.9018 12.5365 39.1311 12.7702C39.3605 13.0039 39.6724 13.1384 39.9998 13.1446H52.2471C52.2319 13.8615 52.3598 14.5744 52.6234 15.2413C52.887 15.9082 53.281 16.5159 53.7822 17.0288C54.2835 17.5417 54.882 17.9494 55.5428 18.2282C56.2035 18.5069 56.9132 18.6512 57.6304 18.6524C57.9577 18.646 58.2694 18.5114 58.4986 18.2777C58.7278 18.044 58.8562 17.7297 58.8562 17.4023C58.8562 17.0749 58.7278 16.7606 58.4986 16.5269C58.2693 16.2932 57.9576 16.1587 57.6303 16.1524C56.8659 16.1513 56.1331 15.8472 55.5927 15.3067C55.0522 14.7662 54.7481 14.0334 54.7471 13.269V10.5164C54.6675 6.88604 60.7776 6.50397 60.5136 10.3785H57.6353C57.3077 10.3845 56.9956 10.5189 56.7662 10.7526C56.5367 10.9864 56.4081 11.3009 56.4081 11.6285C56.4081 11.9561 56.5367 12.2706 56.7662 12.5043C56.9956 12.7381 57.3077 12.8724 57.6353 12.8785H69.8813C70.5402 12.8791 71.1721 13.1411 71.638 13.607C72.104 14.073 72.3661 14.7048 72.3667 15.3638V22.7685H7.63281V15.3638C7.63342 14.7048 7.89547 14.073 8.36143 13.607C8.82739 13.1411 9.4592 12.879 10.1182 12.8784ZM69.8813 72.6331H10.1182C9.45919 72.6325 8.82738 72.3704 8.36142 71.9045C7.89546 71.4385 7.63341 70.8067 7.63281 70.1477V68.6426H63.657C63.9889 68.6408 64.3068 68.5087 64.5424 68.2748L72.3667 60.4495V70.1477C72.3661 70.8067 72.104 71.4385 71.6381 71.9045C71.1721 72.3704 70.5403 72.6325 69.8813 72.6331Z" fill="white"/>
<path d="M60.5981 40.1086L41.875 29.895C41.6914 29.7953 41.4858 29.743 41.2769 29.743C41.0679 29.743 40.8623 29.7953 40.6787 29.895L21.9556 40.1086C21.762 40.2204 21.6003 40.38 21.4862 40.5721C21.372 40.7643 21.3092 40.9826 21.3037 41.2061V53.573H20C19.6685 53.573 19.3505 53.7047 19.1161 53.9391C18.8817 54.1735 18.75 54.4915 18.75 54.823C18.75 55.1545 18.8817 55.4725 19.1161 55.7069C19.3505 55.9413 19.6685 56.073 20 56.073H25.1062C25.4378 56.073 25.7557 55.9413 25.9901 55.7069C26.2246 55.4725 26.3562 55.1545 26.3562 54.823C26.3562 54.4915 26.2246 54.1735 25.9901 53.9391C25.7557 53.7047 25.4378 53.573 25.1062 53.573H23.8037V43.3115L29.1504 46.2278V57.5806C29.1515 58.1041 29.3164 58.6142 29.622 59.0393C29.9276 59.4645 30.3586 59.7833 30.8545 59.9512C37.6139 62.2424 44.9399 62.2424 51.6993 59.9512C52.1948 59.7832 52.6253 59.4642 52.9303 59.039C53.2352 58.6138 53.3994 58.1038 53.3997 57.5806V46.2299L60.5982 42.3035C60.793 42.194 60.9551 42.0346 61.0679 41.8418C61.1807 41.6489 61.2402 41.4295 61.2402 41.206C61.2402 40.9826 61.1807 40.7632 61.0679 40.5703C60.9551 40.3775 60.7929 40.2181 60.5981 40.1086ZM50.8948 57.5842C44.6539 59.6982 37.8904 59.6969 31.6504 57.5806V47.5914L40.6787 52.5159C40.8622 52.6159 41.0679 52.6683 41.2769 52.6683C41.4859 52.6683 41.6915 52.6159 41.875 52.5159L50.8988 47.5939L50.8948 57.5842ZM41.2769 49.9951L27.4552 42.4561H41.2769C41.6084 42.4561 41.9263 42.3244 42.1607 42.0899C42.3952 41.8555 42.5269 41.5376 42.5269 41.2061C42.5269 40.8745 42.3952 40.5566 42.1607 40.3222C41.9263 40.0878 41.6084 39.9561 41.2769 39.9561H27.4549L41.2769 32.4158L57.3901 41.2061L41.2769 49.9951Z" fill="white"/>
</svg>
