<svg width="80" height="81" viewBox="0 0 80 81" fill="none" xmlns="http://www.w3.org/2000/svg">
<path d="M43.4013 76.4887C45.3565 76.4913 47.2891 76.0704 49.0662 75.2549L61.3425 69.6424C63.2895 68.7519 65.0016 67.419 66.3425 65.7499L76.6787 52.8549C77.2841 52.1021 77.5762 51.145 77.4943 50.1824C77.4123 49.2198 76.9627 48.3258 76.2388 47.6862L75.9463 47.4262C75.2623 46.8209 74.3801 46.4877 73.4669 46.4895C72.5536 46.4914 71.6727 46.8282 70.9912 47.4362L59.3288 57.8399C58.3653 58.7007 57.2597 59.3875 56.0612 59.8699L47.15 63.4524C46.9259 63.5425 46.6801 63.5645 46.4435 63.5156C46.2069 63.4667 45.99 63.349 45.82 63.1774L44.5538 61.9024L52.5 58.5424C52.5524 58.5198 52.6034 58.494 52.6525 58.4649C53.8465 57.7519 54.8424 56.7504 55.5487 55.5524C55.9183 54.9367 56.1033 54.2278 56.0817 53.51C56.0601 52.7922 55.8329 52.0956 55.427 51.5032C55.0211 50.9108 54.4537 50.4474 53.7921 50.168C53.1305 49.8887 52.4026 49.8052 51.695 49.9274L38.3025 52.3024C36.5709 52.6095 34.9153 53.2496 33.4275 54.1874L28.5525 57.2537C26.7779 58.3728 24.723 58.9674 22.625 58.9687H15V57.7387C15 57.4071 14.8683 57.0892 14.6339 56.8548C14.3995 56.6204 14.0815 56.4887 13.75 56.4887H3.75C3.41848 56.4887 3.10054 56.6204 2.86612 56.8548C2.6317 57.0892 2.5 57.4071 2.5 57.7387V76.4887C2.5 76.8202 2.6317 77.1381 2.86612 77.3725C3.10054 77.607 3.41848 77.7387 3.75 77.7387H13.75C14.0815 77.7387 14.3995 77.607 14.6339 77.3725C14.8683 77.1381 15 76.8202 15 76.4887V75.1137L23.9475 74.2137C25.3537 74.0706 26.7742 74.1979 28.1325 74.5887L32.8825 75.9537C34.1058 76.3049 35.3723 76.4833 36.645 76.4837L43.4013 76.4887ZM12.5 75.2387H5V58.9887H12.5V75.2387ZM28.8237 72.1912C27.1601 71.714 25.4209 71.5575 23.6987 71.7299L15.0013 72.6049V61.4687H22.6262C25.1915 61.4677 27.7043 60.7419 29.875 59.3749L34.75 56.3087C35.9655 55.542 37.3186 55.0189 38.7337 54.7687L52.1275 52.3937C52.3596 52.3516 52.599 52.3779 52.8165 52.4693C53.0339 52.5607 53.2202 52.7134 53.3525 52.9087C53.4933 53.1086 53.5724 53.3454 53.5799 53.5898C53.5875 53.8342 53.5232 54.0754 53.395 54.2837C52.9151 55.0998 52.2431 55.7863 51.4375 56.2837L41.875 60.3199C41.6868 60.3996 41.5209 60.5243 41.3921 60.683C41.2632 60.8418 41.1753 61.0297 41.1359 61.2303C41.0965 61.4309 41.107 61.6381 41.1663 61.8337C41.2257 62.0294 41.3321 62.2075 41.4762 62.3524L44.0475 64.9399C44.5635 65.4607 45.2219 65.8176 45.9399 65.9657C46.658 66.1138 47.4038 66.0465 48.0837 65.7724L56.9888 62.1887C58.4559 61.5987 59.8093 60.7583 60.9888 59.7049L72.6512 49.3012C72.876 49.101 73.1665 48.9904 73.4675 48.9904C73.7685 48.9904 74.059 49.101 74.2837 49.3012L74.5762 49.5599C74.8189 49.7747 74.9694 50.0746 74.9967 50.3975C75.0239 50.7204 74.9257 51.0413 74.7225 51.2937L64.3875 64.1862C63.2916 65.5482 61.8934 66.6362 60.3037 67.3637L48.0263 72.9762C46.5755 73.6422 44.9976 73.986 43.4013 73.9837H36.64C35.6007 73.983 34.5666 73.8375 33.5675 73.5512L28.8237 72.1912Z" fill="url(#paint0_linear_2302_16302)"/>
<path d="M7.5 70.2386H10V72.7386H7.5V70.2386Z" fill="url(#paint1_linear_2302_16302)"/>
<path d="M18.75 12.7386V45.2386C18.75 45.5702 18.8817 45.8881 19.1161 46.1225C19.3505 46.357 19.6685 46.4886 20 46.4886H60C60.3315 46.4886 60.6495 46.357 60.8839 46.1225C61.1183 45.8881 61.25 45.5702 61.25 45.2386V12.7386C61.25 12.4071 61.1183 12.0892 60.8839 11.8548C60.6495 11.6203 60.3315 11.4886 60 11.4886H20C19.6685 11.4886 19.3505 11.6203 19.1161 11.8548C18.8817 12.0892 18.75 12.4071 18.75 12.7386ZM21.25 13.9886H58.75V43.9886H21.25V13.9886Z" fill="url(#paint2_linear_2302_16302)"/>
<path d="M50.1879 25.3924L43.9379 24.4374L41.1316 18.4574C41.0307 18.2426 40.8707 18.061 40.6704 17.9339C40.4701 17.8067 40.2377 17.7391 40.0004 17.7391C39.7631 17.7391 39.5307 17.8067 39.3304 17.9339C39.1301 18.061 38.9701 18.2426 38.8691 18.4574L36.0616 24.4374L29.8116 25.3924C29.5844 25.427 29.3711 25.5236 29.1953 25.6716C29.0194 25.8196 28.8877 26.0132 28.8147 26.2311C28.7417 26.4491 28.7302 26.6829 28.7815 26.907C28.8328 27.131 28.9449 27.3366 29.1054 27.5011L33.6654 32.1736L32.5854 38.7874C32.5476 39.0189 32.5758 39.2565 32.6667 39.4728C32.7576 39.6891 32.9075 39.8754 33.0993 40.0105C33.2912 40.1456 33.5171 40.224 33.7514 40.2367C33.9857 40.2494 34.2188 40.1959 34.4241 40.0824L39.9991 37.0011L45.5754 40.0824C45.7807 40.1959 46.0138 40.2494 46.2481 40.2367C46.4824 40.224 46.7084 40.1456 46.9002 40.0105C47.092 39.8754 47.242 39.6891 47.3328 39.4728C47.4237 39.2565 47.4519 39.0189 47.4141 38.7874L46.3341 32.1736L50.8941 27.5011C51.0547 27.3366 51.1667 27.131 51.218 26.907C51.2693 26.6829 51.2578 26.4491 51.1848 26.2311C51.1118 26.0132 50.9802 25.8196 50.8043 25.6716C50.6284 25.5236 50.4151 25.427 50.1879 25.3924ZM44.1041 30.8799C43.9676 31.0199 43.8659 31.19 43.807 31.3764C43.7482 31.5629 43.7339 31.7606 43.7654 31.9536L44.5316 36.6486L40.6029 34.4786C40.418 34.3766 40.2103 34.3231 39.9991 34.3231C39.788 34.3231 39.5803 34.3766 39.3954 34.4786L35.4666 36.6486L36.2329 31.9536C36.2643 31.7606 36.2501 31.5629 36.1913 31.3764C36.1324 31.19 36.0307 31.0199 35.8941 30.8799L32.5929 27.4961L37.0991 26.8086C37.302 26.7775 37.4942 26.697 37.6586 26.574C37.8229 26.451 37.9545 26.2895 38.0416 26.1036L39.9991 21.9311L41.9566 26.1036C42.0438 26.2895 42.1753 26.451 42.3397 26.574C42.5041 26.697 42.6962 26.7775 42.8991 26.8086L47.3991 27.4961L44.1041 30.8799Z" fill="url(#paint3_linear_2302_16302)"/>
<path d="M38.75 2.73865H41.25V7.73865H38.75V2.73865Z" fill="url(#paint4_linear_2302_16302)"/>
<path d="M66.25 27.7386H71.25V30.2386H66.25V27.7386Z" fill="url(#paint5_linear_2302_16302)"/>
<path d="M8.75 27.7386H13.75V30.2386H8.75V27.7386Z" fill="url(#paint6_linear_2302_16302)"/>
<path d="M11.0977 6.85614L12.8654 5.08837L16.401 8.62391L14.6332 10.3917L11.0977 6.85614Z" fill="url(#paint7_linear_2302_16302)"/>
<path d="M63.5898 8.62866L67.1254 5.09313L68.8931 6.8609L65.3576 10.3964L63.5898 8.62866Z" fill="url(#paint8_linear_2302_16302)"/>
<defs>
<linearGradient id="paint0_linear_2302_16302" x1="2.5" y1="62.1141" x2="77.5078" y2="62.1141" gradientUnits="userSpaceOnUse">
<stop stop-color="#991F3D"/>
<stop offset="1" stop-color="#E7474D"/>
</linearGradient>
<linearGradient id="paint1_linear_2302_16302" x1="7.5" y1="71.4886" x2="10" y2="71.4886" gradientUnits="userSpaceOnUse">
<stop stop-color="#991F3D"/>
<stop offset="1" stop-color="#E7474D"/>
</linearGradient>
<linearGradient id="paint2_linear_2302_16302" x1="18.75" y1="28.9886" x2="61.25" y2="28.9886" gradientUnits="userSpaceOnUse">
<stop stop-color="#991F3D"/>
<stop offset="1" stop-color="#E7474D"/>
</linearGradient>
<linearGradient id="paint3_linear_2302_16302" x1="28.75" y1="28.9888" x2="51.2495" y2="28.9888" gradientUnits="userSpaceOnUse">
<stop stop-color="#991F3D"/>
<stop offset="1" stop-color="#E7474D"/>
</linearGradient>
<linearGradient id="paint4_linear_2302_16302" x1="38.75" y1="5.23865" x2="41.25" y2="5.23865" gradientUnits="userSpaceOnUse">
<stop stop-color="#991F3D"/>
<stop offset="1" stop-color="#E7474D"/>
</linearGradient>
<linearGradient id="paint5_linear_2302_16302" x1="66.25" y1="28.9886" x2="71.25" y2="28.9886" gradientUnits="userSpaceOnUse">
<stop stop-color="#991F3D"/>
<stop offset="1" stop-color="#E7474D"/>
</linearGradient>
<linearGradient id="paint6_linear_2302_16302" x1="8.75" y1="28.9886" x2="13.75" y2="28.9886" gradientUnits="userSpaceOnUse">
<stop stop-color="#991F3D"/>
<stop offset="1" stop-color="#E7474D"/>
</linearGradient>
<linearGradient id="paint7_linear_2302_16302" x1="12.8654" y1="8.62391" x2="14.6332" y2="6.85614" gradientUnits="userSpaceOnUse">
<stop stop-color="#991F3D"/>
<stop offset="1" stop-color="#E7474D"/>
</linearGradient>
<linearGradient id="paint8_linear_2302_16302" x1="64.4737" y1="9.51255" x2="68.0093" y2="5.97701" gradientUnits="userSpaceOnUse">
<stop stop-color="#991F3D"/>
<stop offset="1" stop-color="#E7474D"/>
</linearGradient>
</defs>
</svg>
