<svg width="78" height="78" viewBox="0 0 78 78" fill="none" xmlns="http://www.w3.org/2000/svg">
<path d="M57.5443 0.00146484C49.5443 0.00146484 42.514 4.12268 39.2412 10.1833H8.33215C5.7867 10.1833 3.8473 12.2439 3.8473 14.6681V66.9106H1.42306C0.695786 66.9106 0.210938 67.5166 0.210938 68.1227C0.574574 73.456 4.93821 77.5772 10.1503 77.5772H65.4231C70.6352 77.5772 75.12 73.456 75.3625 68.2439C75.3625 67.5166 74.8776 67.0318 74.1503 67.0318H71.7261V30.5469C75.3625 27.2742 77.6655 22.7893 77.6655 17.9409C77.7867 8.00147 68.6958 0.00146484 57.5443 0.00146484ZM65.4231 75.2742H10.1503C6.51397 75.2742 3.48366 72.7287 2.63518 69.3348H72.9382C72.0897 72.7287 69.0594 75.2742 65.4231 75.2742ZM69.4231 67.0318H6.15033V14.6681C6.15033 13.456 7.12003 12.4863 8.33215 12.4863H38.1503C36.0897 18.1833 37.4231 24.4863 41.7867 29.0924L40.2109 36.3651C39.9685 37.2136 40.817 37.9409 41.6655 37.6984L51.7261 35.0318C57.6655 36.6075 64.2109 35.759 69.4231 32.2439V67.0318ZM52.0897 32.7287C51.8473 32.7287 51.7261 32.7287 51.4837 32.7287L42.9988 35.0318L44.3322 29.2136C44.4534 28.85 44.3321 28.3651 43.9685 28.1227C34.1503 18.3045 42.0291 2.54692 57.5443 2.54692C67.3625 2.54692 75.4837 9.57722 75.4837 18.0621C75.4837 28.3651 63.6049 35.8803 52.0897 32.7287Z" fill="white"/>
<path d="M62.6362 6.06211C62.2726 5.09241 60.818 5.09241 60.4544 6.06211C57.6665 12.7288 49.3029 14.7894 49.4241 14.7894C46.6362 15.8803 45.4241 19.0318 46.515 21.8197C47.3635 23.8803 49.3029 25.0924 51.4847 25.0924C51.8483 25.0924 52.212 25.0924 52.5756 24.9712L55.4847 29.6985C55.8483 30.3045 56.5756 30.4257 57.0605 30.0621C57.6665 29.6985 57.7877 28.9712 57.4241 28.4864L54.7574 24.2439L57.5453 23.153C60.6968 21.8197 64.3332 21.8197 67.4847 23.153C68.4544 23.5167 69.4241 22.547 69.0605 21.5773L62.6362 6.06211ZM48.5756 20.9712C47.9695 19.3954 48.6968 17.5773 50.2726 16.9712L51.9695 16.2439L54.2726 21.8197L52.5756 22.547C51.1211 23.153 49.3029 22.4257 48.5756 20.9712ZM56.5756 20.85L56.3332 20.9712L54.0301 15.3954C54.1514 15.2742 58.3938 13.8197 61.3029 9.33484L65.7877 20.1227C62.7574 19.3954 59.6059 19.6379 56.5756 20.85Z" fill="white"/>
<path d="M40.2095 39.2742H12.8156C11.1186 39.2742 9.66406 40.6075 9.66406 42.4257V60.4863C9.66406 62.062 10.9974 63.6378 12.8156 63.6378H40.2095C41.9065 63.6378 43.361 62.1833 43.361 60.4863V42.3045C43.361 40.6075 41.9065 39.2742 40.2095 39.2742ZM12.0883 43.2742L19.9671 51.153L12.0883 59.0317V43.2742ZM26.5126 54.4257C23.4822 51.3954 21.1792 49.0924 13.6641 41.6984H39.2398C35.1186 45.6984 32.2095 48.6075 26.5126 54.4257ZM21.5429 52.7287L25.6641 56.8499C26.1489 57.3348 26.8762 57.3348 27.361 56.8499L31.4822 52.7287L39.8459 61.0924H13.1792L21.5429 52.7287ZM33.058 51.153L40.9368 43.2742V59.0317L33.058 51.153Z" fill="white"/>
<path d="M63.6052 56.3651H49.0598C48.4537 56.3651 47.8477 56.85 47.8477 57.5772C47.8477 58.1833 48.3325 58.7894 49.0598 58.7894H63.6052C64.2113 58.7894 64.8174 58.3045 64.8174 57.5772C64.8174 56.85 64.2113 56.3651 63.6052 56.3651Z" fill="white"/>
<path d="M47.8477 50.1833C47.8477 50.7894 48.3325 51.3954 49.0598 51.3954H63.6052C64.2113 51.3954 64.8174 50.9106 64.8174 50.1833C64.8174 49.456 64.3325 48.9712 63.6052 48.9712H49.0598C48.3325 48.9712 47.8477 49.5773 47.8477 50.1833Z" fill="white"/>
<path d="M11.9699 32.2439H33.1821C33.7881 32.2439 34.3942 31.7591 34.3942 31.0318C34.3942 30.4258 33.9093 29.8197 33.1821 29.8197H11.9699C11.3639 29.8197 10.7578 30.3046 10.7578 31.0318C10.7578 31.6379 11.3639 32.2439 11.9699 32.2439Z" fill="white"/>
<path d="M11.9699 24.3652H33.1821C33.7881 24.3652 34.3942 23.8803 34.3942 23.153C34.3942 22.547 33.9093 21.9409 33.1821 21.9409H11.9699C11.3639 21.9409 10.7578 22.4258 10.7578 23.153C10.7578 23.8803 11.3639 24.3652 11.9699 24.3652Z" fill="white"/>
</svg>
