<svg width="76" height="82" viewBox="0 0 76 82" fill="none" xmlns="http://www.w3.org/2000/svg">
<g filter="url(#filter0_dd_1_17)">
<rect x="8" y="4" width="60" height="60" rx="12" fill="white"/>
</g>
<path d="M38.0796 16.2813C37.626 16.278 37.256 16.643 37.2528 17.0958C37.2495 17.5487 37.6137 17.9186 38.0673 17.9219C38.5202 17.9252 38.8901 17.561 38.8934 17.1081C38.8967 16.6553 38.5325 16.2854 38.0796 16.2813Z" fill="#F04C50"/>
<path d="M38.0796 16.2813C37.626 16.278 37.256 16.643 37.2528 17.0958C37.2495 17.5487 37.6137 17.9186 38.0673 17.9219C38.5202 17.9252 38.8901 17.561 38.8934 17.1081C38.8967 16.6553 38.5325 16.2854 38.0796 16.2813Z" stroke="#F04C50"/>
<path d="M38.0264 21.2044C34.8591 21.1819 32.2652 23.7371 32.2412 26.9034C32.2173 30.0696 34.7739 32.6647 37.9403 32.6886L37.9842 32.6888C41.1304 32.6888 43.7017 30.1412 43.7254 26.9896C43.7493 23.8236 41.1928 21.2282 38.0264 21.2044ZM37.9841 31.0482L37.9526 31.0481C35.6909 31.031 33.8647 29.1773 33.8818 26.9157C33.8987 24.6644 35.7353 22.8448 37.9826 22.8448L38.0141 22.8449C40.2758 22.862 42.102 24.7157 42.0849 26.9773C42.0678 29.2286 40.2314 31.0482 37.9841 31.0482Z" fill="#F04C50"/>
<path d="M38.0264 21.2044C34.8591 21.1819 32.2652 23.7371 32.2412 26.9034C32.2173 30.0696 34.7739 32.6647 37.9403 32.6886L37.9842 32.6888C41.1304 32.6888 43.7017 30.1412 43.7254 26.9896C43.7493 23.8236 41.1928 21.2282 38.0264 21.2044ZM37.9841 31.0482L37.9526 31.0481C35.6909 31.031 33.8647 29.1773 33.8818 26.9157C33.8987 24.6644 35.7353 22.8448 37.9826 22.8448L38.0141 22.8449C40.2758 22.862 42.102 24.7157 42.0849 26.9773C42.0678 29.2286 40.2314 31.0482 37.9841 31.0482Z" stroke="#F04C50"/>
<path d="M41.5858 16.9027C41.159 16.7512 40.6899 16.9748 40.5385 17.4018C40.3871 17.8289 40.6106 18.2977 41.0376 18.4491C44.6509 19.7297 47.0589 23.171 47.03 27.0123C47.0267 27.4653 47.3911 27.8353 47.8442 27.8388H47.8505C48.3005 27.8388 48.6672 27.4755 48.6706 27.0246C48.7048 22.4844 45.8575 18.4167 41.5858 16.9027Z" fill="#F04C50"/>
<path d="M41.5858 16.9027C41.159 16.7512 40.6899 16.9748 40.5385 17.4018C40.3871 17.8289 40.6106 18.2977 41.0376 18.4491C44.6509 19.7297 47.0589 23.171 47.03 27.0123C47.0267 27.4653 47.3911 27.8353 47.8442 27.8388H47.8505C48.3005 27.8388 48.6672 27.4755 48.6706 27.0246C48.7048 22.4844 45.8575 18.4167 41.5858 16.9027Z" stroke="#F04C50"/>
<path d="M43.0335 43.8801C43.5815 43.1748 44.1087 42.5034 44.614 41.86C49.1406 36.0964 51.9041 32.5776 51.9455 27.0502C52.0033 19.3193 45.7293 13 37.999 13C30.3589 13 24.1132 19.1875 24.0552 26.841C24.0132 32.4831 26.7846 36.0042 31.298 41.7386C31.8332 42.4185 32.3928 43.1295 32.9752 43.8789C27.5098 44.6956 24.0552 46.7478 24.0552 49.2579C24.0552 50.9393 25.6093 52.4481 28.4315 53.5063C31.0001 54.4695 34.3984 55 38.0003 55C41.6023 55 45.0006 54.4695 47.5692 53.5063C50.3913 52.448 51.9455 50.9392 51.9455 49.2578C51.9455 46.7491 48.494 44.6974 43.0335 43.8801ZM25.6957 26.8534C25.7469 20.0998 31.2574 14.6406 37.9992 14.6406C44.8208 14.6406 50.3558 20.2178 50.305 27.038C50.2678 32.0067 47.6403 35.3519 43.2965 40.8823C42.539 41.8467 41.7293 42.8775 40.8721 43.995C39.8424 45.3367 38.8967 46.6052 38.0016 47.8461C37.1091 46.6045 36.1823 45.3587 35.1371 43.9945C34.2153 42.7922 33.3531 41.6961 32.5541 40.6803C28.1427 35.0718 25.6581 31.913 25.6957 26.8534ZM38.0003 53.3595C30.9579 53.3595 25.6957 51.1941 25.6957 49.2579C25.6957 47.822 28.8414 46.0081 34.1307 45.38C35.2999 46.9141 36.3249 48.3078 37.3303 49.7312C37.4839 49.9486 37.7334 50.078 37.9996 50.0782H38.0003C38.2663 50.0782 38.5157 49.9492 38.6695 49.7323C39.6654 48.3274 40.7185 46.8993 41.8777 45.3809C47.162 46.0097 50.305 47.823 50.305 49.258C50.3049 51.1941 45.0428 53.3595 38.0003 53.3595Z" fill="#F04C50"/>
<path d="M43.0335 43.8801C43.5815 43.1748 44.1087 42.5034 44.614 41.86C49.1406 36.0964 51.9041 32.5776 51.9455 27.0502C52.0033 19.3193 45.7293 13 37.999 13C30.3589 13 24.1132 19.1875 24.0552 26.841C24.0132 32.4831 26.7846 36.0042 31.298 41.7386C31.8332 42.4185 32.3928 43.1295 32.9752 43.8789C27.5098 44.6956 24.0552 46.7478 24.0552 49.2579C24.0552 50.9393 25.6093 52.4481 28.4315 53.5063C31.0001 54.4695 34.3984 55 38.0003 55C41.6023 55 45.0006 54.4695 47.5692 53.5063C50.3913 52.448 51.9455 50.9392 51.9455 49.2578C51.9455 46.7491 48.494 44.6974 43.0335 43.8801ZM25.6957 26.8534C25.7469 20.0998 31.2574 14.6406 37.9992 14.6406C44.8208 14.6406 50.3558 20.2178 50.305 27.038C50.2678 32.0067 47.6403 35.3519 43.2965 40.8823C42.539 41.8467 41.7293 42.8775 40.8721 43.995C39.8424 45.3367 38.8967 46.6052 38.0016 47.8461C37.1091 46.6045 36.1823 45.3587 35.1371 43.9945C34.2153 42.7922 33.3531 41.6961 32.5541 40.6803C28.1427 35.0718 25.6581 31.913 25.6957 26.8534ZM38.0003 53.3595C30.9579 53.3595 25.6957 51.1941 25.6957 49.2579C25.6957 47.822 28.8414 46.0081 34.1307 45.38C35.2999 46.9141 36.3249 48.3078 37.3303 49.7312C37.4839 49.9486 37.7334 50.078 37.9996 50.0782H38.0003C38.2663 50.0782 38.5157 49.9492 38.6695 49.7323C39.6654 48.3274 40.7185 46.8993 41.8777 45.3809C47.162 46.0097 50.305 47.823 50.305 49.258C50.3049 51.1941 45.0428 53.3595 38.0003 53.3595Z" stroke="#F04C50"/>
<defs>
<filter id="filter0_dd_1_17" x="0" y="0" width="76" height="82" filterUnits="userSpaceOnUse" color-interpolation-filters="sRGB">
<feFlood flood-opacity="0" result="BackgroundImageFix"/>
<feColorMatrix in="SourceAlpha" type="matrix" values="0 0 0 0 0 0 0 0 0 0 0 0 0 0 0 0 0 0 127 0" result="hardAlpha"/>
<feOffset dy="10"/>
<feGaussianBlur stdDeviation="4"/>
<feComposite in2="hardAlpha" operator="out"/>
<feColorMatrix type="matrix" values="0 0 0 0 0 0 0 0 0 0 0 0 0 0 0 0 0 0 0.25 0"/>
<feBlend mode="normal" in2="BackgroundImageFix" result="effect1_dropShadow_1_17"/>
<feColorMatrix in="SourceAlpha" type="matrix" values="0 0 0 0 0 0 0 0 0 0 0 0 0 0 0 0 0 0 127 0" result="hardAlpha"/>
<feOffset/>
<feGaussianBlur stdDeviation="2"/>
<feComposite in2="hardAlpha" operator="out"/>
<feColorMatrix type="matrix" values="0 0 0 0 0 0 0 0 0 0 0 0 0 0 0 0 0 0 0.25 0"/>
<feBlend mode="normal" in2="effect1_dropShadow_1_17" result="effect2_dropShadow_1_17"/>
<feBlend mode="normal" in="SourceGraphic" in2="effect2_dropShadow_1_17" result="shape"/>
</filter>
</defs>
</svg>
