<svg width="32" height="32" viewBox="0 0 32 32" fill="none" xmlns="http://www.w3.org/2000/svg">
<circle cx="16" cy="16" r="16" fill="#EF4B4F"/>
<g clip-path="url(#clip0_734_4434)">
<path d="M25.1263 12.2332C25.0835 11.2616 24.9264 10.5937 24.7013 10.0149C24.4691 9.4005 24.1119 8.85045 23.6439 8.39319C23.1866 7.92882 22.633 7.56798 22.0257 7.33941C21.4436 7.11434 20.7791 6.95723 19.8075 6.91439C18.8286 6.86792 18.5179 6.85718 16.0353 6.85718C13.5526 6.85718 13.2419 6.86792 12.2667 6.91076C11.2951 6.9536 10.6271 7.11085 10.0485 7.33579C9.43395 7.56798 8.8839 7.92519 8.42664 8.39319C7.96226 8.85045 7.60156 9.40413 7.37286 10.0114C7.14779 10.5937 6.99067 11.258 6.94783 12.2296C6.90137 13.2084 6.89062 13.5192 6.89062 16.0018C6.89062 18.4844 6.90137 18.7952 6.94421 19.7704C6.98704 20.742 7.1443 21.41 7.36937 21.9888C7.60156 22.6031 7.96226 23.1532 8.42664 23.6105C8.8839 24.0748 9.43758 24.4357 10.0448 24.6642C10.6271 24.8893 11.2915 25.0464 12.2632 25.0893C13.2383 25.1322 13.5492 25.1428 16.0318 25.1428C18.5144 25.1428 18.8252 25.1322 19.8004 25.0893C20.772 25.0464 21.4399 24.8893 22.0186 24.6642C23.2475 24.1891 24.2191 23.2175 24.6942 21.9888C24.9191 21.4065 25.0764 20.742 25.1192 19.7704C25.1621 18.7952 25.1728 18.4844 25.1728 16.0018C25.1728 13.5192 25.1692 13.2084 25.1263 12.2332ZM23.4797 19.699C23.4403 20.592 23.2903 21.0742 23.1653 21.3957C22.858 22.1923 22.2258 22.8246 21.4292 23.1318C21.1077 23.2569 20.622 23.4069 19.7324 23.4461C18.7679 23.4891 18.4787 23.4997 16.0389 23.4997C13.5991 23.4997 13.3062 23.4891 12.3452 23.4461C11.4522 23.4069 10.97 23.2569 10.6485 23.1318C10.2521 22.9853 9.89121 22.7531 9.59832 22.4495C9.29469 22.153 9.06251 21.7958 8.91599 21.3994C8.79097 21.0779 8.64097 20.592 8.60176 19.7026C8.55878 18.7381 8.54818 18.4487 8.54818 16.0089C8.54818 13.5691 8.55878 13.2763 8.60176 12.3154C8.64097 11.4224 8.79097 10.9401 8.91599 10.6187C9.06251 10.2221 9.29469 9.86139 9.60195 9.56837C9.89833 9.26474 10.2555 9.03255 10.6521 8.88617C10.9736 8.76115 11.4595 8.61115 12.3489 8.5718C13.3133 8.52896 13.6027 8.51822 16.0424 8.51822C18.4858 8.51822 18.7751 8.52896 19.736 8.5718C20.6291 8.61115 21.1113 8.76115 21.4328 8.88617C21.8292 9.03255 22.1901 9.26474 22.483 9.56837C22.7866 9.86488 23.0188 10.2221 23.1653 10.6187C23.2903 10.9401 23.4403 11.4259 23.4797 12.3154C23.5225 13.2799 23.5332 13.5691 23.5332 16.0089C23.5332 18.4487 23.5225 18.7345 23.4797 19.699Z" fill="white"/>
<path d="M16.0352 11.3044C13.442 11.3044 11.3379 13.4084 11.3379 16.0018C11.3379 18.5952 13.442 20.6991 16.0352 20.6991C18.6287 20.6991 20.7326 18.5952 20.7326 16.0018C20.7326 13.4084 18.6287 11.3044 16.0352 11.3044ZM16.0352 19.0488C14.3528 19.0488 12.9882 17.6843 12.9882 16.0018C12.9882 14.3193 14.3528 12.9547 16.0352 12.9547C17.7178 12.9547 19.0823 14.3193 19.0823 16.0018C19.0823 17.6843 17.7178 19.0488 16.0352 19.0488Z" fill="white"/>
<path d="M22.0147 11.1188C22.0147 11.7244 21.5236 12.2154 20.9179 12.2154C20.3123 12.2154 19.8213 11.7244 19.8213 11.1188C19.8213 10.5131 20.3123 10.0222 20.9179 10.0222C21.5236 10.0222 22.0147 10.5131 22.0147 11.1188Z" fill="white"/>
</g>
<defs>
<clipPath id="clip0_734_4434">
<rect width="18.2857" height="18.2857" fill="white" transform="translate(6.8584 6.85718)"/>
</clipPath>
</defs>
</svg>
