<svg width="80" height="81" viewBox="0 0 80 81" fill="none" xmlns="http://www.w3.org/2000/svg">
<path d="M40 73.1943C30.1863 73.1943 22.5 56.7218 22.5 35.6943H25C25 54.6668 31.875 70.6943 40 70.6943C48.125 70.6943 55 54.6668 55 35.6943H57.5C57.5 56.7218 49.8137 73.1943 40 73.1943Z" fill="url(#paint0_linear_2896_3540)"/>
<path d="M40 73.1943C30.0578 73.1831 20.5261 69.2286 13.4959 62.1984C6.46574 55.1682 2.51125 45.6365 2.5 35.6943C2.5 35.3628 2.6317 35.0449 2.86612 34.8105C3.10054 34.576 3.41848 34.4443 3.75 34.4443H76.25C76.5815 34.4443 76.8995 34.576 77.1339 34.8105C77.3683 35.0449 77.5 35.3628 77.5 35.6943C77.4888 45.6365 73.5343 55.1682 66.5041 62.1984C59.4739 69.2286 49.9422 73.1831 40 73.1943ZM5.0225 36.9443C5.3475 46.0038 9.17491 54.5838 15.6989 60.878C22.223 67.1722 30.9347 70.6895 40 70.6895C49.0653 70.6895 57.777 67.1722 64.3011 60.878C70.8251 54.5838 74.6525 46.0038 74.9775 36.9443H5.0225Z" fill="url(#paint1_linear_2896_3540)"/>
<path d="M8.75 53.1943H71.25V55.6943H8.75V53.1943Z" fill="url(#paint2_linear_2896_3540)"/>
<path d="M28.75 33.1943C28.4185 33.1943 28.1005 33.0626 27.8661 32.8282C27.6317 32.5938 27.5 32.2759 27.5 31.9443V28.1943C27.2812 27.4443 23.2738 25.6943 17.5 25.6943C11.7263 25.6943 7.71875 27.4443 7.5 28.2193V31.9443C7.5 32.2759 7.3683 32.5938 7.13388 32.8282C6.89946 33.0626 6.58152 33.1943 6.25 33.1943C5.91848 33.1943 5.60054 33.0626 5.36612 32.8282C5.1317 32.5938 5 32.2759 5 31.9443V28.1943C5 24.7456 12.31 23.1943 17.5 23.1943C22.69 23.1943 30 24.7456 30 28.1943V31.9443C30 32.2759 29.8683 32.5938 29.6339 32.8282C29.3995 33.0626 29.0815 33.1943 28.75 33.1943Z" fill="url(#paint3_linear_2896_3540)"/>
<path d="M17.5 21.9443C16.0166 21.9443 14.5666 21.5045 13.3332 20.6804C12.0999 19.8563 11.1386 18.6849 10.5709 17.3145C10.0032 15.944 9.85472 14.436 10.1441 12.9812C10.4335 11.5263 11.1478 10.1899 12.1967 9.14104C13.2456 8.09214 14.582 7.37784 16.0368 7.08845C17.4917 6.79906 18.9997 6.94759 20.3701 7.51524C21.7406 8.0829 22.9119 9.04419 23.736 10.2776C24.5601 11.5109 25 12.961 25 14.4443C24.998 16.4329 24.2072 18.3394 22.8011 19.7454C21.395 21.1515 19.4885 21.9424 17.5 21.9443ZM17.5 9.44434C16.5111 9.44434 15.5444 9.73758 14.7222 10.287C13.8999 10.8364 13.259 11.6173 12.8806 12.5309C12.5022 13.4446 12.4032 14.4499 12.5961 15.4198C12.789 16.3897 13.2652 17.2806 13.9645 17.9799C14.6637 18.6791 15.5546 19.1553 16.5246 19.3483C17.4945 19.5412 18.4998 19.4422 19.4134 19.0637C20.3271 18.6853 21.1079 18.0444 21.6574 17.2222C22.2068 16.3999 22.5 15.4332 22.5 14.4443C22.5 13.1183 21.9732 11.8465 21.0355 10.9088C20.0979 9.97112 18.8261 9.44434 17.5 9.44434Z" fill="url(#paint4_linear_2896_3540)"/>
<path d="M51.25 33.1943C50.9185 33.1943 50.6005 33.0626 50.3661 32.8282C50.1317 32.5938 50 32.2759 50 31.9443V28.1943C49.7812 27.4443 45.7738 25.6943 40 25.6943C34.2263 25.6943 30.2188 27.4443 30 28.2193V31.9443C30 32.2759 29.8683 32.5938 29.6339 32.8282C29.3995 33.0626 29.0815 33.1943 28.75 33.1943C28.4185 33.1943 28.1005 33.0626 27.8661 32.8282C27.6317 32.5938 27.5 32.2759 27.5 31.9443V28.1943C27.5 24.7456 34.81 23.1943 40 23.1943C45.19 23.1943 52.5 24.7456 52.5 28.1943V31.9443C52.5 32.2759 52.3683 32.5938 52.1339 32.8282C51.8995 33.0626 51.5815 33.1943 51.25 33.1943Z" fill="url(#paint5_linear_2896_3540)"/>
<path d="M40 21.9443C38.5166 21.9443 37.0666 21.5045 35.8332 20.6804C34.5999 19.8563 33.6386 18.6849 33.0709 17.3145C32.5032 15.944 32.3547 14.436 32.6441 12.9812C32.9335 11.5263 33.6478 10.1899 34.6967 9.14104C35.7456 8.09214 37.082 7.37784 38.5368 7.08845C39.9917 6.79906 41.4997 6.94759 42.8701 7.51524C44.2406 8.0829 45.4119 9.04419 46.236 10.2776C47.0601 11.5109 47.5 12.961 47.5 14.4443C47.498 16.4329 46.7072 18.3394 45.3011 19.7454C43.895 21.1515 41.9885 21.9424 40 21.9443ZM40 9.44434C39.0111 9.44434 38.0444 9.73758 37.2222 10.287C36.3999 10.8364 35.759 11.6173 35.3806 12.5309C35.0022 13.4446 34.9032 14.4499 35.0961 15.4198C35.289 16.3897 35.7652 17.2806 36.4645 17.9799C37.1637 18.6791 38.0546 19.1553 39.0246 19.3483C39.9945 19.5412 40.9998 19.4422 41.9134 19.0637C42.8271 18.6853 43.6079 18.0444 44.1574 17.2222C44.7068 16.3999 45 15.4332 45 14.4443C45 13.1183 44.4732 11.8465 43.5355 10.9088C42.5979 9.97112 41.3261 9.44434 40 9.44434Z" fill="url(#paint6_linear_2896_3540)"/>
<path d="M73.75 33.1943C73.4185 33.1943 73.1005 33.0626 72.8661 32.8282C72.6317 32.5938 72.5 32.2759 72.5 31.9443V28.1943C72.2812 27.4443 68.2738 25.6943 62.5 25.6943C56.7263 25.6943 52.7188 27.4443 52.5 28.2193V31.9443C52.5 32.2759 52.3683 32.5938 52.1339 32.8282C51.8995 33.0626 51.5815 33.1943 51.25 33.1943C50.9185 33.1943 50.6005 33.0626 50.3661 32.8282C50.1317 32.5938 50 32.2759 50 31.9443V28.1943C50 24.7456 57.31 23.1943 62.5 23.1943C67.69 23.1943 75 24.7456 75 28.1943V31.9443C75 32.2759 74.8683 32.5938 74.6339 32.8282C74.3995 33.0626 74.0815 33.1943 73.75 33.1943Z" fill="url(#paint7_linear_2896_3540)"/>
<path d="M62.5 21.9443C61.0166 21.9443 59.5666 21.5045 58.3332 20.6804C57.0999 19.8563 56.1386 18.6849 55.5709 17.3145C55.0032 15.944 54.8547 14.436 55.1441 12.9812C55.4335 11.5263 56.1478 10.1899 57.1967 9.14104C58.2456 8.09214 59.582 7.37784 61.0368 7.08845C62.4917 6.79906 63.9997 6.94759 65.3701 7.51524C66.7406 8.0829 67.9119 9.04419 68.736 10.2776C69.5601 11.5109 70 12.961 70 14.4443C69.998 16.4329 69.2072 18.3394 67.8011 19.7454C66.395 21.1515 64.4885 21.9424 62.5 21.9443ZM62.5 9.44434C61.5111 9.44434 60.5444 9.73758 59.7222 10.287C58.8999 10.8364 58.259 11.6173 57.8806 12.5309C57.5022 13.4446 57.4032 14.4499 57.5961 15.4198C57.789 16.3897 58.2652 17.2806 58.9645 17.9799C59.6637 18.6791 60.5546 19.1553 61.5246 19.3483C62.4945 19.5412 63.4998 19.4422 64.4134 19.0637C65.3271 18.6853 66.1079 18.0444 66.6574 17.2222C67.2068 16.3999 67.5 15.4332 67.5 14.4443C67.5 13.1183 66.9732 11.8465 66.0355 10.9088C65.0979 9.97112 63.8261 9.44434 62.5 9.44434Z" fill="url(#paint8_linear_2896_3540)"/>
<defs>
<linearGradient id="paint0_linear_2896_3540" x1="22.5" y1="54.4443" x2="57.5" y2="54.4443" gradientUnits="userSpaceOnUse">
<stop stop-color="#991F3D"/>
<stop offset="1" stop-color="#E7474D"/>
</linearGradient>
<linearGradient id="paint1_linear_2896_3540" x1="2.5" y1="53.8193" x2="77.5" y2="53.8193" gradientUnits="userSpaceOnUse">
<stop stop-color="#991F3D"/>
<stop offset="1" stop-color="#E7474D"/>
</linearGradient>
<linearGradient id="paint2_linear_2896_3540" x1="8.75" y1="54.4443" x2="71.25" y2="54.4443" gradientUnits="userSpaceOnUse">
<stop stop-color="#991F3D"/>
<stop offset="1" stop-color="#E7474D"/>
</linearGradient>
<linearGradient id="paint3_linear_2896_3540" x1="5" y1="28.1943" x2="30" y2="28.1943" gradientUnits="userSpaceOnUse">
<stop stop-color="#991F3D"/>
<stop offset="1" stop-color="#E7474D"/>
</linearGradient>
<linearGradient id="paint4_linear_2896_3540" x1="10" y1="14.4443" x2="25" y2="14.4443" gradientUnits="userSpaceOnUse">
<stop stop-color="#991F3D"/>
<stop offset="1" stop-color="#E7474D"/>
</linearGradient>
<linearGradient id="paint5_linear_2896_3540" x1="27.5" y1="28.1943" x2="52.5" y2="28.1943" gradientUnits="userSpaceOnUse">
<stop stop-color="#991F3D"/>
<stop offset="1" stop-color="#E7474D"/>
</linearGradient>
<linearGradient id="paint6_linear_2896_3540" x1="32.5" y1="14.4443" x2="47.5" y2="14.4443" gradientUnits="userSpaceOnUse">
<stop stop-color="#991F3D"/>
<stop offset="1" stop-color="#E7474D"/>
</linearGradient>
<linearGradient id="paint7_linear_2896_3540" x1="50" y1="28.1943" x2="75" y2="28.1943" gradientUnits="userSpaceOnUse">
<stop stop-color="#991F3D"/>
<stop offset="1" stop-color="#E7474D"/>
</linearGradient>
<linearGradient id="paint8_linear_2896_3540" x1="55" y1="14.4443" x2="70" y2="14.4443" gradientUnits="userSpaceOnUse">
<stop stop-color="#991F3D"/>
<stop offset="1" stop-color="#E7474D"/>
</linearGradient>
</defs>
</svg>
