<svg width="80" height="80" viewBox="0 0 80 80" fill="none" xmlns="http://www.w3.org/2000/svg">
<path d="M74.4027 1.40894H19.0961C16.7869 1.40894 14.9083 3.28753 14.9083 5.59659V43.8038L4.80175 48.4163C4.41285 48.5938 4.16332 48.9819 4.16332 49.4094C4.16332 49.8369 4.41269 50.225 4.8016 50.4025L7.01707 51.4141L4.9505 51.7608C4.42597 51.8488 4.04113 52.3019 4.03925 52.8338L4.02019 58.3308C2.70363 58.7842 1.75378 60.0324 1.75378 61.501C1.75378 62.1216 1.92566 62.7014 2.21988 63.2008C2.21722 63.2161 2.21332 63.2316 2.21113 63.2471L1.43113 68.0147C1.33988 68.5792 1.50144 69.1391 1.88628 69.5911C2.31097 70.09 2.95769 70.388 3.61613 70.388H6.60144C7.26082 70.388 7.90753 70.0907 8.3316 69.5925C8.71644 69.1405 8.878 68.5802 8.78644 68.0138L8.01144 63.248C8.01035 63.2411 8.0091 63.2344 8.00785 63.2275C8.00613 63.2183 8.00378 63.2094 8.00207 63.2003C8.29644 62.7011 8.46847 62.1214 8.46847 61.5011C8.46847 60.0344 7.51957 58.7877 6.20394 58.3327L6.21972 53.7622L10.5633 53.0336L10.8336 53.1571V64.2119C10.8336 66.88 12.5343 69.1578 14.9085 70.0196V74.4033C14.9085 76.7125 16.7871 78.5911 19.0963 78.5911H74.4028C76.7121 78.5911 78.5907 76.7125 78.5907 74.4033V5.59675C78.5907 3.28769 76.7121 1.40909 74.4028 1.40909L74.4027 1.40894ZM6.60144 68.2047H3.61613C3.61503 68.2047 3.61394 68.2047 3.61269 68.2047L4.18144 64.7275C4.47644 64.8127 4.78691 64.861 5.10878 64.861C5.43066 64.861 5.74347 64.8125 6.03941 64.7271L6.60503 68.2049C6.60378 68.2049 6.60253 68.2047 6.60144 68.2047ZM5.10878 62.6772C4.46285 62.6772 3.93722 62.1497 3.93722 61.5013C3.93722 60.8528 4.46285 60.3297 5.10878 60.3297C5.75472 60.3297 6.28472 60.8552 6.28472 61.5013C6.28472 62.1474 5.75722 62.6772 5.10878 62.6772ZM17.0918 5.59675C17.0918 4.49159 17.9908 3.59253 19.096 3.59253H24.9869C24.6608 4.18815 24.4752 4.87112 24.4752 5.59675V39.4378L17.0918 42.8075V5.59675ZM7.88394 49.41L16.4174 45.5155C16.4291 45.5107 16.4403 45.505 16.4519 45.4997L25.5671 41.3397L43.2538 49.41L25.5671 57.4842L14.4077 52.3888L25.7475 50.4866C26.3422 50.3867 26.7435 49.8239 26.6436 49.2292C26.5438 48.6346 25.9807 48.2336 25.3863 48.3332L11.8199 50.6089C11.7716 50.6136 11.7246 50.6219 11.6785 50.6327L10.8614 50.7697L7.88394 49.4102V49.41ZM13.0169 64.2119V54.1541L25.1133 59.6774C25.2574 59.7432 25.4121 59.776 25.5668 59.776C25.7214 59.776 25.8761 59.7432 26.0202 59.6774L38.1168 54.1552V64.1674C38.1168 66.3935 36.3077 68.2046 34.0839 68.2046H17.0096C16.7432 68.2046 16.483 68.1778 16.2311 68.1278C16.2205 68.1255 16.2099 68.1238 16.1993 68.1217C14.3849 67.7463 13.0168 66.1358 13.0168 64.2117L13.0169 64.2119ZM17.0918 74.4033V70.3883H24.4752V74.4033C24.4752 75.1289 24.6608 75.8119 24.9869 76.4075H19.096C17.9908 76.4075 17.0918 75.5085 17.0918 74.4033ZM76.4068 74.4033C76.4068 75.5085 75.5077 76.4075 74.4025 76.4075H28.663C27.5578 76.4075 26.6588 75.5085 26.6588 74.4033V70.3883H34.0843C37.5119 70.3883 40.3005 67.5977 40.3005 64.1677V53.1586L46.3368 50.403C46.7257 50.2255 46.9752 49.8372 46.975 49.4097C46.975 48.9822 46.7253 48.5939 46.3364 48.4166L26.6586 39.4378V5.59675C26.6586 4.49159 27.5577 3.59253 28.6628 3.59253H74.4025C75.5077 3.59253 76.4068 4.49159 76.4068 5.59675V74.4033ZM73.5455 31.8172C73.5455 32.4202 73.0568 32.9089 72.4538 32.9089H55.6054C55.0024 32.9089 54.5136 32.4202 54.5136 31.8172C54.5136 31.2142 55.0024 30.7255 55.6054 30.7255H72.4538C73.0568 30.7255 73.5455 31.2142 73.5455 31.8172ZM73.5455 25.9264C73.5455 26.5294 73.0568 27.0182 72.4538 27.0182H55.6054C55.0024 27.0182 54.5136 26.5294 54.5136 25.9264C54.5136 25.3235 55.0024 24.8347 55.6054 24.8347H72.4538C73.0568 24.8347 73.5455 25.3235 73.5455 25.9264ZM73.5455 20.0402C73.5455 20.6432 73.0568 21.1319 72.4538 21.1319H55.6054C55.0024 21.1319 54.5136 20.6432 54.5136 20.0402C54.5136 19.4372 55.0024 18.9485 55.6054 18.9485H72.4538C73.0568 18.9485 73.5455 19.4372 73.5455 20.0402ZM53.3177 31.8172C53.3177 26.5155 49.9593 21.9842 45.2585 20.2366C47.0452 18.9171 48.2066 16.7972 48.2066 14.4107C48.2066 10.4188 44.9591 7.17112 40.9672 7.17112C36.9753 7.17112 33.7278 10.4188 33.7278 14.4107C33.7278 16.7971 34.8889 18.9166 36.6753 20.2361C31.9724 21.9835 28.6122 26.5149 28.6122 31.8171C28.6122 32.42 29.101 32.9088 29.7039 32.9088H52.2261C52.8291 32.9088 53.3178 32.42 53.3178 31.8171L53.3177 31.8172ZM35.9113 14.4108C35.9113 11.623 38.1794 9.35487 40.9671 9.35487C43.7547 9.35487 46.0229 11.623 46.0229 14.4108C46.0229 17.1986 43.7547 19.4666 40.9671 19.4666C38.1794 19.4666 35.9113 17.1985 35.9113 14.4108ZM30.8538 30.7255C31.4005 25.631 35.7275 21.6502 40.9671 21.6502C46.2066 21.6502 50.5294 25.631 51.076 30.7255H30.8538ZM72.4538 7.17128H55.6054C55.0024 7.17128 54.5136 7.66003 54.5136 8.263V14.1494C54.5136 14.7524 55.0024 15.2411 55.6054 15.2411H72.4538C73.0568 15.2411 73.5455 14.7524 73.5455 14.1494V8.263C73.5455 7.66003 73.0568 7.17128 72.4538 7.17128ZM71.3621 13.0577H56.6972V9.35487H71.3621V13.0577ZM72.4538 40.9125H62.351C61.748 40.9125 61.2593 41.4013 61.2593 42.0042V52.1072C61.2593 52.7102 61.748 53.1989 62.351 53.1989H72.4538C73.0568 53.1989 73.5455 52.7102 73.5455 52.1072V42.0042C73.5455 41.4013 73.0568 40.9125 72.4538 40.9125ZM71.3621 51.0155H63.4427V43.0961H71.3621V51.0155ZM72.4538 58.3589H62.351C61.748 58.3589 61.2593 58.8477 61.2593 59.4507V69.5536C61.2593 70.1566 61.748 70.6453 62.351 70.6453H72.4538C73.0568 70.6453 73.5455 70.1566 73.5455 69.5536V59.4507C73.5455 58.8477 73.0568 58.3589 72.4538 58.3589ZM71.3621 68.4619H63.4427V60.5425H71.3621V68.4619ZM64.3508 48.8175C64.0493 48.2953 64.2283 47.6275 64.7505 47.3261L68.9671 44.8902C69.4894 44.5888 70.1571 44.7677 70.4585 45.2899C70.76 45.8121 70.581 46.4799 70.0588 46.7813L65.8422 49.2172C65.6702 49.3164 65.4825 49.3638 65.2974 49.3638C64.92 49.3638 64.553 49.168 64.3508 48.8177V48.8175ZM64.3521 66.2705C64.0493 65.7491 64.2268 65.0808 64.7482 64.7782C65.7719 64.1839 66.798 63.5921 67.823 63.0008L68.9669 62.3408C69.4893 62.0394 70.1569 62.2183 70.4583 62.7405C70.7599 63.2627 70.5808 63.9305 70.0586 64.2319L68.9139 64.8924C67.8907 65.4825 66.8663 66.0735 65.8443 66.6666C65.6718 66.7667 65.4832 66.8144 65.2972 66.8144C64.9208 66.8144 64.5546 66.6194 64.3521 66.2705ZM59.0578 64.5044C59.0578 65.1074 58.5691 65.5961 57.9661 65.5961H46.88C46.2771 65.5961 45.7883 65.1074 45.7883 64.5044C45.7883 63.9014 46.2771 63.4127 46.88 63.4127H57.9661C58.5691 63.4127 59.0578 63.9014 59.0578 64.5044ZM59.0578 59.4508C59.0578 60.0538 58.5691 60.5425 57.9661 60.5425H46.88C46.2771 60.5425 45.7883 60.0538 45.7883 59.4508C45.7883 58.8478 46.2771 58.3591 46.88 58.3591H57.9661C58.5691 58.3591 59.0578 58.8478 59.0578 59.4508ZM59.0578 69.5538C59.0578 70.1568 58.5691 70.6455 57.9661 70.6455H46.88C46.2771 70.6455 45.7883 70.1568 45.7883 69.5538C45.7883 68.9508 46.2771 68.4621 46.88 68.4621H57.9661C58.5691 68.4621 59.0578 68.9508 59.0578 69.5538ZM59.0578 47.0538C59.0578 47.6567 58.5691 48.1455 57.9661 48.1455H46.88C46.2771 48.1455 45.7883 47.6567 45.7883 47.0538C45.7883 46.4508 46.2771 45.9621 46.88 45.9621H57.9661C58.5691 45.9621 59.0578 46.4508 59.0578 47.0538ZM59.0578 52.103C59.0578 52.706 58.5691 53.1947 57.9661 53.1947H46.88C46.2771 53.1947 45.7883 52.706 45.7883 52.103C45.7883 51.5 46.2771 51.0113 46.88 51.0113H57.9661C58.5691 51.0113 59.0578 51.5 59.0578 52.103ZM59.0578 42.0046C59.0578 42.6075 58.5691 43.0963 57.9661 43.0963H46.88C46.2771 43.0963 45.7883 42.6075 45.7883 42.0046C45.7883 41.4016 46.2771 40.9128 46.88 40.9128H57.9661C58.5691 40.9128 59.0578 41.4016 59.0578 42.0046Z" fill="url(#paint0_linear_2896_3122)"/>
<defs>
<linearGradient id="paint0_linear_2896_3122" x1="1.40625" y1="40" x2="78.5907" y2="40" gradientUnits="userSpaceOnUse">
<stop stop-color="#991F3D"/>
<stop offset="1" stop-color="#E7474D"/>
</linearGradient>
</defs>
</svg>
