<svg width="80" height="80" viewBox="0 0 80 80" fill="none" xmlns="http://www.w3.org/2000/svg">
<path fill-rule="evenodd" clip-rule="evenodd" d="M53.6909 37.7257C53.1869 37.7257 52.7304 37.4324 52.5197 36.9739C51.0263 33.7185 45.0361 22.552 43.4725 17.6731C41.4358 11.3173 47.3248 4.99866 53.6909 4.99866C60.0508 4.99866 65.9604 11.309 63.9011 17.702C62.323 22.5974 56.3555 33.7185 54.8621 36.9759C54.6514 37.4324 54.1949 37.7257 53.6909 37.7257ZM53.6909 7.57444C49.0722 7.57444 44.4309 12.222 45.9264 16.8881C47.1492 20.7074 51.4022 28.9119 53.6909 33.4954C55.9734 28.9264 60.214 20.7425 61.4492 16.9129C62.9488 12.2509 58.3426 7.57444 53.6909 7.57444Z" fill="url(#paint0_linear_2896_3554)"/>
<path fill-rule="evenodd" clip-rule="evenodd" d="M53.6951 19.654C51.0078 19.654 48.8203 17.4665 48.8203 14.7792C48.8203 12.0919 51.0078 9.90442 53.6951 9.90442C56.3824 9.90442 58.5699 12.0919 58.5699 14.7792C58.5699 17.4665 56.3845 19.654 53.6951 19.654ZM53.6951 12.4823C52.4289 12.4823 51.3982 13.513 51.3982 14.7792C51.3982 16.0454 52.4289 17.0761 53.6951 17.0761C54.9613 17.0761 55.992 16.0454 55.992 14.7792C55.992 13.513 54.9634 12.4823 53.6951 12.4823Z" fill="url(#paint1_linear_2896_3554)"/>
<path fill-rule="evenodd" clip-rule="evenodd" d="M70.6814 75.2429H9.40177C7.41054 75.2429 5.78906 73.6215 5.78906 71.6302V26.456C5.78906 24.4647 7.41054 22.8433 9.40177 22.8433H47.613C48.3235 22.8433 48.9019 23.4196 48.9019 24.1322C48.9019 24.8427 48.3256 25.4211 47.613 25.4211H9.40177C8.8296 25.4211 8.36484 25.8859 8.36484 26.458V71.6323C8.36484 72.2045 8.8296 72.6692 9.40177 72.6692H70.6814C71.2536 72.6692 71.7183 72.2045 71.7183 71.6323V26.458C71.7183 25.8859 71.2536 25.4211 70.6814 25.4211H59.7772C59.0666 25.4211 58.4883 24.8448 58.4883 24.1322C58.4883 23.4216 59.0646 22.8433 59.7772 22.8433H70.6814C72.6726 22.8433 74.2941 24.4627 74.2941 26.456V71.6302C74.2941 73.6215 72.6747 75.2429 70.6814 75.2429Z" fill="url(#paint2_linear_2896_3554)"/>
<path fill-rule="evenodd" clip-rule="evenodd" d="M68.1726 70.4116H11.9061C11.1955 70.4116 10.6172 69.8353 10.6172 69.1226V28.9615C10.6172 28.251 11.1935 27.6726 11.9061 27.6726H49.9727C50.6833 27.6726 51.2616 28.2489 51.2616 28.9615C51.2616 29.6721 50.6854 30.2504 49.9727 30.2504H13.193V67.8337H66.8836V30.2484H57.4109C56.7003 30.2484 56.122 29.6721 56.122 28.9595C56.122 28.2489 56.6983 27.6705 57.4109 27.6705H68.1726C68.8831 27.6705 69.4615 28.2468 69.4615 28.9595V69.1206C69.4594 69.8332 68.8831 70.4116 68.1726 70.4116Z" fill="url(#paint3_linear_2896_3554)"/>
<path fill-rule="evenodd" clip-rule="evenodd" d="M41.2961 65.264C40.9326 65.264 40.5814 65.1091 40.3356 64.8344L34.3805 58.1646L25.0214 57.264C24.3129 57.1959 23.7944 56.5659 23.8626 55.8574C23.9307 55.1489 24.5607 54.6284 25.2692 54.6986L35.1303 55.6467C35.4526 55.6777 35.7521 55.8285 35.9669 56.0701L41.7939 62.5953L49.4779 61.4262C50.1822 61.3188 50.8391 61.8021 50.9465 62.5065C51.0539 63.2108 50.5706 63.8677 49.8662 63.9751C41.0069 65.3177 41.4799 65.264 41.2961 65.264ZM55.4143 61.4964C55.0343 61.4964 54.6563 61.3291 54.4022 61.0069C53.9622 60.4471 54.0573 59.6395 54.615 59.1974L61.6359 53.6555C61.9085 53.4406 61.7516 53.5708 67.7004 51.2036C68.3614 50.9433 69.1112 51.2676 69.3715 51.9286C69.6318 52.5896 69.3075 53.3394 68.6465 53.5997L63.0839 55.7954L56.2117 61.2196C55.9741 61.4055 55.6932 61.4964 55.4143 61.4964ZM22.7244 53.893C22.0759 53.5997 21.7887 52.8354 22.082 52.1868L26.3805 42.6934L11.0808 29.9467C10.5334 29.4902 10.4611 28.6784 10.9155 28.1331C11.372 27.5857 12.1838 27.5135 12.7291 27.9679L28.7828 41.3425C29.229 41.7143 29.3715 42.3361 29.1319 42.8628L24.4286 53.2506C24.1352 53.8992 23.373 54.1884 22.7244 53.893Z" fill="url(#paint4_linear_2896_3554)"/>
<path fill-rule="evenodd" clip-rule="evenodd" d="M35.0083 58.2184C33.8474 58.2184 33.2753 56.7869 34.1263 55.9896L38.9701 51.4515L39.8727 42.0738C39.9409 41.3653 40.5709 40.8447 41.2794 40.915C41.9879 40.9831 42.5064 41.6131 42.4382 42.3216L41.4901 52.1827C41.4591 52.4946 41.3166 52.7859 41.0873 52.9986L35.8882 57.8693C35.6404 58.1027 35.3223 58.2184 35.0083 58.2184ZM51.849 44.9656C51.6714 44.9656 51.4916 44.9284 51.3181 44.8499L43.882 41.483C43.2335 41.1897 42.9463 40.4254 43.2396 39.7768C43.533 39.1282 44.2972 38.8411 44.9458 39.1344L52.3819 42.5013C53.0305 42.7947 53.3176 43.5589 53.0243 44.2075C52.8074 44.6847 52.3406 44.9656 51.849 44.9656ZM56.0483 43.5155C55.5009 43.059 55.4286 42.2473 55.8831 41.702L67.1839 28.1373C67.6404 27.5899 68.4521 27.5176 68.9975 27.972C69.5428 28.4265 69.6171 29.2403 69.1627 29.7856L57.8619 43.3503C57.4095 43.8956 56.5978 43.972 56.0483 43.5155Z" fill="url(#paint5_linear_2896_3554)"/>
<path fill-rule="evenodd" clip-rule="evenodd" d="M41.4632 43.5011C38.968 43.5011 36.9375 41.4706 36.9375 38.9754C36.9375 36.4802 38.968 34.4497 41.4632 34.4497C43.9584 34.4497 45.9909 36.4802 45.9909 38.9754C45.9909 41.4706 43.9605 43.5011 41.4632 43.5011ZM41.4632 37.0255C40.3891 37.0255 39.5133 37.9013 39.5133 38.9754C39.5133 40.0495 40.387 40.9253 41.4632 40.9253C42.5373 40.9253 43.4131 40.0495 43.4131 38.9754C43.4131 37.8992 42.5394 37.0255 41.4632 37.0255Z" fill="url(#paint6_linear_2896_3554)"/>
<path fill-rule="evenodd" clip-rule="evenodd" d="M21.9241 60.1973C19.4289 60.1973 17.3984 58.1668 17.3984 55.6716C17.3984 53.1763 19.4289 51.1459 21.9241 51.1459C24.4194 51.1459 26.4498 53.1763 26.4498 55.6716C26.4498 58.1668 24.4194 60.1973 21.9241 60.1973ZM21.9241 53.7217C20.85 53.7217 19.9742 54.5975 19.9742 55.6716C19.9742 56.7457 20.848 57.6215 21.9241 57.6215C22.9982 57.6215 23.874 56.7457 23.874 55.6716C23.872 54.5954 22.9982 53.7217 21.9241 53.7217Z" fill="url(#paint7_linear_2896_3554)"/>
<path fill-rule="evenodd" clip-rule="evenodd" d="M54.8012 49.5409C52.306 49.5409 50.2734 47.5104 50.2734 45.0152C50.2734 42.52 52.3039 40.4895 54.8012 40.4895C57.2964 40.4895 59.329 42.52 59.329 45.0152C59.329 47.5104 57.2964 49.5409 54.8012 49.5409ZM54.8012 43.0632C53.7271 43.0632 52.8513 43.939 52.8513 45.0131C52.8513 46.0872 53.725 46.963 54.8012 46.963C55.8774 46.963 56.7511 46.0872 56.7511 45.0131C56.7511 43.939 55.8753 43.0632 54.8012 43.0632Z" fill="url(#paint8_linear_2896_3554)"/>
<path fill-rule="evenodd" clip-rule="evenodd" d="M41.2967 70.4116C40.5862 70.4116 40.0078 69.8353 40.0078 69.1226V63.9752C40.0078 63.2646 40.5841 62.6863 41.2967 62.6863C42.0073 62.6863 42.5857 63.2626 42.5857 63.9752V69.1226C42.5857 69.8332 42.0094 70.4116 41.2967 70.4116Z" fill="url(#paint9_linear_2896_3554)"/>
<path fill-rule="evenodd" clip-rule="evenodd" d="M63.4613 70.2195L54.9594 65.0039C54.3521 64.6321 54.1621 63.8389 54.5339 63.2316C54.9057 62.6243 55.6989 62.4343 56.3062 62.8061L64.8081 68.0217C65.4154 68.3935 65.6054 69.1867 65.2336 69.794C64.8577 70.4054 64.0624 70.5892 63.4613 70.2195Z" fill="url(#paint10_linear_2896_3554)"/>
<path fill-rule="evenodd" clip-rule="evenodd" d="M27.9598 43.6229C27.3814 43.6229 26.8568 43.2305 26.7101 42.6459C26.5387 41.956 26.96 41.2558 27.6499 41.0843L38.0109 38.5086C38.7008 38.3371 39.401 38.7585 39.5725 39.4484C39.7439 40.1383 39.3226 40.8385 38.6326 41.01C27.7305 43.7056 28.2614 43.6229 27.9598 43.6229Z" fill="url(#paint11_linear_2896_3554)"/>
<path fill-rule="evenodd" clip-rule="evenodd" d="M61.5124 55.5599L55.0885 48.9129C54.5948 48.4006 54.6072 47.5847 55.1195 47.091C55.6317 46.5974 56.4476 46.6098 56.9413 47.122L63.3653 53.7691C63.8589 54.2813 63.8465 55.0972 63.3343 55.5909C62.822 56.0846 62.0061 56.0722 61.5124 55.5599Z" fill="url(#paint12_linear_2896_3554)"/>
<path fill-rule="evenodd" clip-rule="evenodd" d="M52.8715 66.741C50.3763 66.741 48.3438 64.7105 48.3438 62.2153C48.3438 59.72 50.3742 57.6896 52.8715 57.6896C55.3667 57.6896 57.3993 59.72 57.3993 62.2153C57.3993 64.7084 55.3667 66.741 52.8715 66.741ZM52.8715 60.2633C51.7974 60.2633 50.9216 61.1391 50.9216 62.2132C50.9216 63.2873 51.7953 64.1631 52.8715 64.1631C53.9477 64.1631 54.8214 63.2873 54.8214 62.2132C54.8214 61.1391 53.9456 60.2633 52.8715 60.2633Z" fill="url(#paint13_linear_2896_3554)"/>
<defs>
<linearGradient id="paint0_linear_2896_3554" x1="43.0625" y1="21.3622" x2="64.3181" y2="21.3622" gradientUnits="userSpaceOnUse">
<stop stop-color="#991F3D"/>
<stop offset="1" stop-color="#E7474D"/>
</linearGradient>
<linearGradient id="paint1_linear_2896_3554" x1="48.8203" y1="14.7792" x2="58.5699" y2="14.7792" gradientUnits="userSpaceOnUse">
<stop stop-color="#991F3D"/>
<stop offset="1" stop-color="#E7474D"/>
</linearGradient>
<linearGradient id="paint2_linear_2896_3554" x1="5.78906" y1="49.0431" x2="74.2941" y2="49.0431" gradientUnits="userSpaceOnUse">
<stop stop-color="#991F3D"/>
<stop offset="1" stop-color="#E7474D"/>
</linearGradient>
<linearGradient id="paint3_linear_2896_3554" x1="10.6172" y1="49.041" x2="69.4615" y2="49.041" gradientUnits="userSpaceOnUse">
<stop stop-color="#991F3D"/>
<stop offset="1" stop-color="#E7474D"/>
</linearGradient>
<linearGradient id="paint4_linear_2896_3554" x1="10.6172" y1="46.4669" x2="69.4613" y2="46.4669" gradientUnits="userSpaceOnUse">
<stop stop-color="#991F3D"/>
<stop offset="1" stop-color="#E7474D"/>
</linearGradient>
<linearGradient id="paint5_linear_2896_3554" x1="33.7188" y1="42.946" x2="69.4604" y2="42.946" gradientUnits="userSpaceOnUse">
<stop stop-color="#991F3D"/>
<stop offset="1" stop-color="#E7474D"/>
</linearGradient>
<linearGradient id="paint6_linear_2896_3554" x1="36.9375" y1="38.9754" x2="45.9909" y2="38.9754" gradientUnits="userSpaceOnUse">
<stop stop-color="#991F3D"/>
<stop offset="1" stop-color="#E7474D"/>
</linearGradient>
<linearGradient id="paint7_linear_2896_3554" x1="17.3984" y1="55.6716" x2="26.4498" y2="55.6716" gradientUnits="userSpaceOnUse">
<stop stop-color="#991F3D"/>
<stop offset="1" stop-color="#E7474D"/>
</linearGradient>
<linearGradient id="paint8_linear_2896_3554" x1="50.2734" y1="45.0152" x2="59.329" y2="45.0152" gradientUnits="userSpaceOnUse">
<stop stop-color="#991F3D"/>
<stop offset="1" stop-color="#E7474D"/>
</linearGradient>
<linearGradient id="paint9_linear_2896_3554" x1="40.0078" y1="66.5489" x2="42.5857" y2="66.5489" gradientUnits="userSpaceOnUse">
<stop stop-color="#991F3D"/>
<stop offset="1" stop-color="#E7474D"/>
</linearGradient>
<linearGradient id="paint10_linear_2896_3554" x1="54.3438" y1="66.5128" x2="65.4237" y2="66.5128" gradientUnits="userSpaceOnUse">
<stop stop-color="#991F3D"/>
<stop offset="1" stop-color="#E7474D"/>
</linearGradient>
<linearGradient id="paint11_linear_2896_3554" x1="26.6719" y1="41.0468" x2="39.6107" y2="41.0468" gradientUnits="userSpaceOnUse">
<stop stop-color="#991F3D"/>
<stop offset="1" stop-color="#E7474D"/>
</linearGradient>
<linearGradient id="paint12_linear_2896_3554" x1="54.7266" y1="51.341" x2="63.7272" y2="51.341" gradientUnits="userSpaceOnUse">
<stop stop-color="#991F3D"/>
<stop offset="1" stop-color="#E7474D"/>
</linearGradient>
<linearGradient id="paint13_linear_2896_3554" x1="48.3438" y1="62.2153" x2="57.3993" y2="62.2153" gradientUnits="userSpaceOnUse">
<stop stop-color="#991F3D"/>
<stop offset="1" stop-color="#E7474D"/>
</linearGradient>
</defs>
</svg>
