<svg width="32" height="32" viewBox="0 0 32 32" fill="none" xmlns="http://www.w3.org/2000/svg">
<circle cx="16" cy="16" r="16" fill="#EF4B4F"/>
<path d="M10.4134 10.5736L10.4133 10.5734L10.4056 10.5811C10.1111 10.8756 9.72102 11.0516 9.31795 11.0264L9.31017 11.026H9.30236C8.90596 11.026 8.48371 10.8656 8.19914 10.5811L8.19931 10.5809L8.1913 10.5736C7.88453 10.2924 7.72379 9.87546 7.72379 9.44738C7.72379 9.02595 7.8804 8.63244 8.19914 8.3137C8.48371 8.02913 8.87549 7.86881 9.33283 7.86881C9.72475 7.86881 10.118 8.02609 10.4056 8.3137C10.7243 8.63244 10.8809 9.02595 10.8809 9.44738C10.8809 9.87546 10.7202 10.2924 10.4134 10.5736ZM9.33283 6.75928C8.59969 6.75928 7.92544 7.02693 7.41891 7.53346C6.88472 8.06765 6.61426 8.74062 6.61426 9.44735C6.61426 10.1885 6.91804 10.8604 7.41891 11.3613C7.91751 11.8599 8.62112 12.1677 9.30841 12.1355H9.30849H9.30858H9.30866H9.30875H9.30883H9.30892H9.309H9.30909H9.30918H9.30927H9.30936H9.30944H9.30953H9.30962H9.30971H9.30981H9.3099H9.30999H9.31008H9.31017H9.31027H9.31036H9.31046H9.31055H9.31065H9.31074H9.31084H9.31093H9.31103H9.31113H9.31123H9.31133H9.31143H9.31153H9.31163H9.31173H9.31183H9.31193H9.31203H9.31213H9.31224H9.31234H9.31244H9.31255H9.31265H9.31276H9.31286H9.31297H9.31307H9.31318H9.31329H9.3134H9.3135H9.31361H9.31372H9.31383H9.31394H9.31405H9.31416H9.31427H9.31438H9.3145H9.31461H9.31472H9.31484H9.31495H9.31506H9.31518H9.31529H9.31541H9.31552H9.31564H9.31576H9.31587H9.31599H9.31611H9.31623H9.31635H9.31647H9.31658H9.3167H9.31682H9.31695H9.31707H9.31719H9.31731H9.31743H9.31755H9.31768H9.3178H9.31792H9.31805H9.31817H9.3183H9.31842H9.31855H9.31868H9.3188H9.31893H9.31906H9.31918H9.31931H9.31944H9.31957H9.3197H9.31983H9.31996H9.32009H9.32022H9.32035H9.32048H9.32061H9.32074H9.32088H9.32101H9.32114H9.32128H9.32141H9.32154H9.32168H9.32181H9.32195H9.32208H9.32222H9.32236H9.32249H9.32263H9.32277H9.3229H9.32304H9.32318H9.32332H9.32346H9.3236H9.32374H9.32388H9.32402H9.32416H9.3243H9.32444H9.32458H9.32472H9.32486H9.32501H9.32515H9.32529H9.32543H9.32558H9.32572H9.32587H9.32601H9.32616H9.3263H9.32645H9.32659H9.32674H9.32688H9.32703H9.32718H9.32733H9.32747H9.32762H9.32777H9.32792H9.32807H9.32822H9.32836H9.32851H9.32866H9.32881H9.32896H9.32911H9.32927H9.32942H9.32957H9.32972H9.32987H9.33002H9.33018H9.33033H9.33048H9.33064H9.33079H9.33094H9.3311H9.33125H9.33141H9.33156H9.33172H9.33187H9.33203H9.33218H9.33234H9.3325H9.33265H9.33281H9.33297H9.33312H9.33328H9.33344H9.3336H9.33376H9.33391H9.33407H9.33423H9.33439H9.33455H9.33471H9.33487H9.33503H9.33519H9.33535H9.33551H9.33567H9.33584H9.336H9.33616H9.33632H9.33648H9.33665H9.33681H9.33697H9.33713H9.3373H9.33746H9.33762H9.33779H9.33795H9.33812H9.33828H9.33844H9.33861H9.33877H9.33894H9.33911H9.33927H9.33944H9.3396H9.33977H9.33993H9.3401H9.34027H9.34043H9.3406H9.34077H9.34094H9.3411H9.34127H9.34144H9.34161H9.34178H9.34194H9.34211H9.34228H9.34245H9.34262H9.34279H9.34296H9.34313H9.3433H9.34347H9.34364H9.34381H9.34398H9.34415H9.34432H9.34449H9.34466H9.34483H9.345H9.34517H9.34535H9.34552H9.34569H9.34586H9.34603H9.3462H9.34638H9.34655H9.34672H9.34689H9.34707H9.34724H9.34741H9.34759H9.34776H9.34793H9.34811H9.34828H9.34845H9.34863H9.3488H9.34898H9.34915H9.34933H9.3495H9.34967H9.34985H9.35002H9.3502H9.35037H9.35055H9.35072H9.3509H9.35107H9.35125H9.35143H9.3516H9.35178H9.35195H9.35213H9.3523H9.35248H9.35266H9.35283H9.35301H9.35319H9.35336H9.35354H9.35372H9.35389H9.35407H9.35425H9.35442H9.3546H9.35478H9.35495H9.35513H9.35531H9.35549H9.35566H9.35584H9.35602H9.3562H9.35637H9.35655H9.35673H9.35691H9.35708H9.35726H9.35744H9.35762H9.3578H9.35797H9.35815H9.35833H9.35851H9.35869H9.35887H9.35904H9.35922H9.3594H9.35958H9.35976H9.35994H9.36011H9.36029H9.36047H9.36065H9.36083H9.36101H9.36119H9.36136H9.36154H9.36172H9.3619H9.36208H9.36226H9.36244H9.36261H9.36279H9.36297H9.36315H9.36333C10.0423 12.1355 10.6841 11.863 11.1858 11.3613C11.6854 10.8617 11.9889 10.192 11.9905 9.45327C12.0227 8.7361 11.7151 8.06414 11.2191 7.56673C10.7125 7.02798 10.0369 6.75928 9.33283 6.75928Z" fill="white" stroke="white" stroke-width="0.5"/>
<path d="M10.5204 12.2449H8.05179C7.42061 12.2449 6.91797 12.7585 6.91797 13.4092V24.0758C6.91797 24.7015 7.45658 25.2401 8.08225 25.2401H10.5204C11.1406 25.2401 11.6846 24.7069 11.6846 24.1063V13.4092C11.6846 12.7834 11.146 12.2449 10.5204 12.2449ZM10.5751 24.1019C10.5739 24.1039 10.5713 24.1072 10.5661 24.1117C10.5596 24.1173 10.5513 24.1224 10.5421 24.126C10.5329 24.1295 10.5254 24.1306 10.5204 24.1306H8.08352C8.08262 24.1304 8.08012 24.1297 8.07607 24.1279C8.06851 24.1243 8.05889 24.118 8.04952 24.1086C8.04014 24.0992 8.03377 24.0896 8.03024 24.082C8.02835 24.078 8.0277 24.0755 8.0275 24.0746V13.4092C8.0275 13.4042 8.02857 13.3966 8.03211 13.3874C8.03565 13.3782 8.04079 13.3699 8.04642 13.3634C8.05089 13.3582 8.05422 13.3556 8.05615 13.3544H10.5191C10.52 13.3546 10.5225 13.3553 10.5265 13.3571C10.5341 13.3607 10.5437 13.367 10.5531 13.3764C10.5625 13.3858 10.5688 13.3954 10.5724 13.403C10.5743 13.407 10.5749 13.4095 10.5751 13.4104V24.1019ZM10.5761 24.1C10.5761 24.1 10.576 24.1003 10.5757 24.1009L10.5761 24.1ZM8.05805 13.3535C8.05806 13.3535 8.05778 13.3536 8.0572 13.3538L8.05805 13.3535Z" fill="white" stroke="white" stroke-width="0.5"/>
<path d="M20.244 11.9402C19.1944 11.9402 18.1884 12.321 17.4311 12.9561C17.3952 12.7816 17.2997 12.6257 17.1827 12.5086C17.0333 12.3593 16.8205 12.2449 16.5868 12.2449H13.5392C13.3336 12.2449 13.1245 12.3334 12.9674 12.4702C12.8077 12.6093 12.6797 12.8185 12.6797 13.074V24.4416C12.6797 24.6999 12.8106 24.9039 12.9747 25.0362C13.1354 25.1658 13.3426 25.2401 13.5392 25.2401H16.8916C17.0882 25.2401 17.2955 25.1658 17.4562 25.0362C17.6203 24.9039 17.7512 24.6999 17.7512 24.4416V17.8587C17.7512 16.9735 18.3876 16.3106 19.1773 16.3106C19.602 16.3106 19.9945 16.4694 20.2806 16.7555L20.2803 16.7557L20.2901 16.7645C20.5176 16.9693 20.634 17.3088 20.634 17.8283V24.3807C20.634 24.6143 20.7483 24.8271 20.8977 24.9765C21.0471 25.1259 21.2598 25.2402 21.4935 25.2402H24.5412C24.7748 25.2402 24.9876 25.1259 25.137 24.9765C25.2864 24.8271 25.4007 24.6144 25.4007 24.3807V16.5178C25.4007 13.9452 23.4332 11.9402 20.884 11.9402H20.244ZM19.2078 15.2012V15.2011L19.2018 15.2012C17.7812 15.235 16.6721 16.3871 16.6721 17.8588V24.1307H13.8197V13.3545H16.3673V15.0549V15.6585L16.7941 15.2317L17.6169 14.4089L17.6169 14.4089L17.6474 14.3784L17.662 14.3638L17.674 14.3469C18.2348 13.5619 19.2243 13.0497 20.2744 13.0497H20.9144C22.8115 13.0497 24.2911 14.5767 24.2911 16.5178V24.1307H21.7728L21.7435 17.8283C21.7435 17.8281 21.7435 17.8279 21.7435 17.8277C21.7434 17.0546 21.549 16.4331 21.0912 15.9753C20.5859 15.4699 19.9121 15.2012 19.2078 15.2012Z" fill="white" stroke="white" stroke-width="0.5"/>
</svg>
