<svg width="60" height="60" viewBox="0 0 60 60" fill="none" xmlns="http://www.w3.org/2000/svg">
<circle cx="30" cy="30" r="30" fill="#EF4B4F"/>
<g clip-path="url(#clip0_1676_8)">
<mask id="mask0_1676_8" style="mask-type:luminance" maskUnits="userSpaceOnUse" x="12" y="12" width="36" height="36">
<path d="M12 12H48V48H12V12Z" fill="white"/>
</mask>
<g mask="url(#mask0_1676_8)">
<path fill-rule="evenodd" clip-rule="evenodd" d="M23.5607 33.4394C24.1464 34.0251 24.1464 34.9749 23.5607 35.5607L18.6213 40.5L23.5607 45.4394C24.1464 46.0251 24.1464 46.9749 23.5607 47.5607C22.9749 48.1464 22.0251 48.1464 21.4393 47.5607L15.4393 41.5607C14.8536 40.9749 14.8536 40.0251 15.4393 39.4394L21.4393 33.4394C22.0251 32.8536 22.9749 32.8536 23.5607 33.4394Z" fill="white"/>
<path fill-rule="evenodd" clip-rule="evenodd" d="M43.5 30C44.3284 30 45 30.6716 45 31.5V34.5C45 36.4892 44.2098 38.3968 42.8032 39.8032C41.3968 41.2098 39.4891 42 37.5 42H16.5C15.6716 42 15 41.3285 15 40.5C15 39.6715 15.6716 39 16.5 39H37.5C38.6934 39 39.838 38.5258 40.6819 37.6819C41.5259 36.838 42 35.6934 42 34.5V31.5C42 30.6716 42.6716 30 43.5 30Z" fill="white"/>
<path fill-rule="evenodd" clip-rule="evenodd" d="M36.4393 12.4393C37.0251 11.8536 37.9749 11.8536 38.5606 12.4393L44.5606 18.4393C45.1464 19.0251 45.1464 19.9749 44.5606 20.5607L38.5606 26.5607C37.9749 27.1464 37.0251 27.1464 36.4393 26.5607C35.8536 25.9749 35.8536 25.0251 36.4393 24.4393L41.3787 19.5L36.4393 14.5607C35.8536 13.9749 35.8536 13.0251 36.4393 12.4393Z" fill="white"/>
<path fill-rule="evenodd" clip-rule="evenodd" d="M22.5 21C21.3065 21 20.1619 21.4741 19.318 22.318C18.4741 23.1619 18 24.3065 18 25.5V28.5C18 29.3285 17.3284 30 16.5 30C15.6716 30 15 29.3285 15 28.5V25.5C15 23.5109 15.7902 21.6032 17.1967 20.1967C18.6032 18.7902 20.5109 18 22.5 18H43.5C44.3284 18 45 18.6716 45 19.5C45 20.3284 44.3284 21 43.5 21H22.5Z" fill="white"/>
</g>
</g>
<defs>
<clipPath id="clip0_1676_8">
<rect width="36" height="36" fill="white" transform="translate(12 12)"/>
</clipPath>
</defs>
</svg>
