<svg width="150" height="27" viewBox="0 0 150 27" fill="none" xmlns="http://www.w3.org/2000/svg">
<g clip-path="url(#clip0_2185_11759)">
<path d="M26.6832 13.4262C26.6832 5.59488 21.0726 0.830811 13.3249 0.830811C5.61047 0.830811 0 5.59488 0 13.4262C0 21.2576 5.61047 26.0217 13.3583 26.0217C21.0726 26.0217 26.6832 21.2576 26.6832 13.4262ZM15.696 16.5261C15.696 18.5492 15.0281 20.0829 13.3583 20.0829C11.6551 20.0829 11.0205 18.5492 11.0205 16.5261V10.359C11.0205 8.30322 11.6217 6.76959 13.3249 6.76959C14.9946 6.80221 15.6625 8.33586 15.696 10.359V16.5261Z" fill="#ED1C24"/>
<path d="M50.2073 25.4342V7.68323H41.2906V17.3419C40.6895 19.5608 39.721 20.2133 38.8527 20.2133C37.8509 20.2133 37.7841 18.8429 37.7841 17.2766V7.68323H28.834V19.9524C28.834 23.3133 31.1717 25.8259 34.3109 25.8259C37.6171 25.8259 40.0883 23.7701 41.2906 21.6491V25.4342H50.2073Z" fill="#ED1C24"/>
<path d="M67.7341 24.0638V19.4303C66.5318 20.3439 63.426 20.2787 63.426 17.7987V12.7409H67.7341V7.68324H63.426V2.72339H56.7135L54.8434 7.68324H51.7041V12.7409H54.5094V19.6587C54.5094 23.607 57.5484 25.8259 61.3889 25.8259C63.1923 25.8259 66.6654 25.2059 67.7341 24.0638Z" fill="#ED1C24"/>
<path d="M78.3248 25.4343V1.45081H69.4082V25.4343H78.3248Z" fill="#ED1C24"/>
<path d="M102.092 16.6893C102.059 10.979 97.4505 7.32434 91.105 7.32434C84.76 7.32434 80.1514 10.979 80.1514 16.6893C80.1514 22.4323 84.76 25.8259 91.105 25.7933C97.4841 25.7933 102.092 22.3997 102.092 16.6893ZM92.6414 19.0714C92.6414 20.2134 92.2068 21.0944 91.105 21.0944C90.0031 21.0944 89.5689 20.2134 89.5689 19.0714V14.1441C89.5689 12.9694 90.0031 12.0885 91.105 12.0885C92.2068 12.121 92.6414 13.0021 92.6414 14.1441V19.0714Z" fill="#ED1C24"/>
<path d="M124.987 16.6893C124.953 10.979 120.345 7.32434 114 7.32434C107.654 7.32434 103.046 10.979 103.046 16.6893C103.046 22.4323 107.654 25.8259 114 25.7933C120.378 25.7933 124.987 22.3997 124.987 16.6893ZM115.536 19.0714C115.536 20.2134 115.101 21.0944 114 21.0944C112.898 21.0944 112.463 20.2134 112.463 19.0714V14.1441C112.463 12.9694 112.898 12.0885 114 12.0885C115.101 12.121 115.536 13.0021 115.536 14.1441V19.0714Z" fill="#ED1C24"/>
<path d="M149.216 25.4343L142.136 15.743L148.749 7.68325H139.364L135.224 13.7199V1.45081H126.774V25.4343H135.224V18.8103L139.732 25.4343H149.216Z" fill="#ED1C24"/>
</g>
<defs>
<clipPath id="clip0_2185_11759">
<rect width="150" height="25.1908" fill="white" transform="translate(0 0.830811)"/>
</clipPath>
</defs>
</svg>
