<svg width="80" height="81" viewBox="0 0 80 81" fill="none" xmlns="http://www.w3.org/2000/svg">
<path d="M58.5443 2.00146C50.5443 2.00146 43.514 6.12268 40.2412 12.1833H9.33215C6.7867 12.1833 4.8473 14.2439 4.8473 16.6681V68.9106H2.42306C1.69579 68.9106 1.21094 69.5166 1.21094 70.1227C1.57457 75.456 5.93821 79.5772 11.1503 79.5772H66.4231C71.6352 79.5772 76.12 75.456 76.3625 70.2439C76.3625 69.5166 75.8776 69.0318 75.1503 69.0318H72.7261V32.5469C76.3625 29.2742 78.6655 24.7893 78.6655 19.9409C78.7867 10.0015 69.6958 2.00146 58.5443 2.00146ZM66.4231 77.2742H11.1503C7.51397 77.2742 4.48366 74.7287 3.63518 71.3348H73.9382C73.0897 74.7287 70.0594 77.2742 66.4231 77.2742ZM70.4231 69.0318H7.15033V16.6681C7.15033 15.456 8.12003 14.4863 9.33215 14.4863H39.1503C37.0897 20.1833 38.4231 26.4863 42.7867 31.0924L41.2109 38.3651C40.9685 39.2136 41.817 39.9409 42.6655 39.6984L52.7261 37.0318C58.6655 38.6075 65.2109 37.759 70.4231 34.2439V69.0318ZM53.0897 34.7287C52.8473 34.7287 52.7261 34.7287 52.4837 34.7287L43.9988 37.0318L45.3322 31.2136C45.4534 30.85 45.3321 30.3651 44.9685 30.1227C35.1503 20.3045 43.0291 4.54692 58.5443 4.54692C68.3625 4.54692 76.4837 11.5772 76.4837 20.0621C76.4837 30.3651 64.6049 37.8803 53.0897 34.7287Z" fill="url(#paint0_linear_2896_4500)"/>
<path d="M63.6362 8.06211C63.2726 7.09241 61.818 7.09241 61.4544 8.06211C58.6665 14.7288 50.3029 16.7894 50.4241 16.7894C47.6362 17.8803 46.4241 21.0318 47.515 23.8197C48.3635 25.8803 50.3029 27.0924 52.4847 27.0924C52.8483 27.0924 53.212 27.0924 53.5756 26.9712L56.4847 31.6985C56.8483 32.3045 57.5756 32.4257 58.0605 32.0621C58.6665 31.6985 58.7877 30.9712 58.4241 30.4864L55.7574 26.2439L58.5453 25.153C61.6968 23.8197 65.3332 23.8197 68.4847 25.153C69.4544 25.5167 70.4241 24.547 70.0605 23.5773L63.6362 8.06211ZM49.5756 22.9712C48.9695 21.3954 49.6968 19.5773 51.2726 18.9712L52.9695 18.2439L55.2726 23.8197L53.5756 24.547C52.1211 25.153 50.3029 24.4257 49.5756 22.9712ZM57.5756 22.85L57.3332 22.9712L55.0301 17.3954C55.1514 17.2742 59.3938 15.8197 62.3029 11.3348L66.7877 22.1227C63.7574 21.3954 60.6059 21.6379 57.5756 22.85Z" fill="url(#paint1_linear_2896_4500)"/>
<path d="M41.2095 41.2742H13.8156C12.1186 41.2742 10.6641 42.6075 10.6641 44.4257V62.4863C10.6641 64.062 11.9974 65.6378 13.8156 65.6378H41.2095C42.9065 65.6378 44.361 64.1833 44.361 62.4863V44.3045C44.361 42.6075 42.9065 41.2742 41.2095 41.2742ZM13.0883 45.2742L20.9671 53.153L13.0883 61.0317V45.2742ZM27.5126 56.4257C24.4822 53.3954 22.1792 51.0924 14.6641 43.6984H40.2398C36.1186 47.6984 33.2095 50.6075 27.5126 56.4257ZM22.5429 54.7287L26.6641 58.8499C27.1489 59.3348 27.8762 59.3348 28.361 58.8499L32.4822 54.7287L40.8459 63.0924H14.1792L22.5429 54.7287ZM34.058 53.153L41.9368 45.2742V61.0317L34.058 53.153Z" fill="url(#paint2_linear_2896_4500)"/>
<path d="M64.6013 58.3651H50.0559C49.4498 58.3651 48.8438 58.85 48.8438 59.5772C48.8438 60.1833 49.3286 60.7894 50.0559 60.7894H64.6013C65.2074 60.7894 65.8134 60.3045 65.8134 59.5772C65.8134 58.85 65.2074 58.3651 64.6013 58.3651Z" fill="url(#paint3_linear_2896_4500)"/>
<path d="M48.8438 52.1833C48.8438 52.7894 49.3286 53.3954 50.0559 53.3954H64.6013C65.2074 53.3954 65.8134 52.9106 65.8134 52.1833C65.8134 51.456 65.3286 50.9712 64.6013 50.9712H50.0559C49.3286 50.9712 48.8438 51.5773 48.8438 52.1833Z" fill="url(#paint4_linear_2896_4500)"/>
<path d="M12.9699 34.2439H34.1821C34.7881 34.2439 35.3942 33.7591 35.3942 33.0318C35.3942 32.4258 34.9093 31.8197 34.1821 31.8197H12.9699C12.3639 31.8197 11.7578 32.3046 11.7578 33.0318C11.7578 33.6379 12.3639 34.2439 12.9699 34.2439Z" fill="url(#paint5_linear_2896_4500)"/>
<path d="M12.9699 26.3652H34.1821C34.7881 26.3652 35.3942 25.8803 35.3942 25.153C35.3942 24.547 34.9093 23.9409 34.1821 23.9409H12.9699C12.3639 23.9409 11.7578 24.4258 11.7578 25.153C11.7578 25.8803 12.3639 26.3652 12.9699 26.3652Z" fill="url(#paint6_linear_2896_4500)"/>
<defs>
<linearGradient id="paint0_linear_2896_4500" x1="1.21094" y1="40.7893" x2="78.6667" y2="40.7893" gradientUnits="userSpaceOnUse">
<stop stop-color="#991F3D"/>
<stop offset="1" stop-color="#E7474D"/>
</linearGradient>
<linearGradient id="paint1_linear_2896_4500" x1="47.1172" y1="19.8007" x2="70.1386" y2="19.8007" gradientUnits="userSpaceOnUse">
<stop stop-color="#991F3D"/>
<stop offset="1" stop-color="#E7474D"/>
</linearGradient>
<linearGradient id="paint2_linear_2896_4500" x1="10.6641" y1="53.456" x2="44.361" y2="53.456" gradientUnits="userSpaceOnUse">
<stop stop-color="#991F3D"/>
<stop offset="1" stop-color="#E7474D"/>
</linearGradient>
<linearGradient id="paint3_linear_2896_4500" x1="48.8438" y1="59.5772" x2="65.8134" y2="59.5772" gradientUnits="userSpaceOnUse">
<stop stop-color="#991F3D"/>
<stop offset="1" stop-color="#E7474D"/>
</linearGradient>
<linearGradient id="paint4_linear_2896_4500" x1="48.8438" y1="52.1833" x2="65.8134" y2="52.1833" gradientUnits="userSpaceOnUse">
<stop stop-color="#991F3D"/>
<stop offset="1" stop-color="#E7474D"/>
</linearGradient>
<linearGradient id="paint5_linear_2896_4500" x1="11.7578" y1="33.0318" x2="35.3942" y2="33.0318" gradientUnits="userSpaceOnUse">
<stop stop-color="#991F3D"/>
<stop offset="1" stop-color="#E7474D"/>
</linearGradient>
<linearGradient id="paint6_linear_2896_4500" x1="11.7578" y1="25.153" x2="35.3942" y2="25.153" gradientUnits="userSpaceOnUse">
<stop stop-color="#991F3D"/>
<stop offset="1" stop-color="#E7474D"/>
</linearGradient>
</defs>
</svg>
