<svg width="80" height="81" viewBox="0 0 80 81" fill="none" xmlns="http://www.w3.org/2000/svg">
<path d="M80 29.5742C79.9954 28.7375 79.5822 27.9559 78.8933 27.4809C78.1473 26.9775 77.2047 26.8633 76.36 27.1742L62.6667 32.3342V24.6809L63.08 24.9609C63.7398 25.4241 64.5272 25.671 65.3333 25.6676C66.6566 25.6681 67.8946 25.0142 68.64 23.9209C69.8789 22.1009 69.4141 19.6218 67.6 18.3742L42.2667 1.0409C41.6 0.581364 40.8097 0.334951 40 0.334229C39.1903 0.334951 38.4 0.581364 37.7333 1.0409L12.4 18.3742C11.5189 18.9718 10.9124 19.8959 10.7147 20.9419C10.517 21.988 10.7444 23.0697 11.3467 23.9476C12.1008 25.0347 13.3436 25.6786 14.6667 25.6676C15.4704 25.6681 16.2556 25.4265 16.92 24.9742L17.3333 24.6809V32.6809L3.66667 27.2009C2.84556 26.8687 1.91311 26.966 1.17819 27.4604C0.443267 27.9548 0.00179273 28.7818 0 29.6676V65.6676C0 67.1403 1.19391 68.3342 2.66667 68.3342H3.66667C5.15742 68.3248 6.51924 67.4872 7.2 66.1609L8.32 63.9342L10.6667 65.0276C9.88226 67.1037 10.8372 69.4329 12.8533 70.3609C13.4089 70.6183 14.0143 70.7503 14.6267 70.7476C15.1471 70.7442 15.6624 70.6448 16.1467 70.4542C16.5819 71.5697 17.4326 72.473 18.52 72.9742C19.1314 73.2526 19.7949 73.398 20.4667 73.4009C21.0221 73.4018 21.5732 73.3025 22.0933 73.1076C22.5154 74.2881 23.3948 75.2492 24.5333 75.7742C25.1427 76.0587 25.8075 76.2044 26.48 76.2009C26.9599 76.1983 27.4366 76.1218 27.8933 75.9742V76.0409C28.2598 77.0385 29.0082 77.8493 29.9733 78.2942C31.7244 79.0951 33.7975 78.5348 34.9067 76.9609L38.0667 79.5076C39.2403 80.3944 40.7829 80.6274 42.1662 80.1269C43.5494 79.6263 44.5856 78.4601 44.92 77.0276C46.3479 77.4433 47.8886 77.0324 48.92 75.9609C49.5884 75.3018 50.0038 74.4287 50.0933 73.4942C50.2842 73.5065 50.4758 73.5065 50.6667 73.4942C53.1005 73.4998 55.1685 71.7159 55.52 69.3076C56.0487 69.4861 56.6021 69.5806 57.16 69.5876C58.5155 69.5911 59.8164 69.0542 60.7749 68.0958C61.7333 67.1373 62.2702 65.8364 62.2667 64.4809C62.2628 63.812 62.1269 63.1505 61.8667 62.5342L70.3467 59.0009L72.8267 63.5876C73.528 64.8693 74.8723 65.6667 76.3333 65.6676H77.3333C78.7704 65.6684 79.9497 64.5304 80 63.0942V29.5742ZM15.4133 22.7742C14.8058 23.1902 13.9761 23.035 13.56 22.4276C13.3599 22.1304 13.2878 21.7652 13.36 21.4142C13.4261 21.0738 13.6221 20.7725 13.9067 20.5742L39.24 3.2409C39.4605 3.08033 39.7273 2.99607 40 3.0009C40.2719 3.00154 40.5371 3.08528 40.76 3.2409L66.0933 20.5742C66.6925 20.9896 66.847 21.8093 66.44 22.4142C66.0239 23.0217 65.1942 23.1769 64.5867 22.7609L40.76 6.46756C40.3029 6.15049 39.6971 6.15049 39.24 6.46756L15.4133 22.7742ZM40 9.17423L60 22.8676V33.6676C58.6311 34.7911 58.2608 36.7324 59.12 38.2809L60.4533 40.7609L56.8533 42.0942C55.6231 42.5723 54.2362 42.4126 53.1467 41.6676L46.6667 36.8809V29.6676C46.6667 28.1948 45.4728 27.0009 44 27.0009H36C34.5272 27.0009 33.3333 28.1948 33.3333 29.6676V38.3742C32.8292 39.0744 32.3833 39.8146 32 40.5876C30.559 40.7193 29.1289 40.9509 27.72 41.2809C26.9365 41.4757 26.1382 41.605 25.3333 41.6676C23.5659 41.4567 21.8452 40.9567 20.24 40.1876L20.88 38.8542C21.7097 37.2399 21.3484 35.2693 20 34.0542V22.8676L40 9.17423ZM44 35.0676C41.4319 33.7513 38.3431 33.983 36 35.6676V29.6676H44V35.0676ZM3.66667 65.6676H2.66667V29.6676L17.84 35.8276C18.1837 35.9661 18.4542 36.2415 18.5867 36.5876C18.7262 36.9545 18.6969 37.3642 18.5067 37.7076L4.82667 64.9609C4.59796 65.3905 4.15333 65.6614 3.66667 65.6676ZM13.92 67.8942C13.1339 67.5317 12.7883 66.6022 13.1467 65.8142L14.6667 62.6142C15.0292 61.8281 15.9587 61.4826 16.7467 61.8409C17.1278 62.0092 17.4222 62.3277 17.56 62.7209C17.7193 63.1097 17.7193 63.5455 17.56 63.9342L16 67.1342C15.8262 67.5119 15.5088 67.8046 15.1182 67.9473C14.7277 68.09 14.2964 68.0709 13.92 67.8942ZM21.1067 70.5609C20.6209 70.7669 20.0724 70.7669 19.5867 70.5609C19.1018 70.345 18.7262 69.9404 18.5467 69.4409C18.3473 68.9492 18.3473 68.3992 18.5467 67.9076L20.84 63.0009C21.0609 62.5196 21.4637 62.1456 21.96 61.9609C22.1827 61.8823 22.4171 61.8417 22.6533 61.8409C22.9424 61.8393 23.2285 61.8983 23.4933 62.0142C23.9755 62.2407 24.3491 62.6478 24.5333 63.1476C24.74 63.6378 24.74 64.1907 24.5333 64.6809L22.24 69.5342C22.0136 70.0164 21.6064 70.39 21.1067 70.5742V70.5609ZM25.64 73.2276C24.6381 72.7572 24.1989 71.5701 24.6533 70.5609L26.3333 67.0009C26.5578 66.5222 26.9593 66.1493 27.4533 65.9609C27.6761 65.8823 27.9105 65.8417 28.1467 65.8409C28.4375 65.8359 28.7254 65.8998 28.9867 66.0276C29.4706 66.2448 29.8458 66.6489 30.0267 67.1476C30.2123 67.6467 30.1882 68.1997 29.96 68.6809L28.4133 72.0676L28.3067 72.2942C28.0861 72.7807 27.6801 73.1586 27.1792 73.344C26.6783 73.5293 26.1241 73.5066 25.64 73.2809V73.2276ZM31.0933 75.7342C30.7725 75.5869 30.5231 75.3184 30.4 74.9876C30.263 74.6591 30.263 74.2894 30.4 73.9609L30.8133 73.0676L32.0533 70.4009C32.2936 69.9212 32.798 69.6322 33.3333 69.6676C33.5265 69.6665 33.7176 69.7075 33.8933 69.7876C34.2215 69.9329 34.4772 70.2043 34.6027 70.5406C34.7281 70.8768 34.7128 71.2495 34.56 71.5742L32.8933 75.1876C32.7407 75.5121 32.4638 75.7615 32.1251 75.8794C31.7864 75.9973 31.4145 75.9738 31.0933 75.8142V75.7342ZM58.88 66.1476C57.9785 67.0576 56.5249 67.1101 55.56 66.2676L49.08 60.5876L47.5467 59.2542C47.4122 59.1326 47.253 59.0417 47.08 58.9876C47.0135 58.9811 46.9465 58.9811 46.88 58.9876C46.6101 58.9355 46.3307 58.9681 46.08 59.0809C45.9253 59.1638 45.7856 59.2719 45.6667 59.4009C45.432 59.653 45.3115 59.9905 45.3333 60.3342C45.3277 60.374 45.3277 60.4144 45.3333 60.4542C45.3771 60.756 45.523 61.0337 45.7467 61.2409L52.1067 66.8142C53.0124 67.6611 53.0602 69.0818 52.2133 69.9876C51.3665 70.8933 49.9457 70.9411 49.04 70.0942L48.8933 69.9476L43.56 64.6142C43.0372 64.0914 42.1895 64.0914 41.6667 64.6142C41.1438 65.1371 41.1438 65.9847 41.6667 66.5076L47 71.8409C47.2817 72.119 47.4403 72.4984 47.4403 72.8942C47.4403 73.2901 47.2817 73.6695 47 73.9476C46.4045 74.508 45.4755 74.508 44.88 73.9476L43.7333 72.7876L42.24 71.2942C41.9896 71.0418 41.6488 70.8998 41.2933 70.8998C40.9378 70.8998 40.597 71.0418 40.3467 71.2942C40.0942 71.5446 39.9523 71.8854 39.9523 72.2409C39.9523 72.5964 40.0942 72.9372 40.3467 73.1876L41.84 74.6809C42.1673 74.9938 42.3507 75.4281 42.3467 75.8809C42.3189 76.4992 41.9586 77.054 41.405 77.3308C40.8514 77.6076 40.1913 77.563 39.68 77.2142L36.1333 74.4676L36.96 72.6542C37.4123 71.6878 37.4596 70.5806 37.0916 69.5791C36.7235 68.5775 35.9705 67.7645 35 67.3209C34.2904 67.0002 33.5026 66.8936 32.7333 67.0142C32.6872 66.7472 32.6203 66.4842 32.5333 66.2276C31.7486 64.0766 29.5121 62.8196 27.2667 63.2676C27.0972 61.8544 26.2904 60.5965 25.0767 59.8532C23.8629 59.1099 22.3758 58.9629 21.04 59.4542C20.3902 59.7008 19.8029 60.0878 19.32 60.5876C18.9236 60.0822 18.4114 59.6798 17.8267 59.4142C15.7022 58.432 13.1837 59.3571 12.2 61.4809L11.7067 62.5742L9.52 61.5342L19.04 42.5742C21.0202 43.5205 23.1496 44.116 25.3333 44.3342C26.3099 44.275 27.2787 44.1232 28.2267 43.8809C28.9733 43.7209 29.7733 43.5609 30.6133 43.4276L28.4267 48.3342C27.4082 50.6563 28.3946 53.3688 30.6667 54.4942H30.8C31.4242 54.7935 32.1078 54.9484 32.8 54.9476C34.1687 54.9533 35.4725 54.3647 36.3733 53.3342L41.64 47.4676L58.7733 62.6809C59.2787 63.1249 59.5771 63.7587 59.5973 64.4311C59.6176 65.1034 59.3578 65.754 58.88 66.2276V66.1476ZM60.2133 60.2942L40.88 43.3342C40.3241 42.8865 39.5142 42.9559 39.0427 43.4918C38.5711 44.0276 38.6052 44.8398 39.12 45.3342L39.6 45.7609L34.3467 51.6142C33.7209 52.329 32.6942 52.5365 31.84 52.1209H31.7467C30.8123 51.59 30.4274 50.4409 30.8533 49.4542L33.9467 42.6009C34.676 40.9822 35.7234 39.5266 37.0267 38.3209C38.7957 36.6808 41.4789 36.5243 43.4267 37.9476L51.5467 43.8676C53.3542 45.1649 55.6899 45.475 57.7733 44.6942L61.7733 43.2142L69.0667 56.6942L60.2133 60.2942ZM76.36 62.9609C75.8825 62.9731 75.4349 62.729 75.1867 62.3209L61.4933 36.9876C61.3457 36.7223 61.3213 36.4057 61.4267 36.1209C61.5544 35.7961 61.8173 35.543 62.1467 35.4276L77.3333 29.5742V63.0009L76.36 62.9609Z" fill="url(#paint0_linear_2302_16398)"/>
<path d="M40.0013 24.3343C42.9468 24.3343 45.3346 21.9465 45.3346 19.0009C45.3346 16.0554 42.9468 13.6676 40.0013 13.6676C37.0558 13.6676 34.668 16.0554 34.668 19.0009C34.668 21.9465 37.0558 24.3343 40.0013 24.3343ZM40.0013 16.3343C41.4741 16.3343 42.668 17.5282 42.668 19.0009C42.668 20.4737 41.4741 21.6676 40.0013 21.6676C38.5285 21.6676 37.3346 20.4737 37.3346 19.0009C37.3346 17.5282 38.5285 16.3343 40.0013 16.3343Z" fill="url(#paint1_linear_2302_16398)"/>
<defs>
<linearGradient id="paint0_linear_2302_16398" x1="0" y1="40.3603" x2="80" y2="40.3603" gradientUnits="userSpaceOnUse">
<stop stop-color="#991F3D"/>
<stop offset="1" stop-color="#E7474D"/>
</linearGradient>
<linearGradient id="paint1_linear_2302_16398" x1="34.668" y1="19.0009" x2="45.3346" y2="19.0009" gradientUnits="userSpaceOnUse">
<stop stop-color="#991F3D"/>
<stop offset="1" stop-color="#E7474D"/>
</linearGradient>
</defs>
</svg>
