<svg width="78" height="78" viewBox="0 0 78 78" fill="none" xmlns="http://www.w3.org/2000/svg">
<path d="M58.5 37.7812V13.4062H34.125V37.7812H58.5ZM46.3125 25.5938C44.9682 25.5938 43.875 24.5005 43.875 23.1562C43.875 21.812 44.9682 20.7188 46.3125 20.7188C47.6568 20.7188 48.75 21.812 48.75 23.1562C48.75 24.5005 47.6568 25.5938 46.3125 25.5938ZM43.0462 28.8295C43.8299 28.3079 44.7415 28.0312 45.6824 28.0312H46.9414C47.8822 28.0312 48.7951 28.3079 49.5775 28.8295C50.6659 29.5547 51.413 30.7113 51.6287 32.0019L52.1869 35.3438H40.4381L40.9951 32.0019C41.2108 30.7113 41.9591 29.5547 43.0462 28.8295ZM36.5625 15.8438H56.0625V35.3438H54.6573L54.0333 31.601C53.7079 29.6485 52.5769 27.8996 50.9303 26.8015C50.6378 26.6065 50.3332 26.4347 50.0187 26.286C50.7378 25.4365 51.1875 24.3531 51.1875 23.1562C51.1875 20.4677 49.0011 18.2812 46.3125 18.2812C43.6239 18.2812 41.4375 20.4677 41.4375 23.1562C41.4375 24.3531 41.8872 25.4365 42.6063 26.286C42.2918 26.4347 41.9872 26.6065 41.6947 26.8015C40.0481 27.8996 38.9171 29.6485 38.5917 31.601L37.9677 35.3438H36.5625V15.8438Z" fill="url(#paint0_linear_2896_3988)"/>
<path d="M17.0625 20.7188H31.6875V23.1562H17.0625V20.7188Z" fill="url(#paint1_linear_2896_3988)"/>
<path d="M17.0625 25.5938H31.6875V28.0312H17.0625V25.5938Z" fill="url(#paint2_linear_2896_3988)"/>
<path d="M17.0625 30.4688H31.6875V32.9062H17.0625V30.4688Z" fill="url(#paint3_linear_2896_3988)"/>
<path d="M17.0625 35.3438H31.6875V37.7812H17.0625V35.3438Z" fill="url(#paint4_linear_2896_3988)"/>
<path d="M17.0625 40.2188H58.5V42.6562H17.0625V40.2188Z" fill="url(#paint5_linear_2896_3988)"/>
<path d="M41.4375 71.9062H58.5V62.1562H41.4375V71.9062ZM43.875 64.5938H56.0625V69.4688H43.875V64.5938Z" fill="url(#paint6_linear_2896_3988)"/>
<path d="M29.25 69.4688H39V71.9062H29.25V69.4688Z" fill="url(#paint7_linear_2896_3988)"/>
<path d="M29.25 64.5938H39V67.0312H29.25V64.5938Z" fill="url(#paint8_linear_2896_3988)"/>
<path d="M76.7544 64.2915L69.7162 4.54842C69.4834 2.47898 67.5407 0.960421 65.4749 1.25292L31.6692 5.91586C31.5742 3.31261 29.4401 1.2188 26.8125 1.2188H24.375C21.6864 1.2188 19.5 3.40523 19.5 6.0938V8.5313H14.625C13.2807 8.5313 12.1875 9.62451 12.1875 10.9688V56.7767L3.08831 65.8747C1.88297 67.0825 1.21875 68.6864 1.21875 70.3914C1.21875 73.9148 4.08525 76.7813 7.60744 76.7813C9.31491 76.7813 10.92 76.1171 12.1253 74.9093L12.2338 74.8008C12.4495 75.9269 13.4379 76.7813 14.625 76.7813H60.9375C62.2818 76.7813 63.375 75.6881 63.375 74.3438V70.4864L73.5394 68.6388C75.4187 68.2976 76.7812 66.6632 76.7812 64.7547C76.7812 64.5974 76.7715 64.4414 76.7544 64.2915ZM21.9375 6.0938C21.9375 4.74951 23.0307 3.6563 24.375 3.6563H26.8125C28.1568 3.6563 29.25 4.74951 29.25 6.0938V8.5313H26.8125V6.0938H24.375V8.5313H21.9375V6.0938ZM21.9375 10.9688H24.375V14.625C24.375 15.2966 23.829 15.8438 23.1562 15.8438C22.4835 15.8438 21.9375 15.2966 21.9375 14.625V10.9688ZM29.0221 50.4551L27.545 48.9779L29.7607 48.2394L29.0221 50.4551ZM24.96 49.8396L28.1604 53.04L27.4987 55.0254L22.9747 50.5014L24.96 49.8396ZM20.7188 51.6921L26.3079 57.2813L13.4062 70.183L7.81706 64.5938L20.7188 51.6921ZM7.60744 74.3438C5.42831 74.3438 3.65625 72.5705 3.65625 70.3914C3.65625 69.3359 4.06697 68.3439 4.81284 67.5968L6.09375 66.3171L11.6829 71.9063L10.402 73.1872C9.65616 73.9331 8.66409 74.3438 7.60744 74.3438ZM60.9375 74.3438H14.625V72.4109L29.0964 57.9394L32.5662 47.5313H58.5V45.0938H31.4901L20.0606 48.9036L14.625 54.3392V10.9688H19.5V14.625C19.5 16.6409 21.1404 18.2813 23.1562 18.2813C25.1721 18.2813 26.8125 16.6409 26.8125 14.625V10.9688H29.25V15.8438H31.6875V10.9688H60.9375V74.3438ZM73.1031 66.2403L63.375 68.0087V10.9688C63.375 9.62451 62.2818 8.5313 60.9375 8.5313H31.6875V8.3753L65.8076 3.66848C66.5437 3.57586 67.2116 4.09992 67.2945 4.82995L74.334 64.584C74.3413 64.6413 74.3438 64.6974 74.3438 64.7534C74.3438 65.4835 73.8221 66.1087 73.1031 66.2403Z" fill="url(#paint9_linear_2896_3988)"/>
<defs>
<linearGradient id="paint0_linear_2896_3988" x1="34.125" y1="25.5938" x2="58.5" y2="25.5938" gradientUnits="userSpaceOnUse">
<stop stop-color="#991F3D"/>
<stop offset="1" stop-color="#E7474D"/>
</linearGradient>
<linearGradient id="paint1_linear_2896_3988" x1="17.0625" y1="21.9375" x2="31.6875" y2="21.9375" gradientUnits="userSpaceOnUse">
<stop stop-color="#991F3D"/>
<stop offset="1" stop-color="#E7474D"/>
</linearGradient>
<linearGradient id="paint2_linear_2896_3988" x1="17.0625" y1="26.8125" x2="31.6875" y2="26.8125" gradientUnits="userSpaceOnUse">
<stop stop-color="#991F3D"/>
<stop offset="1" stop-color="#E7474D"/>
</linearGradient>
<linearGradient id="paint3_linear_2896_3988" x1="17.0625" y1="31.6875" x2="31.6875" y2="31.6875" gradientUnits="userSpaceOnUse">
<stop stop-color="#991F3D"/>
<stop offset="1" stop-color="#E7474D"/>
</linearGradient>
<linearGradient id="paint4_linear_2896_3988" x1="17.0625" y1="36.5625" x2="31.6875" y2="36.5625" gradientUnits="userSpaceOnUse">
<stop stop-color="#991F3D"/>
<stop offset="1" stop-color="#E7474D"/>
</linearGradient>
<linearGradient id="paint5_linear_2896_3988" x1="17.0625" y1="41.4375" x2="58.5" y2="41.4375" gradientUnits="userSpaceOnUse">
<stop stop-color="#991F3D"/>
<stop offset="1" stop-color="#E7474D"/>
</linearGradient>
<linearGradient id="paint6_linear_2896_3988" x1="41.4375" y1="67.0312" x2="58.5" y2="67.0312" gradientUnits="userSpaceOnUse">
<stop stop-color="#991F3D"/>
<stop offset="1" stop-color="#E7474D"/>
</linearGradient>
<linearGradient id="paint7_linear_2896_3988" x1="29.25" y1="70.6875" x2="39" y2="70.6875" gradientUnits="userSpaceOnUse">
<stop stop-color="#991F3D"/>
<stop offset="1" stop-color="#E7474D"/>
</linearGradient>
<linearGradient id="paint8_linear_2896_3988" x1="29.25" y1="65.8125" x2="39" y2="65.8125" gradientUnits="userSpaceOnUse">
<stop stop-color="#991F3D"/>
<stop offset="1" stop-color="#E7474D"/>
</linearGradient>
<linearGradient id="paint9_linear_2896_3988" x1="1.21875" y1="38.999" x2="76.7812" y2="38.999" gradientUnits="userSpaceOnUse">
<stop stop-color="#991F3D"/>
<stop offset="1" stop-color="#E7474D"/>
</linearGradient>
</defs>
</svg>
