<svg width="122" height="122" viewBox="0 0 122 122" fill="none" xmlns="http://www.w3.org/2000/svg">
<path d="M25.1624 73.3521C22.6462 79.6807 18.6813 85.9333 13.3819 91.9571C11.7044 93.8634 11.4757 96.6083 12.8481 98.7433C13.9157 100.421 15.6693 101.336 17.5756 101.336C18.1094 101.336 18.6432 101.298 19.177 101.107C30.3855 97.8283 56.5776 86.2002 57.302 48.9139C57.5687 34.5409 47.0464 22.1884 33.3594 20.7778C25.7725 20.0153 18.2239 22.4932 12.6194 27.5258C7.01511 32.5965 3.8125 39.8403 3.8125 47.389C3.8125 59.9702 12.7339 70.9884 25.1624 73.3521Z" fill="#EF4B4F"/>
<path d="M93.5939 20.7783C86.045 20.0158 78.4963 22.4937 72.8921 27.5263C67.2876 32.597 64.085 39.8408 64.085 47.3895C64.085 59.9707 73.0063 70.9888 85.4351 73.3526C82.9187 79.6812 78.9538 85.9338 73.6544 91.9576C71.9769 93.8638 71.7481 96.6087 73.1208 98.7437C74.1882 100.421 75.942 101.336 77.8483 101.336C78.3818 101.336 78.9157 101.298 79.4494 101.107C90.6582 97.8287 116.85 86.2007 117.574 48.9143V48.3808C117.574 34.2363 107.166 22.1889 93.5939 20.7783Z" fill="#EF4B4F"/>
</svg>
