<svg width="80" height="80" viewBox="0 0 80 80" fill="none" xmlns="http://www.w3.org/2000/svg">
<g clip-path="url(#clip0_2302_15979)">
<path d="M31.1969 73.5743C31.1969 74.2643 30.6487 74.8299 29.9587 74.8299C29.2687 74.8299 28.7031 74.2643 28.7031 73.5743V57.8493C28.7031 56.7887 29.1625 55.8331 29.9056 55.1437C30.6312 54.4718 31.6044 54.0649 32.6831 54.0649H47.3106C48.3894 54.0649 49.38 54.4712 50.0869 55.1437C50.8294 55.8337 51.2906 56.7887 51.2906 57.8493V73.5743C51.2906 74.2643 50.7419 74.8299 50.0519 74.8299C49.3619 74.8299 48.7962 74.2643 48.7962 73.5743V57.8493C48.7962 57.5137 48.6544 57.1949 48.4069 56.9656C48.1244 56.7181 47.7525 56.5587 47.3106 56.5587H41.2431V73.5749C41.2431 74.2649 40.6956 74.8306 40.0056 74.8306C39.3163 74.8306 38.75 74.2649 38.75 73.5749V56.5581H32.6831C32.2587 56.5581 31.8869 56.7181 31.6044 56.9649C31.3569 57.1943 31.1975 57.5131 31.1975 57.8487L31.1969 73.5743Z" fill="white"/>
<path d="M27.6756 37.2967H35.8469C36.5369 37.2967 37.085 37.8455 37.085 38.5348V46.1411C37.085 46.8311 36.5369 47.378 35.8469 47.378H27.6756C26.9856 47.378 26.4375 46.8305 26.4375 46.1411V38.5348C26.4369 37.8455 26.9856 37.2967 27.6756 37.2967ZM27.6756 22.1736H35.8469C36.5369 22.1736 37.085 22.7223 37.085 23.4117V31.0173C37.085 31.7073 36.5369 32.2555 35.8469 32.2555H27.6756C26.9856 32.2555 26.4375 31.7067 26.4375 31.0173V23.4123C26.4369 22.7223 26.9856 22.1736 27.6756 22.1736ZM34.5913 24.6686H28.9313V29.7617H34.5913V24.6686ZM48.2456 29.7617C48.9356 29.7617 49.4831 30.328 49.4831 31.018C49.4831 31.708 48.935 32.2561 48.2456 32.2561H44.16C43.47 32.2561 42.9038 31.7073 42.9038 31.018V23.4123C42.9038 22.7223 43.4694 22.1742 44.16 22.1742C44.85 22.1742 45.3981 22.723 45.3981 23.4123V29.7617H48.2456ZM44.16 37.2967H52.3138C53.0038 37.2967 53.5694 37.8455 53.5694 38.5348V46.1411C53.5694 46.8311 53.0038 47.378 52.3138 47.378H44.16C43.47 47.378 42.9038 46.8305 42.9038 46.1411V38.5348C42.9038 37.8455 43.47 37.2967 44.16 37.2967ZM51.0763 39.7911H45.3988V44.8848H51.0763V39.7911ZM34.5913 39.7911H28.9313V44.8848H34.5913V39.7911Z" fill="white"/>
<path d="M61.0177 38.3055C60.6645 38.8893 59.9045 39.1011 59.3202 38.7474C59.1252 38.6236 58.9664 38.4649 58.8602 38.288L48.1414 20.1224C47.5927 19.1849 47.1333 17.9824 46.8508 16.9211C46.567 15.8243 46.4258 14.693 46.4258 13.5249C46.4258 9.79239 47.9295 6.41489 50.3877 3.95551C52.8289 1.51551 56.207 -0.0057373 59.957 -0.0057373C63.6889 -0.0057373 67.067 1.51551 69.5258 3.95614C71.9664 6.41551 73.4883 9.79301 73.4883 13.5255C73.4883 14.693 73.3289 15.8249 73.0464 16.9218C72.7627 18.0543 72.3202 19.1149 71.7727 20.1055L61.0177 38.3055ZM59.957 35.2274L69.6139 18.8661C70.0564 18.0705 70.4102 17.2036 70.6402 16.3018C70.8695 15.4168 70.9933 14.4974 70.9933 13.5249C70.9933 10.4824 69.7564 7.72364 67.757 5.72489C65.7583 3.72676 62.9989 2.48801 59.957 2.48801C56.897 2.48801 54.1377 3.72614 52.1395 5.72489C50.1577 7.72364 48.9202 10.4824 48.9202 13.5249C48.9202 14.498 49.0433 15.4168 49.2564 16.3018C49.4858 17.1855 49.8395 18.0349 50.2639 18.8305L59.957 35.2274Z" fill="white"/>
<path d="M59.9584 6.30859C61.9397 6.30859 63.7434 7.12297 65.0516 8.43109C66.3609 9.72234 67.1747 11.5261 67.1747 13.5248C67.1747 15.523 66.3603 17.328 65.0516 18.6367C63.7428 19.928 61.9397 20.7411 59.9584 20.7411C57.9597 20.7411 56.1553 19.928 54.8466 18.6367C53.5378 17.328 52.7422 15.5236 52.7422 13.5248C52.7422 11.5261 53.5378 9.72234 54.8466 8.43109C56.1553 7.12234 57.9591 6.30859 59.9584 6.30859ZM63.2834 10.1823C62.4341 9.33359 61.2497 8.80297 59.9584 8.80297C58.6497 8.80297 57.4641 9.33359 56.6153 10.1823C55.7659 11.0492 55.2359 12.2161 55.2359 13.5255C55.2359 14.8342 55.7659 16.0192 56.6153 16.8686C57.4634 17.7173 58.6497 18.248 59.9584 18.248C61.2497 18.248 62.4341 17.7173 63.2834 16.8686C64.1497 16.0198 64.6803 14.8342 64.6803 13.5255C64.6803 12.2161 64.1497 11.0492 63.2834 10.1823Z" fill="white"/>
<path d="M65.7215 60.7505C65.0315 60.7505 64.4847 60.1849 64.4847 59.4949C64.4847 58.8049 65.0322 58.2561 65.7215 58.2561H70.2497C71.8065 58.2561 73.1865 59.1586 73.7878 60.5911L79.6422 74.8474C79.8897 75.4486 79.9778 76.0505 79.9072 76.6517C79.7834 77.8724 78.969 79.0036 77.8903 79.5699C77.3422 79.853 76.7409 79.9949 76.1047 79.9949H3.90529C3.26842 79.9949 2.66717 79.853 2.11904 79.5699C1.02217 79.0036 0.226544 77.8724 0.0852938 76.6517C0.0321688 76.0505 0.120294 75.4486 0.350294 74.8474L6.22279 60.5911C6.82404 59.1586 8.20342 58.2561 9.76029 58.2561H14.2528C14.9428 58.2561 15.4909 58.8055 15.4909 59.4949C15.4909 60.1842 14.9428 60.7505 14.2528 60.7505H9.76029C9.21217 60.7505 8.73404 61.0155 8.52217 61.5461L2.66779 75.8017C2.57904 75.9974 2.54404 76.1911 2.56154 76.3861C2.61467 76.793 2.89779 77.1642 3.25154 77.3592C3.44592 77.448 3.65779 77.5011 3.90592 77.5011H76.1059C76.3534 77.5011 76.5653 77.448 76.7428 77.3592C77.1147 77.1642 77.3972 76.7936 77.4328 76.3861C77.4503 76.1911 77.4328 75.9974 77.344 75.8017L71.4897 61.5461C71.2772 61.0149 70.7997 60.7505 70.2515 60.7505H65.7215Z" fill="white"/>
<path d="M58.702 43.6642C58.702 42.9742 59.2677 42.408 59.9577 42.408C60.6477 42.408 61.1958 42.9742 61.1958 43.6642V73.5736C61.1958 74.2636 60.647 74.8292 59.9577 74.8292H20.0545C19.3645 74.8292 18.8164 74.2636 18.8164 73.5736V18.9024C18.8164 17.8411 19.2764 16.8855 20.0195 16.1961C20.727 15.5236 21.7177 15.0992 22.7964 15.0992H42.482C43.172 15.0992 43.7202 15.6649 43.7202 16.3555C43.7202 17.0455 43.1714 17.6111 42.482 17.6111H22.7964C22.3539 17.6111 21.9827 17.753 21.7002 18.018C21.4527 18.2474 21.3108 18.5661 21.3108 18.9024V72.3349H58.7027L58.702 43.6642Z" fill="white"/>
</g>
<defs>
<clipPath id="clip0_2302_15979">
<rect width="80" height="80" fill="white" transform="translate(0 -0.0057373)"/>
</clipPath>
</defs>
</svg>
