<svg width="80" height="81" viewBox="0 0 80 81" fill="none" xmlns="http://www.w3.org/2000/svg">
<path d="M69.6944 65.1303C71.4031 63.754 72.5019 61.6478 72.5019 59.2878C72.5019 55.1515 69.1381 51.7878 65.0019 51.7878C60.8656 51.7878 57.5019 55.1515 57.5019 59.2878C57.5019 61.6478 58.6006 63.754 60.3094 65.1303C57.6419 66.1028 55.3581 67.8715 53.7519 70.1578V69.2878C53.7519 63.3553 49.9681 58.304 44.6944 56.3803C45.8431 55.4565 46.7169 54.204 47.1644 52.764C47.6731 52.934 48.2056 53.0378 48.7519 53.0378C51.5094 53.0378 53.7519 50.7953 53.7519 48.0378V45.1078L57.6194 48.9753C58.4081 49.7653 59.3456 50.2778 60.3281 50.454C60.6419 50.5103 60.9544 50.539 61.2644 50.539C62.5856 50.539 63.8344 50.0278 64.7881 49.074C65.7306 48.129 66.2519 46.874 66.2519 45.5378C66.2519 44.2015 65.7306 42.9465 64.8606 42.0828L55.4119 30.814C54.0356 29.1728 52.4231 27.7515 50.6194 26.5915L38.1431 18.5703C36.3681 17.429 34.3219 16.7028 32.2269 16.4715L26.4744 15.8328L28.0194 14.2878L17.5019 3.77026L0.734375 20.5378L11.2519 31.0553L12.1594 30.1478L13.5356 32.899C14.6569 35.1415 16.1244 37.1765 17.8969 38.949C18.7531 39.8053 19.6844 40.6015 20.6644 41.3153L31.8794 49.4715C32.0906 49.6253 32.3131 49.7565 32.5394 49.8778C32.5206 50.0965 32.5019 50.3165 32.5019 50.5378C32.5019 52.8978 33.6006 55.004 35.3094 56.3803C30.0356 58.304 26.2519 63.3553 26.2519 69.2878V70.1565C24.6456 67.8703 22.3619 66.1028 19.6944 65.129C21.4031 63.754 22.5019 61.6478 22.5019 59.2878C22.5019 55.1515 19.1381 51.7878 15.0019 51.7878C10.8656 51.7878 7.50187 55.1515 7.50187 59.2878C7.50187 61.6478 8.60063 63.754 10.3094 65.1303C5.03563 67.054 1.25187 72.1053 1.25187 78.0378V79.2878H28.7519V78.0378C28.7519 75.2703 27.9231 72.6965 26.5119 70.5378H53.4931C52.0806 72.6965 51.2519 75.2703 51.2519 78.0378V79.2878H78.7519V78.0378C78.7519 72.1053 74.9681 67.054 69.6944 65.1303ZM10.0019 59.2878C10.0019 56.5303 12.2444 54.2878 15.0019 54.2878C17.7594 54.2878 20.0019 56.5303 20.0019 59.2878C20.0019 62.0453 17.7594 64.2878 15.0019 64.2878C12.2444 64.2878 10.0019 62.0453 10.0019 59.2878ZM18.4831 67.3503L15.0019 71.179L11.5206 67.3503C12.6194 66.9915 13.7856 66.7878 15.0019 66.7878C16.2181 66.7878 17.3844 66.9915 18.4831 67.3503ZM3.82063 76.7878C4.21313 73.2578 6.24563 70.2178 9.13562 68.444L15.0019 74.8965L20.8669 68.444C23.7569 70.2178 25.7906 73.2578 26.1819 76.7878H3.82063ZM40.8994 43.0965C40.5919 42.2353 40.0994 41.444 39.4069 40.8203L30.2556 32.584L39.9119 35.2178C40.4531 35.3653 40.9644 35.5978 41.4319 35.909C42.8844 36.879 43.7519 38.5003 43.7519 40.2465V44.0528C42.8931 43.554 41.9294 43.2203 40.8994 43.0965ZM63.0194 43.7703C63.4919 44.2428 63.7519 44.8703 63.7519 45.5378C63.7519 46.2053 63.4919 46.8328 63.0194 47.3053C62.4306 47.8953 61.6144 48.1428 60.7719 47.994C60.1681 47.8853 59.6856 47.5065 59.3881 47.2078L53.7519 41.5728V32.724L63.0194 43.7703ZM4.26938 20.5378L17.5019 7.30526L24.4844 14.2878L11.2519 27.5203L4.26938 20.5378ZM22.1356 39.294C21.2606 38.6565 20.4281 37.9465 19.6644 37.1828C18.0819 35.6003 16.7731 33.784 15.7719 31.7815L14.0231 28.2853L24.2119 18.0965L31.9519 18.9578C33.6669 19.1478 35.3406 19.7415 36.7931 20.6753L49.2694 28.6965C49.9656 29.144 50.6244 29.644 51.2531 30.1778V48.0378C51.2531 49.4165 50.1319 50.5378 48.7531 50.5378C48.3019 50.5378 47.8669 50.414 47.4856 50.189C47.4206 48.794 46.9806 47.4965 46.2531 46.4003V40.2453C46.2531 37.6615 44.9694 35.2628 42.8194 33.829C42.1269 33.3678 41.3706 33.0228 40.5706 32.8053L27.8331 29.3315C27.4569 29.2303 27.0556 29.3078 26.7456 29.544C26.4344 29.7815 26.2519 30.1478 26.2519 30.5378V31.7878C26.2519 32.1428 26.4019 32.4803 26.6656 32.7165L37.7344 42.6778C38.3806 43.2603 38.7519 44.0928 38.7519 44.964C38.7519 46.6578 37.3719 48.0378 35.6781 48.0378H35.1581C34.5044 48.0378 33.8794 47.834 33.3506 47.4503L22.1356 39.294ZM35.0019 50.5378C35.0019 50.534 35.0031 50.5303 35.0031 50.5253C35.0556 50.5265 35.1056 50.5378 35.1581 50.5378H35.6781C38.5019 50.5378 40.8169 48.419 41.1794 45.6928C43.3669 46.2253 45.0019 48.1878 45.0019 50.5378C45.0019 53.2953 42.7594 55.5378 40.0019 55.5378C37.2444 55.5378 35.0019 53.2953 35.0019 50.5378ZM43.4831 58.6003L40.0019 62.429L36.5206 58.6003C37.6194 58.2415 38.7856 58.0378 40.0019 58.0378C41.2181 58.0378 42.3844 58.2415 43.4831 58.6003ZM28.8206 68.0378C29.2131 64.5078 31.2456 61.4678 34.1356 59.694L40.0019 66.1465L45.8669 59.694C48.7569 61.4678 50.7906 64.5078 51.1819 68.0378H28.8206ZM60.0019 59.2878C60.0019 56.5303 62.2444 54.2878 65.0019 54.2878C67.7594 54.2878 70.0019 56.5303 70.0019 59.2878C70.0019 62.0453 67.7594 64.2878 65.0019 64.2878C62.2444 64.2878 60.0019 62.0453 60.0019 59.2878ZM68.4831 67.3503L65.0019 71.179L61.5206 67.3503C62.6194 66.9915 63.7856 66.7878 65.0019 66.7878C66.2181 66.7878 67.3844 66.9915 68.4831 67.3503ZM53.8206 76.7878C54.2131 73.2578 56.2456 70.2178 59.1356 68.444L65.0019 74.8965L70.8669 68.444C73.7569 70.2178 75.7906 73.2578 76.1819 76.7878H53.8206Z" fill="url(#paint0_linear_2302_16000)"/>
<path d="M78.3847 3.92143L76.6172 2.15393L67.5009 11.2702L65.8847 9.65393L64.1172 11.4214L67.5009 14.8052L78.3847 3.92143Z" fill="url(#paint1_linear_2302_16000)"/>
<path d="M67.5 25.5377C69.5675 25.5377 71.25 23.8552 71.25 21.7877C71.25 19.7202 69.5675 18.0377 67.5 18.0377C65.4325 18.0377 63.75 19.7202 63.75 21.7877C63.75 23.8552 65.4325 25.5377 67.5 25.5377ZM67.5 20.5377C68.1887 20.5377 68.75 21.099 68.75 21.7877C68.75 22.4765 68.1887 23.0377 67.5 23.0377C66.8112 23.0377 66.25 22.4765 66.25 21.7877C66.25 21.099 66.8112 20.5377 67.5 20.5377Z" fill="url(#paint2_linear_2302_16000)"/>
<path d="M46.25 10.5377H61.25V13.0377H46.25V10.5377Z" fill="url(#paint3_linear_2302_16000)"/>
<path d="M46.25 20.5377H56.25V23.0377H46.25V20.5377Z" fill="url(#paint4_linear_2302_16000)"/>
<path d="M58.75 20.5377H61.25V23.0377H58.75V20.5377Z" fill="url(#paint5_linear_2302_16000)"/>
<path d="M46.25 15.5377H61.25V18.0377H46.25V15.5377Z" fill="url(#paint6_linear_2302_16000)"/>
<defs>
<linearGradient id="paint0_linear_2302_16000" x1="0.734375" y1="41.529" x2="78.7519" y2="41.529" gradientUnits="userSpaceOnUse">
<stop stop-color="#991F3D"/>
<stop offset="1" stop-color="#E7474D"/>
</linearGradient>
<linearGradient id="paint1_linear_2302_16000" x1="64.1172" y1="8.47956" x2="78.3847" y2="8.47956" gradientUnits="userSpaceOnUse">
<stop stop-color="#991F3D"/>
<stop offset="1" stop-color="#E7474D"/>
</linearGradient>
<linearGradient id="paint2_linear_2302_16000" x1="63.75" y1="21.7877" x2="71.25" y2="21.7877" gradientUnits="userSpaceOnUse">
<stop stop-color="#991F3D"/>
<stop offset="1" stop-color="#E7474D"/>
</linearGradient>
<linearGradient id="paint3_linear_2302_16000" x1="46.25" y1="11.7877" x2="61.25" y2="11.7877" gradientUnits="userSpaceOnUse">
<stop stop-color="#991F3D"/>
<stop offset="1" stop-color="#E7474D"/>
</linearGradient>
<linearGradient id="paint4_linear_2302_16000" x1="46.25" y1="21.7877" x2="56.25" y2="21.7877" gradientUnits="userSpaceOnUse">
<stop stop-color="#991F3D"/>
<stop offset="1" stop-color="#E7474D"/>
</linearGradient>
<linearGradient id="paint5_linear_2302_16000" x1="58.75" y1="21.7877" x2="61.25" y2="21.7877" gradientUnits="userSpaceOnUse">
<stop stop-color="#991F3D"/>
<stop offset="1" stop-color="#E7474D"/>
</linearGradient>
<linearGradient id="paint6_linear_2302_16000" x1="46.25" y1="16.7877" x2="61.25" y2="16.7877" gradientUnits="userSpaceOnUse">
<stop stop-color="#991F3D"/>
<stop offset="1" stop-color="#E7474D"/>
</linearGradient>
</defs>
</svg>
