<svg width="25" height="24" viewBox="0 0 25 24" fill="none" xmlns="http://www.w3.org/2000/svg">
<ellipse cx="12.0084" cy="12" rx="12.0084" ry="12" fill="#EF4B4F"/>
<g clip-path="url(#clip0_734_3928)">
<path d="M15.5259 13.781C14.8307 13.781 14.2181 14.1227 13.8333 14.6425L10.5066 12.9402C10.5618 12.752 10.6006 12.5571 10.6006 12.3513C10.6006 12.0723 10.5434 11.807 10.4445 11.563L13.9261 9.46935C14.3135 9.92376 14.883 10.2185 15.5259 10.2185C16.6899 10.2185 17.6368 9.27231 17.6368 8.10913C17.6368 6.94595 16.6899 5.99976 15.5259 5.99976C14.3619 5.99976 13.4151 6.94595 13.4151 8.10913C13.4151 8.37719 13.4703 8.63146 13.5619 8.86752L10.07 10.9673C9.68284 10.5264 9.12154 10.2419 8.48976 10.2419C7.32576 10.2419 6.37891 11.1881 6.37891 12.3513C6.37891 13.5145 7.32576 14.4607 8.48976 14.4607C9.19642 14.4607 9.81938 14.1089 10.2027 13.5746L13.5185 15.2714C13.4575 15.4684 13.4151 15.6736 13.4151 15.8904C13.4151 17.0536 14.3619 17.9998 15.5259 17.9998C16.6899 17.9998 17.6368 17.0536 17.6368 15.8904C17.6368 14.7272 16.6899 13.781 15.5259 13.781Z" fill="white"/>
</g>
<defs>
<clipPath id="clip0_734_3928">
<rect width="12.0084" height="12" fill="white" transform="translate(6.00391 5.99976)"/>
</clipPath>
</defs>
</svg>
