<svg width="80" height="80" viewBox="0 0 80 80" fill="none" xmlns="http://www.w3.org/2000/svg">
<path d="M73.8589 30.4897C76.7917 27.3989 78.5938 23.225 78.5938 18.6378C78.5938 9.13625 70.8636 1.40625 61.3622 1.40625C51.8608 1.40625 44.1308 9.13625 44.1308 18.6378C44.1308 23.225 45.9328 27.3989 48.8657 30.4898L44.4346 38.1647C44.2196 38.537 44.2427 39.0008 44.4936 39.3498C44.7446 39.6989 45.1771 39.8688 45.5982 39.7836L51.1922 38.6544L53.0114 44.0636C53.1485 44.4711 53.5116 44.7605 53.9393 44.8033C53.9758 44.8069 54.0122 44.8088 54.0483 44.8088C54.436 44.8088 54.7986 44.6025 54.9953 44.2619L59.8782 35.8047C60.3675 35.8466 60.8622 35.8694 61.3624 35.8694C61.8625 35.8694 62.3572 35.8467 62.8466 35.8047L67.7294 44.2619C67.9261 44.6025 68.2885 44.8088 68.6764 44.8088C68.7125 44.8088 68.7491 44.807 68.7855 44.8033C69.2132 44.7606 69.5764 44.4711 69.7133 44.0636L71.5325 38.6544L77.1266 39.7836C77.5478 39.8686 77.9802 39.6989 78.2311 39.3498C78.4819 39.0008 78.5052 38.5369 78.2902 38.1647L73.8589 30.4897ZM54.3124 41.0697L52.9582 37.043C52.7824 36.5205 52.2446 36.2106 51.705 36.3195L47.5405 37.1602L50.5119 32.0138C52.5338 33.657 54.9336 34.852 57.5594 35.4458L54.3124 41.0697ZM46.3183 18.6378C46.3183 10.3425 53.0669 3.59375 61.3622 3.59375C69.6575 3.59375 76.4063 10.3425 76.4063 18.6378C76.4063 26.9331 69.6575 33.6819 61.3622 33.6819C53.0669 33.6819 46.3183 26.9331 46.3183 18.6378ZM71.0194 36.3194C70.4807 36.2108 69.9419 36.5203 69.7663 37.0428L68.4121 41.0697L65.1649 35.4456C67.7907 34.8519 70.1905 33.6569 72.2124 32.0134L75.1838 37.16L71.0194 36.3194ZM61.3622 6.92188C54.9021 6.92188 49.6464 12.1777 49.6464 18.6378C49.6464 25.098 54.9022 30.3536 61.3622 30.3536C67.8222 30.3536 73.078 25.0978 73.078 18.6378C73.078 12.1777 67.8222 6.92188 61.3622 6.92188ZM61.3622 28.1661C56.1083 28.1661 51.8339 23.8917 51.8339 18.6378C51.8339 13.3839 56.1083 9.10938 61.3622 9.10938C66.6161 9.10938 70.8905 13.3837 70.8905 18.6378C70.8905 23.8919 66.6161 28.1661 61.3622 28.1661ZM68.0433 16.0764C67.9044 15.6491 67.5185 15.3502 67.0699 15.3227L63.6393 15.1131L62.38 11.9152C62.2153 11.497 61.8116 11.2222 61.3622 11.2222C60.9128 11.2222 60.5093 11.497 60.3446 11.9152L59.085 15.1131L55.6546 15.3227C55.206 15.35 54.8199 15.6489 54.6811 16.0764C54.5424 16.5039 54.6788 16.9727 55.0257 17.2584L57.6778 19.4444L56.8171 22.7717C56.7044 23.2067 56.8694 23.6664 57.233 23.9306C57.4243 24.0695 57.6499 24.1395 57.8758 24.1395C58.0797 24.1395 58.2838 24.0827 58.4636 23.9681L61.3622 22.1213L64.2607 23.9681C64.6396 24.2095 65.1275 24.1948 65.4913 23.9306C65.8549 23.6666 66.0199 23.2069 65.9072 22.7717L65.0464 19.4444L67.6988 17.2584C68.0453 16.9727 68.1821 16.5037 68.0433 16.0764ZM63.1172 18.1995C62.7891 18.4698 62.6475 18.9059 62.7539 19.3175L63.0938 20.6306L61.95 19.9017C61.5914 19.6733 61.133 19.6731 60.7746 19.9017L59.6307 20.6306L59.9703 19.3175C60.0769 18.9059 59.9352 18.4698 59.6072 18.1995L58.5605 17.3369L59.9144 17.2542C60.3388 17.2283 60.7097 16.9589 60.8653 16.5633L61.3625 15.3013L61.8594 16.5633C62.0152 16.9589 62.3861 17.2283 62.8105 17.2542L64.1644 17.3369L63.1172 18.1995ZM21.4368 29.0659C26.866 29.0659 31.2832 24.6489 31.2832 19.2198C31.2832 13.7914 26.866 9.375 21.4368 9.375C16.0077 9.375 11.5907 13.7914 11.5907 19.2198C11.5908 24.6489 16.0077 29.0659 21.4368 29.0659ZM21.4368 11.5625C25.6599 11.5625 29.0957 14.9975 29.0957 19.2198C29.0957 23.4428 25.66 26.8784 21.4368 26.8784C17.2139 26.8784 13.7782 23.4428 13.7782 19.2198C13.7783 14.9975 17.2139 11.5625 21.4368 11.5625ZM31.6463 34.7172C31.1432 34.4188 30.4947 34.5686 30.1736 35.0573L25.478 42.208L24.9114 37.982C25.0894 37.7558 25.2316 37.4969 25.3246 37.2108L25.9846 35.1795C26.2343 34.4113 26.1061 33.5975 25.6333 32.9466C25.1605 32.2955 24.4258 31.9222 23.6182 31.9222H19.256C18.4482 31.9222 17.7138 32.2955 17.2408 32.9464C16.768 33.5973 16.6397 34.4113 16.8894 35.1795L17.5496 37.2108C17.6425 37.4969 17.7846 37.7556 17.9625 37.9819L17.396 42.2078L12.7002 35.0578C12.3789 34.5689 11.7308 34.4192 11.2275 34.7177C8.29066 36.4609 5.8305 38.9419 4.113 41.8925C2.34222 44.9347 1.40628 48.4133 1.40628 51.9522C1.40628 53.99 2.55706 56.8427 8.03988 58.8613C11.5924 60.1692 16.3503 60.8895 21.4369 60.8895C31.4074 60.8895 41.4675 58.1259 41.4675 51.9522C41.4675 48.4131 40.5316 44.9344 38.7608 41.8922C37.0433 38.9416 34.5832 36.4605 31.6463 34.7172ZM19.0103 34.2322C19.051 34.1763 19.1264 34.1097 19.2558 34.1097H23.618C23.7472 34.1097 23.8228 34.1763 23.8635 34.2322C23.9041 34.2881 23.9441 34.3805 23.9041 34.5034L23.2441 36.5348C23.2005 36.6689 23.0988 36.7428 22.9578 36.7428H19.9157C19.7747 36.7428 19.6732 36.6691 19.6296 36.5348L18.9694 34.5036C18.9296 34.3806 18.9697 34.2881 19.0103 34.2322ZM20.0421 38.9305H22.8318L23.6453 44.9992L21.4369 48.3622L19.2283 44.9989L20.0421 38.9305ZM21.4369 58.7022C12.7871 58.7022 3.59378 56.3364 3.59378 51.9522C3.59378 46.0342 6.58425 40.4583 11.4624 37.158L20.5225 50.955C20.7249 51.263 21.0685 51.4484 21.4369 51.4484C21.8053 51.4484 22.1489 51.263 22.3513 50.955L31.4116 37.1577C36.2899 40.4581 39.28 46.0342 39.28 51.9523C39.2802 56.3364 30.0869 58.7022 21.4369 58.7022ZM17.4205 67.6773L12.6836 67.3881L10.9446 62.9723C10.7799 62.5542 10.3763 62.2794 9.92691 62.2794C9.47753 62.2794 9.07394 62.5542 8.90925 62.9723L7.17019 67.3881L2.43331 67.6773C1.98488 67.7047 1.59863 68.0036 1.45988 68.4311C1.32097 68.8584 1.45753 69.3272 1.80441 69.6131L5.4666 72.6316L4.27785 77.2259C4.16535 77.6611 4.33035 78.1206 4.69394 78.3848C5.05753 78.6491 5.54581 78.6637 5.92456 78.4223L9.92691 75.872L13.9291 78.4223C14.1086 78.5369 14.313 78.5938 14.5169 78.5938C14.7428 78.5938 14.9686 78.5238 15.1597 78.3848C15.5233 78.1208 15.6883 77.6611 15.5758 77.2259L14.3872 72.6316L18.0494 69.6131C18.3963 69.3273 18.5328 68.8584 18.3939 68.4311C18.2552 68.0036 17.8689 67.7047 17.4205 67.6773ZM12.458 71.3867C12.1299 71.657 11.9883 72.0931 12.0947 72.5047L12.7622 75.0848L10.5146 73.6525C10.1561 73.4241 9.69769 73.4239 9.3391 73.6525L7.09128 75.0848L7.75878 72.5045C7.86519 72.093 7.72347 71.657 7.3955 71.3866L5.33878 69.6912L7.9991 69.5287C8.42347 69.5028 8.79441 69.2334 8.95003 68.8378L9.92675 66.3577L10.9035 68.8378C11.0591 69.2334 11.43 69.5028 11.8544 69.5287L14.5147 69.6912L12.458 71.3867ZM37.9674 67.6773L33.2305 67.3881L31.4914 62.9723C31.3268 62.5542 30.9232 62.2794 30.4738 62.2794C30.0244 62.2794 29.6208 62.5542 29.4561 62.9723L27.7171 67.3881L22.9802 67.6773C22.5318 67.7047 22.1455 68.0036 22.0068 68.4311C21.8678 68.8584 22.0044 69.3272 22.3513 69.6131L26.0135 72.6316L24.8247 77.2259C24.7122 77.6611 24.8772 78.1206 25.2408 78.3848C25.4321 78.5238 25.6577 78.5938 25.8836 78.5938C26.0875 78.5938 26.2918 78.5369 26.4714 78.4223L30.4738 75.872L34.476 78.4223C34.8546 78.6637 35.3428 78.6491 35.7066 78.3848C36.0702 78.1208 36.2352 77.6611 36.1227 77.2261L34.9341 72.6316L38.5963 69.6131C38.9432 69.3272 39.0797 68.8584 38.9408 68.4311C38.8021 68.0036 38.4158 67.7047 37.9674 67.6773ZM33.005 71.3867C32.6769 71.657 32.5353 72.0931 32.6418 72.5047L33.3093 75.085L31.0614 73.6527C30.8822 73.5384 30.678 73.4812 30.4736 73.4812C30.2694 73.4812 30.0652 73.5384 29.8858 73.6527L27.638 75.085L28.3055 72.5047C28.4119 72.0931 28.2702 71.6572 27.9422 71.3867L25.8855 69.6914L28.5458 69.5289C28.9702 69.503 29.3411 69.2336 29.4968 68.838L30.4735 66.3578L31.4502 68.838C31.6058 69.2336 31.9768 69.503 32.4011 69.5289L35.0614 69.6914L33.005 71.3867ZM58.5143 67.6773L53.7774 67.3881L52.0383 62.9723C51.8736 62.5542 51.47 62.2794 51.0207 62.2794C50.5713 62.2794 50.1677 62.5542 50.003 62.9723L48.2639 67.3881L43.5271 67.6773C43.0786 67.7047 42.6924 68.0036 42.5536 68.4311C42.4147 68.8584 42.5513 69.3272 42.8982 69.6131L46.5603 72.6316L45.3717 77.2261C45.2593 77.6611 45.4243 78.1208 45.7878 78.3848C46.1514 78.6491 46.6397 78.6636 47.0185 78.4223L51.0207 75.872L55.0228 78.4223C55.2024 78.5369 55.4067 78.5938 55.6107 78.5938C55.8366 78.5938 56.0624 78.5238 56.2535 78.3848C56.6171 78.1208 56.7821 77.6611 56.6696 77.2261L55.481 72.6316L59.1432 69.6131C59.49 69.3272 59.6266 68.8584 59.4877 68.4311C59.3489 68.0036 58.9627 67.7047 58.5143 67.6773ZM53.5519 71.3867C53.2238 71.657 53.0822 72.0931 53.1886 72.5047L53.8561 75.085L51.6083 73.6527C51.4291 73.5384 51.2249 73.4812 51.0205 73.4812C50.8161 73.4812 50.6121 73.5384 50.4327 73.6527L48.1849 75.085L48.8524 72.5047C48.9588 72.0931 48.8171 71.6572 48.4891 71.3867L46.4324 69.6914L49.0927 69.5289C49.5171 69.503 49.888 69.2336 50.0436 68.838L51.0203 66.3578L51.9971 68.838C52.1527 69.2336 52.5236 69.503 52.948 69.5289L55.6083 69.6914L53.5519 71.3867Z" fill="url(#paint0_linear_2896_3596)"/>
<defs>
<linearGradient id="paint0_linear_2896_3596" x1="1.40625" y1="40" x2="78.5938" y2="40" gradientUnits="userSpaceOnUse">
<stop stop-color="#991F3D"/>
<stop offset="1" stop-color="#E7474D"/>
</linearGradient>
</defs>
</svg>
