<svg width="36" height="35" viewBox="0 0 36 35" fill="none" xmlns="http://www.w3.org/2000/svg">
<path d="M30.0597 5.7422C27.6742 3.35415 24.634 1.7273 21.3237 1.06747C18.0134 0.407636 14.5818 0.744476 11.4629 2.03536C8.34412 3.32624 5.67825 5.51318 3.8026 8.31949C1.92694 11.1258 0.925781 14.4254 0.925781 17.8008C0.925781 21.1763 1.92694 24.4758 3.8026 27.2822C5.67825 30.0884 8.34412 32.2753 11.4629 33.5663C14.5818 34.8571 18.0134 35.1939 21.3237 34.5341C24.634 33.8743 27.6742 32.2475 30.0597 29.8594C31.6441 28.2764 32.901 26.3965 33.7586 24.3274C34.6162 22.2583 35.0576 20.0406 35.0576 17.8008C35.0576 15.561 34.6162 13.3433 33.7586 11.2741C32.901 9.20506 31.6441 7.32526 30.0597 5.7422ZM23.9074 21.082C23.9074 21.4301 23.7691 21.764 23.5229 22.0101C23.2768 22.2562 22.9429 22.3945 22.5949 22.3945C22.2468 22.3945 21.9129 22.2562 21.6668 22.0101C21.4207 21.764 21.2824 21.4301 21.2824 21.082V16.3734L14.3425 23.3297C14.0888 23.5678 13.7553 23.7023 13.4074 23.707C13.0589 23.7056 12.7242 23.5705 12.4722 23.3297C12.2257 23.0808 12.0875 22.7448 12.0875 22.3945C12.0875 22.0444 12.2257 21.7082 12.4722 21.4594L19.4284 14.5195H14.7199C14.3718 14.5195 14.0379 14.3812 13.7918 14.1351C13.5457 13.889 13.4074 13.5551 13.4074 13.207C13.4074 12.859 13.5457 12.5251 13.7918 12.279C14.0379 12.0329 14.3718 11.8945 14.7199 11.8945H22.5949C22.7639 11.8941 22.9312 11.9276 23.087 11.993C23.4111 12.1241 23.6704 12.3775 23.8089 12.6984C23.8732 12.8604 23.9066 13.0329 23.9074 13.207V21.082Z" fill="white"/>
</svg>
