<svg width="80" height="81" viewBox="0 0 80 81" fill="none" xmlns="http://www.w3.org/2000/svg">
<g clip-path="url(#clip0_2896_4033)">
<path d="M74.6497 5.59869C74.6497 2.864 72.4249 0.63916 69.6902 0.63916H22.8763C22.2295 0.63916 21.7053 1.16338 21.7053 1.8101C21.7053 2.45682 22.2295 2.98104 22.8763 2.98104H69.69C71.1333 2.98104 72.3077 4.15525 72.3077 5.59869V38.0371C72.3077 38.8262 71.6656 39.4682 70.8766 39.4682H9.11688C8.32781 39.4682 7.68578 38.8262 7.68578 38.0371V5.59869C7.68578 4.15541 8.86 2.98104 10.3034 2.98104H17.3817C18.0284 2.98104 18.5527 2.45682 18.5527 1.8101C18.5527 1.16338 18.0283 0.63916 17.3816 0.63916H10.3033C7.56859 0.63916 5.34375 2.864 5.34375 5.59869V38.0371C5.34375 39.0454 5.74203 39.9617 6.38844 40.6393C5.74188 41.3168 5.34375 42.2332 5.34375 43.2413V75.6798C5.34375 78.4143 7.56859 80.6392 10.3033 80.6392H69.6902C72.4249 80.6392 74.6497 78.4143 74.6497 75.6796V66.9956C74.6497 66.3488 74.1255 65.8246 73.4788 65.8246C72.832 65.8246 72.3078 66.3488 72.3078 66.9956V75.6796C72.3078 77.1229 71.1334 78.2973 69.6902 78.2973H10.3033C8.86 78.2973 7.68563 77.1231 7.68563 75.6796V43.2412C7.68563 42.4521 8.32766 41.8101 9.11672 41.8101H70.8766C71.6656 41.8101 72.3077 42.4521 72.3077 43.2412V61.5809C72.3077 62.2276 72.8319 62.7518 73.4786 62.7518C74.1253 62.7518 74.6495 62.2276 74.6495 61.5809V43.2412C74.6495 42.2329 74.2513 41.3167 73.6049 40.6392C74.2513 39.9617 74.6495 39.0453 74.6495 38.037L74.6497 5.59869Z" fill="url(#paint0_linear_2896_4033)"/>
<path d="M20.6008 71.8442H25.5997C28.662 71.8442 31.1536 69.3526 31.1536 66.2903V55.9181C31.1536 51.697 27.7195 48.2629 23.4984 48.2629H22.702C18.4809 48.2629 15.0469 51.697 15.0469 55.9181V66.2903C15.0469 69.3528 17.5383 71.8442 20.6008 71.8442ZM17.3887 55.9181C17.3887 52.9884 19.7723 50.6048 22.702 50.6048H23.4984C26.4281 50.6048 28.8117 52.9883 28.8117 55.9181V56.8887C27.2197 56.7275 25.6578 56.2428 24.3183 55.4842C22.7128 54.5751 21.8642 53.5254 21.6253 52.9029C21.4555 52.4601 21.0352 52.1636 20.5609 52.1518C20.5512 52.1517 20.5416 52.1515 20.5319 52.1515C20.0691 52.1515 19.6484 52.4245 19.4609 52.8495L18.9406 54.0279C18.7677 54.4195 18.5627 54.7875 18.3309 55.1217C18.0637 55.5072 17.787 55.8336 17.3889 56.1426L17.3887 55.9181ZM28.4002 59.2001V59.9898C28.4002 62.9123 26.0225 65.2898 23.1002 65.2898C20.1777 65.2898 17.8002 62.9122 17.8002 59.9898V58.657C19.0148 57.9915 19.6722 57.2975 20.2555 56.4561C20.2555 56.4561 20.2555 56.4561 20.2556 56.4559C20.4267 56.209 20.5867 55.9497 20.7345 55.6801C22.3577 57.3718 25.1388 58.8323 28.4002 59.2001ZM17.3887 65.0597C18.7897 66.6361 20.8303 67.6318 23.1002 67.6318C25.37 67.6318 27.4108 66.6361 28.8116 65.0595V66.2903C28.8116 68.0614 27.3706 69.5023 25.5995 69.5023H20.6006C18.8295 69.5023 17.3886 68.0614 17.3886 66.2903L17.3887 65.0597Z" fill="url(#paint1_linear_2896_4033)"/>
<path d="M13.4 44.5474C12.2145 44.5474 11.25 45.512 11.25 46.6974V73.4099C11.25 74.5954 12.2145 75.5599 13.4 75.5599H32.8022C33.9877 75.5599 34.9522 74.5954 34.9522 73.4099V46.6974C34.9522 45.512 33.9878 44.5474 32.8022 44.5474H13.4ZM32.6102 73.2181H13.5919V46.8893H32.6102V73.2181Z" fill="url(#paint2_linear_2896_4033)"/>
<path d="M67.5753 47.0032H40.71C40.0633 47.0032 39.5391 47.5275 39.5391 48.1742C39.5391 48.8209 40.0633 49.3451 40.71 49.3451H67.5753C68.222 49.3451 68.7463 48.8209 68.7463 48.1742C68.7463 47.5275 68.222 47.0032 67.5753 47.0032Z" fill="url(#paint3_linear_2896_4033)"/>
<path d="M40.71 55.2849H48.3244C48.9711 55.2849 49.4953 54.7607 49.4953 54.114C49.4953 53.4673 48.9711 52.9431 48.3244 52.9431H40.71C40.0633 52.9431 39.5391 53.4673 39.5391 54.114C39.5391 54.7607 40.0633 55.2849 40.71 55.2849Z" fill="url(#paint4_linear_2896_4033)"/>
<path d="M67.5745 52.9431H59.96C59.3133 52.9431 58.7891 53.4673 58.7891 54.114C58.7891 54.7607 59.3133 55.2849 59.96 55.2849H67.5744C68.2211 55.2849 68.7453 54.7607 68.7453 54.114C68.7453 53.4673 68.2213 52.9431 67.5745 52.9431Z" fill="url(#paint5_linear_2896_4033)"/>
<path d="M40.71 61.2246H48.3244C48.9711 61.2246 49.4953 60.7004 49.4953 60.0537C49.4953 59.407 48.9711 58.8828 48.3244 58.8828H40.71C40.0633 58.8828 39.5391 59.407 39.5391 60.0537C39.5391 60.7004 40.0633 61.2246 40.71 61.2246Z" fill="url(#paint6_linear_2896_4033)"/>
<path d="M68.7455 60.0537C68.7455 59.407 68.2213 58.8828 67.5745 58.8828H59.96C59.3133 58.8828 58.7891 59.407 58.7891 60.0537C58.7891 60.7004 59.3133 61.2246 59.96 61.2246H67.5744C68.2213 61.2246 68.7455 60.7004 68.7455 60.0537Z" fill="url(#paint7_linear_2896_4033)"/>
<path d="M59.9608 64.8224H40.71C40.0633 64.8224 39.5391 65.3467 39.5391 65.9934C39.5391 66.6401 40.0633 67.1643 40.71 67.1643H59.9608C60.6075 67.1643 61.1317 66.6401 61.1317 65.9934C61.1317 65.3467 60.6077 64.8224 59.9608 64.8224Z" fill="url(#paint8_linear_2896_4033)"/>
<path d="M59.9608 70.7621H40.71C40.0633 70.7621 39.5391 71.2864 39.5391 71.9331C39.5391 72.5798 40.0633 73.104 40.71 73.104H59.9608C60.6075 73.104 61.1317 72.5798 61.1317 71.9331C61.1317 71.2864 60.6077 70.7621 59.9608 70.7621Z" fill="url(#paint9_linear_2896_4033)"/>
<path d="M53.9289 29.5878C54.4007 29.5878 54.8455 29.3004 55.0233 28.8332L56.0813 26.0556H63.1428L64.1899 28.8298C64.4181 29.4348 65.0939 29.7406 65.6988 29.512C66.3038 29.2837 66.6091 28.6079 66.3808 28.0031L61.0288 13.8213C61.0249 13.8106 61.0205 13.7999 61.0163 13.7895C60.7846 13.2259 60.2413 12.8618 59.6319 12.8618C59.6314 12.8618 59.631 12.8618 59.6305 12.8618C59.0206 12.8623 58.4772 13.2274 58.2464 13.7921C58.2428 13.8009 58.2392 13.8098 58.236 13.8187L52.8349 27.9996C52.6046 28.604 52.908 29.2806 53.5124 29.5107C53.6494 29.5631 53.7903 29.5878 53.9289 29.5878ZM59.6281 16.7428L62.2589 23.7137H56.9732L59.6281 16.7428Z" fill="url(#paint10_linear_2896_4033)"/>
<path d="M32.9981 28.4165V14.0329C32.9981 13.3862 32.4739 12.862 31.8272 12.862C31.1805 12.862 30.6562 13.3862 30.6562 14.0329V28.4165C30.6562 29.0632 31.1805 29.5875 31.8272 29.5875C32.4739 29.5875 32.9981 29.0631 32.9981 28.4165Z" fill="url(#paint11_linear_2896_4033)"/>
<path d="M43.7381 27.2454C42.1345 27.2454 40.5849 26.5921 39.5934 25.4979C39.159 25.0188 38.4187 24.9823 37.9393 25.4165C37.4602 25.8509 37.4237 26.5913 37.8579 27.0705C39.286 28.6463 41.4843 29.5873 43.7379 29.5873C46.4209 29.5873 48.7576 27.8323 49.1732 25.5048C49.6512 22.8271 47.5334 21.029 45.3921 20.2391C43.5223 19.5494 41.7893 18.796 41.3735 18.6132C40.8732 18.2523 40.6298 17.6716 40.7201 17.0435C40.8315 16.2669 41.4235 15.6449 42.304 15.3798C44.6738 14.666 46.8038 16.3804 46.8412 16.4109C47.3362 16.8235 48.0721 16.7587 48.4871 16.2648C48.9032 15.7698 48.8393 15.031 48.3443 14.6149C48.2191 14.5098 45.2373 12.0504 41.6287 13.1374C39.8791 13.6644 38.6427 15.0335 38.4021 16.7107C38.1784 18.2693 38.8532 19.7679 40.1632 20.6219C40.2149 20.6557 40.2691 20.6852 40.3255 20.7104C40.408 20.7473 42.3702 21.6207 44.5818 22.4365C46.2277 23.0437 47.0609 24.0119 46.8679 25.0932C46.6816 26.1366 45.5213 27.2454 43.7381 27.2454Z" fill="url(#paint12_linear_2896_4033)"/>
<path d="M14.3185 12.9267C13.7076 13.1387 13.3843 13.8059 13.5963 14.4168L18.5168 28.5925C18.7285 29.1887 19.294 29.5875 19.926 29.5875H19.9363C20.5726 29.5831 21.1374 29.1754 21.3446 28.5656L26.041 14.4287C26.2449 13.815 25.9126 13.1522 25.2988 12.9483C24.6847 12.744 24.0222 13.0767 23.8183 13.6904L19.9083 25.4604L15.8085 13.649C15.5966 13.0379 14.9291 12.715 14.3185 12.9267Z" fill="url(#paint13_linear_2896_4033)"/>
</g>
<defs>
<linearGradient id="paint0_linear_2896_4033" x1="5.34375" y1="40.6392" x2="74.6497" y2="40.6392" gradientUnits="userSpaceOnUse">
<stop stop-color="#991F3D"/>
<stop offset="1" stop-color="#E7474D"/>
</linearGradient>
<linearGradient id="paint1_linear_2896_4033" x1="15.0469" y1="60.0536" x2="31.1536" y2="60.0536" gradientUnits="userSpaceOnUse">
<stop stop-color="#991F3D"/>
<stop offset="1" stop-color="#E7474D"/>
</linearGradient>
<linearGradient id="paint2_linear_2896_4033" x1="11.25" y1="60.0537" x2="34.9522" y2="60.0537" gradientUnits="userSpaceOnUse">
<stop stop-color="#991F3D"/>
<stop offset="1" stop-color="#E7474D"/>
</linearGradient>
<linearGradient id="paint3_linear_2896_4033" x1="39.5391" y1="48.1742" x2="68.7463" y2="48.1742" gradientUnits="userSpaceOnUse">
<stop stop-color="#991F3D"/>
<stop offset="1" stop-color="#E7474D"/>
</linearGradient>
<linearGradient id="paint4_linear_2896_4033" x1="39.5391" y1="54.114" x2="49.4953" y2="54.114" gradientUnits="userSpaceOnUse">
<stop stop-color="#991F3D"/>
<stop offset="1" stop-color="#E7474D"/>
</linearGradient>
<linearGradient id="paint5_linear_2896_4033" x1="58.7891" y1="54.114" x2="68.7453" y2="54.114" gradientUnits="userSpaceOnUse">
<stop stop-color="#991F3D"/>
<stop offset="1" stop-color="#E7474D"/>
</linearGradient>
<linearGradient id="paint6_linear_2896_4033" x1="39.5391" y1="60.0537" x2="49.4953" y2="60.0537" gradientUnits="userSpaceOnUse">
<stop stop-color="#991F3D"/>
<stop offset="1" stop-color="#E7474D"/>
</linearGradient>
<linearGradient id="paint7_linear_2896_4033" x1="58.7891" y1="60.0537" x2="68.7455" y2="60.0537" gradientUnits="userSpaceOnUse">
<stop stop-color="#991F3D"/>
<stop offset="1" stop-color="#E7474D"/>
</linearGradient>
<linearGradient id="paint8_linear_2896_4033" x1="39.5391" y1="65.9934" x2="61.1317" y2="65.9934" gradientUnits="userSpaceOnUse">
<stop stop-color="#991F3D"/>
<stop offset="1" stop-color="#E7474D"/>
</linearGradient>
<linearGradient id="paint9_linear_2896_4033" x1="39.5391" y1="71.9331" x2="61.1317" y2="71.9331" gradientUnits="userSpaceOnUse">
<stop stop-color="#991F3D"/>
<stop offset="1" stop-color="#E7474D"/>
</linearGradient>
<linearGradient id="paint10_linear_2896_4033" x1="52.7578" y1="21.2248" x2="66.4565" y2="21.2248" gradientUnits="userSpaceOnUse">
<stop stop-color="#991F3D"/>
<stop offset="1" stop-color="#E7474D"/>
</linearGradient>
<linearGradient id="paint11_linear_2896_4033" x1="30.6562" y1="21.2247" x2="32.9981" y2="21.2247" gradientUnits="userSpaceOnUse">
<stop stop-color="#991F3D"/>
<stop offset="1" stop-color="#E7474D"/>
</linearGradient>
<linearGradient id="paint12_linear_2896_4033" x1="37.5547" y1="21.224" x2="49.2414" y2="21.224" gradientUnits="userSpaceOnUse">
<stop stop-color="#991F3D"/>
<stop offset="1" stop-color="#E7474D"/>
</linearGradient>
<linearGradient id="paint13_linear_2896_4033" x1="13.5312" y1="21.2246" x2="26.101" y2="21.2246" gradientUnits="userSpaceOnUse">
<stop stop-color="#991F3D"/>
<stop offset="1" stop-color="#E7474D"/>
</linearGradient>
<clipPath id="clip0_2896_4033">
<rect width="80" height="80" fill="white" transform="translate(0 0.63916)"/>
</clipPath>
</defs>
</svg>
