<svg width="42" height="43" viewBox="0 0 42 43" fill="none" xmlns="http://www.w3.org/2000/svg">
<path d="M33.0597 9.4131C30.6742 7.02504 27.634 5.3982 24.3237 4.73837C21.0134 4.07853 17.5818 4.41537 14.4629 5.70626C11.3441 6.99714 8.67825 9.18408 6.8026 11.9904C4.92694 14.7967 3.92578 18.0963 3.92578 21.4717C3.92578 24.8472 4.92694 28.1467 6.8026 30.953C8.67825 33.7593 11.3441 35.9462 14.4629 37.2372C17.5818 38.528 21.0134 38.8648 24.3237 38.205C27.634 37.5452 30.6742 35.9184 33.0597 33.5303C34.6441 31.9473 35.901 30.0674 36.7586 27.9983C37.6162 25.9292 38.0576 23.7115 38.0576 21.4717C38.0576 19.2319 37.6162 17.0142 36.7586 14.945C35.901 12.876 34.6441 10.9962 33.0597 9.4131ZM26.9074 24.7529C26.9074 25.101 26.7691 25.4349 26.5229 25.681C26.2768 25.9271 25.9429 26.0654 25.5949 26.0654C25.2468 26.0654 24.9129 25.9271 24.6668 25.681C24.4207 25.4349 24.2824 25.101 24.2824 24.7529V20.0443L17.3425 27.0006C17.0888 27.2387 16.7553 27.3732 16.4074 27.3779C16.0589 27.3765 15.7242 27.2414 15.4722 27.0006C15.2257 26.7517 15.0875 26.4157 15.0875 26.0654C15.0875 25.7153 15.2257 25.3791 15.4722 25.1303L22.4284 18.1904H17.7199C17.3718 18.1904 17.0379 18.0521 16.7918 17.806C16.5457 17.5599 16.4074 17.226 16.4074 16.8779C16.4074 16.5299 16.5457 16.196 16.7918 15.9499C17.0379 15.7038 17.3718 15.5654 17.7199 15.5654H25.5949C25.7639 15.565 25.9312 15.5985 26.087 15.6639C26.4111 15.795 26.6704 16.0484 26.8089 16.3693C26.8732 16.5313 26.9066 16.7038 26.9074 16.8779V24.7529Z" fill="white"/>
</svg>
