<svg width="49" height="49" viewBox="0 0 49 49" fill="none" xmlns="http://www.w3.org/2000/svg">
<path d="M48.9953 24.4283C48.9953 37.8945 38.0813 48.811 24.6182 48.811C11.1552 48.811 0.241213 37.8945 0.241212 24.4283C0.241211 10.962 11.1552 0.0455317 24.6182 0.0455312C38.0813 0.0455306 48.9953 10.962 48.9953 24.4283Z" fill="url(#paint0_linear_2557_2994)"/>
<g clip-path="url(#clip0_2557_2994)">
<path d="M21.7524 16.5055C21.5402 16.357 21.2479 16.4088 21.0996 16.621L19.61 18.7516L18.6444 17.8934C18.4509 17.7213 18.1546 17.7388 17.9827 17.9323C17.8107 18.1258 17.8281 18.4221 18.0216 18.5941L19.0492 19.5075C19.437 19.8522 20.036 19.7783 20.3307 19.3569L21.868 17.1583C22.0163 16.9461 21.9645 16.6538 21.7524 16.5055Z" fill="white"/>
<path d="M21.7523 23.3529C21.5402 23.2045 21.2479 23.2562 21.0995 23.4684L19.6099 25.599L18.6444 24.7408C18.4509 24.5687 18.1546 24.5862 17.9827 24.7797C17.8107 24.9732 17.8281 25.2695 18.0216 25.4415L19.0492 26.355C19.4372 26.6997 20.0361 26.6255 20.3307 26.2044L21.8679 24.0057C22.0162 23.7934 21.9645 23.5012 21.7523 23.3529Z" fill="white"/>
<path d="M21.7524 30.1085C21.5402 29.9601 21.2479 30.0118 21.0996 30.224L19.61 32.3546L18.6444 31.4964C18.4509 31.3243 18.1546 31.3418 17.9827 31.5353C17.8107 31.7288 17.8281 32.0251 18.0216 32.1971L19.0492 33.1105C19.437 33.4552 20.036 33.3813 20.3307 32.9599L21.868 30.7613C22.0163 30.5491 21.9645 30.2568 21.7524 30.1085Z" fill="white"/>
<path d="M30.8266 16.6671H24.2021C23.9433 16.6671 23.7334 16.8769 23.7334 17.1359C23.7334 17.3948 23.9433 17.6046 24.2021 17.6046H30.8266C31.0855 17.6046 31.2953 17.3948 31.2953 17.1359C31.2953 16.8769 31.0855 16.6671 30.8266 16.6671Z" fill="white"/>
<path d="M30.8266 18.7504H24.2021C23.9433 18.7504 23.7334 18.9602 23.7334 19.2191C23.7334 19.4781 23.9433 19.6879 24.2021 19.6879H30.8266C31.0855 19.6879 31.2953 19.4781 31.2953 19.2191C31.2953 18.9602 31.0855 18.7504 30.8266 18.7504Z" fill="white"/>
<path d="M31.2954 23.8331C31.2954 23.5742 31.0856 23.3644 30.8267 23.3644H24.2021C23.9433 23.3644 23.7334 23.5742 23.7334 23.8331C23.7334 24.0921 23.9433 24.3019 24.2021 24.3019H30.8266C31.0855 24.3019 31.2954 24.0921 31.2954 23.8331Z" fill="white"/>
<path d="M24.2021 25.4475C23.9433 25.4475 23.7334 25.6573 23.7334 25.9163C23.7334 26.1752 23.9433 26.385 24.2021 26.385H27.5143C27.7733 26.385 27.9831 26.1752 27.9831 25.9163C27.9831 25.6573 27.7733 25.4475 27.5143 25.4475H24.2021Z" fill="white"/>
<path d="M39.3806 17.4564C38.5556 16.7953 37.3532 16.9279 36.6922 17.7526C36.2188 18.3433 25.2046 32.0858 24.3429 33.1608C24.2835 33.2348 24.3736 33.0836 22.7336 36.3684H16.0396C15.9231 36.3684 15.8283 36.2737 15.8283 36.1573V12.4931H18.9229V12.8092C18.9229 13.4587 19.4513 13.9871 20.1007 13.9871H29.0586C29.7082 13.9871 30.2366 13.4587 30.2366 12.8092V12.4931H33.3311V19.6554C33.3311 19.9144 33.5409 20.1242 33.7999 20.1242C34.0588 20.1242 34.2686 19.9144 34.2686 19.6554V12.4931H35.0006C35.3105 12.4931 35.5627 12.7453 35.5627 13.0552V16.8644C35.5627 17.1233 35.7725 17.3331 36.0314 17.3331C36.2904 17.3331 36.5002 17.1233 36.5002 16.8644V13.0552C36.5002 12.2283 35.8274 11.5556 35.0006 11.5556H30.1796C29.9688 10.6989 29.1945 10.0616 28.2738 10.0616H27.3717C27.2167 10.0616 27.0905 9.93538 27.0905 9.78032C27.0905 8.70663 26.2171 7.83313 25.1434 7.83313H24.0161C22.9424 7.83313 22.0689 8.70663 22.0689 9.78025C22.0689 9.93532 21.9427 10.0615 21.7877 10.0615H20.8856C19.9649 10.0615 19.1906 10.6989 18.9799 11.5555H14.1588C13.3319 11.5555 12.6592 12.2283 12.6592 13.0551V38.3334C12.6592 39.1603 13.3319 39.8331 14.1588 39.8331H35.0005C35.8274 39.8331 36.5001 39.1603 36.5001 38.3334V26.3904C36.5001 26.1315 36.2903 25.9217 36.0314 25.9217C35.7724 25.9217 35.5626 26.1315 35.5626 26.3904V38.3335C35.5626 38.6434 35.3104 38.8956 35.0005 38.8956H14.1588C13.8489 38.8956 13.5967 38.6434 13.5967 38.3335V13.0552C13.5967 12.7453 13.8489 12.4931 14.1588 12.4931H14.8908V36.1573C14.8908 36.7907 15.4061 37.306 16.0396 37.306H22.4954C22.5365 37.579 22.6759 37.8362 22.9016 38.0171C23.3106 38.3448 23.9036 38.3441 24.3119 38.0129L25.1832 37.306H33.1199C33.7533 37.306 34.2686 36.7907 34.2686 36.1573V29.1691C34.2686 28.9101 34.0588 28.7003 33.7999 28.7003C33.5409 28.7003 33.3311 28.9101 33.3311 29.1691V36.1573C33.3311 36.2738 33.2363 36.3685 33.1199 36.3685H26.3393C27.3069 35.5786 27.272 35.6219 27.3274 35.5528C28.1894 34.4773 39.2037 20.7348 39.6768 20.1446C40.3362 19.3217 40.2034 18.1158 39.3806 17.4564ZM19.8604 12.0243C19.8604 11.459 20.3203 10.9991 20.8856 10.9991H21.7877C22.4597 10.9991 23.0064 10.4523 23.0064 9.78032C23.0064 9.22363 23.4594 8.77069 24.0161 8.77069H25.1434C25.7001 8.77069 26.153 9.22363 26.153 9.78032C26.153 10.4523 26.6997 10.9991 27.3717 10.9991H28.2738C28.8391 10.9991 29.2991 11.459 29.2991 12.0243V12.8092C29.2991 12.9417 29.1912 13.0496 29.0586 13.0496H20.1007C19.9682 13.0496 19.8604 12.9417 19.8604 12.8092V12.0243ZM23.7212 37.2848C23.6537 37.3396 23.5557 37.3397 23.4879 37.2856C23.4202 37.2312 23.3991 37.1353 23.4377 37.0576L24.8798 34.1619L26.2334 35.2468L23.7212 37.2848ZM26.9037 34.5824L25.3823 33.3631L35.4161 20.844L36.9374 22.0634L26.9037 34.5824ZM38.9452 19.5583L37.5237 21.3319L36.0024 20.1124L37.4238 18.3389C37.7612 17.9179 38.3746 17.8516 38.7942 18.1879C39.2137 18.5241 39.2814 19.1388 38.9452 19.5583Z" fill="white"/>
</g>
<defs>
<linearGradient id="paint0_linear_2557_2994" x1="0.241212" y1="24.4283" x2="48.9953" y2="24.4283" gradientUnits="userSpaceOnUse">
<stop stop-color="#EF4B4F"/>
<stop offset="1" stop-color="#991F3D"/>
</linearGradient>
<clipPath id="clip0_2557_2994">
<rect width="32" height="32" fill="white" transform="translate(10.3779 7.83313)"/>
</clipPath>
</defs>
</svg>
