<svg width="49" height="50" viewBox="0 0 49 50" fill="none" xmlns="http://www.w3.org/2000/svg">
<path d="M48.9953 25.1398C48.9953 38.606 38.0813 49.5226 24.6182 49.5226C11.1552 49.5226 0.241213 38.606 0.241212 25.1398C0.241211 11.6736 11.1552 0.75708 24.6182 0.757079C38.0813 0.757078 48.9953 11.6736 48.9953 25.1398Z" fill="url(#paint0_linear_2557_2996)"/>
<path d="M21.07 20.376C23.8635 16.4266 26.7833 14.102 29.1389 12.7448C33.4354 10.2711 36.7853 10.359 36.9268 10.3629L37.2959 10.3762L37.4125 10.7261C37.4565 10.8599 38.4833 14.0523 37.3169 18.8677C36.6764 21.5096 35.2671 24.9639 32.2613 28.7547L29.9305 39.5458L27.6647 39.2648L25.6245 35.3039C25.0796 35.7379 24.5136 36.1718 23.919 36.6077L23.6016 36.8409L15.7448 30.9569L15.8787 30.5879C16.1291 29.8959 16.3873 29.2288 16.6492 28.5845L12.2744 27.7396L11.3662 25.6445L21.0681 20.3741L21.07 20.376ZM28.3531 38.2823L29.0988 38.374L30.8044 30.479C29.5806 31.8343 28.1466 33.2222 26.4678 34.6215L28.355 38.2823H28.3531ZM23.6073 35.52C32.2117 29.1198 35.2423 22.8477 36.2672 18.6938C37.1601 15.0693 36.7203 12.3873 36.5024 11.4372C35.5291 11.4946 32.8312 11.8272 29.6036 13.7044C25.9037 15.855 20.7353 20.527 17.0125 30.5822L23.6073 35.5219V35.52ZM13.0259 26.8048L17.0718 27.5867C17.9418 25.5814 18.8711 23.815 19.8271 22.2609L12.7276 26.1166L13.0259 26.8048Z" fill="white"/>
<path d="M15.3146 33.0272C15.4905 32.792 15.8232 32.7443 16.0583 32.9201C16.2935 33.096 16.3413 33.4286 16.1654 33.6638L13.6836 36.9747C13.5784 37.1142 13.4197 37.1869 13.2591 37.1869C13.1482 37.1869 13.0373 37.1525 12.9417 37.0818C12.7065 36.9059 12.6587 36.5733 12.8346 36.3381L15.3165 33.0253L15.3146 33.0272Z" fill="white"/>
<path d="M21.0352 37.3131C21.2111 37.0779 21.5439 37.0301 21.779 37.206C22.0142 37.3819 22.062 37.7145 21.8861 37.9496L19.4042 41.2625C19.299 41.4021 19.1403 41.4747 18.9778 41.4747C18.8669 41.4747 18.756 41.4403 18.6604 41.3696C18.4252 41.1937 18.3774 40.8611 18.5533 40.6259L21.0352 37.315V37.3131Z" fill="white"/>
<path d="M18.1007 35.1147C18.2766 34.8796 18.6093 34.8318 18.8445 35.0076C19.0797 35.1835 19.1275 35.5161 18.9516 35.7513L14.158 42.1495C14.0528 42.2891 13.8941 42.3617 13.7316 42.3617C13.6207 42.3617 13.5098 42.3273 13.4142 42.2566C13.179 42.0807 13.1312 41.7481 13.3071 41.5129L18.1007 35.1147Z" fill="white"/>
<path d="M27.1561 26.801C27.2498 27.4491 27.0835 28.0952 26.6915 28.619C26.2995 29.1428 25.7259 29.483 25.0777 29.5767C24.9592 29.5939 24.8406 29.6016 24.724 29.6016C24.1981 29.6016 23.6876 29.4333 23.2593 29.1122C22.1771 28.3017 21.9553 26.7628 22.766 25.6808C23.5767 24.5988 25.1159 24.3771 26.1982 25.1876C26.7221 25.5795 27.0624 26.153 27.1561 26.801ZM26.1064 26.952C26.0528 26.585 25.8617 26.26 25.5634 26.0364C25.3148 25.849 25.0222 25.7592 24.7316 25.7592C24.309 25.7592 23.8903 25.9523 23.6169 26.3155C23.158 26.9291 23.2822 27.8008 23.896 28.2615C24.1924 28.4833 24.5595 28.5769 24.9266 28.5253C25.2938 28.4718 25.6188 28.2806 25.8425 27.9824C26.0643 27.6861 26.158 27.3191 26.1064 26.952Z" fill="white"/>
<defs>
<linearGradient id="paint0_linear_2557_2996" x1="0.241212" y1="25.1398" x2="48.9953" y2="25.1398" gradientUnits="userSpaceOnUse">
<stop stop-color="#EF4B4F"/>
<stop offset="1" stop-color="#991F3D"/>
</linearGradient>
</defs>
</svg>
