<svg width="109" height="115" viewBox="0 0 109 115" fill="none" xmlns="http://www.w3.org/2000/svg">
<g filter="url(#filter0_d_734_3652)">
<circle cx="54.4375" cy="50" r="50" fill="white"/>
</g>
<mask id="mask0_734_3652" style="mask-type:alpha" maskUnits="userSpaceOnUse" x="4" y="0" width="101" height="100">
<circle cx="54.4375" cy="50" r="50" fill="white"/>
</mask>
<g mask="url(#mask0_734_3652)">
<g clip-path="url(#clip0_734_3652)">
<path d="M56.9325 40.5968C50.9547 34.0211 40.8921 33.6227 34.4162 39.5007C34.1175 39.7999 33.7191 40.0986 33.4199 40.497L33.0215 41.1946L33.5196 41.7925L33.6194 41.8917C39.4974 48.3676 49.56 48.7665 56.0359 42.888C56.3346 42.5893 56.733 42.2906 57.0322 41.8917L57.5304 41.1946L56.9325 40.5968ZM43.1839 41.1946C43.1839 40.0986 44.0804 39.202 45.1764 39.202C46.272 39.202 47.169 40.0986 47.169 41.1946C47.169 42.2906 46.272 43.1872 45.1764 43.1872C44.0804 43.1872 43.1839 42.2906 43.1839 41.1946ZM43.881 37.4084C41.7887 38.106 40.6931 40.2981 41.2905 42.3899C41.6894 43.5856 42.586 44.5819 43.881 44.9803C40.7924 44.6816 37.8035 43.3862 35.5122 41.1946C37.9032 39.0026 40.7924 37.7076 43.881 37.4084ZM46.4714 44.9803C48.5637 44.2832 49.6597 42.0912 49.0619 39.9989C48.6635 38.8036 47.7664 37.8073 46.4714 37.4084C49.56 37.7076 52.5489 39.0026 54.8402 41.1946C52.4492 43.3862 49.56 44.6816 46.4714 44.9803Z" fill="#EF4B4F"/>
<path d="M45.1762 24.2576C35.8107 24.2576 28.2393 31.8295 28.2393 41.1945C28.2393 50.5596 35.8107 58.1315 45.1762 58.1315C54.5413 58.1315 62.1132 50.5596 62.1132 41.1945C62.1132 31.8295 54.5413 24.2576 45.1762 24.2576ZM45.1762 56.1389C36.9067 56.1389 30.2318 49.4636 30.2318 41.1945C30.2318 32.925 36.9067 26.2502 45.1762 26.2502C53.4452 26.2502 60.1206 32.925 60.1206 41.1945C60.1206 49.4636 53.4452 56.1389 45.1762 56.1389Z" fill="#EF4B4F"/>
<path d="M79.05 63.113V30.2354C79.05 27.4455 76.858 25.2539 74.0686 25.2539H63.1094V27.2465H74.0686C75.762 27.2465 77.0575 28.5415 77.0575 30.2354V63.113H79.05Z" fill="#EF4B4F"/>
<path d="M29.2354 60.124V70.0869C29.2354 72.8764 31.4269 75.0684 34.2168 75.0684H69.087V73.0758H34.2168C32.5229 73.0758 31.2279 71.7803 31.2279 70.0869V60.124H29.2354Z" fill="#EF4B4F"/>
<path d="M66.0986 30.2354H75.0653V32.2279H66.0986V30.2354Z" fill="#EF4B4F"/>
<path d="M68.0908 35.2168H75.0649V37.2094H68.0908V35.2168Z" fill="#EF4B4F"/>
<path d="M68.0908 40.1982H75.0649V42.1908H68.0908V40.1982Z" fill="#EF4B4F"/>
<path d="M68.0908 45.1797H75.0649V47.1723H68.0908V45.1797Z" fill="#EF4B4F"/>
<path d="M68.0908 50.1611H75.0649V52.1537H68.0908V50.1611Z" fill="#EF4B4F"/>
<path d="M69.0869 55.1426H75.0647V57.1352H69.0869V55.1426Z" fill="#EF4B4F"/>
<path d="M33.2207 64.1094H60.1206V66.102H33.2207V64.1094Z" fill="#EF4B4F"/>
<path d="M33.2207 68.0945H64.1057V70.0871H33.2207V68.0945Z" fill="#EF4B4F"/>
<path d="M38.2021 49.1648H52.1502V51.1574H38.2021V49.1648Z" fill="#EF4B4F"/>
<path d="M38.2021 31.2317H52.1502V33.2243H38.2021V31.2317Z" fill="#EF4B4F"/>
<path d="M72.3746 62.017C71.7768 61.4191 71.0796 61.1204 70.2823 61.1204H69.5852L62.4117 53.0504C68.9873 43.4859 66.6956 30.4344 57.1316 23.7595C47.5671 17.0841 34.4158 19.5749 27.8402 29.0396C21.2651 38.5044 23.5563 51.6557 33.1208 58.3305C40.6928 63.6112 50.8546 63.312 58.1279 57.5337L65.1019 65.4043V66.2016C65.1019 66.9985 65.4006 67.7953 65.9985 68.2934L76.3598 78.6553C78.1529 80.4484 80.9428 80.4484 82.736 78.6553C84.5296 76.8616 84.5296 74.0722 82.736 72.2786L72.3746 62.017ZM26.2465 41.1946C26.2465 30.7335 34.715 22.2651 45.1761 22.2651C55.6371 22.2651 64.1056 30.7335 64.1056 41.1946C64.1056 51.6557 55.6371 60.1241 45.1761 60.1241C34.715 60.1241 26.2465 51.6557 26.2465 41.1946ZM59.6223 56.3379C60.1204 55.8398 60.7178 55.2424 61.1167 54.7443L67.6919 62.1167L66.0982 63.6112L59.6223 56.3379ZM79.5481 78.0574C78.8505 78.0574 78.2527 77.7582 77.7545 77.3598L67.3932 66.9985C67.1937 66.799 67.0945 66.6 67.0945 66.3009V65.504L69.4855 63.113H70.2823C70.5815 63.113 70.7805 63.2127 70.9799 63.4117L81.3413 73.773C82.3375 74.7693 82.3375 76.3635 81.3413 77.3598C80.8431 77.7582 80.1455 78.0574 79.5481 78.0574Z" fill="#EF4B4F"/>
</g>
</g>
<defs>
<filter id="filter0_d_734_3652" x="0.4375" y="0" width="108" height="115" filterUnits="userSpaceOnUse" color-interpolation-filters="sRGB">
<feFlood flood-opacity="0" result="BackgroundImageFix"/>
<feColorMatrix in="SourceAlpha" type="matrix" values="0 0 0 0 0 0 0 0 0 0 0 0 0 0 0 0 0 0 127 0" result="hardAlpha"/>
<feOffset dy="11"/>
<feGaussianBlur stdDeviation="2"/>
<feComposite in2="hardAlpha" operator="out"/>
<feColorMatrix type="matrix" values="0 0 0 0 0.491667 0 0 0 0 0.0717014 0 0 0 0 0.176693 0 0 0 1 0"/>
<feBlend mode="normal" in2="BackgroundImageFix" result="effect1_dropShadow_734_3652"/>
<feBlend mode="normal" in="SourceGraphic" in2="effect1_dropShadow_734_3652" result="shape"/>
</filter>
<clipPath id="clip0_734_3652">
<rect width="60" height="60" fill="white" transform="translate(24 20)"/>
</clipPath>
</defs>
</svg>
