<svg width="24" height="24" viewBox="0 0 24 24" fill="none" xmlns="http://www.w3.org/2000/svg">
<g id="loading (1) 1" clip-path="url(#clip0_4100_3567)">
<g id="Group">
<g id="Group_2">
<path id="Vector" d="M12.561 5.61427C14.1114 5.61427 15.3682 4.35747 15.3682 2.80713C15.3682 1.2568 14.1114 0 12.561 0C11.0107 0 9.75391 1.2568 9.75391 2.80713C9.75391 4.35747 11.0107 5.61427 12.561 5.61427Z" fill="white"/>
<path id="Vector_2" d="M12.5611 24C13.4912 24 14.2452 23.246 14.2452 22.3159C14.2452 21.3858 13.4912 20.6318 12.5611 20.6318C11.6309 20.6318 10.877 21.3858 10.877 22.3159C10.877 23.246 11.6309 24 12.5611 24Z" fill="white"/>
<path id="Vector_3" d="M5.6643 8.18992C7.0597 8.18992 8.1909 7.05873 8.1909 5.66332C8.1909 4.26792 7.0597 3.13672 5.6643 3.13672C4.26889 3.13672 3.1377 4.26792 3.1377 5.66332C3.1377 7.05873 4.26889 8.18992 5.6643 8.18992Z" fill="white"/>
<path id="Vector_4" d="M19.4592 20.8613C20.2344 20.8613 20.8628 20.2329 20.8628 19.4578C20.8628 18.6826 20.2344 18.0542 19.4592 18.0542C18.6841 18.0542 18.0557 18.6826 18.0557 19.4578C18.0557 20.2329 18.6841 20.8613 19.4592 20.8613Z" fill="white"/>
<path id="Vector_5" d="M2.80668 14.8072C4.04665 14.8072 5.05185 13.802 5.05185 12.5621C5.05185 11.3221 4.04665 10.3169 2.80668 10.3169C1.56672 10.3169 0.561523 11.3221 0.561523 12.5621C0.561523 13.802 1.56672 14.8072 2.80668 14.8072Z" fill="white"/>
<path id="Vector_6" d="M22.3155 13.6832C22.9352 13.6832 23.4376 13.1808 23.4376 12.5611C23.4376 11.9414 22.9352 11.439 22.3155 11.439C21.6958 11.439 21.1934 11.9414 21.1934 12.5611C21.1934 13.1808 21.6958 13.6832 22.3155 13.6832Z" fill="white"/>
<path id="Vector_7" d="M4.27508 18.0705C3.50726 18.8383 3.50726 20.0807 4.27508 20.8485C5.04199 21.6163 6.28616 21.6163 7.05307 20.8485C7.82089 20.0807 7.82089 18.8383 7.05307 18.0705C6.28616 17.3018 5.0429 17.2945 4.27508 18.0705Z" fill="white"/>
<path id="Vector_8" d="M19.4578 6.50497C19.9226 6.50497 20.2994 6.12817 20.2994 5.66337C20.2994 5.19857 19.9226 4.82178 19.4578 4.82178C18.993 4.82178 18.6162 5.19857 18.6162 5.66337C18.6162 6.12817 18.993 6.50497 19.4578 6.50497Z" fill="white"/>
</g>
</g>
</g>
<defs>
<clipPath id="clip0_4100_3567">
<rect width="23.9991" height="24" fill="white"/>
</clipPath>
</defs>
</svg>
