<svg width="70" height="70" viewBox="0 0 101 101" fill="none" xmlns="http://www.w3.org/2000/svg">
<g clip-path="url(#clip0_2_224)">
<path fill-rule="evenodd" clip-rule="evenodd" d="M79.3713 78.1565C74.509 78.1565 70.5254 74.2315 70.5254 69.252C70.5254 64.331 74.509 60.3474 79.3713 60.3474C84.2337 60.3474 88.3344 64.331 88.3344 69.252C88.3344 74.2315 84.3508 78.1565 79.3713 78.1565ZM79.3713 63.2766C76.0907 63.2766 73.3959 65.9128 73.3959 69.3105C73.3959 72.7669 76.0907 75.4031 79.3713 75.4031C82.7105 75.4031 85.4639 72.7669 85.4639 69.3105C85.4639 65.9128 82.7105 63.2766 79.3713 63.2766Z" fill="#F04C50"/>
<path fill-rule="evenodd" clip-rule="evenodd" d="M82.8859 89.8729H75.9146C75.0945 89.8729 74.45 89.2285 74.45 88.4084V85.0106C73.4541 84.6591 72.5754 84.249 71.6967 83.8389L69.3534 86.2408C68.7676 86.7681 67.8888 86.7681 67.303 86.2408L62.3235 81.3785C62.0892 81.0856 61.9134 80.6755 61.9134 80.3826C61.9134 80.0311 62.0892 79.621 62.3235 79.3867L64.7254 77.0434C64.1981 76.1647 63.9052 75.1688 63.5537 74.29H60.156C59.3358 74.29 58.6914 73.6456 58.6914 72.8255V65.8542C58.6914 65.034 59.3358 64.3896 60.156 64.3896H63.6709C63.9052 63.5109 64.3153 62.515 64.784 61.6362L62.3235 59.1758C62.0892 58.9415 61.9134 58.5314 61.9134 58.2385C61.9134 57.887 62.0892 57.4769 62.3235 57.2426L67.303 52.3802C67.8888 51.7944 68.7676 51.7944 69.3534 52.3802L71.7553 54.665C72.634 54.1377 73.5713 53.7276 74.5086 53.4933V50.1541C74.5086 49.3925 75.153 48.7481 75.9732 48.7481H82.9445C83.7646 48.7481 84.409 49.3925 84.409 50.1541V53.6105C85.4049 53.9034 86.2837 54.3135 87.1624 54.7235L89.5643 52.3802C90.0915 51.7944 90.9703 51.7944 91.5561 52.3802L96.4184 57.2426C96.6527 57.4769 96.8285 57.887 96.8285 58.2385C96.8285 58.5314 96.6527 58.9415 96.4184 59.1758L94.0751 61.5191C94.5438 62.4564 94.9539 63.3937 95.3053 64.331H98.6445C99.4647 64.331 100.109 64.9754 100.109 65.7956V72.7669C100.109 73.587 99.4647 74.2314 98.6445 74.2314H95.3053C94.9539 75.1688 94.5438 76.1647 94.1923 76.9848L96.5356 79.3281C96.7699 79.5624 96.9457 79.9725 96.9457 80.324C96.9457 80.6169 96.7699 81.027 96.5356 81.2613L91.6732 86.1236C91.0874 86.7095 90.2087 86.7095 89.6229 86.1236L87.2796 83.7804C86.4594 84.249 85.4635 84.6005 84.5262 84.8934V88.3498C84.3505 89.2285 83.7061 89.8729 82.8859 89.8729ZM77.3792 87.061H81.4799V84.0147C81.4799 83.3703 81.89 82.7845 82.5344 82.6673C84.1747 82.2572 85.4635 81.6714 86.6352 80.9684C87.1624 80.5583 87.924 80.6169 88.3926 81.0856L90.6188 83.1945L93.4893 80.324L91.3218 78.1565C90.8531 77.6878 90.7359 76.9848 91.146 76.399C91.9662 75.1688 92.552 73.8214 92.8449 72.4154C93.0206 71.771 93.6065 71.3023 94.2509 71.3023H97.2386V67.143H94.2509C93.6065 67.143 93.0206 66.6743 92.8449 66.0299C92.552 64.6239 91.9662 63.3351 91.146 62.0463C90.8531 61.4605 90.9117 60.7575 91.3218 60.2303L93.4893 58.0627L90.6188 55.1336L88.3926 57.2426C87.924 57.7112 87.1624 57.8284 86.6937 57.4769C85.4635 56.7739 84.1161 56.1881 82.6516 55.778C82.0072 55.6023 81.5971 55.075 81.5971 54.4306V51.3843H77.4377V54.4306C77.4377 55.075 77.0277 55.6023 76.3833 55.778C74.9187 56.1295 73.6299 56.6567 72.3411 57.4769C71.7553 57.8284 71.0523 57.7112 70.6422 57.2426L68.4161 55.075L65.487 57.9456L67.5959 60.1131C68.1232 60.5818 68.1817 61.2262 67.8888 61.812C67.0687 63.1594 66.4829 64.5654 66.2485 65.8542C66.0728 66.4986 65.487 66.9672 64.8425 66.9672H61.7963V71.1266H64.8425C65.487 71.1266 66.0728 71.5952 66.2485 72.2396C66.5414 73.6456 67.1273 74.993 67.8888 76.2232C68.1817 76.8091 68.1232 77.512 67.5959 77.9221L65.487 80.0311L68.4161 82.9602L70.6422 80.7927C71.1109 80.324 71.8138 80.2068 72.3411 80.5583C73.6299 81.3785 74.9187 81.9057 76.3833 82.2572C77.0277 82.433 77.4377 82.9602 77.4377 83.6046V87.061H77.3792Z" fill="#F04C50"/>
<path fill-rule="evenodd" clip-rule="evenodd" d="M38.9496 74.6415C38.1295 74.6415 37.4851 73.9385 37.4851 73.1769C37.4851 62.2221 40.1798 58.6485 42.5231 55.4851C44.3392 53.0832 45.6866 51.2086 45.6866 46.3463C45.6866 37.6175 38.5395 30.4704 29.8108 30.4704C21.0234 30.4704 13.8764 37.6175 13.8764 46.3463C13.8764 51.2086 15.2824 53.0832 17.0398 55.4851C19.3831 58.6485 22.0779 62.2221 22.0779 73.1769C22.0779 73.9385 21.4335 74.6415 20.6133 74.6415C19.7932 74.6415 19.1488 73.9385 19.1488 73.1769C19.1488 63.1594 16.8641 60.1131 14.6965 57.184C12.9391 54.7235 10.9473 52.2045 10.9473 46.3463C10.9473 36.0358 19.3245 27.5999 29.6936 27.5999C40.1213 27.5999 48.4399 35.9772 48.4399 46.3463C48.4399 52.2045 46.6239 54.7235 44.7493 57.184C42.5231 60.1131 40.297 63.1594 40.297 73.1769C40.4142 73.9385 39.7698 74.6415 38.9496 74.6415Z" fill="#F04C50"/>
<path fill-rule="evenodd" clip-rule="evenodd" d="M18.8554 50.447C18.0353 50.447 17.3909 49.8026 17.3909 48.9825C17.3909 40.781 24.0107 34.1026 32.2122 34.1026C33.0323 34.1026 33.6768 34.747 33.6768 35.5671C33.6768 36.3873 33.0323 37.0317 32.2122 37.0317C25.5924 37.0317 20.2028 42.3627 20.2028 49.0411C20.2028 49.8026 19.5584 50.447 18.8554 50.447Z" fill="#F04C50"/>
<path fill-rule="evenodd" clip-rule="evenodd" d="M43.6943 28.5372C43.46 28.5372 43.1671 28.4201 42.9328 28.3615C42.2884 27.9514 42.054 27.1312 42.4055 26.4283L44.8074 22.1518C45.2175 21.5073 46.0376 21.273 46.7406 21.6245C47.385 22.0346 47.6779 22.8547 47.3264 23.5577L44.866 27.7757C44.6316 28.2443 44.163 28.5372 43.6943 28.5372Z" fill="#F04C50"/>
<path fill-rule="evenodd" clip-rule="evenodd" d="M53.8881 38.7305C53.4194 38.7305 52.9508 38.4962 52.7164 38.0275C52.3064 37.3831 52.5407 36.4458 53.2437 36.0357L57.4616 33.6339C58.106 33.2238 59.0433 33.4581 59.4534 34.2197C59.8049 34.8641 59.5706 35.7428 58.8676 36.1529L54.6496 38.5548C54.4153 38.6719 54.1224 38.7305 53.8881 38.7305Z" fill="#F04C50"/>
<path fill-rule="evenodd" clip-rule="evenodd" d="M15.9267 28.5372C15.458 28.5372 14.9308 28.2443 14.6964 27.7757L12.2946 23.5577C11.8845 22.9133 12.1188 22.0346 12.8218 21.6245C13.4662 21.2144 14.4035 21.4488 14.755 22.1518L17.2155 26.4283C17.6255 27.0727 17.3912 27.9514 16.6296 28.3615C16.3953 28.5372 16.161 28.5372 15.9267 28.5372Z" fill="#F04C50"/>
<path fill-rule="evenodd" clip-rule="evenodd" d="M5.79156 38.7306C5.55723 38.7306 5.26432 38.672 5.02999 38.5548L0.812067 36.1529C0.167662 35.7429 -0.0666673 34.9227 0.226244 34.2197C0.63632 33.5167 1.45647 33.2824 2.21804 33.6339L6.43597 36.0358C7.08037 36.4459 7.3147 37.266 6.96321 38.0276C6.72888 38.4376 6.26022 38.7306 5.79156 38.7306Z" fill="#F04C50"/>
<path fill-rule="evenodd" clip-rule="evenodd" d="M41.8197 79.7382C40.9995 79.7382 40.3551 79.0938 40.3551 78.2736C40.3551 77.4535 40.9995 76.8091 41.8197 76.8091C42.4055 76.8091 42.8742 76.3404 42.8742 75.696C42.8742 74.993 42.4055 74.6415 41.8197 74.6415H17.8009C17.1565 74.6415 16.7464 75.1102 16.7464 75.696C16.7464 76.3404 17.2151 76.8091 17.8009 76.8091C18.6211 76.8091 19.2655 77.4535 19.2655 78.2736C19.2655 79.0938 18.6211 79.7382 17.8009 79.7382C15.5748 79.7382 13.8759 77.9221 13.8759 75.7546C13.8759 73.587 15.692 71.8296 17.8009 71.8296H41.8197C43.9872 71.8296 45.6861 73.6456 45.6861 75.7546C45.8033 77.9221 43.9872 79.7382 41.8197 79.7382Z" fill="#F04C50"/>
<path fill-rule="evenodd" clip-rule="evenodd" d="M41.8197 84.8348H17.8009C15.5748 84.8348 13.8759 83.0774 13.8759 80.8512C13.8759 78.6837 15.692 76.9848 17.8009 76.9848H41.8197C43.9872 76.9848 45.6861 78.7423 45.6861 80.8512C45.8033 82.9602 43.9872 84.8348 41.8197 84.8348ZM17.8009 79.7382C17.1565 79.7382 16.7464 80.2068 16.7464 80.7927C16.7464 81.4371 17.2151 81.9057 17.8009 81.9057H41.8197C42.4055 81.9057 42.8742 81.4371 42.8742 80.7927C42.8742 80.1482 42.4055 79.7382 41.8197 79.7382H17.8009Z" fill="#F04C50"/>
<path fill-rule="evenodd" clip-rule="evenodd" d="M31.6845 89.8729H27.9938C24.4203 89.8729 21.4912 86.9438 21.4912 83.3703C21.4912 82.5501 22.1942 81.9057 22.9558 81.9057C23.7759 81.9057 24.4203 82.5501 24.4203 83.3703C24.4203 85.4206 26.0606 87.0609 28.111 87.0609H31.7431C33.7935 87.0609 35.3752 85.4206 35.3752 83.3703C35.3752 82.5501 36.0196 81.9057 36.8398 81.9057C37.6599 81.9057 38.3043 82.5501 38.3043 83.3703C38.1286 86.9438 35.2581 89.8729 31.6845 89.8729Z" fill="#F04C50"/>
<path fill-rule="evenodd" clip-rule="evenodd" d="M29.8103 74.6415C28.9902 74.6415 28.3458 73.9385 28.3458 73.177V58.7071C28.3458 58.2385 28.5801 57.7112 29.0488 57.4769L34.7312 54.2549C35.3756 53.8448 36.313 54.0791 36.723 54.7235C37.0745 55.3679 36.8402 56.2467 36.1958 56.6568L31.2749 59.5273V73.2356C31.2749 73.9385 30.6305 74.6415 29.8103 74.6415Z" fill="#F04C50"/>
<path fill-rule="evenodd" clip-rule="evenodd" d="M29.81 60.1131C29.5757 60.1131 29.2827 59.9959 29.0484 59.9373L23.4831 56.6567C22.8387 56.2467 22.5458 55.3679 22.9559 54.7235C23.3659 54.0791 24.3032 53.8448 24.9477 54.2549L30.513 57.4769C31.1574 57.887 31.3917 58.7657 31.0402 59.4101C30.7473 59.8202 30.2786 60.1131 29.81 60.1131Z" fill="#F04C50"/>
<path fill-rule="evenodd" clip-rule="evenodd" d="M79.3709 41.3082C78.5508 41.3082 77.9064 40.6638 77.9064 39.9022V18.2268C77.9064 15.8249 75.9732 13.8917 73.6299 13.8917H35.5514C33.1495 13.8917 31.1577 15.8249 31.1577 18.2268V29.1816C31.1577 29.9432 30.5133 30.6462 29.6931 30.6462C28.9316 30.6462 28.2286 29.9432 28.2286 29.1816V18.2268C28.2286 14.2432 31.5092 11.0797 35.4928 11.0797H73.5713C77.4963 11.0797 80.7183 14.2432 80.7183 18.2268V39.9608C80.8355 40.6638 80.1911 41.3082 79.3709 41.3082Z" fill="#F04C50"/>
<path fill-rule="evenodd" clip-rule="evenodd" d="M79.3714 41.3082C79.0785 41.3082 78.6684 41.191 78.4341 40.9567L71.4628 33.9268C70.877 33.3996 70.877 32.4623 71.4628 31.935C71.99 31.3492 72.9274 31.3492 73.4546 31.935L79.3714 37.8518L85.2882 31.935C85.8741 31.3492 86.7528 31.3492 87.3386 31.935C87.9244 32.4623 87.9244 33.3996 87.3386 33.9268L80.3673 40.9567C80.133 41.191 79.7815 41.3082 79.3714 41.3082Z" fill="#F04C50"/>
</g>
<defs>
<clipPath id="clip0_2_224">
<rect width="100" height="100" fill="white" transform="translate(0.109375 0.476318)"/>
</clipPath>
</defs>
</svg>
