<svg width="70" height="70" viewBox="0 0 94 101" fill="none" xmlns="http://www.w3.org/2000/svg">
<path d="M60.4727 8.96744C70.9065 8.96744 80.2889 15.9387 83.2845 25.9241C83.6032 26.9819 83.0042 28.097 81.9461 28.4156C81.7549 28.473 81.5635 28.4984 81.3723 28.4984C80.5118 28.4984 79.7151 27.9377 79.4601 27.0711C76.968 18.768 69.1667 12.9629 60.4792 12.9629C59.3766 12.9629 58.4778 12.0707 58.4778 10.962C58.4778 9.85319 59.3702 8.96106 60.4792 8.96106L60.4727 8.96744Z" fill="#F04C50"/>
<path d="M1.83379 89.2388L21.6628 65.7952C23.5749 63.533 26.6851 62.8767 29.2792 63.96L36.8132 55.1854C31.268 49.3357 27.8579 41.4532 27.8579 32.7741C27.8579 14.798 42.4856 0.167236 60.4723 0.167236C78.459 0.167236 93.0869 14.7916 93.0869 32.7741C93.0869 50.7567 78.459 65.381 60.4723 65.381C52.6007 65.381 45.3794 62.5836 39.7386 57.9255L32.345 66.5408C32.9123 67.4329 33.2567 68.4524 33.3459 69.5357C33.4925 71.3008 32.9442 73.0214 31.797 74.3723L11.9683 97.8158C10.7063 99.3069 8.8578 100.167 6.90105 100.167C5.33311 100.167 3.81602 99.6128 2.61775 98.5996C1.26652 97.4526 0.437996 95.8532 0.291397 94.0881C0.144798 92.323 0.693054 90.6025 1.84033 89.2515L1.83379 89.2388ZM60.4723 61.3792C76.2474 61.3792 89.0842 48.5455 89.0842 32.7741C89.0842 17.0028 76.2474 4.16904 60.4723 4.16904C44.6973 4.16904 31.8608 17.0028 31.8608 32.7741C31.8608 48.5455 44.6973 61.3792 60.4723 61.3792ZM5.19931 95.5346C5.67735 95.936 6.27643 96.1591 6.90105 96.1591C7.67865 96.1591 8.41174 95.8214 8.91526 95.2287L28.7439 71.7915C29.1965 71.2562 29.4195 70.5744 29.3558 69.8671C29.2984 69.1661 28.9669 68.5289 28.4314 68.0765C27.9343 67.6559 27.3352 67.452 26.7297 67.452C25.984 67.452 25.2385 67.7706 24.7158 68.3824L4.88685 91.8259C4.43431 92.3612 4.21126 93.043 4.27499 93.7503C4.33236 94.4513 4.66392 95.0885 5.19931 95.541V95.5346Z" fill="#F04C50"/>
</svg>
