<svg width="70" height="70" viewBox="0 0 101 101" fill="none" xmlns="http://www.w3.org/2000/svg">
<path d="M21.8772 47.2773H34.8594C37.1452 47.2773 39.0052 45.4173 39.0052 43.1308V28.7761C39.0052 26.4903 37.1452 24.6303 34.8594 24.6303H21.8772C19.5914 24.6303 17.7314 26.4903 17.7314 28.7761V43.1308C17.7314 45.4173 19.5914 47.2773 21.8772 47.2773ZM20.8564 28.7761C20.8564 28.2229 21.3233 27.7553 21.8772 27.7553H34.8594C35.4133 27.7553 35.8802 28.2229 35.8802 28.7761V43.1308C35.8802 43.6847 35.4133 44.1523 34.8594 44.1523H21.8772C21.3233 44.1523 20.8564 43.6847 20.8564 43.1308V28.7761Z" fill="#F04C50"/>
<path d="M44.3672 28.471H61.7622C62.6258 28.471 63.3247 27.7713 63.3247 26.9085C63.3247 26.0457 62.6258 25.346 61.7622 25.346H44.3672C43.5036 25.346 42.8047 26.0457 42.8047 26.9085C42.8047 27.7713 43.5036 28.471 44.3672 28.471Z" fill="#F04C50"/>
<path d="M44.3672 37.8742H61.7622C62.6258 37.8742 63.3247 37.1745 63.3247 36.3117C63.3247 35.4489 62.6258 34.7492 61.7622 34.7492H44.3672C43.5036 34.7492 42.8047 35.4489 42.8047 36.3117C42.8047 37.1745 43.5036 37.8742 44.3672 37.8742Z" fill="#F04C50"/>
<path d="M97.9847 89.1636L88.75 77.3517C88.338 76.8237 87.7444 76.4881 87.0777 76.4064C86.4078 76.3248 85.7517 76.5064 85.2253 76.919L83.8714 77.9783L82.0484 75.6489C85.6516 71.9439 87.7353 67.1125 87.9019 61.912C88.0805 56.3845 86.0952 51.1203 82.3127 47.0873C79.1534 43.7201 75.1208 41.6694 70.8914 40.9098V15.6687C70.8914 13.0603 68.7689 10.9386 66.1613 10.9386H62.8516V7.9128C62.8516 5.30437 60.7291 3.18265 58.1214 3.18265H6.37078C3.76312 3.18249 1.64062 5.30421 1.64062 7.9128V75.0553C1.64062 77.6637 3.76312 79.7855 6.37078 79.7855H9.68047V82.8166C9.68047 85.422 11.803 87.5414 14.4106 87.5414H66.1609C68.7686 87.5414 70.8911 85.422 70.8911 82.8166V81.6159C74.0927 81.0445 77.1003 79.7197 79.7128 77.7336L81.4108 79.903L80.0523 80.9656C78.9644 81.8162 78.7691 83.394 79.6205 84.485L88.8613 96.299C89.3556 96.9292 90.0942 97.2595 90.8403 97.2589C91.3789 97.2589 91.9238 97.0858 92.38 96.7286L97.5513 92.6826C98.6408 91.8323 98.8361 90.2537 97.9847 89.1636ZM6.37078 76.6605C5.48578 76.6605 4.76562 75.9403 4.76562 75.0553V7.9128C4.76562 7.0278 5.48578 6.30749 6.37078 6.30749H58.1209C59.0059 6.30749 59.7261 7.02765 59.7261 7.91265V10.9384H14.4108C11.8031 10.9384 9.68062 13.0601 9.68062 15.6686V76.6603L6.37078 76.6605ZM67.7661 82.8166C67.7661 83.6986 67.0459 84.4164 66.1609 84.4164H14.4108C13.5258 84.4164 12.8056 83.6984 12.8056 82.8166V15.6687C12.8056 14.7837 13.5258 14.0636 14.4108 14.0636H66.1609C67.0459 14.0636 67.7661 14.7837 67.7661 15.6687V40.5705C63.5205 40.4562 59.25 41.6573 55.5836 44.1523H44.3667C43.5031 44.1523 42.8042 44.852 42.8042 45.7148C42.8042 46.5776 43.5031 47.2773 44.3667 47.2773H51.9528C50.2264 49.1609 48.9045 51.29 48.0028 53.5556H19.2934C18.4298 53.5556 17.7309 54.2553 17.7309 55.1181C17.7309 55.9809 18.4298 56.6806 19.2934 56.6806H47.0466C46.5847 58.7412 46.4456 60.8581 46.6195 62.9589H19.2936C18.43 62.9589 17.7311 63.6586 17.7311 64.5214C17.7311 65.3842 18.43 66.0839 19.2936 66.0839H47.1138C47.6383 68.2741 48.513 70.3997 49.7631 72.3614H19.2936C18.43 72.3614 17.7311 73.0611 17.7311 73.9239C17.7311 74.7867 18.43 75.4864 19.2936 75.4864H52.1942C55.9692 79.4686 61.0594 81.7612 66.5486 81.9378C66.9595 81.9501 67.3545 81.9339 67.7663 81.9234C67.7661 82.2211 67.7661 82.5187 67.7661 82.8166ZM66.6492 78.8142C61.9572 78.6631 57.6037 76.6948 54.3933 73.2706C47.7633 66.202 48.1219 55.0576 55.1898 48.4278C58.4736 45.3486 62.7186 43.6723 67.1984 43.6723C67.3906 43.6723 67.583 43.6755 67.7767 43.6816C72.4687 43.8326 76.8222 45.8009 80.0327 49.2251C86.6627 56.2937 86.3041 67.4381 79.2347 74.068C75.812 77.28 71.3641 78.9569 66.6492 78.8142ZM90.9411 93.8861L82.4633 83.047L86.6656 79.7595L95.1419 90.6009L90.9411 93.8861Z" fill="#F04C50"/>
<path d="M77.4465 51.6498C72.1533 46.0094 63.2605 45.7256 57.6208 51.0158C51.9765 56.3037 51.6912 65.2003 56.9814 70.8469C59.7372 73.7842 63.4725 75.2689 67.2155 75.2689C70.6578 75.2689 74.1078 74.0139 76.8133 71.4801C82.4515 66.189 82.7353 57.2933 77.4465 51.6498ZM74.6756 69.2005C70.2872 73.315 63.3734 73.0922 59.2612 68.7098C55.149 64.3206 55.3717 57.4061 59.7572 53.2955C61.8569 51.3248 64.5378 50.3497 67.2126 50.3497C70.1209 50.3497 73.0247 51.504 75.167 53.7867C79.2776 58.1737 79.0564 65.0889 74.6756 69.2005Z" fill="#F04C50"/>
<path d="M75.5481 59.3837C74.5715 54.9045 70.1297 52.058 65.6497 53.0338C64.8059 53.2177 64.2718 54.05 64.455 54.893C64.6397 55.7353 65.4742 56.2678 66.315 56.087C69.1272 55.4783 71.8859 57.2566 72.4964 60.0505C72.6551 60.7814 73.302 61.2803 74.0208 61.2795C74.1306 61.2795 74.2436 61.2681 74.355 61.2437C75.1986 61.0598 75.7326 60.2267 75.5481 59.3837Z" fill="#F04C50"/>
</svg>
