<svg width="70" height="70" viewBox="0 0 111 111" fill="none" xmlns="http://www.w3.org/2000/svg">
<g clip-path="url(#clip0_2_266)">
<path d="M39.9807 30.6259C39.2515 30.1156 38.2467 30.2935 37.7369 31.0231L32.6163 38.3469L29.2971 35.3969C28.632 34.8055 27.6134 34.8656 27.0224 35.5308C26.4311 36.1959 26.4911 37.2143 27.1562 37.8055L30.6885 40.9453C32.0216 42.1303 34.0809 41.8764 35.0939 40.4277L40.3781 32.8699C40.888 32.1405 40.7101 31.1357 39.9807 30.6259Z" fill="#F04C50"/>
<path d="M39.9803 54.164C39.2512 53.6539 38.2463 53.8316 37.7365 54.5612L32.6159 61.8852L29.297 58.935C28.6319 58.3433 27.6133 58.4037 27.0223 59.0688C26.431 59.734 26.491 60.7524 27.1561 61.3436L30.6886 64.4838C32.0223 65.6688 34.081 65.4138 35.0935 63.966L40.3778 56.408C40.8876 55.6784 40.7097 54.6738 39.9803 54.164Z" fill="#F04C50"/>
<path d="M39.9807 77.3862C39.2515 76.8762 38.2467 77.0538 37.7369 77.7834L32.6163 85.1073L29.2971 82.1572C28.632 81.5658 27.6134 81.6259 27.0224 82.2911C26.4311 82.9562 26.4911 83.9746 27.1562 84.5659L30.6885 87.7056C32.0216 88.8907 34.0809 88.6365 35.0939 87.188L40.3781 79.6302C40.888 78.9009 40.7101 77.896 39.9807 77.3862Z" fill="#F04C50"/>
<path d="M71.1741 31.1817H48.4023C47.5125 31.1817 46.791 31.9029 46.791 32.793C46.791 33.6831 47.5125 34.4043 48.4023 34.4043H71.1739C72.0639 34.4043 72.7852 33.6831 72.7852 32.793C72.7852 31.9029 72.0639 31.1817 71.1741 31.1817Z" fill="#F04C50"/>
<path d="M71.1741 38.3427H48.4023C47.5125 38.3427 46.791 39.0639 46.791 39.954C46.791 40.8441 47.5125 41.5653 48.4023 41.5653H71.1739C72.0639 41.5653 72.7852 40.8441 72.7852 39.954C72.7852 39.0639 72.0639 38.3427 71.1741 38.3427Z" fill="#F04C50"/>
<path d="M72.7854 55.8148C72.7854 54.9247 72.0642 54.2035 71.1741 54.2035H48.4023C47.5125 54.2035 46.791 54.9247 46.791 55.8148C46.791 56.7049 47.5125 57.4261 48.4023 57.4261H71.1739C72.0639 57.4261 72.7854 56.7049 72.7854 55.8148Z" fill="#F04C50"/>
<path d="M48.4023 61.3644C47.5125 61.3644 46.791 62.0857 46.791 62.9758C46.791 63.8659 47.5125 64.5871 48.4023 64.5871H59.788C60.6781 64.5871 61.3993 63.8659 61.3993 62.9758C61.3993 62.0857 60.6781 61.3644 59.788 61.3644H48.4023Z" fill="#F04C50"/>
<path d="M100.578 33.8947C97.7423 31.6221 93.6091 32.0782 91.3372 34.9131C89.7097 36.9436 51.8482 84.1832 48.8864 87.8785C48.6821 88.1331 48.9919 87.6132 43.3544 98.9049H20.3436C19.9431 98.9049 19.6174 98.5792 19.6174 98.179V16.8334H30.2549V17.92C30.2549 20.1527 32.0714 21.969 34.3039 21.969H65.0966C67.3295 21.969 69.1457 20.1527 69.1457 17.92V16.8334H79.7833V41.454C79.7833 42.3441 80.5045 43.0653 81.3946 43.0653C82.2847 43.0653 83.006 42.3441 83.006 41.454V16.8334H85.522C86.5874 16.8334 87.4543 17.7002 87.4543 18.7657V31.8597C87.4543 32.7498 88.1755 33.4711 89.0656 33.4711C89.9557 33.4711 90.677 32.7498 90.677 31.8597V18.7657C90.677 15.9233 88.3644 13.6107 85.522 13.6107H68.9498C68.2254 10.666 65.5637 8.47507 62.3988 8.47507H59.298C58.7649 8.47507 58.3312 8.0413 58.3312 7.50828C58.3312 3.81748 55.3287 0.814819 51.6379 0.814819H47.7628C44.0722 0.814819 41.0695 3.81748 41.0695 7.50806C41.0695 8.04109 40.6358 8.47486 40.1027 8.47486H37.0019C33.8368 8.47486 31.1753 10.6658 30.4509 13.6105H13.8785C11.0361 13.6105 8.72351 15.9231 8.72351 18.7654V105.66C8.72351 108.502 11.0361 110.815 13.8785 110.815H85.5218C88.3642 110.815 90.6767 108.502 90.6767 105.66V64.6056C90.6767 63.7155 89.9555 62.9942 89.0654 62.9942C88.1753 62.9942 87.4541 63.7155 87.4541 64.6056V105.66C87.4541 106.725 86.5872 107.592 85.5218 107.592H13.8785C12.8131 107.592 11.9462 106.725 11.9462 105.66V18.7657C11.9462 17.7002 12.8131 16.8334 13.8785 16.8334H16.3947V98.1792C16.3947 100.356 18.1661 102.128 20.3436 102.128H42.5354C42.6768 103.066 43.1561 103.95 43.9319 104.572C45.3376 105.699 47.3763 105.696 48.7796 104.558L51.7748 102.128H79.0571C81.2346 102.128 83.006 100.356 83.006 98.1792V74.1571C83.006 73.267 82.2847 72.5458 81.3946 72.5458C80.5045 72.5458 79.7833 73.267 79.7833 74.1571V98.1792C79.7833 98.5795 79.4574 98.9052 79.0571 98.9052H55.7489C59.0749 96.19 58.9551 96.3386 59.1456 96.1012C62.1088 92.4042 99.9705 45.1644 101.597 43.1356C103.863 40.3067 103.407 36.1613 100.578 33.8947ZM33.4776 15.222C33.4776 13.2788 35.0586 11.6977 37.0019 11.6977H40.1027C42.4127 11.6977 44.2922 9.81828 44.2922 7.50828C44.2922 5.59466 45.8492 4.03769 47.7628 4.03769H51.6379C53.5517 4.03769 55.1085 5.59466 55.1085 7.50828C55.1085 9.81828 56.988 11.6977 59.298 11.6977H62.3988C64.3421 11.6977 65.9231 13.2788 65.9231 15.222V17.92C65.9231 18.3755 65.5523 18.7463 65.0966 18.7463H34.3039C33.8482 18.7463 33.4776 18.3755 33.4776 17.92V15.222ZM46.7494 102.055C46.5173 102.243 46.1802 102.244 45.9473 102.058C45.7145 101.871 45.6418 101.541 45.7748 101.274L50.7319 91.3199L55.385 95.0494L46.7494 102.055ZM57.689 92.7656L52.4593 88.574L86.9503 45.5397L92.18 49.7313L57.689 92.7656ZM99.0819 41.1201L94.1955 47.2168L88.9657 43.0249L93.8519 36.9285C95.0119 35.4814 97.1203 35.2534 98.5628 36.4095C100.005 37.5649 100.238 39.6781 99.0819 41.1201Z" fill="#F04C50"/>
</g>
<defs>
<clipPath id="clip0_2_266">
<rect width="110" height="110" fill="white" transform="translate(0.880859 0.814819)"/>
</clipPath>
</defs>
</svg>
