<svg width="70" height="70" viewBox="0 0 92 111" fill="none" xmlns="http://www.w3.org/2000/svg">
<path d="M33.7545 34.5509C43.3574 20.9747 53.394 12.9841 61.4916 8.3185C76.2606 -0.184684 87.7761 0.117619 88.2625 0.130761L89.531 0.176724L89.932 1.37927C90.0832 1.83926 93.6128 12.8132 89.6034 29.3662C87.4015 38.4476 82.5572 50.3219 72.2248 63.3526L64.2127 100.447L56.424 99.4813L49.4108 85.8657C47.5375 87.3574 45.592 88.849 43.5479 90.3472L42.4569 91.149L15.4493 70.9227L15.9094 69.6545C16.7704 67.2757 17.6577 64.9823 18.5582 62.7678L3.51979 59.8633L0.397725 52.6612L33.748 34.5443L33.7545 34.5509ZM58.7901 96.1036L61.3536 96.4191L67.2165 69.2799C63.0099 73.9389 58.0804 78.7096 52.3095 83.5198L58.7967 96.1036H58.7901ZM42.4766 86.6082C72.0541 64.6077 82.4719 43.0475 85.9949 28.7682C89.0644 16.3091 87.5527 7.0897 86.8034 3.82379C83.4578 4.02093 74.1836 5.16432 63.0887 11.6173C50.3704 19.0099 32.6042 35.07 19.807 69.6347L42.4766 86.6148V86.6082ZM6.10285 56.6499L20.0108 59.3376C23.0014 52.4444 26.1959 46.3726 29.4822 41.0301L5.07745 54.2843L6.10285 56.6499Z" fill="#F04C50"/>
<path d="M13.9712 78.0394C14.5759 77.2311 15.7195 77.0669 16.5279 77.6714C17.3364 78.276 17.5007 79.4194 16.896 80.2276L8.3646 91.609C8.00309 92.0887 7.45757 92.3384 6.90546 92.3384C6.52424 92.3384 6.14308 92.2201 5.81444 91.977C5.00599 91.3725 4.84163 90.229 5.44632 89.4208L13.9778 78.0328L13.9712 78.0394Z" fill="#F04C50"/>
<path d="M33.6342 92.7721C34.2389 91.9638 35.3827 91.7995 36.1911 92.404C36.9996 93.0086 37.1639 94.152 36.5592 94.9603L28.0276 106.348C27.6661 106.828 27.1206 107.078 26.5619 107.078C26.1807 107.078 25.7995 106.959 25.4709 106.716C24.6625 106.112 24.4981 104.968 25.1028 104.16L33.6342 92.7787V92.7721Z" fill="#F04C50"/>
<path d="M23.5457 85.2152C24.1504 84.4069 25.294 84.2426 26.1025 84.8472C26.9109 85.4517 27.0753 86.5951 26.4706 87.4034L9.99258 109.397C9.63108 109.877 9.08555 110.127 8.52687 110.127C8.14564 110.127 7.76448 110.008 7.43584 109.765C6.62739 109.161 6.46303 108.017 7.06773 107.209L23.5457 85.2152Z" fill="#F04C50"/>
<path d="M54.6761 56.6368C54.9981 58.8644 54.4263 61.0855 53.0789 62.8861C51.7315 64.6866 49.7597 65.8562 47.5315 66.1782C47.124 66.2374 46.7164 66.2636 46.3155 66.2636C44.508 66.2636 42.7531 65.6854 41.2808 64.5814C37.5606 61.7952 36.7981 56.5053 39.585 52.786C42.3719 49.0667 47.6629 48.3045 51.3831 51.0907C53.184 52.4378 54.354 54.4092 54.6761 56.6368ZM51.0676 57.1559C50.8836 55.8942 50.2264 54.7771 49.201 54.0083C48.3466 53.3643 47.3409 53.0555 46.3418 53.0555C44.8892 53.0555 43.4498 53.7191 42.5099 54.9677C40.9324 57.077 41.3596 60.0735 43.4694 61.6572C44.4882 62.4195 45.7503 62.7415 47.0123 62.564C48.2742 62.38 49.3916 61.7229 50.1606 60.6978C50.9231 59.6793 51.2451 58.4176 51.0676 57.1559Z" fill="#F04C50"/>
</svg>
