<?xml version="1.0" encoding="UTF-8"?>
<svg version="1.1" xmlns="http://www.w3.org/2000/svg" width="295" height="85">
<path d="M0 0 C2.33212027 0.07522969 4.6685311 0.09325876 7 0 C7 0.66 7 1.32 7 2 C9.64 2.66 12.28 3.32 15 4 C15 4.66 15 5.32 15 6 C15.5775 6.28875 16.155 6.5775 16.75 6.875 C17.4925 7.24625 18.235 7.6175 19 8 C19.66 8.2475 20.32 8.495 21 8.75 C23.93876243 10.58672652 25.27600149 13.04457398 27 16 C27 16.66 27 17.32 27 18 C27.66 18 28.32 18 29 18 C29.20496094 18.91523438 29.40992187 19.83046875 29.62109375 20.7734375 C29.89050781 21.96195313 30.15992187 23.15046875 30.4375 24.375 C30.70433594 25.55835937 30.97117187 26.74171875 31.24609375 27.9609375 C31.85634695 30.89494581 31.85634695 30.89494581 33 33 C33.74818446 40.78111836 31.31142595 47.65296753 29 55 C28.34 55 27.68 55 27 55 C26.7525 55.556875 26.505 56.11375 26.25 56.6875 C23.09250789 62.5288604 18.58810542 66.52691456 13 70 C10.1875 70.75 10.1875 70.75 8 71 C7.01 71.66 6.02 72.32 5 73 C2.08203125 72.9765625 2.08203125 72.9765625 -1.1875 72.625 C-2.27417969 72.51414062 -3.36085937 72.40328125 -4.48046875 72.2890625 C-5.31191406 72.19367188 -6.14335938 72.09828125 -7 72 C-7 72.66 -7 73.32 -7 74 C-14.1091341 73.55023845 -19.51176067 71.5361928 -25.4375 67.75 C-26.02805176 67.3794751 -26.61860352 67.0089502 -27.22705078 66.62719727 C-31.20351798 63.96427267 -33.6621266 61.15877234 -36 57 C-36 56.34 -36 55.68 -36 55 C-36.66 55 -37.32 55 -38 55 C-41.97094963 44.16105573 -43.27152689 33.16167996 -40 22 C-39.34 22 -38.68 22 -38 22 C-37.90976562 21.44183594 -37.81953125 20.88367188 -37.7265625 20.30859375 C-35.4222682 12.98688443 -28.46281154 6.76018126 -22 3 C-19.69011685 2.25613932 -17.35684056 1.57809297 -15 1 C-14.29875 0.649375 -13.5975 0.29875 -12.875 -0.0625 C-7.93828794 -2.53085603 -5.06754984 -1.72296695 0 0 Z M-8 5 C-8 6.32 -8 7.64 -8 9 C-7.01 8.67 -6.02 8.34 -5 8 C-5 7.01 -5 6.02 -5 5 C-5.99 5 -6.98 5 -8 5 Z M-2 7 C-1 9 -1 9 -1 9 Z M2 7 C2.33 7.99 2.66 8.98 3 10 C4.32 9.01 5.64 8.02 7 7 C5.35 7 3.7 7 2 7 Z M-15 8 C-15.66 9.32 -16.32 10.64 -17 12 C-15.515 12.99 -15.515 12.99 -14 14 C-13.67 12.02 -13.34 10.04 -13 8 C-13.66 8 -14.32 8 -15 8 Z M8 8 C8 8.99 8 9.98 8 11 C9.32 10.67 10.64 10.34 12 10 C11.67 9.34 11.34 8.68 11 8 C10.01 8 9.02 8 8 8 Z M-11 9 C-11.33 10.32 -11.66 11.64 -12 13 C-11.01 12.67 -10.02 12.34 -9 12 C-9.33 11.01 -9.66 10.02 -10 9 C-10.33 9 -10.66 9 -11 9 Z M-6 11 C-6 11.66 -6 12.32 -6 13 C-5.34 12.67 -4.68 12.34 -4 12 C-4.66 11.67 -5.32 11.34 -6 11 Z M-22 12 C-21 14 -21 14 -21 14 Z M11 13 C11 13.66 11 14.32 11 15 C11.66 15 12.32 15 13 15 C13 14.34 13 13.68 13 13 C12.34 13 11.68 13 11 13 Z M15 13 C15 13.99 15 14.98 15 16 C15.99 15.67 16.98 15.34 18 15 C17.01 14.34 16.02 13.68 15 13 Z M-3 14 C-3.33 14.66 -3.66 15.32 -4 16 C-3.34 16 -2.68 16 -2 16 C-2.33 15.34 -2.66 14.68 -3 14 Z M-1 14 C-1 14.99 -1 15.98 -1 17 C-0.01 16.67 0.98 16.34 2 16 C1.01 15.34 0.02 14.68 -1 14 Z M-11 15 C-7 16 -7 16 -7 16 Z M8 16 C7.67 16.66 7.34 17.32 7 18 C8.98 18.66 10.96 19.32 13 20 C13 18.68 13 17.36 13 16 C11.35 16 9.7 16 8 16 Z M15 17 C15.33 17.66 15.66 18.32 16 19 C16.33 18.34 16.66 17.68 17 17 C16.34 17 15.68 17 15 17 Z M-24 18 C-24 18.99 -24 19.98 -24 21 C-23.34 21.33 -22.68 21.66 -22 22 C-21.67 20.68 -21.34 19.36 -21 18 C-21.99 18 -22.98 18 -24 18 Z M-4 18 C-3 20 -3 20 -3 20 Z M19 18 C19 18.99 19 19.98 19 21 C19.99 20.34 20.98 19.68 22 19 C21.01 18.67 20.02 18.34 19 18 Z M-19 19 C-18.67 19.99 -18.34 20.98 -18 22 C-18 21.01 -18 20.02 -18 19 C-18.33 19 -18.66 19 -19 19 Z M-2 19 C-2 19.66 -2 20.32 -2 21 C-1.01 20.67 -0.02 20.34 1 20 C0.01 19.67 -0.98 19.34 -2 19 Z M-14 21 C-13.01 22.485 -13.01 22.485 -12 24 C-11.34 23.67 -10.68 23.34 -10 23 C-10.33 22.34 -10.66 21.68 -11 21 C-11.99 21 -12.98 21 -14 21 Z M5 21 C5 21.66 5 22.32 5 23 C5.66 22.67 6.32 22.34 7 22 C6.34 21.67 5.68 21.34 5 21 Z M-30 22 C-29 24 -29 24 -29 24 Z M-26 22 C-26 22.66 -26 23.32 -26 24 C-25.34 23.67 -24.68 23.34 -24 23 C-24.66 22.67 -25.32 22.34 -26 22 Z M-16 22 C-16.33 22.66 -16.66 23.32 -17 24 C-16.01 23.67 -15.02 23.34 -14 23 C-14.66 22.67 -15.32 22.34 -16 22 Z M24 22 C25 24 25 24 25 24 Z M-1 23 C-2.00217064 26.58327753 -2.00217064 26.58327753 -1 30 C-0.34 30 0.32 30 1 30 C1.33 27.69 1.66 25.38 2 23 C1.01 23 0.02 23 -1 23 Z M4 24 C3.67 25.65 3.34 27.3 3 29 C6.72614153 27.88145414 6.72614153 27.88145414 9 25 C7.35 24.67 5.7 24.34 4 24 Z M17 25 C17 25.66 17 26.32 17 27 C19.97 27.495 19.97 27.495 23 28 C23 27.34 23 26.68 23 26 C20.03 25.505 20.03 25.505 17 25 Z M-32 26 C-31.67 26.99 -31.34 27.98 -31 29 C-30.34 29 -29.68 29 -29 29 C-29 28.01 -29 27.02 -29 26 C-29.99 26 -30.98 26 -32 26 Z M-18 26 C-18 26.66 -18 27.32 -18 28 C-15.36 28.33 -12.72 28.66 -10 29 C-10.33 28.01 -10.66 27.02 -11 26 C-13.31 26 -15.62 26 -18 26 Z M-5 26 C-4 28 -4 28 -4 28 Z M-25 28 C-25.99 28.495 -25.99 28.495 -27 29 C-26.67 30.65 -26.34 32.3 -26 34 C-24.89163577 32.11683841 -24.89163577 32.11683841 -24 30 C-24.33 29.34 -24.66 28.68 -25 28 Z M-19 29 C-18.67 30.65 -18.34 32.3 -18 34 C-16.68 33.67 -15.36 33.34 -14 33 C-14 32.01 -14 31.02 -14 30 C-15.65 29.67 -17.3 29.34 -19 29 Z M8 29 C7.67 29.99 7.34 30.98 7 32 C4.9375 33.1875 4.9375 33.1875 3 34 C4.2488427 35.5833253 4.2488427 35.5833253 6 37 C7.32 37 8.64 37 10 37 C10.33 34.36 10.66 31.72 11 29 C10.01 29 9.02 29 8 29 Z M18 29 C18 30.65 18 32.3 18 34 C18.99 33.34 19.98 32.68 21 32 C21 31.34 21 30.68 21 30 C20.01 29.67 19.02 29.34 18 29 Z M-23 30 C-23 31.98 -23 33.96 -23 36 C-22.34 36 -21.68 36 -21 36 C-21 34.35 -21 32.7 -21 31 C-21.66 30.67 -22.32 30.34 -23 30 Z M-32 32 C-31.65772428 34.97065509 -31.65772428 34.97065509 -31 38 C-30.34 38.33 -29.68 38.66 -29 39 C-29 36.69 -29 34.38 -29 32 C-29.99 32 -30.98 32 -32 32 Z M27 32 C27.33 32.99 27.66 33.98 28 35 C28.33 34.01 28.66 33.02 29 32 C28.34 32 27.68 32 27 32 Z M12 34 C12.33 35.32 12.66 36.64 13 38 C13.66 37.01 14.32 36.02 15 35 C14.01 34.67 13.02 34.34 12 34 Z M25 34 C26 36 26 36 26 36 Z M-27 35 C-26 38 -26 38 -26 38 Z M-14 35 C-14.33 35.66 -14.66 36.32 -15 37 C-13.68 36.67 -12.36 36.34 -11 36 C-11.99 35.67 -12.98 35.34 -14 35 Z M-6 34 C-6.99 34.99 -7.98 35.98 -9 37 C-7.68 36.67 -6.36 36.34 -5 36 C-5.33 35.34 -5.66 34.68 -6 34 Z M21 35 C22 37 22 37 22 37 Z M23 35 C24 37 24 37 24 37 Z M-40 37 C-39 39 -39 39 -39 39 Z M-36 37 C-36 38.32 -36 39.64 -36 41 C-35.01 40.67 -34.02 40.34 -33 40 C-33.33 39.01 -33.66 38.02 -34 37 C-34.66 37 -35.32 37 -36 37 Z M27 37 C28 39 28 39 28 39 Z M1 38 C1.66 40.31 2.32 42.62 3 45 C5.0162233 44.28436734 5.0162233 44.28436734 7 43 C7.80528889 40.94999129 7.80528889 40.94999129 8 39 C5.69 38.67 3.38 38.34 1 38 Z M-13 39 C-11.02 41.31 -9.04 43.62 -7 46 C-6.34 45.67 -5.68 45.34 -5 45 C-4.59270772 42.67843403 -4.25561323 40.3431213 -4 38 C-7.27275026 38 -9.846632 38.29925156 -13 39 Z M24 38 C23.01 38.495 23.01 38.495 22 39 C22 39.66 22 40.32 22 41 C22.99 40.67 23.98 40.34 25 40 C24.67 39.34 24.34 38.68 24 38 Z M-15 40 C-15.44160248 43.8308053 -15.44160248 43.8308053 -13.6875 45.484375 C-13.130625 45.90203125 -12.57375 46.3196875 -12 46.75 C-11.01 47.4925 -10.02 48.235 -9 49 C-8.34 48.67 -7.68 48.34 -7 48 C-8.14239817 46.66372225 -9.28901055 45.33104612 -10.4375 44 C-11.39462891 42.88625 -11.39462891 42.88625 -12.37109375 41.75 C-12.90863281 41.1725 -13.44617188 40.595 -14 40 C-14.33 40 -14.66 40 -15 40 Z M-1 40 C-1.33 40.33 -1.66 40.66 -2 41 C-1.91036938 42.69141656 -1.75422324 44.37959602 -1.5625 46.0625 C-1.46066406 46.98160156 -1.35882813 47.90070312 -1.25390625 48.84765625 C-1.17011719 49.55792969 -1.08632813 50.26820312 -1 51 C-0.01 50.34 0.98 49.68 2 49 C1.34 46.03 0.68 43.06 0 40 C-0.33 40 -0.66 40 -1 40 Z M11 41 C11.66 42.32 12.32 43.64 13 45 C13.99 43.68 14.98 42.36 16 41 C14.35 41 12.7 41 11 41 Z M-30 43 C-29 45 -29 45 -29 45 Z M-19 43 C-18.67 45.31 -18.34 47.62 -18 50 C-17.67 50 -17.34 50 -17 50 C-17 48.02 -17 46.04 -17 44 C-17.66 43.67 -18.32 43.34 -19 43 Z M9 43 C8.67 44.98 8.34 46.96 8 49 C8.66 48.67 9.32 48.34 10 48 C10 46.35 10 44.7 10 43 C9.67 43 9.34 43 9 43 Z M-22 44 C-22.33 44.99 -22.66 45.98 -23 47 C-22.01 47.33 -21.02 47.66 -20 48 C-20.66 46.68 -21.32 45.36 -22 44 Z M22 44 C22.99 45.485 22.99 45.485 24 47 C24 46.01 24 45.02 24 44 C23.34 44 22.68 44 22 44 Z M-35 45 C-34.01 45.99 -33.02 46.98 -32 48 C-32 47.01 -32 46.02 -32 45 C-32.99 45 -33.98 45 -35 45 Z M-4 45 C-4.33 45.99 -4.66 46.98 -5 48 C-4.01 48.99 -3.02 49.98 -2 51 C-2.33 49.02 -2.66 47.04 -3 45 C-3.33 45 -3.66 45 -4 45 Z M13.4375 46.375 C11.77914204 47.88807063 11.77914204 47.88807063 12 50 C13.32 50 14.64 50 16 50 C16 48.35 16 46.7 16 45 C14.77822672 44.88989535 14.77822672 44.88989535 13.4375 46.375 Z M-30 46 C-29.67 47.32 -29.34 48.64 -29 50 C-28.67 48.68 -28.34 47.36 -28 46 C-28.66 46 -29.32 46 -30 46 Z M-16 46 C-15.67 47.65 -15.34 49.3 -15 51 C-13.35 51 -11.7 51 -10 51 C-10.66 50.01 -11.32 49.02 -12 48 C-12.66 48 -13.32 48 -14 48 C-14 47.34 -14 46.68 -14 46 C-14.66 46 -15.32 46 -16 46 Z M20 46 C20 46.66 20 47.32 20 48 C20.66 47.67 21.32 47.34 22 47 C21.34 46.67 20.68 46.34 20 46 Z M5 47 C5 50 5 50 5 50 Z M-24 48 C-24 49.32 -24 50.64 -24 52 C-22.68 51.34 -21.36 50.68 -20 50 C-21.32 49.34 -22.64 48.68 -24 48 Z M20 50 C20 50.99 20 51.98 20 53 C20.66 53 21.32 53 22 53 C22.33 52.01 22.66 51.02 23 50 C22.01 50 21.02 50 20 50 Z M12 51 C12 51.66 12 52.32 12 53 C12.99 53 13.98 53 15 53 C15 52.34 15 51.68 15 51 C14.01 51 13.02 51 12 51 Z M17 51 C18 53 18 53 18 53 Z M-20 53 C-20.33 53.66 -20.66 54.32 -21 55 C-20.34 55 -19.68 55 -19 55 C-19.33 54.34 -19.66 53.68 -20 53 Z M-15 53 C-14.67 54.65 -14.34 56.3 -14 58 C-12.02 58.495 -12.02 58.495 -10 59 C-9.67 57.35 -9.34 55.7 -9 54 C-11.97 53.505 -11.97 53.505 -15 53 Z M-7 54 C-7.33 55.65 -7.66 57.3 -8 59 C-7.01 58.01 -6.02 57.02 -5 56 C-5.66 55.34 -6.32 54.68 -7 54 Z M16 55 C15.67 55.99 15.34 56.98 15 58 C16.32 57.67 17.64 57.34 19 57 C19 56.34 19 55.68 19 55 C18.01 55 17.02 55 16 55 Z M-23 56 C-22.67 56.99 -22.34 57.98 -22 59 C-22 58.01 -22 57.02 -22 56 C-22.33 56 -22.66 56 -23 56 Z M1 57 C1.33 57.99 1.66 58.98 2 60 C2.33 59.01 2.66 58.02 3 57 C2.34 57 1.68 57 1 57 Z M-20 58 C-20.99 59.485 -20.99 59.485 -22 61 C-20.68 61 -19.36 61 -18 61 C-18 60.01 -18 59.02 -18 58 C-18.66 58 -19.32 58 -20 58 Z M5 58 C5 58.66 5 59.32 5 60 C5.66 60 6.32 60 7 60 C7 59.34 7 58.68 7 58 C6.34 58 5.68 58 5 58 Z M4 61 C4 61.66 4 62.32 4 63 C5.32 63 6.64 63 8 63 C8 62.34 8 61.68 8 61 C6.68 61 5.36 61 4 61 Z M-20 62 C-19.67 62.66 -19.34 63.32 -19 64 C-18.34 64 -17.68 64 -17 64 C-17 63.34 -17 62.68 -17 62 C-17.99 62 -18.98 62 -20 62 Z M-15 62 C-14.67 63.32 -14.34 64.64 -14 66 C-13.34 64.68 -12.68 63.36 -12 62 C-12.99 62 -13.98 62 -15 62 Z M-8 63 C-4 64 -4 64 -4 64 Z M-7 66 C-7.33 66.66 -7.66 67.32 -8 68 C-6.35 67.67 -4.7 67.34 -3 67 C-4.32 66.67 -5.64 66.34 -7 66 Z M3 66 C3.33 66.66 3.66 67.32 4 68 C4.66 68 5.32 68 6 68 C6 67.34 6 66.68 6 66 C5.01 66 4.02 66 3 66 Z M-1 67 C-1.33 67.66 -1.66 68.32 -2 69 C-1.34 69 -0.68 69 0 69 C-0.33 68.34 -0.66 67.68 -1 67 Z " fill="#E32636" transform="translate(47,9)"/>
<path d="M0 0 C1.98 0 3.96 0 6 0 C8.97 6.6 11.94 13.2 15 20 C17.97 13.4 20.94 6.8 24 0 C25.98 0 27.96 0 30 0 C30 9.57 30 19.14 30 29 C28.35 29 26.7 29 25 29 C24.67 24.05 24.34 19.1 24 14 C21.69 18.95 19.38 23.9 17 29 C15.68 29 14.36 29 13 29 C10.69 23.72 8.38 18.44 6 13 C5.67 18.28 5.34 23.56 5 29 C3.35 29 1.7 29 0 29 C0 19.43 0 9.86 0 0 Z " fill="#E32636" transform="translate(258,10)"/>
<path d="M0 0 C2.89935452 2.00193527 4.15699721 3.63182729 5.625 6.8125 C5.625 7.4725 5.625 8.1325 5.625 8.8125 C2.875 9.0625 2.875 9.0625 -0.375 8.8125 C-1.014375 8.1525 -1.65375 7.4925 -2.3125 6.8125 C-4.31851152 4.4473825 -4.31851152 4.4473825 -7.875 4.5 C-10.53156723 4.7371935 -12.84888634 5.00414363 -15.375 5.8125 C-16.93191019 10.48323058 -17.39130752 17.22998291 -15.375 21.8125 C-11.33991832 23.15752723 -7.58042228 23.65510266 -3.375 22.8125 C-0.73655102 19.98392929 -0.73655102 19.98392929 0.625 16.8125 C-2.675 16.8125 -5.975 16.8125 -9.375 16.8125 C-9.375 15.1625 -9.375 13.5125 -9.375 11.8125 C-4.095 11.8125 1.185 11.8125 6.625 11.8125 C6.31156468 18.70807713 5.65824849 22.01335609 0.625 26.8125 C-3.63376812 29.36250314 -7.52714004 29.46651146 -12.375 28.8125 C-16.28090748 27.49303797 -18.84203016 25.53458816 -21.3125 22.1875 C-23.15211119 16.34402917 -23.58278838 10.46946074 -20.75 4.875 C-15.35521911 -2.08142798 -7.95703536 -2.79969763 0 0 Z " fill="#E32636" transform="translate(119.375,52.1875)"/>
<path d="M0 0 C15.625 0 15.625 0 19 3 C19.93943814 5.69802052 20.19667113 8.15405302 20 11 C19.62875 11.721875 19.2575 12.44375 18.875 13.1875 C18.441875 14.0846875 18.441875 14.0846875 18 15 C18.474375 15.78375 18.94875 16.5675 19.4375 17.375 C21 20 21 20 20.875 23.125 C19.9841388 26.05211536 19.43529038 27.22036472 17 29 C11.61483519 30.79505494 5.67646212 30 0 30 C0 20.1 0 10.2 0 0 Z M5 5 C5 7.31 5 9.62 5 12 C9.0100934 12.17864631 9.0100934 12.17864631 13 12 C13.66 11.34 14.32 10.68 15 10 C14.59471099 7.21762345 14.59471099 7.21762345 13 5 C10.32941149 4.85884839 7.67567762 4.95752893 5 5 Z M5 17 C5 19.64 5 22.28 5 25 C6.45792884 25.05399736 7.91642712 25.09279177 9.375 25.125 C10.59316406 25.15980469 10.59316406 25.15980469 11.8359375 25.1953125 C14.21342243 25.21370051 14.21342243 25.21370051 16 23 C15.83492354 20.42459787 15.83492354 20.42459787 15 18 C12.71294169 16.85647084 11.40735238 16.89665561 8.875 16.9375 C6.956875 16.9684375 6.956875 16.9684375 5 17 Z " fill="#E32636" transform="translate(181,51)"/>
<path d="M0 0 C3.00518016 1.70564279 5.07384312 3.69007337 7.3125 6.3125 C7.3125 7.3025 7.3125 8.2925 7.3125 9.3125 C4.5625 9.5625 4.5625 9.5625 1.3125 9.3125 C-0.8125 7.375 -0.8125 7.375 -2.6875 5.3125 C-6.52605845 3.45940282 -9.81871649 5.04770539 -13.6875 6.3125 C-15.41543092 11.49629277 -15.15070272 17.11000145 -13.6875 22.3125 C-8.33935024 24.0395307 -8.33935024 24.0395307 -2.875 23.75 C-0.19454333 21.98855705 0.89112475 20.15525051 2.3125 17.3125 C-0.9875 16.9825 -4.2875 16.6525 -7.6875 16.3125 C-7.6875 14.9925 -7.6875 13.6725 -7.6875 12.3125 C-2.4075 12.3125 2.8725 12.3125 8.3125 12.3125 C8.00020966 19.18288744 7.39622664 22.57539108 2.3125 27.3125 C-1.74999547 29.72803784 -6.06480615 29.87557862 -10.6875 29.3125 C-14.81151714 27.96426363 -16.39406827 26.6908725 -19.0625 23.25 C-21.33847863 18.72673155 -21.46545553 14.25807443 -20.6875 9.3125 C-19.35795405 5.31639279 -17.41738446 2.82673678 -13.9375 0.375 C-9.08669815 -1.21083906 -5.01207729 -1.28215931 0 0 Z " fill="#E32636" transform="translate(117.6875,9.6875)"/>
<path d="M0 0 C3.98561154 2.62688033 6.23980531 5.28191592 7.75 9.8125 C8.26206807 15.95731682 7.68571548 19.95435121 3.75 24.8125 C0.2138321 28.09608448 -2.53176794 29.09288259 -7.25 29.3125 C-11.96823206 29.09288259 -14.7138321 28.09608448 -18.25 24.8125 C-20.90903254 21.45547142 -22.13140757 18.62782294 -22.75 14.375 C-21.99916214 9.02528028 -20.16135345 4.60801384 -16.1875 0.875 C-10.89992686 -2.02463688 -5.53059238 -2.02079337 0 0 Z M-14.25 5.8125 C-16.66767072 9.24403264 -17.26129054 11.16893909 -17.1875 15.375 C-16.14265806 19.20608713 -15.17137294 21.12799513 -12.25 23.8125 C-8.89303816 24.8838708 -6.95464559 25.00914528 -3.5625 24.0625 C-0.4579309 22.42990137 -0.4579309 22.42990137 1.75 19.8125 C2.78345419 15.30959245 3.09823663 12.89817891 1.6875 8.5 C-0.62093784 5.29797332 -2.59362217 4.21281491 -6.25 2.8125 C-9.50206208 2.8125 -11.50684143 4.13301516 -14.25 5.8125 Z " fill="#E32636" transform="translate(168.25,52.1875)"/>
<path d="M0 0 C14.85714286 0 14.85714286 0 18.875 3.75 C20.69738412 7.39476824 20.49084321 10.48656678 19.25 14.3125 C17.66722454 16.44924687 16.53615231 16.47936711 14 17 C14.433125 17.68707031 14.86625 18.37414062 15.3125 19.08203125 C16.1478125 20.43361328 16.1478125 20.43361328 17 21.8125 C17.556875 22.70582031 18.11375 23.59914063 18.6875 24.51953125 C20 27 20 27 20 30 C17.703125 30.2734375 17.703125 30.2734375 15 30 C13.234375 28.1015625 13.234375 28.1015625 11.75 25.625 C11.24984375 24.81289063 10.7496875 24.00078125 10.234375 23.1640625 C9.45391143 21.79578143 8.70445957 20.40891915 8 19 C7.01 18.67 6.02 18.34 5 18 C5 21.96 5 25.92 5 30 C3.35 30 1.7 30 0 30 C0 20.1 0 10.2 0 0 Z M5 4 C5 7.3 5 10.6 5 14 C9.70353479 14.38514787 9.70353479 14.38514787 14 12.8125 C15.21478802 10.97085189 15.21478802 10.97085189 14.9375 8.4375 C14.21733192 5.92087503 14.21733192 5.92087503 12.25 4.6875 C9.59515557 3.75648455 9.59515557 3.75648455 5 4 Z " fill="#E32636" transform="translate(131,9)"/>
<path d="M0 0 C1.65 0 3.3 0 5 0 C5 4.29 5 8.58 5 13 C9.29 13 13.58 13 18 13 C18 8.71 18 4.42 18 0 C20.475 0.495 20.475 0.495 23 1 C23 10.57 23 20.14 23 30 C21.35 30 19.7 30 18 30 C18 25.71 18 21.42 18 17 C13.71 17 9.42 17 5 17 C5 21.29 5 25.58 5 30 C3.35 30 1.7 30 0 30 C0 20.1 0 10.2 0 0 Z " fill="#E32636" transform="translate(202,9)"/>
<path d="M0 0 C1.65 0 3.3 0 5 0 C7.91958841 6.82098531 10.68962152 13.68513698 13.3125 20.625 C13.57885254 21.32367188 13.84520508 22.02234375 14.11962891 22.7421875 C16 27.75980282 16 27.75980282 16 30 C14.35 30 12.7 30 11 30 C10.34 28.02 9.68 26.04 9 24 C5.04 24 1.08 24 -3 24 C-3.66 25.98 -4.32 27.96 -5 30 C-6.65 30 -8.3 30 -10 30 C-9.33372522 26.17736359 -8.26037893 22.68695622 -6.93359375 19.04296875 C-6.53076172 17.93115234 -6.12792969 16.81933594 -5.71289062 15.67382812 C-5.29201172 14.52333984 -4.87113281 13.37285156 -4.4375 12.1875 C-4.01275391 11.01767578 -3.58800781 9.84785156 -3.15039062 8.64257812 C-2.10344692 5.76054207 -1.05321116 2.87975032 0 0 Z M2 9 C1.01 12.3 0.02 15.6 -1 19 C1.64 19 4.28 19 7 19 C6.01 15.7 5.02 12.4 4 9 C3.34 9 2.68 9 2 9 Z " fill="#E32636" transform="translate(214,51)"/>
<path d="M0 0 C1.2065625 0.0309375 1.2065625 0.0309375 2.4375 0.0625 C5.20141306 5.90923917 7.51797143 11.85058824 9.6875 17.9375 C9.95771973 18.68700928 10.22793945 19.43651855 10.50634766 20.20874023 C11.58556594 23.2767045 12.4375 25.78584204 12.4375 29.0625 C10.7875 29.0625 9.1375 29.0625 7.4375 29.0625 C6.7775 26.7525 6.1175 24.4425 5.4375 22.0625 C1.8075 22.3925 -1.8225 22.7225 -5.5625 23.0625 C-6.2225 25.0425 -6.8825 27.0225 -7.5625 29.0625 C-9.2125 29.0625 -10.8625 29.0625 -12.5625 29.0625 C-11.9945809 22.65566264 -9.90412009 17.14798751 -7.5625 11.1875 C-7.00949219 9.74503906 -7.00949219 9.74503906 -6.4453125 8.2734375 C-3.27435259 0.07986226 -3.27435259 0.07986226 0 0 Z M-0.5625 7.0625 C-1.06865298 8.33089526 -1.56719099 9.60233102 -2.0625 10.875 C-2.3409375 11.58269531 -2.619375 12.29039063 -2.90625 13.01953125 C-3.7154162 15.18091216 -3.7154162 15.18091216 -3.5625 18.0625 C-1.2525 18.0625 1.0575 18.0625 3.4375 18.0625 C3.14875 16.804375 2.86 15.54625 2.5625 14.25 C2.40007812 13.54230469 2.23765625 12.83460937 2.0703125 12.10546875 C1.45742277 9.78507026 1.45742277 9.78507026 -0.5625 7.0625 Z " fill="#E32636" transform="translate(241.5625,9.9375)"/>
<path d="M0 0 C3.4203866 1.17013226 3.91540482 1.87310723 6 5 C6 5.99 6 6.98 6 8 C1.74679615 8.35443365 0.32387762 7.49290822 -3 5 C-5.66761764 4.74875174 -5.66761764 4.74875174 -8 5 C-8 6.98 -8 8.96 -8 11 C-7.24074219 11.18175781 -6.48148438 11.36351562 -5.69921875 11.55078125 C-4.70535156 11.80214844 -3.71148437 12.05351562 -2.6875 12.3125 C-1.70136719 12.55613281 -0.71523437 12.79976562 0.30078125 13.05078125 C3.05534167 14.01946169 4.31942533 14.63932656 6 17 C6.64739884 23.79768786 6.64739884 23.79768786 4.6875 27.4375 C1.62782084 30.27053626 -1.87462311 30.39649217 -5.92578125 30.3515625 C-9.72380014 29.70783049 -11.43848541 27.81766605 -14 25 C-14 23.68 -14 22.36 -14 21 C-11.75 20.75 -11.75 20.75 -9 21 C-8.34 21.680625 -7.68 22.36125 -7 23.0625 C-6.34 23.701875 -5.68 24.34125 -5 25 C-2.29294488 24.85974801 -2.29294488 24.85974801 0 24 C0.33 22.35 0.66 20.7 1 19 C-0.12148437 18.76216797 -0.12148437 18.76216797 -1.265625 18.51953125 C-9.27791067 16.62133268 -9.27791067 16.62133268 -12.6875 13.6875 C-14.31507932 10.35483758 -14.76135571 8.6545074 -14 5 C-9.58447498 -0.07785377 -6.59739509 -0.74486719 0 0 Z " fill="#E32636" transform="translate(190,9)"/>
<path d="M0 0 C5.61 0 11.22 0 17 0 C17 1.32 17 2.64 17 4 C13.04 4 9.08 4 5 4 C5 6.97 5 9.94 5 13 C8.3 13 11.6 13 15 13 C15 14.32 15 15.64 15 17 C11.7 17 8.4 17 5 17 C5 19.97 5 22.94 5 26 C8.96 26 12.92 26 17 26 C17 27.32 17 28.64 17 30 C11.39 30 5.78 30 0 30 C0 20.1 0 10.2 0 0 Z " fill="#E32636" transform="translate(156,9)"/>
<path d="M0 0 C1.65 0 3.3 0 5 0 C5 8.58 5 17.16 5 26 C8.3 26 11.6 26 15 26 C15 27.32 15 28.64 15 30 C10.05 30 5.1 30 0 30 C0 20.1 0 10.2 0 0 Z " fill="#E32636" transform="translate(131,51)"/>
<path d="M0 0 C1.32 0 2.64 0 4 0 C4 8.58 4 17.16 4 26 C7.3 26 10.6 26 14 26 C14 27.32 14 28.64 14 30 C9.38 30 4.76 30 0 30 C0 20.1 0 10.2 0 0 Z " fill="#E32636" transform="translate(234,51)"/>
</svg>
